<svg width="21" height="20" viewBox="0 0 21 20" fill="none" xmlns="http://www.w3.org/2000/svg">
<path d="M16.7 4.4H15.5V2.8C15.5 2.58783 15.4157 2.38434 15.2657 2.23431C15.1157 2.08429 14.9122 2 14.7 2C14.4878 2 14.2843 2.08429 14.1343 2.23431C13.9843 2.38434 13.9 2.58783 13.9 2.8V4.4H7.5V2.8C7.5 2.58783 7.41571 2.38434 7.26569 2.23431C7.11566 2.08429 6.91217 2 6.7 2C6.48783 2 6.28434 2.08429 6.13431 2.23431C5.98429 2.38434 5.9 2.58783 5.9 2.8V4.4H4.7C4.38174 4.4 4.07652 4.52643 3.85147 4.75147C3.62643 4.97652 3.5 5.28174 3.5 5.6V16.8C3.5 17.1183 3.62643 17.4235 3.85147 17.6485C4.07652 17.8736 4.38174 18 4.7 18H16.7C17.0183 18 17.3235 17.8736 17.5485 17.6485C17.7736 17.4235 17.9 17.1183 17.9 16.8V5.6C17.9 5.28174 17.7736 4.97652 17.5485 4.75147C17.3235 4.52643 17.0183 4.4 16.7 4.4ZM16.3 6V7.6H5.1V6H16.3ZM5.1 16.4V9.2H16.3V16.4H5.1Z" fill="#16A75C"/>
<path d="M11.4999 10.8H9.8999V12.4H11.4999V10.8Z" fill="#16A75C"/>
<path d="M14.7001 10.8H13.1001V12.4H14.7001V10.8Z" fill="#16A75C"/>
<path d="M8.3002 14H6.7002V15.6H8.3002V14Z" fill="#16A75C"/>
<path d="M11.4999 14H9.8999V15.6H11.4999V14Z" fill="#16A75C"/>
<path d="M14.7001 14H13.1001V15.6H14.7001V14Z" fill="#16A75C"/>
</svg>
