<svg width="18" height="18" viewBox="0 0 18 18" fill="none" xmlns="http://www.w3.org/2000/svg">
<path d="M8.16699 5.33317H8.16716C8.24518 5.33314 8.32073 5.36049 8.38067 5.41043C8.436 5.45654 8.47479 5.51923 8.49146 5.58898L8.50033 5.68868V8.99984V9.49984H9.00033L11.5003 9.49984L11.5012 9.49984C11.5845 9.49968 11.6649 9.53072 11.7264 9.58684C11.788 9.64296 11.8263 9.72009 11.8338 9.80305L12.3318 9.75787L11.8338 9.80305C11.8414 9.88601 11.8175 9.96878 11.7671 10.0351C11.7202 10.0967 11.6534 10.1399 11.5784 10.1576L11.4782 10.1665H8.16699H8.16682C8.08881 10.1665 8.01325 10.1392 7.95332 10.0892C7.89798 10.0431 7.8592 9.98044 7.84252 9.9107L7.83366 9.81099V5.6665C7.83366 5.5781 7.86878 5.49331 7.93129 5.4308C7.9938 5.36829 8.07859 5.33317 8.16699 5.33317ZM9.00033 1.1665C11.0779 1.1665 13.0703 1.9918 14.5393 3.46083C16.0084 4.92987 16.8337 6.92231 16.8337 8.99984C16.8337 11.0774 16.0084 13.0698 14.5393 14.5388C13.0703 16.0079 11.0779 16.8332 9.00033 16.8332C6.9228 16.8332 4.93036 16.0079 3.46132 14.5388C1.99229 13.0698 1.16699 11.0774 1.16699 8.99984C1.16699 6.92231 1.99229 4.92987 3.46132 3.46083C4.93036 1.9918 6.9228 1.1665 9.00033 1.1665ZM9.00033 1.83317C7.09961 1.83317 5.27674 2.58823 3.93273 3.93224C2.58872 5.27625 1.83366 7.09912 1.83366 8.99984C1.83366 10.9006 2.58872 12.7234 3.93273 14.0674C5.27674 15.4114 7.09961 16.1665 9.00033 16.1665C10.901 16.1665 12.7239 15.4114 14.0679 14.0674C15.4119 12.7234 16.167 10.9006 16.167 8.99984C16.167 7.09912 15.4119 5.27625 14.0679 3.93224C12.7239 2.58823 10.901 1.83317 9.00033 1.83317Z" stroke="#16A75C"/>
</svg>
