<svg width="21" height="21" viewBox="0 0 21 21" fill="none" xmlns="http://www.w3.org/2000/svg">
<path d="M8.35901 15.191L7.54901 15.996C7.20968 16.33 6.75264 16.5172 6.27651 16.5172C5.80038 16.5172 5.34334 16.33 5.00401 15.996C4.83857 15.8322 4.70723 15.6372 4.6176 15.4223C4.52798 15.2074 4.48183 14.9768 4.48183 14.744C4.48183 14.5112 4.52798 14.2806 4.6176 14.0657C4.70723 13.8508 4.83857 13.6558 5.00401 13.492L7.98401 10.537C8.60101 9.924 9.76301 9.022 10.61 9.862C10.7012 9.95919 10.811 10.037 10.9328 10.0909C11.0547 10.1447 11.1862 10.1734 11.3195 10.1753C11.4527 10.1772 11.5849 10.1522 11.7083 10.1019C11.8317 10.0516 11.9437 9.9769 12.0375 9.88235C12.1314 9.78779 12.2053 9.67529 12.2548 9.55156C12.3042 9.42783 12.3282 9.29541 12.3254 9.16219C12.3225 9.02897 12.2929 8.8977 12.2382 8.77619C12.1835 8.65469 12.1049 8.54545 12.007 8.455C10.569 7.027 8.44101 7.291 6.58801 9.13L3.60801 12.086C3.2559 12.4331 2.97656 12.847 2.78631 13.3034C2.59606 13.7598 2.49873 14.2495 2.50001 14.744C2.49878 15.2384 2.59614 15.7282 2.78638 16.1846C2.97663 16.6409 3.25595 17.0548 3.60801 17.402C4.31771 18.106 5.27741 18.5 6.27701 18.498C7.24401 18.498 8.21101 18.133 8.94601 17.402L9.75701 16.597C9.8495 16.5055 9.92301 16.3967 9.97334 16.2768C10.0237 16.1568 10.0498 16.0281 10.0503 15.898C10.0507 15.768 10.0255 15.6391 9.97605 15.5188C9.92658 15.3985 9.85384 15.2891 9.76201 15.197C9.57638 15.0109 9.32463 14.9058 9.06175 14.9046C8.79887 14.9035 8.54623 15.0065 8.35901 15.191ZM17.391 3.707C15.844 2.173 13.682 2.09 12.252 3.51L11.243 4.512C11.0566 4.69712 10.9513 4.94872 10.9504 5.21146C10.9494 5.4742 11.0529 5.72655 11.238 5.913C11.4231 6.09945 11.6747 6.20472 11.9375 6.20565C12.2002 6.20659 12.4526 6.10312 12.639 5.918L13.649 4.917C14.389 4.181 15.36 4.486 15.995 5.114C16.331 5.449 16.517 5.893 16.517 6.366C16.517 6.839 16.331 7.283 15.995 7.617L12.815 10.771C11.361 12.212 10.679 11.537 10.388 11.248C10.2957 11.1563 10.1862 11.0838 10.0659 11.0344C9.94548 10.985 9.81657 10.9599 9.68648 10.9603C9.55638 10.9608 9.42765 10.9869 9.30764 11.0371C9.18762 11.0873 9.07867 11.1607 8.98701 11.253C8.89535 11.3453 8.82277 11.4548 8.77341 11.5752C8.72406 11.6955 8.69889 11.8244 8.69936 11.9545C8.69982 12.0846 8.7259 12.2134 8.77612 12.3334C8.82633 12.4534 8.89969 12.5623 8.99201 12.654C9.66001 13.316 10.422 13.644 11.22 13.644C12.197 13.644 13.23 13.152 14.213 12.177L17.393 9.024C17.7444 8.67634 18.0231 8.26234 18.2132 7.80606C18.4032 7.34977 18.5007 6.86028 18.5 6.366C18.5009 5.87136 18.4033 5.3815 18.2129 4.92498C18.0225 4.46845 17.7431 4.05441 17.391 3.707Z" fill="#16A75C"/>
</svg>
