<svg width="16" height="17" viewBox="0 0 16 17" fill="none" xmlns="http://www.w3.org/2000/svg">
<path fill-rule="evenodd" clip-rule="evenodd" d="M1 8.5C1 10.3565 1.7375 12.137 3.05025 13.4497C4.36301 14.7625 6.14348 15.5 8 15.5C9.85652 15.5 11.637 14.7625 12.9497 13.4497C14.2625 12.137 15 10.3565 15 8.5C15 6.64348 14.2625 4.86301 12.9497 3.55025C11.637 2.2375 9.85652 1.5 8 1.5C6.14348 1.5 4.36301 2.2375 3.05025 3.55025C1.7375 4.86301 1 6.64348 1 8.5ZM16 8.5C16 10.6217 15.1571 12.6566 13.6569 14.1569C12.1566 15.6571 10.1217 16.5 8 16.5C5.87827 16.5 3.84344 15.6571 2.34315 14.1569C0.842855 12.6566 0 10.6217 0 8.5C0 6.37827 0.842855 4.34344 2.34315 2.84315C3.84344 1.34285 5.87827 0.5 8 0.5C10.1217 0.5 12.1566 1.34285 13.6569 2.84315C15.1571 4.34344 16 6.37827 16 8.5ZM4.5 8C4.36739 8 4.24021 8.05268 4.14645 8.14645C4.05268 8.24021 4 8.36739 4 8.5C4 8.63261 4.05268 8.75979 4.14645 8.85355C4.24021 8.94732 4.36739 9 4.5 9H10.293L8.146 11.146C8.09951 11.1925 8.06264 11.2477 8.03748 11.3084C8.01232 11.3692 7.99937 11.4343 7.99937 11.5C7.99937 11.5657 8.01232 11.6308 8.03748 11.6916C8.06264 11.7523 8.09951 11.8075 8.146 11.854C8.19249 11.9005 8.24768 11.9374 8.30842 11.9625C8.36916 11.9877 8.43426 12.0006 8.5 12.0006C8.56574 12.0006 8.63084 11.9877 8.69158 11.9625C8.75232 11.9374 8.80751 11.9005 8.854 11.854L11.854 8.854C11.9006 8.80755 11.9375 8.75238 11.9627 8.69163C11.9879 8.63089 12.0009 8.56577 12.0009 8.5C12.0009 8.43423 11.9879 8.36911 11.9627 8.30837C11.9375 8.24762 11.9006 8.19245 11.854 8.146L8.854 5.146C8.80751 5.09951 8.75232 5.06264 8.69158 5.03748C8.63084 5.01232 8.56574 4.99937 8.5 4.99937C8.43426 4.99937 8.36916 5.01232 8.30842 5.03748C8.24768 5.06264 8.19249 5.09951 8.146 5.146C8.09951 5.19249 8.06264 5.24768 8.03748 5.30842C8.01232 5.36916 7.99937 5.43426 7.99937 5.5C7.99937 5.56574 8.01232 5.63084 8.03748 5.69158C8.06264 5.75232 8.09951 5.80751 8.146 5.854L10.293 8H4.5Z" fill="#022B55"/>
</svg>
