<svg width="32" height="32" viewBox="0 0 32 32" fill="none" xmlns="http://www.w3.org/2000/svg">
<path d="M29.0964 18.3948L15.3937 28.5948C14.6661 29.1565 13.6051 29.0087 13.0594 28.2991L12.1802 27.1756L15.3937 24.7808L15.6666 24.5739L28.5204 14.9948L29.3996 16.1182C29.9756 16.8278 29.824 17.833 29.0964 18.3948Z" fill="#24B1E7"/>
<path fill-rule="evenodd" clip-rule="evenodd" d="M14.0598 29.5113C14.1508 29.5408 14.272 29.5408 14.363 29.5408C14.8783 29.5408 15.3634 29.393 15.7575 29.0678L29.4602 18.8678C29.9453 18.513 30.2484 17.9808 30.3394 17.3895C30.4 16.8278 30.2484 16.2365 29.8846 15.7634L29.0055 14.64C28.9145 14.4921 28.763 14.433 28.6114 14.4034C28.4598 14.3739 28.2779 14.433 28.1566 14.5217L15.3331 24.0713L11.8164 26.7026C11.5436 26.9095 11.483 27.2643 11.6952 27.5304L12.544 28.6539C12.9381 29.1269 13.4535 29.4226 14.0598 29.5113ZM13.5444 27.9443L13.0291 27.2939L28.3992 15.793L28.9145 16.4434C29.0964 16.68 29.1571 16.946 29.1268 17.2121C29.0964 17.4782 28.9449 17.7147 28.7326 17.8921L15.0299 28.1217C14.7874 28.2991 14.5145 28.3582 14.2417 28.3287C13.9689 28.2991 13.7263 28.1513 13.5444 27.9443Z" fill="#24B1E7"/>
<path d="M29.0964 14.5514L28.5204 14.9653L15.6665 24.574L15.3937 24.7809C14.6661 25.3427 13.6051 25.1948 13.0594 24.4853L7.60253 17.5374L6.72337 16.414C6.17769 15.7044 6.29895 14.6696 7.02653 14.1374L20.7596 3.90788C21.4872 3.3757 22.5482 3.49396 23.0939 4.20353L29.4299 12.2748C29.9756 12.9844 29.824 13.9896 29.0964 14.5514Z" fill="#099449"/>
<path fill-rule="evenodd" clip-rule="evenodd" d="M14.0598 25.6678C14.1507 25.6974 14.272 25.6974 14.363 25.6974C14.8783 25.6974 15.3634 25.5496 15.7575 25.2539L28.8842 15.4383L29.4905 15.0244C30.4909 14.2852 30.6728 12.8957 29.915 11.92L23.579 3.8487C23.1848 3.37566 22.6695 3.08 22.0632 2.99131C21.4872 2.93218 20.8808 3.08 20.3958 3.43479L6.66274 13.6644C5.66232 14.4035 5.48042 15.793 6.23832 16.7687L12.544 24.8104C12.9381 25.2835 13.4535 25.5791 14.0598 25.6678ZM21.1234 4.38087C21.3053 4.23304 21.5175 4.17391 21.76 4.17391H21.9116C22.1844 4.20347 22.4269 4.3513 22.6088 4.55826L28.9448 12.6296C29.2783 13.073 29.1874 13.7235 28.7326 14.0783L15.3027 24.1009L15.0299 24.3078C14.7874 24.4852 14.5145 24.5443 14.2417 24.5148C13.9688 24.4852 13.7263 24.3374 13.5444 24.1304L7.20842 16.0591C6.87495 15.6156 6.9659 14.9652 7.42063 14.6104L21.1234 4.38087Z" fill="#097035"/>
<path d="M22.8817 8.69735L20.0017 10.8556C19.7288 11.0626 19.6985 11.4174 19.8804 11.6539L23.2151 15.8817C23.4273 16.1478 23.7911 16.1774 24.0337 16C23.1242 14.7582 22.6694 13.4574 22.821 12.6591C22.6391 12.5408 22.4572 12.393 22.3057 12.2156C21.8509 11.6539 21.7903 10.9739 22.1541 10.7374C22.5179 10.4713 23.1545 10.7078 23.5789 11.2695C23.7305 11.4469 23.8214 11.6539 23.9124 11.8608C24.7612 11.9495 25.9132 12.6887 26.9137 13.8713C27.1865 13.6643 27.2168 13.3095 27.0349 13.073L23.7002 8.84518C23.5183 8.54953 23.1242 8.49039 22.8817 8.69735Z" fill="#FDBE21"/>
<path d="M9.75493 16.207C9.57304 16.207 9.39114 16.1183 9.26988 15.9704C9.05767 15.7043 9.1183 15.3496 9.39114 15.1426L20.6989 6.68695C20.9718 6.47999 21.3356 6.53912 21.5478 6.80521C21.76 7.0713 21.6994 7.42608 21.4265 7.63304L10.1187 16.0887C9.99746 16.1774 9.8762 16.207 9.75493 16.207Z" fill="#FDBE21"/>
<path d="M11.7558 18.7791C11.5739 18.7791 11.392 18.6904 11.2707 18.5426C11.0585 18.2765 11.1192 17.9218 11.392 17.7148L18.2131 12.6296C18.4859 12.4226 18.8497 12.4818 19.0619 12.7478C19.2741 13.0139 19.2135 13.3687 18.9406 13.5757L12.1196 18.6313C11.9983 18.72 11.8771 18.7791 11.7558 18.7791Z" fill="#FDBE21"/>
<path d="M13.0897 20.4643C12.9078 20.4643 12.7259 20.3756 12.6046 20.2278C12.3924 19.9617 12.4531 19.6069 12.7259 19.4L19.5469 14.3148C19.8198 14.1078 20.1836 14.1669 20.3958 14.433C20.608 14.6991 20.5474 15.0539 20.2745 15.2608L13.4535 20.3461C13.3322 20.4052 13.2109 20.4643 13.0897 20.4643Z" fill="#FDBE21"/>
<path d="M14.3932 22.1495C14.2113 22.1495 14.0295 22.0608 13.9082 21.913C13.696 21.6469 13.7566 21.2921 14.0295 21.0852L20.8505 15.9999C21.1233 15.793 21.4871 15.8521 21.6993 16.1182C21.9116 16.3843 21.8509 16.7391 21.5781 16.946L14.757 22.0312C14.6661 22.1199 14.5448 22.1495 14.3932 22.1495Z" fill="#FDBE21"/>
<path d="M2.41854 18.1583C2.23664 18.1583 2.05475 18.0696 1.93349 17.9218C1.72128 17.6557 1.78191 17.3009 2.05475 17.0939L7.42064 13.0731C7.69349 12.8661 8.05728 12.9252 8.26949 13.1913C8.4817 13.4574 8.42107 13.8122 8.14822 14.0191L2.78233 18.04C2.69138 18.1287 2.5398 18.1583 2.41854 18.1583Z" fill="#097035"/>
<path d="M2.50948 21.44C2.32759 21.44 2.14569 21.3513 2.02443 21.2035C1.81222 20.9374 1.87285 20.5826 2.14569 20.3756L6.87496 16.8278C7.1478 16.6209 7.51159 16.68 7.7238 16.9461C7.93601 17.2122 7.87538 17.5669 7.60253 17.7739L2.90359 21.3217C2.78232 21.4104 2.66106 21.44 2.50948 21.44Z" fill="#097035"/>
<path d="M3.75243 27.5304C3.57054 27.5304 3.38864 27.4417 3.26738 27.2939C3.05517 27.0278 3.1158 26.673 3.38864 26.4661L10.331 21.2922C10.6038 21.0852 10.9676 21.1443 11.1798 21.4104C11.392 21.6765 11.3314 22.0313 11.0585 22.2383L4.11622 27.4122C4.02527 27.5009 3.8737 27.5304 3.75243 27.5304Z" fill="#097035"/>
<path d="M21.4265 28.8313C21.2446 28.8313 21.0627 28.7426 20.9415 28.5948C20.7293 28.3287 20.7899 27.9739 21.0627 27.767L28.0051 22.5931C28.2779 22.3861 28.6417 22.4453 28.8539 22.7113C29.0661 22.9774 29.0055 23.3322 28.7326 23.5392L21.8206 28.7131C21.6994 28.8018 21.5781 28.8313 21.4265 28.8313Z" fill="#097035"/>
<path d="M4.32842 13.6643C4.14653 13.6643 3.96463 13.5757 3.84337 13.4278C3.63116 13.1617 3.69179 12.807 3.96463 12.6L10.9069 7.42609C11.1798 7.21913 11.5436 7.27826 11.7558 7.54435C11.968 7.81043 11.9074 8.16522 11.6345 8.37217L4.69221 13.5461C4.57095 13.6348 4.44968 13.6643 4.32842 13.6643Z" fill="#097035"/>
<path d="M5.38949 9.02261C5.20759 9.02261 5.0257 8.93391 4.90443 8.78609C4.69222 8.52 4.75285 8.16522 5.0257 7.95826L5.75328 7.42609C6.02612 7.21913 6.38991 7.27826 6.60212 7.54435C6.81433 7.81043 6.7537 8.16522 6.48086 8.37217L5.75328 8.90435C5.66233 8.99304 5.51075 9.02261 5.38949 9.02261Z" fill="#097035"/>
<path d="M8.23916 6.89393C8.05726 6.89393 7.87537 6.80523 7.7541 6.65741C7.54189 6.39132 7.60253 6.03654 7.87537 5.82958L11.968 2.78436C12.2408 2.5774 12.6046 2.63654 12.8168 2.90262C13.0291 3.16871 12.9684 3.52349 12.6956 3.73045L8.63326 6.77567C8.512 6.86436 8.39074 6.89393 8.23916 6.89393Z" fill="#097035"/>
<path d="M4.26781 23.687C4.08592 23.687 3.90402 23.5983 3.78276 23.4504C3.57055 23.1844 3.63118 22.8296 3.90402 22.6226L4.29813 22.327C4.57097 22.12 4.93476 22.1791 5.14697 22.4452C5.35918 22.7113 5.29855 23.0661 5.02571 23.2731L4.6316 23.5687C4.54065 23.6278 4.38908 23.687 4.26781 23.687Z" fill="#097035"/>
<path d="M5.96548 22.4157C5.78358 22.4157 5.60169 22.327 5.48042 22.1791C5.26821 21.9131 5.32884 21.5583 5.60169 21.3513L8.512 19.1931C8.78484 18.9861 9.14863 19.0452 9.36084 19.3113C9.57305 19.5774 9.51242 19.9322 9.23958 20.1391L6.32926 22.2974C6.208 22.3861 6.08674 22.4157 5.96548 22.4157Z" fill="#097035"/>
<path d="M10.331 29.1269C10.1491 29.1269 9.96716 29.0382 9.8459 28.8904C9.63369 28.6243 9.69432 28.2695 9.96716 28.0626L14.3933 24.7808C14.6661 24.5739 15.0299 24.633 15.2421 24.8991C15.4543 25.1652 15.3937 25.52 15.1208 25.7269L10.6947 29.0087C10.6038 29.0973 10.4522 29.1269 10.331 29.1269Z" fill="#097035"/>
<path d="M10.7857 25.8452C10.6038 25.8452 10.4219 25.7565 10.3006 25.6087C10.0884 25.3426 10.1491 24.9878 10.4219 24.7809L12.1196 23.5096C12.3924 23.3026 12.7562 23.3618 12.9684 23.6278C13.1806 23.8939 13.12 24.2487 12.8472 24.4557L11.1495 25.727C11.0282 25.8157 10.907 25.8452 10.7857 25.8452Z" fill="#097035"/>
</svg>
