<svg width="120" height="120" viewBox="0 0 120 120" fill="none" xmlns="http://www.w3.org/2000/svg">
<rect width="120" height="120" rx="60" fill="#F5F5F5"/>
<g clip-path="url(#clip0)">
<path d="M68.001 85.4384L29.9268 85.7142C29.6416 85.7142 29.3564 85.4385 29.3564 85.1627L28.9286 35.1129C28.9286 34.8372 29.2138 34.5614 29.499 34.5614L67.5732 34.2856C67.8584 34.2856 68.1436 34.5614 68.1436 34.8372L68.5714 84.8869C68.5714 85.1627 68.2862 85.4384 68.001 85.4384Z" fill="#0079A4"/>
<path d="M65.6533 84.0918L28.6878 84.3687C28.4109 84.3687 28.134 84.0918 28.134 83.8149L27.8571 33.5585C27.8571 33.2816 28.134 33.0047 28.4109 33.0047L65.2379 32.7278C65.5148 32.7278 65.7917 33.0047 65.7917 33.2816L66.2071 83.538C66.2071 83.8149 65.9302 84.0918 65.6533 84.0918Z" fill="#24B1E7"/>
<path d="M41.3862 45.9771L30.4994 46.0714C30.2996 46.0714 30.0998 45.8828 30.0998 45.6942L30 34.7571C30 34.5685 30.1997 34.3799 30.3995 34.3799L41.2863 34.2856C41.486 34.2856 41.6858 34.4742 41.6858 34.6628L41.7857 45.5999C41.7857 45.7885 41.5859 45.9771 41.3862 45.9771Z" fill="#0079A4"/>
<path d="M35.0319 42.8571C34.8943 42.8571 34.7567 42.8571 34.7567 42.8571H34.4816C33.2434 42.8571 32.2804 41.7728 32.2804 40.3787V36.9707C32.2804 36.6609 32.418 36.506 32.6931 36.506C32.9683 36.506 33.1059 36.6609 33.1059 36.9707V40.3787C33.1059 41.1532 33.6562 41.7728 34.344 41.7728H34.6192C35.1695 41.7728 35.5822 41.3081 35.5822 40.6885V32.0138C35.5822 31.3941 35.1695 30.9294 34.4816 30.9294H34.0689C33.5186 30.9294 32.9683 31.5491 32.9683 32.1687V32.3236C32.9683 32.6334 32.8307 32.7883 32.5556 32.7883C32.2804 32.7883 32.1428 32.6334 32.1428 32.3236V32.1687C32.1428 30.9294 32.9683 30 34.0689 30H34.4816C35.5822 30 36.4076 30.9294 36.4076 32.1687V40.8434C36.5452 41.9277 35.9949 42.7022 35.0319 42.8571Z" fill="#FDBE21"/>
<path d="M69.9762 60.8002H43.5619C41.9619 60.8002 40.6286 59.4669 40.6286 57.8669V56.0002C40.6286 54.4002 39.2952 53.0669 37.6952 53.0669H30.2429C28.6429 53.0669 27.3095 54.4002 27.3095 56.0002V63.6002V72.4002V86.6669C27.3095 88.1336 28.5095 89.4669 30.1095 89.4669H70.1095C71.5762 89.4669 72.9095 88.2669 72.9095 86.6669V63.6002C72.7762 62.1336 71.4429 60.8002 69.9762 60.8002Z" fill="#BA831D"/>
<path d="M67.4429 60.8002H44.2429C42.6429 60.8002 41.3095 59.4669 41.3095 57.8669V56.0002C41.3095 54.4002 39.9762 53.0669 38.3762 53.0669H27.7095C26.1095 53.0669 24.7762 54.4002 24.7762 56.0002V63.6002V72.4002V86.6669C24.7762 88.1336 25.9762 89.4669 27.5762 89.4669H67.5762C69.0429 89.4669 70.3762 88.2669 70.3762 86.6669V63.6002C70.2429 62.1336 68.9095 60.8002 67.4429 60.8002Z" fill="#FDBE21"/>
<path d="M67.4429 60.8002H44.2429C42.6429 60.8002 41.3095 59.4669 41.3095 57.8669V56.0002C41.3095 54.4002 39.9762 53.0669 38.3762 53.0669H27.7095C26.1095 53.0669 24.7762 54.4002 24.7762 56.0002V63.6002V72.4002V86.6669C24.7762 88.1336 25.9762 89.4669 27.5762 89.4669H67.5762C69.0429 89.4669 70.3762 88.2669 70.3762 86.6669V63.6002C70.2429 62.1336 68.9095 60.8002 67.4429 60.8002Z" fill="#FDBE21"/>
<path opacity="0.45" d="M62.7359 72.1828C71.5136 72.1828 78.6294 65.2905 78.6294 56.7883C78.6294 48.2862 71.5136 41.3938 62.7359 41.3938C53.9581 41.3938 46.8424 48.2862 46.8424 56.7883C46.8424 65.2905 53.9581 72.1828 62.7359 72.1828Z" fill="white"/>
<path opacity="0.5" d="M50.286 57.9429C49.7562 57.9429 49.2264 57.558 49.2264 56.9166C49.2264 49.2193 55.7162 42.8049 63.7954 42.8049C64.3252 42.8049 64.855 43.1898 64.855 43.8312C64.855 44.3444 64.4577 44.8575 63.7954 44.8575C56.9083 44.8575 51.2131 50.2456 51.3455 57.0449C51.2131 57.4297 50.8158 57.9429 50.286 57.9429Z" fill="white"/>
<path d="M62.1429 72.8572C53.3295 72.8572 46.0714 64.8949 46.0714 56.2501C46.0714 47.7305 53.1999 40.7144 62.1429 40.7144C70.9562 40.7144 78.75 47.6052 78.75 56.2501C78.75 64.7697 70.9562 72.8572 62.1429 72.8572ZM62.1429 42.3215C53.8479 42.3215 47.6786 48.2316 47.6786 56.2501C47.6786 64.2685 53.8479 70.7835 62.1429 70.7835C70.4378 70.7835 77.1774 64.2685 77.1774 56.2501C77.1774 48.2316 70.4378 42.3215 62.1429 42.3215Z" fill="#00813B"/>
<path d="M77.3049 67.8211C77.3049 67.8211 77.4373 67.8211 77.3049 67.8211C79.8214 64.7422 81.2783 60.8936 81.2783 56.7884C81.2783 46.9102 72.9342 38.8281 62.7359 38.8281C52.5376 38.8281 44.1935 46.9102 44.1935 56.7884C44.1935 66.6665 52.5376 74.7487 62.7359 74.7487C66.9741 74.7487 70.9475 73.3375 73.9938 71.0283L76.1129 68.9757L77.3049 67.8211ZM62.7359 72.1829C53.9945 72.1829 46.8424 65.2554 46.8424 56.7884C46.8424 48.3214 53.9945 41.3939 62.7359 41.3939C71.4773 41.3939 78.6294 48.3214 78.6294 56.7884C78.6294 65.2554 71.4773 72.1829 62.7359 72.1829Z" fill="#099449"/>
<path d="M62.7359 75.0052C52.4051 75.0052 43.9286 66.7948 43.9286 56.7884C43.9286 46.7819 52.4051 38.5715 62.7359 38.5715C73.0666 38.5715 81.5431 46.7819 81.5431 56.7884C81.5431 60.8936 80.2187 64.7422 77.7022 67.9494L74.3911 71.1566C70.815 73.7223 66.8417 75.0052 62.7359 75.0052ZM62.7359 39.0847C52.67 39.0847 44.4584 47.0385 44.4584 56.7884C44.4584 66.5382 52.67 74.4921 62.7359 74.4921C66.8417 74.4921 70.6826 73.2092 73.8613 70.7717L77.1724 67.5645C77.1724 67.5645 77.1724 67.5645 77.3049 67.5645C79.8213 64.4856 81.1458 60.7653 81.1458 56.7884C81.0134 47.0385 72.8017 39.0847 62.7359 39.0847ZM62.7359 72.4395C53.862 72.4395 46.5775 65.3836 46.5775 56.7884C46.5775 48.1931 53.862 41.1373 62.7359 41.1373C71.6097 41.1373 78.8942 48.1931 78.8942 56.7884C78.8942 65.3836 71.6097 72.4395 62.7359 72.4395ZM62.7359 41.6504C54.1269 41.6504 47.1073 48.4497 47.1073 56.7884C47.1073 65.1271 54.1269 71.9263 62.7359 71.9263C71.3448 71.9263 78.3644 65.1271 78.3644 56.7884C78.3644 48.4497 71.3448 41.6504 62.7359 41.6504Z" fill="#099449"/>
<path d="M76.9075 70.6433L76.2453 70.0019C75.9804 69.7453 75.9804 69.3604 76.2453 68.9756L74.1262 71.0282C73.8613 71.2848 73.8613 71.6696 74.1262 72.0545L75.0533 72.9525C75.1857 72.4394 75.9804 71.5413 76.9075 70.6433Z" fill="#0079A4"/>
<path d="M76.1129 68.9757C75.848 69.2323 75.848 69.6171 76.1129 70.002L76.7751 70.6434C77.7022 69.7454 78.4969 68.9757 79.0267 68.5908L78.232 67.8211C77.9671 67.5645 77.5698 67.5645 77.3049 67.8211C77.3049 67.8211 77.3049 67.8211 77.1724 67.8211L76.1129 68.9757Z" fill="#4C65BA"/>
<path d="M76.1129 68.9757C75.848 69.2323 75.848 69.6171 76.1129 70.002L76.7751 70.6434C77.7022 69.7454 78.4969 68.9757 79.0267 68.5908L78.232 67.8211C77.9671 67.5645 77.5698 67.5645 77.3049 67.8211C77.3049 67.8211 77.3049 67.8211 77.1724 67.8211L76.1129 68.9757Z" fill="#24B1E7"/>
<path d="M92.6686 81.2914L79.5564 68.4626C79.5564 68.4626 79.424 68.4626 79.1591 68.5909C78.6293 68.9758 77.7022 69.7455 76.9075 70.6435C75.9804 71.5415 75.1857 72.4396 74.9208 72.9527C74.7884 73.081 74.7884 73.2093 74.7884 73.2093L87.9005 86.038C89.225 87.3209 91.3441 87.3209 92.6686 86.038C93.993 84.6269 93.993 82.5743 92.6686 81.2914Z" fill="#097035"/>
<path d="M92.6686 81.2913L79.5564 68.4625C79.424 68.3342 77.8346 69.6171 76.6426 70.9C75.5831 71.9263 91.3441 87.1925 92.6686 85.9096C93.993 84.6267 93.993 82.5741 92.6686 81.2913Z" fill="#099449"/>
</g>
<defs>
<clipPath id="clip0">
<rect width="70.7143" height="60" fill="white" transform="translate(24.6429 30)"/>
</clipPath>
</defs>
</svg>
