<svg width="120" height="121" viewBox="0 0 120 121" fill="none" xmlns="http://www.w3.org/2000/svg">
<rect y="0.5" width="120" height="120" rx="60" fill="#F5F5F5"/>
<g clip-path="url(#clip0_7030:163083)">
<path d="M87.6656 40.9158H32V90.8637C32 93.0729 33.7909 94.8637 36 94.8637H83.6656C85.8747 94.8637 87.6656 93.0729 87.6656 90.8637V40.9158Z" fill="#099449"/>
<path d="M87.6656 32.41V40.8923H32V32.41C32 30.7183 33.4105 29.3555 35.1614 29.3555H84.5041C86.2551 29.3555 87.6656 30.7418 87.6656 32.41Z" fill="#24B1E7"/>
<path d="M79.0324 37.1797C80.483 37.1797 81.6588 36.0436 81.6588 34.6421C81.6588 33.2406 80.483 32.1045 79.0324 32.1045C77.5819 32.1045 76.406 33.2406 76.406 34.6421C76.406 36.0436 77.5819 37.1797 79.0324 37.1797Z" fill="#0079A4"/>
<path d="M79.0324 35.5821C79.8593 35.5821 80.5402 34.9242 80.5402 34.1253V27.5933C80.5402 26.7944 79.8593 26.1365 79.0324 26.1365C78.2056 26.1365 77.5247 26.7944 77.5247 27.5933V34.1253C77.549 34.9477 78.2056 35.5821 79.0324 35.5821Z" fill="#FDBE21"/>
<path d="M60.5503 37.1797C62.0008 37.1797 63.1767 36.0436 63.1767 34.6421C63.1767 33.2406 62.0008 32.1045 60.5503 32.1045C59.0997 32.1045 57.9238 33.2406 57.9238 34.6421C57.9238 36.0436 59.0997 37.1797 60.5503 37.1797Z" fill="#0079A4"/>
<path d="M60.5502 35.5821C61.3771 35.5821 62.058 34.9242 62.058 34.1253V27.5933C62.058 26.7944 61.3771 26.1365 60.5502 26.1365C59.7234 26.1365 59.0425 26.7944 59.0425 27.5933V34.1253C59.0668 34.9477 59.7234 35.5821 60.5502 35.5821Z" fill="#FDBE21"/>
<path d="M42.0681 37.1797C43.5186 37.1797 44.6945 36.0436 44.6945 34.6421C44.6945 33.2406 43.5186 32.1045 42.0681 32.1045C40.6175 32.1045 39.4417 33.2406 39.4417 34.6421C39.4417 36.0436 40.6175 37.1797 42.0681 37.1797Z" fill="#0079A4"/>
<path d="M42.0681 35.5821C42.8949 35.5821 43.5758 34.9242 43.5758 34.1253V27.5933C43.5758 26.7944 42.8949 26.1365 42.0681 26.1365C41.2412 26.1365 40.5603 26.7944 40.5603 27.5933V34.1253C40.5846 34.9477 41.2412 35.5821 42.0681 35.5821Z" fill="#FDBE21"/>
<path fill-rule="evenodd" clip-rule="evenodd" d="M80.0503 59.3948C80.0503 59.9471 79.6026 60.3948 79.0503 60.3948H69.2291C68.6768 60.3948 68.2291 59.9471 68.2291 59.3948V49.9756C68.2291 49.4234 68.6768 48.9756 69.2291 48.9756H79.0503C79.6026 48.9756 80.0503 49.4234 80.0503 49.9756V59.3948Z" fill="#097035"/>
<path fill-rule="evenodd" clip-rule="evenodd" d="M65.9912 59.3948C65.9912 59.9471 65.5435 60.3948 64.9912 60.3948H55.17C54.6177 60.3948 54.17 59.9471 54.17 59.3948V49.9756C54.17 49.4234 54.6177 48.9756 55.17 48.9756H64.9912C65.5435 48.9756 65.9912 49.4234 65.9912 49.9756V59.3948Z" fill="#097035"/>
<path fill-rule="evenodd" clip-rule="evenodd" d="M51.908 59.3948C51.908 59.9471 51.4602 60.3948 50.908 60.3948H41.0868C40.5345 60.3948 40.0868 59.9471 40.0868 59.3948V49.9756C40.0868 49.4234 40.5345 48.9756 41.0868 48.9756H50.908C51.4602 48.9756 51.908 49.4234 51.908 49.9756V59.3948Z" fill="#097035"/>
<path fill-rule="evenodd" clip-rule="evenodd" d="M80.0505 72.3872C80.0505 72.9395 79.6028 73.3872 79.0505 73.3872H69.2294C68.6771 73.3872 68.2294 72.9395 68.2294 72.3872V62.9681C68.2294 62.4158 68.6771 61.9681 69.2294 61.9681H79.0505C79.6028 61.9681 80.0505 62.4158 80.0505 62.9681V72.3872Z" fill="#097035"/>
<path fill-rule="evenodd" clip-rule="evenodd" d="M65.9915 72.3872C65.9915 72.9395 65.5437 73.3872 64.9915 73.3872H55.1703C54.618 73.3872 54.1703 72.9395 54.1703 72.3872V62.9681C54.1703 62.4158 54.618 61.9681 55.1703 61.9681H64.9915C65.5437 61.9681 65.9915 62.4158 65.9915 62.9681V72.3872Z" fill="#097035"/>
<g clip-path="url(#clip1_7030:163083)">
<g clip-path="url(#clip2_7030:163083)">
<path d="M39.6363 72.2275C39.6363 72.7798 40.084 73.2275 40.6363 73.2275H51.3635C51.9158 73.2275 52.3635 72.7798 52.3635 72.2275V62.773C52.3635 62.2207 51.9158 61.773 51.3635 61.773H40.6363C40.084 61.773 39.6363 62.2207 39.6363 62.773V72.2275Z" fill="#EF5350"/>
<g clip-path="url(#clip3_7030:163083)">
<path d="M49.4998 65.0002L46.9998 67.5002L49.4998 70.0002C49.6324 70.1329 49.7069 70.3127 49.7069 70.5003C49.7069 70.6878 49.6324 70.8676 49.4998 71.0003C49.3672 71.1329 49.1873 71.2074 48.9998 71.2074C48.8122 71.2074 48.6324 71.1329 48.4998 71.0003L45.9998 68.5002L43.4998 71.0003C43.3672 71.1329 43.1873 71.2074 42.9998 71.2074C42.8122 71.2074 42.6324 71.1329 42.4998 71.0003C42.3672 70.8676 42.2927 70.6878 42.2927 70.5003C42.2927 70.3127 42.3672 70.1329 42.4998 70.0002L44.9998 67.5002L42.4998 65.0002C42.3672 64.8676 42.2927 64.6878 42.2927 64.5002C42.2927 64.3127 42.3672 64.1328 42.4998 64.0002C42.6324 63.8676 42.8122 63.7931 42.9998 63.7931C43.1873 63.7931 43.3672 63.8676 43.4998 64.0002L45.9998 66.5002L48.4998 64.0002C48.6324 63.8676 48.8122 63.7931 48.9998 63.7931C49.1873 63.7931 49.3672 63.8676 49.4998 64.0002C49.6324 64.1328 49.7069 64.3127 49.7069 64.5002C49.7069 64.6878 49.6324 64.8676 49.4998 65.0002Z" fill="white"/>
</g>
</g>
</g>
<path fill-rule="evenodd" clip-rule="evenodd" d="M80.0503 84.746C80.0503 85.3154 80.0503 85.6002 79.9377 85.8169C79.8428 85.9996 79.6939 86.1485 79.5113 86.2434C79.2945 86.356 79.0098 86.356 78.4403 86.356H69.8391C69.2696 86.356 68.9849 86.356 68.7681 86.2434C68.5855 86.1485 68.4366 85.9996 68.3417 85.8169C68.2291 85.6002 68.2291 85.3154 68.2291 84.746V76.5468C68.2291 75.9773 68.2291 75.6926 68.3417 75.4758C68.4366 75.2932 68.5855 75.1443 68.7681 75.0494C68.9849 74.9368 69.2696 74.9368 69.8391 74.9368H78.4403C79.0098 74.9368 79.2945 74.9368 79.5113 75.0494C79.6939 75.1443 79.8428 75.2932 79.9377 75.4758C80.0503 75.6926 80.0503 75.9773 80.0503 76.5468V84.746Z" fill="#097035"/>
<path fill-rule="evenodd" clip-rule="evenodd" d="M65.9912 84.746C65.9912 85.3154 65.9912 85.6002 65.8786 85.8169C65.7837 85.9996 65.6348 86.1485 65.4522 86.2434C65.2354 86.356 64.9507 86.356 64.3812 86.356H55.78C55.2105 86.356 54.9258 86.356 54.7091 86.2434C54.5264 86.1485 54.3775 85.9996 54.2826 85.8169C54.17 85.6002 54.17 85.3154 54.17 84.746V76.5468C54.17 75.9773 54.17 75.6926 54.2826 75.4758C54.3775 75.2932 54.5264 75.1443 54.7091 75.0494C54.9258 74.9368 55.2105 74.9368 55.78 74.9368H64.3812C64.9507 74.9368 65.2354 74.9368 65.4522 75.0494C65.6348 75.1443 65.7837 75.2932 65.8786 75.4758C65.9912 75.6926 65.9912 75.9773 65.9912 76.5468V84.746Z" fill="#097035"/>
<path fill-rule="evenodd" clip-rule="evenodd" d="M51.908 84.746C51.908 85.3154 51.908 85.6002 51.7954 85.8169C51.7005 85.9996 51.5516 86.1485 51.3689 86.2434C51.1522 86.356 50.8674 86.356 50.298 86.356H41.6968C41.1273 86.356 40.8425 86.356 40.6258 86.2434C40.4432 86.1485 40.2942 85.9996 40.1994 85.8169C40.0868 85.6002 40.0868 85.3154 40.0868 84.746V76.5468C40.0868 75.9773 40.0868 75.6926 40.1994 75.4758C40.2942 75.2932 40.4432 75.1443 40.6258 75.0494C40.8425 74.9368 41.1273 74.9368 41.6968 74.9368H50.298C50.8674 74.9368 51.1522 74.9368 51.3689 75.0494C51.5516 75.1443 51.7005 75.2932 51.7954 75.4758C51.908 75.6926 51.908 75.9773 51.908 76.5468V84.746Z" fill="#097035"/>
</g>
<defs>
<clipPath id="clip0_7030:163083">
<rect width="56" height="68.7273" fill="white" transform="translate(32 26.1365)"/>
</clipPath>
<clipPath id="clip1_7030:163083">
<rect width="12.7273" height="11.4545" fill="white" transform="translate(39.6362 61.7729)"/>
</clipPath>
<clipPath id="clip2_7030:163083">
<rect width="12.7273" height="11.4545" fill="white" transform="translate(39.6362 61.7729)"/>
</clipPath>
<clipPath id="clip3_7030:163083">
<rect width="7.63636" height="8.90909" fill="white" transform="translate(42.1816 63.0457)"/>
</clipPath>
</defs>
</svg>
