<svg width="46" height="46" viewBox="0 0 46 46" xmlns="http://www.w3.org/2000/svg">
<path d="M34.25 6.125H11.75C10.2582 6.125 8.82742 6.71763 7.77252 7.77252C6.71763 8.82742 6.125 10.2582 6.125 11.75V34.25C6.125 35.7418 6.71763 37.1726 7.77252 38.2275C8.82742 39.2824 10.2582 39.875 11.75 39.875H34.25C35.7418 39.875 37.1726 39.2824 38.2275 38.2275C39.2824 37.1726 39.875 35.7418 39.875 34.25V11.75C39.875 10.2582 39.2824 8.82742 38.2275 7.77252C37.1726 6.71763 35.7418 6.125 34.25 6.125ZM15.5 13.625C16.0563 13.625 16.6 13.79 17.0625 14.099C17.5251 14.408 17.8855 14.8473 18.0984 15.3612C18.3113 15.8751 18.367 16.4406 18.2585 16.9862C18.1499 17.5318 17.8821 18.0329 17.4887 18.4262C17.0954 18.8196 16.5943 19.0874 16.0487 19.196C15.5031 19.3045 14.9376 19.2488 14.4237 19.0359C13.9098 18.823 13.4705 18.4626 13.1615 18C12.8525 17.5375 12.6875 16.9938 12.6875 16.4375C12.6875 15.6916 12.9838 14.9762 13.5113 14.4488C14.0387 13.9213 14.7541 13.625 15.5 13.625ZM36.125 33.9312C36.1664 34.4706 35.9923 35.0044 35.6409 35.4156C35.2894 35.8268 34.7892 36.0819 34.25 36.125H11.75L25.9437 23.3375C26.1821 23.1201 26.493 22.9996 26.8156 22.9996C27.1382 22.9996 27.4492 23.1201 27.6875 23.3375L36.125 31.7375V33.9312Z" fill="#E0E0E0"/>
</svg>
