<svg width="34" height="34" viewBox="0 0 34 34" fill="none" xmlns="http://www.w3.org/2000/svg">
<rect x="1" y="1" width="32" height="32" rx="4" stroke="white" stroke-opacity="0.161249"/>
<path d="M17 9.62165C19.4031 9.62165 19.6877 9.6308 20.6367 9.6741C21.5142 9.71415 21.9908 9.86077 22.3079 9.98398C22.728 10.1472 23.0278 10.3423 23.3428 10.6572C23.6577 10.9722 23.8528 11.272 24.016 11.6921C24.1392 12.0092 24.2859 12.4858 24.3259 13.3632C24.3692 14.3123 24.3783 14.5969 24.3783 17C24.3783 19.4031 24.3692 19.6878 24.3259 20.6368C24.2859 21.5143 24.1392 21.9908 24.016 22.308C23.8528 22.728 23.6577 23.0279 23.3428 23.3428C23.0278 23.6577 22.728 23.8528 22.3079 24.016C21.9908 24.1393 21.5142 24.2859 20.6367 24.3259C19.6879 24.3692 19.4032 24.3784 17 24.3784C14.5967 24.3784 14.3121 24.3692 13.3632 24.3259C12.4857 24.2859 12.0092 24.1393 11.6921 24.016C11.272 23.8528 10.9721 23.6577 10.6572 23.3428C10.3423 23.0279 10.1472 22.728 9.98398 22.308C9.86073 21.9908 9.71411 21.5143 9.67406 20.6368C9.63076 19.6878 9.62162 19.4031 9.62162 17C9.62162 14.5969 9.63076 14.3123 9.67406 13.3633C9.71411 12.4858 9.86073 12.0092 9.98398 11.6921C10.1472 11.272 10.3423 10.9722 10.6572 10.6572C10.9721 10.3423 11.272 10.1472 11.6921 9.98398C12.0092 9.86077 12.4857 9.71415 13.3632 9.6741C14.3122 9.6308 14.5969 9.62165 17 9.62165ZM17 8C14.5557 8 14.2493 8.01036 13.2893 8.05416C12.3313 8.09789 11.6771 8.25001 11.1046 8.47251C10.5128 8.70251 10.0109 9.01025 9.51055 9.51058C9.01021 10.0109 8.70247 10.5128 8.47247 11.1047C8.24997 11.6772 8.09785 12.3314 8.05412 13.2893C8.01032 14.2493 8 14.5557 8 17C8 19.4443 8.01032 19.7508 8.05412 20.7107C8.09785 21.6687 8.24997 22.3229 8.47247 22.8954C8.70247 23.4872 9.01021 23.9891 9.51055 24.4895C10.0109 24.9898 10.5128 25.2975 11.1046 25.5275C11.6771 25.75 12.3313 25.9021 13.2893 25.9459C14.2493 25.9897 14.5557 26 17 26C19.4443 26 19.7507 25.9897 20.7107 25.9459C21.6686 25.9021 22.3228 25.75 22.8953 25.5275C23.4872 25.2975 23.9891 24.9898 24.4894 24.4895C24.9898 23.9891 25.2975 23.4872 25.5275 22.8954C25.75 22.3229 25.9021 21.6687 25.9458 20.7107C25.9896 19.7508 26 19.4443 26 17C26 14.5557 25.9896 14.2493 25.9458 13.2893C25.9021 12.3314 25.75 11.6772 25.5275 11.1047C25.2975 10.5128 24.9898 10.0109 24.4894 9.51058C23.9891 9.01025 23.4872 8.70251 22.8953 8.47251C22.3228 8.25001 21.6686 8.09789 20.7107 8.05416C19.7507 8.01036 19.4443 8 17 8ZM17 12.3784C14.4475 12.3784 12.3783 14.4476 12.3783 17C12.3783 19.5525 14.4475 21.6217 17 21.6217C19.5524 21.6217 21.6216 19.5525 21.6216 17C21.6216 14.4476 19.5524 12.3784 17 12.3784ZM17 20C15.3431 20 14 18.6569 14 17C14 15.3432 15.3431 14 17 14C18.6568 14 20 15.3432 20 17C20 18.6569 18.6568 20 17 20ZM22.8842 12.1958C22.8842 12.7923 22.4007 13.2758 21.8042 13.2758C21.2077 13.2758 20.7242 12.7923 20.7242 12.1958C20.7242 11.5993 21.2077 11.1158 21.8042 11.1158C22.4007 11.1158 22.8842 11.5993 22.8842 12.1958Z" fill="white"/>
</svg>
