<svg width="32" height="32" viewBox="0 0 32 32" fill="none" xmlns="http://www.w3.org/2000/svg">
<path d="M22.6991 30.3393L6.89044 26.4892L13.0887 2.47913L28.8974 6.29892C29.8052 6.51113 30.3687 7.4206 30.1183 8.29976L24.7652 29.1267C24.5148 30.0059 23.607 30.5515 22.6991 30.3393Z" fill="#0079A4"/>
<path d="M4.69914 25.9738L2.88349 24.3368L1.75653 28.7629L4.13566 28.1566L5.95131 29.7936L6.79653 26.4892L4.69914 25.9738Z" fill="#097035"/>
<path d="M20.1009 29.7027L4.29218 25.883L10.4904 1.84253L26.2991 5.66232C27.207 5.87453 27.7704 6.784 27.52 7.66316L22.1357 28.5204C21.9165 29.3996 21.0087 29.915 20.1009 29.7027Z" fill="#24B1E7"/>
<path d="M17.6278 29.0964L3.91652 25.7616C2.75826 25.4888 2.06956 24.3368 2.3513 23.2454L7.51652 3.26732C7.79826 2.14564 8.98782 1.47869 10.1148 1.75153L23.8261 5.08627C24.7339 5.29848 25.2974 6.20796 25.047 7.08711L19.6939 27.9141C19.4435 28.7932 18.5357 29.3389 17.6278 29.0964Z" fill="#099449"/>
<path d="M10.4904 11.9679C11.1165 9.69423 12.8383 8.72413 15.1548 9.26981C17.3461 9.78518 18.4104 11.1191 17.9722 12.8774C17.3461 15.3027 14.7791 14.9692 13.9339 18.1827L11.8365 17.6673C12.807 13.9384 14.8104 14.2416 15.2487 12.7258C15.4052 12.1498 15.0922 11.5738 14.4974 11.3919C13.5896 11.1191 12.9635 11.4525 12.6818 12.4833L10.4904 11.9679Z" fill="#FDBE21"/>
<path d="M11.5547 18.7609L13.802 19.3053L13.2398 21.4816L10.9925 20.9372L11.5547 18.7609Z" fill="#FDBE21"/>
</svg>
