<svg width="58" height="58" viewBox="0 0 58 58" fill="none" xmlns="http://www.w3.org/2000/svg">
<rect width="58" height="58" rx="8" fill="#C3E9D0"/>
<path d="M28.9999 27.3333C31.2101 27.3333 33.3297 28.2112 34.8925 29.774C36.4553 31.3368 37.3333 33.4564 37.3333 35.6666V45.6666H33.9999V35.6666C34 34.3912 33.5127 33.1641 32.6378 32.2362C31.7628 31.3082 30.5664 30.7497 29.2933 30.6749L28.9999 30.6666C27.7246 30.6665 26.4974 31.1538 25.5695 32.0287C24.6416 32.9037 24.0831 34.1001 24.0083 35.3733L23.9999 35.6666V45.6666H20.6666V35.6666C20.6666 33.4564 21.5446 31.3368 23.1074 29.774C24.6702 28.2112 26.7898 27.3333 28.9999 27.3333ZM18.1666 32.3333C18.6316 32.3333 19.0833 32.3883 19.5166 32.4899C19.2316 33.3383 19.0629 34.2213 19.0149 35.1149L18.9999 35.6666V35.8099C18.8083 35.7414 18.6091 35.6966 18.4066 35.6766L18.1666 35.6666C17.5451 35.6666 16.9459 35.8981 16.4859 36.3159C16.0258 36.7338 15.7379 37.308 15.6783 37.9266L15.6666 38.1666V45.6666H12.3333V38.1666C12.3333 36.6195 12.9478 35.1358 14.0418 34.0418C15.1358 32.9478 16.6195 32.3333 18.1666 32.3333ZM39.8333 32.3333C41.3803 32.3333 42.8641 32.9478 43.958 34.0418C45.052 35.1358 45.6666 36.6195 45.6666 38.1666V45.6666H42.3333V38.1666C42.3332 37.5451 42.1017 36.9459 41.6839 36.4859C41.2661 36.0258 40.6919 35.7379 40.0732 35.6783L39.8333 35.6666C39.5416 35.6666 39.2616 35.7166 38.9999 35.8083V35.6666C38.9999 34.5566 38.8199 33.4899 38.4849 32.4933C38.9166 32.3883 39.3683 32.3333 39.8333 32.3333ZM18.1666 22.3333C19.2717 22.3333 20.3315 22.7722 21.1129 23.5536C21.8943 24.335 22.3333 25.3948 22.3333 26.4999C22.3333 27.605 21.8943 28.6648 21.1129 29.4462C20.3315 30.2276 19.2717 30.6666 18.1666 30.6666C17.0615 30.6666 16.0017 30.2276 15.2203 29.4462C14.4389 28.6648 13.9999 27.605 13.9999 26.4999C13.9999 25.3948 14.4389 24.335 15.2203 23.5536C16.0017 22.7722 17.0615 22.3333 18.1666 22.3333ZM39.8333 22.3333C40.9383 22.3333 41.9981 22.7722 42.7795 23.5536C43.5609 24.335 43.9999 25.3948 43.9999 26.4999C43.9999 27.605 43.5609 28.6648 42.7795 29.4462C41.9981 30.2276 40.9383 30.6666 39.8333 30.6666C38.7282 30.6666 37.6684 30.2276 36.887 29.4462C36.1056 28.6648 35.6666 27.605 35.6666 26.4999C35.6666 25.3948 36.1056 24.335 36.887 23.5536C37.6684 22.7722 38.7282 22.3333 39.8333 22.3333ZM18.1666 25.6666C17.9456 25.6666 17.7336 25.7544 17.5773 25.9107C17.421 26.0669 17.3333 26.2789 17.3333 26.4999C17.3333 26.7209 17.421 26.9329 17.5773 27.0892C17.7336 27.2455 17.9456 27.3333 18.1666 27.3333C18.3876 27.3333 18.5996 27.2455 18.7558 27.0892C18.9121 26.9329 18.9999 26.7209 18.9999 26.4999C18.9999 26.2789 18.9121 26.0669 18.7558 25.9107C18.5996 25.7544 18.3876 25.6666 18.1666 25.6666ZM39.8333 25.6666C39.6122 25.6666 39.4003 25.7544 39.244 25.9107C39.0877 26.0669 38.9999 26.2789 38.9999 26.4999C38.9999 26.7209 39.0877 26.9329 39.244 27.0892C39.4003 27.2455 39.6122 27.3333 39.8333 27.3333C40.0543 27.3333 40.2662 27.2455 40.4225 27.0892C40.5788 26.9329 40.6666 26.7209 40.6666 26.4999C40.6666 26.2789 40.5788 26.0669 40.4225 25.9107C40.2662 25.7544 40.0543 25.6666 39.8333 25.6666ZM28.9999 12.3333C30.768 12.3333 32.4637 13.0356 33.714 14.2859C34.9642 15.5361 35.6666 17.2318 35.6666 18.9999C35.6666 20.768 34.9642 22.4637 33.714 23.714C32.4637 24.9642 30.768 25.6666 28.9999 25.6666C27.2318 25.6666 25.5361 24.9642 24.2859 23.714C23.0356 22.4637 22.3333 20.768 22.3333 18.9999C22.3333 17.2318 23.0356 15.5361 24.2859 14.2859C25.5361 13.0356 27.2318 12.3333 28.9999 12.3333ZM28.9999 15.6666C28.1159 15.6666 27.268 16.0178 26.6429 16.6429C26.0178 17.268 25.6666 18.1159 25.6666 18.9999C25.6666 19.884 26.0178 20.7318 26.6429 21.3569C27.268 21.9821 28.1159 22.3333 28.9999 22.3333C29.884 22.3333 30.7318 21.9821 31.3569 21.3569C31.9821 20.7318 32.3333 19.884 32.3333 18.9999C32.3333 18.1159 31.9821 17.268 31.3569 16.6429C30.7318 16.0178 29.884 15.6666 28.9999 15.6666Z" fill="#008444"/>
</svg>
