<svg width="58" height="58" viewBox="0 0 58 58" fill="none" xmlns="http://www.w3.org/2000/svg">
<rect width="58" height="58" rx="8" fill="#C3E9D0"/>
<path d="M28.9999 23.1666L32.5266 31.6466L41.6799 32.3799L34.7066 38.3533L36.8366 47.2866L28.9999 42.4999L21.1633 47.2866L23.2933 38.3533L16.3199 32.3799L25.4733 31.6466L28.9999 23.1666ZM28.9999 31.8449L27.7683 34.8066L24.5749 35.0616L27.0083 37.1466L26.2633 40.2649L28.9999 38.5933L31.7349 40.2649L30.9916 37.1483L33.4233 35.0616L30.2316 34.8066L28.9999 31.8449ZM22.3333 12.3333V27.3333H18.9999V12.3333H22.3333ZM38.9999 12.3333V27.3333H35.6666V12.3333H38.9999ZM30.6666 12.3333V20.6666H27.3333V12.3333H30.6666Z" fill="#008444"/>
</svg>
