<svg width="162" height="163" viewBox="0 0 162 163" fill="none" xmlns="http://www.w3.org/2000/svg">
<g clip-path="url(#clip0_10329_244618)">
<path d="M0 81.5C0 36.7649 36.2649 0.5 81 0.5C125.735 0.5 162 36.7649 162 81.5C162 126.235 125.735 162.5 81 162.5C36.2649 162.5 0 126.235 0 81.5Z" fill="#E6F6EC"/>
<path d="M138.529 118.435H132.399V111.807C132.399 108.493 130.064 105.703 126.911 104.947V96.6331H124.634V104.714C121.014 105.063 118.212 108.028 118.212 111.749V118.609H112.141V126.225H111.732V140.411L100.698 140.353V123.377H88.029V135.818H79.155V147.911H68.4128V179.887H104.084H111.732H156.452V139.597H138.471L138.529 118.435Z" fill="#C3E9D0"/>
<path d="M12.4249 135.993V120.121H18.4382V111.633H20.6567V120.121H26.203V135.993H32.333V145.527H42.1995V113.086H62.8082V179.887H49.3804H43.6007H29.0637H22.3498H4.83536V135.993H12.4249Z" fill="#C3E9D0"/>
<path d="M134.682 98.1557L62.4622 98.2005C59.7191 98.2005 57.5156 96.0062 57.5156 93.2745L139.628 93.2297C139.628 95.9614 137.425 98.1557 134.682 98.1557Z" fill="#008444"/>
<path d="M134.682 96.454L62.4622 96.4988C60.3487 96.4988 58.5049 95.1553 57.8304 93.2745H57.5156C57.5156 96.0062 59.7191 98.2005 62.4622 98.2005L134.682 98.1557C137.425 98.1557 139.628 95.9614 139.628 93.2297H139.314C138.639 95.1106 136.795 96.454 134.682 96.454Z" fill="#069550"/>
<path d="M103.249 94.8867H93.9401C93.0408 94.8867 92.2763 94.1702 92.2763 93.2297H104.913C104.913 94.1702 104.148 94.8867 103.249 94.8867Z" fill="#006430"/>
<path d="M135.401 93.2302L61.7428 93.2749L61.6978 48.9861C61.6978 46.4336 63.7664 44.3736 66.3296 44.3736L130.77 44.3289C133.333 44.3289 135.401 46.3888 135.401 48.9413V93.2302Z" fill="#16A75C"/>
<path d="M131.579 48.2244H65.5651V89.468H131.579V48.2244Z" fill="#008444"/>
<path d="M131.579 85.4824H65.5651V89.4232H131.579V85.4824Z" fill="#006430"/>
<path d="M131.579 48.2244H65.5651V50.1947H131.579V48.2244Z" fill="#006430"/>
<path opacity="0.16" d="M87.5547 48.2242L65.5651 70.1671V89.4679H65.61L106.981 48.1794L87.5547 48.2242Z" fill="#4DC27E"/>
<path opacity="0.16" d="M74.109 89.4679L83.8222 89.4231L125.193 48.1794H115.48L74.109 89.4679Z" fill="#4DC27E"/>
<path opacity="0.16" d="M123.799 89.4234L131.579 81.6762L131.534 67.0327L108.285 89.4234H123.799Z" fill="#4DC27E"/>
<path d="M88.3338 68.9955C88.3338 68.733 88.3855 68.473 88.486 68.2304C88.5865 67.9878 88.7338 67.7674 88.9194 67.5817C89.1051 67.3961 89.3255 67.2488 89.5681 67.1483C89.8107 67.0478 90.0706 66.9961 90.3332 66.9961C90.5958 66.9961 90.8558 67.0478 91.0984 67.1483C91.3409 67.2488 91.5613 67.3961 91.747 67.5817C91.9327 67.7674 92.0799 67.9878 92.1804 68.2304C92.2809 68.473 92.3326 68.733 92.3326 68.9955V76.9932C92.3326 77.5234 92.122 78.032 91.747 78.407C91.372 78.7819 90.8635 78.9926 90.3332 78.9926C89.8029 78.9926 89.2944 78.7819 88.9194 78.407C88.5445 78.032 88.3338 77.5234 88.3338 76.9932V68.9955ZM93.6656 68.7729V76.0108C93.6653 76.5062 93.8031 76.9919 94.0636 77.4133C94.324 77.8348 94.6966 78.1753 95.1398 78.3968L95.2064 78.4301C95.9461 78.7997 96.7615 78.9923 97.5884 78.9926H104.808C105.424 78.9928 106.022 78.7794 106.499 78.3886C106.975 77.9978 107.302 77.4538 107.423 76.8492L109.022 68.8516C109.1 68.4648 109.09 68.0658 108.995 67.6832C108.899 67.3005 108.72 66.9439 108.47 66.6389C108.22 66.3339 107.905 66.0882 107.549 65.9195C107.192 65.7508 106.803 65.6632 106.408 65.6632H101.663V60.3314C101.663 59.6244 101.382 58.9463 100.882 58.4463C100.382 57.9464 99.7044 57.6655 98.9973 57.6655C98.6438 57.6655 98.3048 57.806 98.0548 58.0559C97.8048 58.3059 97.6644 58.645 97.6644 58.9985V59.8875C97.6644 61.0412 97.2902 62.1637 96.598 63.0866L94.7319 65.5739C94.0397 66.4968 93.6656 67.6193 93.6656 68.7729Z" fill="#FFA600"/>
<g clip-path="url(#clip1_10329_244618)">
<path d="M54.6796 125.996L37.7207 131.418C36.0523 131.952 34.2504 131.023 33.7169 129.355L21.7984 92.0806C21.2649 90.4122 22.1937 88.6103 23.8621 88.0768L40.821 82.6542C42.4894 82.1207 44.2913 83.0495 44.8248 84.7179L56.7433 121.992C57.2728 123.662 56.344 125.464 54.6796 125.996Z" fill="#006430"/>
<path d="M43.4985 86.6637L54.4422 120.889C54.8136 122.051 54.1744 123.303 53.0205 123.672L37.7199 128.564C36.566 128.933 35.3227 128.283 34.9513 127.122L24.0076 92.896C23.6326 91.7359 24.2718 90.4838 25.4257 90.1148L40.7299 85.2213C41.8801 84.8535 43.1272 85.5024 43.4985 86.6637Z" fill="#008444"/>
<path d="M40.7299 85.2213L37.9074 128.5L37.7187 128.56C36.5648 128.929 35.3215 128.279 34.9501 127.118L24.0076 92.896C23.6326 91.7359 24.2718 90.4838 25.4257 90.1148L40.7299 85.2213Z" fill="#0C8E4D"/>
<path d="M38.4526 87.218L28.4311 90.4224C27.6143 90.6836 26.7351 90.2304 26.4739 89.4136L26.3998 89.1819C26.1387 88.3651 26.5918 87.486 27.4086 87.2248L37.4301 84.0204C38.2469 83.7592 39.1261 84.2124 39.3873 85.0292L39.4614 85.2609C39.7283 86.0758 39.2694 86.9568 38.4526 87.218Z" fill="#006430"/>
</g>
<g clip-path="url(#clip2_10329_244618)">
<g clip-path="url(#clip3_10329_244618)">
<path d="M34.5945 75.5281L34.5945 64.727C34.5945 63.2381 35.0803 61.4535 36.6362 60.2568C37.6883 59.4476 39.2279 58.907 41.4373 58.907L50.8463 58.907" stroke="#069550" stroke-width="3.45404" stroke-linecap="round"/>
<path fill-rule="evenodd" clip-rule="evenodd" d="M52.0563 57.6701C52.7238 58.3532 52.7239 59.4601 52.0566 60.1433L45.2138 67.1496C44.5461 67.8332 43.4629 67.8338 42.7945 67.151C42.126 66.4681 42.1254 65.3603 42.7931 64.6767L48.428 58.9072L42.7934 53.1409C42.1255 52.4574 42.1259 51.3496 42.7942 50.6666C43.4624 49.9836 44.5456 49.9839 45.2135 50.6674L52.0563 57.6701Z" fill="#069550"/>
</g>
</g>
</g>
<defs>
<clipPath id="clip0_10329_244618">
<path d="M0 81.5C0 36.7649 36.2649 0.5 81 0.5C125.735 0.5 162 36.7649 162 81.5C162 126.235 125.735 162.5 81 162.5C36.2649 162.5 0 126.235 0 81.5Z" fill="white"/>
</clipPath>
<clipPath id="clip1_10329_244618">
<rect width="24.1707" height="45.5034" fill="white" transform="translate(20.8284 89.0469) rotate(-17.7318)"/>
</clipPath>
<clipPath id="clip2_10329_244618">
<rect width="27.9935" height="20.5286" fill="white" transform="translate(52.9846 50.1545) rotate(90)"/>
</clipPath>
<clipPath id="clip3_10329_244618">
<rect width="27.9935" height="20.5286" fill="white" transform="translate(52.9846 50.1545) rotate(90)"/>
</clipPath>
</defs>
</svg>
