<svg width="20" height="20" viewBox="0 0 20 20" fill="none" xmlns="http://www.w3.org/2000/svg">
<path d="M13.9325 16.46L13.3992 12.19C13.3236 11.5852 13.0297 11.0288 12.5727 10.6255C12.1157 10.2222 11.527 9.99977 10.9175 10H9.08086C8.47163 10.0002 7.88343 10.2228 7.42677 10.6261C6.9701 11.0293 6.67641 11.5855 6.60086 12.19L6.0667 16.46C6.03738 16.6946 6.05831 16.9327 6.12809 17.1586C6.19788 17.3845 6.31492 17.593 6.47145 17.7701C6.62798 17.9473 6.82041 18.0892 7.03597 18.1863C7.25153 18.2834 7.48528 18.3335 7.7217 18.3333H12.2784C12.5147 18.3334 12.7484 18.2832 12.9638 18.186C13.1793 18.0889 13.3716 17.947 13.5281 17.7698C13.6845 17.5927 13.8015 17.3843 13.8712 17.1584C13.9409 16.9326 13.9618 16.6945 13.9325 16.46V16.46Z" stroke="#16A75C" stroke-width="1.5" stroke-linecap="round" stroke-linejoin="round"/>
<path d="M10 6.66675C11.3807 6.66675 12.5 5.54746 12.5 4.16675C12.5 2.78604 11.3807 1.66675 10 1.66675C8.61929 1.66675 7.5 2.78604 7.5 4.16675C7.5 5.54746 8.61929 6.66675 10 6.66675Z" stroke="#16A75C" stroke-width="1.5"/>
<path d="M3.33335 9.16683C4.25383 9.16683 5.00002 8.42064 5.00002 7.50016C5.00002 6.57969 4.25383 5.8335 3.33335 5.8335C2.41288 5.8335 1.66669 6.57969 1.66669 7.50016C1.66669 8.42064 2.41288 9.16683 3.33335 9.16683Z" stroke="#16A75C" stroke-width="1.5"/>
<path d="M16.6667 9.16683C17.5871 9.16683 18.3333 8.42064 18.3333 7.50016C18.3333 6.57969 17.5871 5.8335 16.6667 5.8335C15.7462 5.8335 15 6.57969 15 7.50016C15 8.42064 15.7462 9.16683 16.6667 9.16683Z" stroke="#16A75C" stroke-width="1.5"/>
<path d="M3.33334 11.6667H3.07834C2.68381 11.6667 2.30206 11.8066 2.00099 12.0616C1.69993 12.3166 1.49908 12.6701 1.43418 13.0592L1.15668 14.7259C1.11685 14.9647 1.12953 15.2093 1.19382 15.4427C1.25811 15.6761 1.37247 15.8927 1.52895 16.0774C1.68543 16.2621 1.88027 16.4105 2.09992 16.5123C2.31957 16.6141 2.55876 16.6668 2.80084 16.6667H5.83334" stroke="#16A75C" stroke-width="1.5" stroke-linecap="round" stroke-linejoin="round"/>
<path d="M16.6667 11.6667H16.9217C17.3162 11.6667 17.698 11.8066 17.999 12.0616C18.3001 12.3166 18.501 12.6701 18.5659 13.0592L18.8434 14.7259C18.8832 14.9647 18.8705 15.2093 18.8062 15.4427C18.7419 15.6761 18.6276 15.8927 18.4711 16.0774C18.3146 16.2621 18.1198 16.4105 17.9001 16.5123C17.6805 16.6141 17.4413 16.6668 17.1992 16.6667H14.1667" stroke="#16A75C" stroke-width="1.5" stroke-linecap="round" stroke-linejoin="round"/>
</svg>
