<svg width="58" height="58" viewBox="0 0 58 58" fill="none" xmlns="http://www.w3.org/2000/svg">
<rect width="58" height="58" rx="8" fill="#C3E9D0"/>
<path d="M42.3333 12.3333C43.2533 12.3333 44 13.0799 44 13.9999V20.2616L40.6667 23.5949V15.6666H17.3333V42.3333H40.6667V37.7366L44 34.4033V43.9999C44 44.9199 43.2533 45.6666 42.3333 45.6666H15.6667C14.7467 45.6666 14 44.9199 14 43.9999V13.9999C14 13.0799 14.7467 12.3333 15.6667 12.3333H42.3333ZM45.2967 23.6799L47.6533 26.0366L34.69 38.9999L32.33 38.9966L32.3333 36.6433L45.2967 23.6799ZM30.6667 28.9999V32.3333H22.3333V28.9999H30.6667ZM35.6667 22.3333V25.6666H22.3333V22.3333H35.6667Z" fill="#008444"/>
</svg>
