<svg width="32" height="32" viewBox="0 0 32 32" fill="none" xmlns="http://www.w3.org/2000/svg">
<mask id="mask0" mask-type="alpha" maskUnits="userSpaceOnUse" x="5" y="5" width="22" height="22">
<circle cx="15.8555" cy="15.8555" r="10.2887" fill="white"/>
</mask>
<g mask="url(#mask0)">
<path d="M26.8879 31.7225C25.8653 22.1155 22.0535 14.9878 17.4669 14.9878C12.8804 14.9878 9.06857 22.1155 8.0459 31.7225H26.8879Z" fill="#FDBE21"/>
<ellipse cx="17.4669" cy="12.2297" rx="2.60318" ry="3.37793" fill="#FDBE21"/>
</g>
<mask id="mask1" mask-type="alpha" maskUnits="userSpaceOnUse" x="5" y="5" width="22" height="22">
<circle cx="15.8555" cy="15.8555" r="10.2887" fill="white"/>
</mask>
<g mask="url(#mask1)">
<path d="M25.2765 31.7225C24.2538 22.1155 20.442 14.9878 15.8555 14.9878C11.2689 14.9878 7.45712 22.1155 6.43445 31.7225H25.2765Z" fill="#099449"/>
<ellipse cx="15.8555" cy="12.2297" rx="2.60318" ry="3.37793" fill="#099449"/>
</g>
<path fill-rule="evenodd" clip-rule="evenodd" d="M4.63702 15.8555C4.63702 22.0536 9.68842 27.074 15.8555 27.074C22.0225 27.074 27.0739 22.0536 27.0739 15.8555C27.0739 9.6575 22.0225 4.63708 15.8555 4.63708C9.68842 4.63708 4.63702 9.6575 4.63702 15.8555ZM6.49643 15.8555C6.49643 10.6802 10.7111 6.4965 15.8555 6.4965C20.9998 6.4965 25.2145 10.7112 25.2145 15.8555C25.2145 21.0309 20.9998 25.2146 15.8555 25.2146C10.6801 25.2146 6.49643 20.9999 6.49643 15.8555Z" fill="#097035"/>
<path d="M15.8555 8.82071C15.3287 8.82071 14.9258 8.41783 14.9258 7.891V2.80861C14.9258 2.28178 15.3287 1.87891 15.8555 1.87891C16.3823 1.87891 16.7852 2.28178 16.7852 2.80861V7.891C16.7852 8.38684 16.3823 8.82071 15.8555 8.82071Z" fill="#099449"/>
<path d="M15.8555 29.7561C15.3287 29.7561 14.9258 29.3828 14.9258 28.8947V24.1855C14.9258 23.6974 15.3287 23.3241 15.8555 23.3241C16.3823 23.3241 16.7852 23.6974 16.7852 24.1855V28.8947C16.7852 29.3828 16.3823 29.7561 15.8555 29.7561Z" fill="#099449"/>
<path d="M28.4994 17.0021H23.6649C23.1381 17.0021 22.7352 16.5992 22.7352 16.0724C22.7352 15.5456 23.1381 15.1427 23.6649 15.1427H28.5304C29.0572 15.1427 29.4601 15.5456 29.4601 16.0724C29.4601 16.5992 29.0262 17.0021 28.4994 17.0021Z" fill="#099449"/>
<path d="M8.04591 17.0021H3.21144C2.68461 17.0021 2.28174 16.5992 2.28174 16.0724C2.28174 15.5456 2.68461 15.1427 3.21144 15.1427H8.0769C8.60374 15.1427 9.00661 15.5456 9.00661 16.0724C9.00661 16.5992 8.57275 17.0021 8.04591 17.0021Z" fill="#099449"/>
<path fill-rule="evenodd" clip-rule="evenodd" d="M1.8479 15.8555C1.8479 23.603 8.13891 29.863 15.8555 29.863C23.572 29.863 29.863 23.572 29.863 15.8555C29.863 8.13892 23.572 1.87891 15.8555 1.87891C8.13891 1.87891 1.8479 8.10793 1.8479 15.8555ZM3.70731 15.8865C3.70731 9.1926 9.16158 3.73833 15.8555 3.73833C22.5493 3.73833 28.0036 9.16161 28.0036 15.8555C28.0036 22.5494 22.5493 28.0036 15.8555 28.0036C9.16158 28.0036 3.70731 22.5804 3.70731 15.8865Z" fill="#099449"/>
</svg>
