<svg width="17" height="18" viewBox="0 0 17 18" fill="none" xmlns="http://www.w3.org/2000/svg">
<path d="M13.5834 17.3334C13.1385 17.3386 12.6986 17.2407 12.2979 17.0475C11.8971 16.8544 11.5466 16.5711 11.2736 16.2199C11.0005 15.8687 10.8125 15.459 10.7241 15.0231C10.6358 14.5871 10.6495 14.1366 10.7642 13.7068L5.54752 10.7251C5.10746 11.1283 4.55413 11.3865 3.96245 11.4647C3.37078 11.543 2.76935 11.4376 2.23959 11.1627C1.70983 10.8878 1.27734 10.4568 1.00068 9.92793C0.724018 9.39911 0.616549 8.79803 0.692825 8.2061C0.769101 7.61416 1.02544 7.05997 1.42712 6.61855C1.82881 6.17713 2.35645 5.86982 2.93858 5.73822C3.52072 5.60661 4.12924 5.65708 4.68174 5.88279C5.23424 6.10849 5.70404 6.49853 6.02752 7.00009L10.7634 4.29259C10.7021 4.06108 10.6696 3.82289 10.6667 3.58343C10.6609 2.90696 10.8884 2.24915 11.3108 1.72076C11.7333 1.19238 12.3249 0.825691 12.986 0.682447C13.6472 0.539203 14.3375 0.62815 14.9408 0.934311C15.544 1.24047 16.0233 1.74515 16.2981 2.36336C16.5728 2.98157 16.6261 3.67556 16.449 4.32847C16.2719 4.98138 15.8752 5.55333 15.3258 5.94802C14.7764 6.34271 14.1077 6.53602 13.4325 6.49542C12.7572 6.45482 12.1165 6.18277 11.6184 5.72509L6.49335 8.65426C6.48752 8.87093 6.45752 9.08509 6.40252 9.29426L11.6192 12.2751C11.9683 11.9547 12.3904 11.7243 12.8488 11.6039C13.3071 11.4836 13.7879 11.4769 14.2495 11.5844C14.711 11.692 15.1393 11.9105 15.4972 12.2211C15.8552 12.5317 16.1319 12.9249 16.3035 13.3667C16.475 13.8085 16.5361 14.2854 16.4816 14.7561C16.4271 15.2269 16.2585 15.6772 15.9905 16.0681C15.7225 16.4589 15.3631 16.7784 14.9437 16.9989C14.5242 17.2194 14.0572 17.3343 13.5834 17.3334ZM13.5834 13.1668C13.2518 13.1668 12.9339 13.2985 12.6995 13.5329C12.465 13.7673 12.3334 14.0852 12.3334 14.4168C12.3334 14.7483 12.465 15.0662 12.6995 15.3006C12.9339 15.5351 13.2518 15.6668 13.5834 15.6668C13.9149 15.6668 14.2328 15.5351 14.4672 15.3006C14.7017 15.0662 14.8334 14.7483 14.8334 14.4168C14.8334 14.0852 14.7017 13.7673 14.4672 13.5329C14.2328 13.2985 13.9149 13.1668 13.5834 13.1668ZM3.58335 7.33343C3.25183 7.33343 2.93389 7.46512 2.69947 7.69954C2.46505 7.93397 2.33335 8.25191 2.33335 8.58343C2.33335 8.91495 2.46505 9.23289 2.69947 9.46731C2.93389 9.70173 3.25183 9.83343 3.58335 9.83343C3.91487 9.83343 4.23282 9.70173 4.46724 9.46731C4.70166 9.23289 4.83335 8.91495 4.83335 8.58343C4.83335 8.25191 4.70166 7.93397 4.46724 7.69954C4.23282 7.46512 3.91487 7.33343 3.58335 7.33343ZM13.5834 2.33343C13.4192 2.33343 13.2567 2.36576 13.105 2.42858C12.9533 2.4914 12.8155 2.58347 12.6995 2.69954C12.5834 2.81562 12.4913 2.95342 12.4285 3.10507C12.3657 3.25673 12.3334 3.41928 12.3334 3.58343C12.3334 3.74758 12.3657 3.91013 12.4285 4.06178C12.4913 4.21344 12.5834 4.35124 12.6995 4.46731C12.8155 4.58338 12.9533 4.67546 13.105 4.73828C13.2567 4.8011 13.4192 4.83343 13.5834 4.83343C13.9149 4.83343 14.2328 4.70173 14.4672 4.46731C14.7017 4.23289 14.8334 3.91495 14.8334 3.58343C14.8334 3.25191 14.7017 2.93396 14.4672 2.69954C14.2328 2.46512 13.9149 2.33343 13.5834 2.33343Z" fill="#16A75C"/>
</svg>
