<svg width="17" height="16" viewBox="0 0 17 16" fill="none" xmlns="http://www.w3.org/2000/svg">
<path d="M9.29998 7.99998C9.72432 7.99998 10.1313 8.16855 10.4313 8.46861C10.7314 8.76866 10.9 9.17563 10.9 9.59998V10.8C10.9 12.4432 9.22958 13.6 6.49998 13.6C3.77038 13.6 2.09998 12.4432 2.09998 10.8V9.59998C2.09998 9.17563 2.26855 8.76866 2.5686 8.46861C2.86866 8.16855 3.27563 7.99998 3.69998 7.99998H9.29998ZM13.3 7.99998C13.7243 7.99998 14.1313 8.16855 14.4313 8.46861C14.7314 8.76866 14.9 9.17563 14.9 9.59998V9.99998C14.9 11.6712 13.6456 12.8 11.3 12.8C11.1872 12.8 11.076 12.7976 10.9688 12.792C11.4 12.2904 11.6552 11.6832 11.6944 10.9912L11.7 10.8V9.59998C11.7 9.04638 11.5128 8.53598 11.1976 8.13038L11.088 7.99998H13.3ZM6.49998 1.59998C6.86768 1.59998 7.23178 1.6724 7.57149 1.81311C7.9112 1.95383 8.21987 2.16007 8.47987 2.42008C8.73988 2.68008 8.94613 2.98875 9.08684 3.32846C9.22755 3.66817 9.29998 4.03227 9.29998 4.39998C9.29998 4.76768 9.22755 5.13178 9.08684 5.47149C8.94613 5.8112 8.73988 6.11987 8.47987 6.37987C8.21987 6.63988 7.9112 6.84613 7.57149 6.98684C7.23178 7.12755 6.86768 7.19998 6.49998 7.19998C5.75737 7.19998 5.04518 6.90498 4.52008 6.37987C3.99497 5.85477 3.69998 5.14258 3.69998 4.39998C3.69998 3.65737 3.99497 2.94518 4.52008 2.42008C5.04518 1.89497 5.75737 1.59998 6.49998 1.59998ZM12.1 3.19998C12.6304 3.19998 13.1391 3.41069 13.5142 3.78576C13.8893 4.16083 14.1 4.66954 14.1 5.19998C14.1 5.73041 13.8893 6.23912 13.5142 6.61419C13.1391 6.98926 12.6304 7.19998 12.1 7.19998C11.5695 7.19998 11.0608 6.98926 10.6858 6.61419C10.3107 6.23912 10.1 5.73041 10.1 5.19998C10.1 4.66954 10.3107 4.16083 10.6858 3.78576C11.0608 3.41069 11.5695 3.19998 12.1 3.19998Z" fill="white"/>
</svg>
