<svg width="34" height="34" viewBox="0 0 34 34" fill="none" xmlns="http://www.w3.org/2000/svg">
<rect x="1" y="1" width="32" height="32" rx="4" stroke="white" stroke-opacity="0.161249"/>
<path fill-rule="evenodd" clip-rule="evenodd" d="M26 11.7314C25.3306 12.025 24.6174 12.2196 23.8737 12.3141C24.6388 11.8574 25.2226 11.1396 25.4971 10.2745C24.7839 10.6998 23.9964 11.0001 23.1571 11.1678C22.4799 10.4466 21.5146 10 20.4616 10C18.4186 10 16.7739 11.6582 16.7739 13.6911C16.7739 13.9836 16.7986 14.2649 16.8594 14.5326C13.7915 14.383 11.0769 12.9126 9.25325 10.6727C8.93488 11.2251 8.74813 11.8574 8.74813 12.538C8.74813 13.816 9.40625 14.9489 10.3872 15.6048C9.79437 15.5935 9.21275 15.4214 8.72 15.1502C8.72 15.1615 8.72 15.1761 8.72 15.1908C8.72 16.984 9.99913 18.4735 11.6765 18.8166C11.3761 18.8987 11.0488 18.9381 10.709 18.9381C10.4728 18.9381 10.2343 18.9246 10.0104 18.8751C10.4885 20.3365 11.8452 21.4109 13.4585 21.4458C12.203 22.4279 10.6089 23.0196 8.88313 23.0196C8.5805 23.0196 8.29025 23.0061 8 22.969C9.63462 24.0231 11.5719 24.625 13.661 24.625C20.4515 24.625 24.164 19 24.164 14.1242C24.164 13.9611 24.1584 13.8036 24.1505 13.6472C24.8829 13.1275 25.4982 12.4784 26 11.7314Z" fill="white"/>
</svg>
