<svg width="34" height="34" viewBox="0 0 34 34" fill="none" xmlns="http://www.w3.org/2000/svg">
<rect x="1" y="1" width="32" height="32" rx="4" stroke="white" stroke-opacity="0.161249"/>
<path fill-rule="evenodd" clip-rule="evenodd" d="M25.235 12.1925C24.7467 11.324 24.2169 11.1643 23.138 11.1035C22.0602 11.0304 19.3501 11 17.0022 11C14.6499 11 11.9386 11.0304 10.862 11.1024C9.78537 11.1643 9.25437 11.3229 8.76162 12.1925C8.25875 13.0599 8 14.5539 8 17.1841C8 17.1864 8 17.1875 8 17.1875C8 17.1898 8 17.1909 8 17.1909V17.1931C8 19.8121 8.25875 21.3174 8.76162 22.1757C9.25437 23.0442 9.78425 23.2017 10.8609 23.2749C11.9386 23.3379 14.6499 23.375 17.0022 23.375C19.3501 23.375 22.0603 23.3379 23.1391 23.276C24.218 23.2029 24.7479 23.0454 25.2361 22.1769C25.7435 21.3185 26 19.8132 26 17.1943C26 17.1943 26 17.1909 26 17.1886C26 17.1886 26 17.1864 26 17.1852C26 14.5539 25.7435 13.0599 25.235 12.1925ZM14.75 20.5625V13.8125L20.375 17.1875L14.75 20.5625Z" fill="white"/>
</svg>
