<svg width="52" height="53" viewBox="0 0 52 53" fill="none" xmlns="http://www.w3.org/2000/svg">
<rect y="0.5" width="52" height="52" rx="14" fill="#E6F6EC"/>
<path d="M17.8908 17.8707L18.7741 18.2633L19.4965 17.6211L20.75 16.5069L22.0035 17.6211L23 18.5069L23.9965 17.6211L25.25 16.5069L26.5035 17.6211L27.2259 18.2633L28.1092 17.8707L29.7969 17.1206C30.1276 16.9737 30.5 17.2157 30.5 17.5775V36.5C30.5 36.7761 30.2761 37 30 37H16C15.7239 37 15.5 36.7761 15.5 36.5V17.5775C15.5 17.2157 15.8724 16.9737 16.2031 17.1206L17.8908 17.8707Z" stroke="#16A75C" stroke-width="3"/>
<path d="M30.5 27H36.5V34.5C36.5 35.8807 35.3807 37 34 37H30.5V27Z" stroke="#16A75C" stroke-width="3"/>
<circle cx="20.5275" cy="23.297" r="1.08376" transform="rotate(-49.7093 20.5275 23.297)" fill="#FF9500"/>
<circle cx="25.4875" cy="27.5021" r="1.08376" transform="rotate(-49.7093 25.4875 27.5021)" fill="#FF9500"/>
<path fill-rule="evenodd" clip-rule="evenodd" d="M20.2681 28.7599C19.8469 28.4028 19.7949 27.7718 20.152 27.3505L24.4653 22.2628C24.8225 21.8415 25.4535 21.7895 25.8748 22.1467C26.296 22.5038 26.348 23.1348 25.9909 23.5561L21.6776 28.6438C21.3204 29.0651 20.6894 29.1171 20.2681 28.7599Z" fill="#FF9500"/>
<line x1="20" y1="32.5" x2="26" y2="32.5" stroke="#FF9500" stroke-width="2" stroke-linecap="round"/>
</svg>
