<svg width="362" height="179" viewBox="0 0 362 179" fill="none" xmlns="http://www.w3.org/2000/svg">
<g clip-path="url(#clip0_10444_67678)">
<path d="M318.569 126.372C321.7 116.248 322.461 105.539 320.177 95.164C316.623 79.0159 305.285 59.4375 272.37 50.9869C210.179 35.0062 188.518 -11.7645 130.304 3.12848C130.304 3.12848 99.0822 8.73428 84.2748 59.8558C69.5521 110.977 11.6766 111.814 31.6453 156.326C34.9452 163.605 43.6604 171.553 56.2678 179L292.254 178.247C308.585 158.836 313.662 142.102 318.569 126.372Z" fill="#C3E9D0"/>
<path d="M272.98 86.8548H263.91V77.029C263.91 72.1162 260.455 67.979 255.79 66.8585V54.5332H252.421V66.5137C247.066 67.0309 242.919 71.4266 242.919 76.9428V87.1134H233.935V98.4044H233.331V119.435L217.004 119.349V94.181H198.259V112.626H185.129V130.554H169.234V177.959H222.014H233.331H299.5V118.228H272.894L272.98 86.8548Z" fill="#9BDBB3"/>
<path d="M86.3931 112.885V89.3544H95.2906V76.7705H98.5731V89.3544H106.78V112.885H115.85V127.02H130.448V78.9253H160.942V177.959H141.074H132.522H111.012H101.078H75.1633V112.885H86.3931Z" fill="#9BDBB3"/>
<path d="M267.644 177.646L100.026 177.75C93.659 177.75 88.5449 172.648 88.5449 166.295L279.125 166.191C279.125 172.543 274.011 177.646 267.644 177.646Z" fill="#008444"/>
<path d="M267.644 173.689L100.026 173.793C95.1202 173.793 90.841 170.669 89.2755 166.295H88.5449C88.5449 172.648 93.659 177.75 100.026 177.75L267.644 177.646C274.011 177.646 279.125 172.543 279.125 166.191H278.395C276.829 170.565 272.55 173.689 267.644 173.689Z" fill="#069550"/>
<path d="M194.689 170.044H173.085C170.997 170.044 169.223 168.378 169.223 166.191H198.551C198.551 168.378 196.777 170.044 194.689 170.044Z" fill="#006430"/>
<path d="M269.314 166.191L98.3557 166.295L98.2513 63.3024C98.2513 57.3665 103.052 52.5762 109.001 52.5762L258.564 52.472C264.513 52.472 269.314 57.2624 269.314 63.1983V166.191Z" fill="#16A75C"/>
<path d="M260.443 61.5321H107.227V157.443H260.443V61.5321Z" fill="#008444"/>
<path d="M260.443 148.175H107.227V157.339H260.443V148.175Z" fill="#006430"/>
<path d="M260.443 61.5321H107.227V66.1142H260.443V61.5321Z" fill="#006430"/>
<path opacity="0.16" d="M158.264 61.5321L107.227 112.56V157.443H107.332L203.352 61.428L158.264 61.5321Z" fill="#4DC27E"/>
<path opacity="0.16" d="M127.058 157.443L149.601 157.339L245.622 61.428H223.078L127.058 157.443Z" fill="#4DC27E"/>
<path opacity="0.16" d="M242.387 157.339L260.443 139.323L260.338 105.27L206.379 157.339H242.387Z" fill="#4DC27E"/>
<path d="M162.962 119.474V108.913C162.962 107.916 163.032 106.815 163.172 105.609L152.673 119.474H162.962ZM172.245 119.474V122.667C172.245 122.965 172.143 123.225 171.941 123.449C171.738 123.657 171.45 123.761 171.075 123.761H167.989V131.643H162.962V123.761H148.698C148.308 123.761 147.965 123.65 147.669 123.426C147.373 123.188 147.186 122.898 147.108 122.555L146.5 119.765L162.517 99.3349H167.989V119.474H172.245Z" fill="#FFA600"/>
<path d="M199.396 115.5C199.396 118.313 199.076 120.762 198.437 122.846C197.813 124.915 196.94 126.627 195.818 127.981C194.711 129.336 193.394 130.348 191.866 131.018C190.354 131.673 188.717 132 186.956 132C185.194 132 183.558 131.673 182.046 131.018C180.549 130.348 179.247 129.336 178.141 127.981C177.034 126.627 176.169 124.915 175.545 122.846C174.922 120.762 174.61 118.313 174.61 115.5C174.61 112.672 174.922 110.223 175.545 108.154C176.169 106.085 177.034 104.373 178.141 103.019C179.247 101.664 180.549 100.66 182.046 100.005C183.558 99.3349 185.194 99 186.956 99C188.717 99 190.354 99.3349 191.866 100.005C193.394 100.66 194.711 101.664 195.818 103.019C196.94 104.373 197.813 106.085 198.437 108.154C199.076 110.223 199.396 112.672 199.396 115.5ZM193.433 115.5C193.433 113.163 193.254 111.228 192.895 109.695C192.537 108.162 192.053 106.941 191.445 106.033C190.853 105.125 190.167 104.493 189.388 104.135C188.608 103.763 187.798 103.577 186.956 103.577C186.13 103.577 185.327 103.763 184.548 104.135C183.784 104.493 183.106 105.125 182.513 106.033C181.921 106.941 181.445 108.162 181.087 109.695C180.744 111.228 180.572 113.163 180.572 115.5C180.572 117.837 180.744 119.772 181.087 121.305C181.445 122.838 181.921 124.059 182.513 124.967C183.106 125.875 183.784 126.515 184.548 126.887C185.327 127.244 186.13 127.423 186.956 127.423C187.798 127.423 188.608 127.244 189.388 126.887C190.167 126.515 190.853 125.875 191.445 124.967C192.053 124.059 192.537 122.838 192.895 121.305C193.254 119.772 193.433 117.837 193.433 115.5Z" fill="#FFA600"/>
<path d="M217.217 119.474V108.913C217.217 107.916 217.287 106.815 217.427 105.609L206.929 119.474H217.217ZM226.5 119.474V122.667C226.5 122.965 226.399 123.225 226.196 123.449C225.993 123.657 225.705 123.761 225.331 123.761H222.244V131.643H217.217V123.761H202.953C202.564 123.761 202.221 123.65 201.925 123.426C201.628 123.188 201.441 122.898 201.363 122.555L200.756 119.765L216.773 99.3349H222.244V119.474H226.5Z" fill="#FFA600"/>
<path d="M101.465 175.251L111.798 148.696C112.32 147.446 114.094 147.446 114.616 148.696L124.949 175.251H101.465Z" fill="#FFA600"/>
<path d="M120.5 155H105.5V160H120.5V155Z" fill="white"/>
<path d="M123.487 165.045H102.822V170.669H123.487V165.045Z" fill="white"/>
<path d="M126.827 175.251H99.5865V177.542H126.827V175.251Z" fill="#FF9500"/>
<path d="M243.132 175.251L253.465 148.696C253.987 147.446 255.761 147.446 256.283 148.696L266.616 175.251H243.132Z" fill="#FFA600"/>
<path d="M262.428 154.423H247.428V159.423H262.428V154.423Z" fill="white"/>
<path d="M265.154 165.045H244.489V170.669H265.154V165.045Z" fill="white"/>
<path d="M268.494 175.251H241.254V177.542H268.494V175.251Z" fill="#FF9500"/>
<path d="M86.6527 133.918C88.3933 122.256 80.3295 111.395 68.6416 109.658C56.9538 107.921 46.0679 115.967 44.3273 127.629C42.5867 139.291 50.6506 150.153 62.3384 151.889C74.0262 153.626 84.9121 145.58 86.6527 133.918Z" fill="#1FB767"/>
<path fill-rule="evenodd" clip-rule="evenodd" d="M65.5227 122.614C65.8366 122.614 66.091 122.868 66.091 123.182V133.593V133.598V139.278L66.1852 139.181C66.831 138.517 67.6986 137.625 68.5858 136.714C70.3575 134.894 72.2147 132.989 72.5316 132.673C72.7538 132.451 73.1136 132.451 73.3353 132.674C73.557 132.896 73.5566 133.256 73.3344 133.477C73.0251 133.786 71.1772 135.682 69.4002 137.507C68.5132 138.418 67.6456 139.31 66.9999 139.973L66.091 140.908V177.438C66.091 177.752 65.8366 178.006 65.5227 178.006C65.2089 178.006 64.9544 177.752 64.9544 177.438V133.814L56.7509 124.708C56.5408 124.475 56.5595 124.115 56.7927 123.905C57.0259 123.695 57.3852 123.714 57.5953 123.947L64.9544 132.116V123.182C64.9544 122.868 65.2089 122.614 65.5227 122.614Z" fill="#008444"/>
<path d="M1.12622 177.959H360.056" stroke="#008444" stroke-width="1.1366" stroke-miterlimit="10" stroke-linecap="round" stroke-linejoin="round"/>
<g clip-path="url(#clip1_10444_67678)">
<path d="M110.036 118.943L110.036 116.03L98.5 116.03L98.5 118.943L110.036 118.943Z" fill="#001B3D"/>
<path d="M129.336 107L129.336 127.9L118.646 127.9C112.781 127.9 107.955 123.239 107.955 117.414C108.03 111.661 112.781 107 118.72 107L129.336 107Z" fill="#FF9500"/>
<path d="M124.249 107.035L124.249 127.935L129.371 127.935L129.371 107.035L124.249 107.035Z" fill="#FF7500"/>
<path d="M129.338 113.481L129.338 110.059L133.718 110.059C134.683 110.059 135.5 110.787 135.5 111.733C135.5 112.68 134.683 113.481 133.718 113.481L129.338 113.481Z" fill="white"/>
<path d="M129.338 124.914L129.338 121.492L133.718 121.492C134.683 121.492 135.5 122.293 135.5 123.239C135.5 124.186 134.683 124.987 133.718 124.987L129.338 124.987L129.338 124.914Z" fill="white"/>
</g>
<g clip-path="url(#clip2_10444_67678)">
<path d="M257.964 116.057L257.964 118.97L269.5 118.97L269.5 116.057L257.964 116.057Z" fill="#001B3D"/>
<path d="M238.664 128L238.664 107.1L249.354 107.1C255.219 107.1 260.045 111.761 260.045 117.586C259.97 123.339 255.219 128 249.28 128L238.664 128Z" fill="#FF9500"/>
<path d="M243.751 127.965L243.751 107.065L238.629 107.065L238.629 127.965L243.751 127.965Z" fill="#FF7500"/>
</g>
</g>
<defs>
<clipPath id="clip0_10444_67678">
<rect width="361" height="179" fill="white" transform="translate(0.5)"/>
</clipPath>
<clipPath id="clip1_10444_67678">
<rect width="22" height="37" fill="white" transform="translate(135.5 107) rotate(90)"/>
</clipPath>
<clipPath id="clip2_10444_67678">
<rect width="22" height="37" fill="white" transform="translate(232.5 128) rotate(-90)"/>
</clipPath>
</defs>
</svg>
