<svg width="1440" height="465" viewBox="0 0 1440 465" fill="none" xmlns="http://www.w3.org/2000/svg">
<g opacity="0.5">
<ellipse cx="1425.72" cy="6.2013" rx="6.19877" ry="6.2013" fill="#097035"/>
<ellipse cx="1403.09" cy="31.8946" rx="6.20132" ry="6.19882" transform="rotate(-85.4111 1403.09 31.8946)" fill="#097035"/>
<ellipse cx="1380.37" cy="58.3702" rx="6.20132" ry="6.19882" transform="rotate(-85.4111 1380.37 58.3702)" fill="#097035"/>
<path d="M1409.04 250.562V55.664C1409.04 52.2681 1406.39 49.6104 1402.99 49.6104C1399.6 49.6104 1396.94 52.2681 1396.94 55.664V250.562H1409.04Z" fill="#099449"/>
<path d="M1363.59 250.562V55.664C1363.59 52.2681 1360.93 49.6104 1357.53 49.6104C1354.14 49.6104 1351.48 52.2681 1351.48 55.664V250.562H1363.59Z" fill="#099449"/>
<path d="M1431.77 220.737V28.0537C1431.77 24.6577 1429.12 22 1425.72 22C1422.33 22 1419.67 24.6577 1419.67 28.0537V220.737H1431.77Z" fill="#099449"/>
<path d="M1341 220.737V28.0537C1341 24.6577 1338.35 22 1334.95 22C1331.56 22 1328.9 24.6577 1328.9 28.0537V220.737H1341Z" fill="#099449"/>
<ellipse cx="1334.95" cy="6.2013" rx="6.19877" ry="6.2013" fill="#097035"/>
<ellipse cx="1357.55" cy="31.895" rx="6.19882" ry="6.20132" transform="rotate(-4.58885 1357.55 31.895)" fill="#097035"/>
<ellipse cx="1380.12" cy="58.3281" rx="6.19882" ry="6.20132" transform="rotate(-4.58885 1380.12 58.3281)" fill="#097035"/>
<path d="M1322.85 334.28L1375.98 383.005C1377.02 383.891 1378.2 384.334 1379.53 384.481C1379.82 384.481 1379.97 384.481 1380.26 384.481C1380.56 384.481 1380.71 384.481 1381 384.481C1382.33 384.334 1383.51 383.891 1384.54 383.005L1437.68 334.28C1440.18 332.065 1440.33 328.226 1438.12 325.716C1435.9 323.206 1432.07 323.059 1429.56 325.273L1386.46 364.696V350.079L1404.17 338.119C1404.76 337.676 1405.35 337.233 1405.94 336.938C1406.53 336.643 1406.98 336.347 1407.42 335.757C1422.77 323.945 1431.77 305.636 1431.77 285.999V230.334H1419.67V285.999C1419.67 297.368 1415.83 308.146 1409.19 316.857V260.16H1397.09V328.226L1386.61 335.314V282.75H1374.21V335.609L1363.73 328.522V260.455H1351.63V317.153C1344.84 308.441 1341.15 297.515 1341.15 286.294V230.63H1329.05V286.294C1329.05 305.784 1338.05 324.092 1353.4 336.052C1353.84 336.495 1354.29 336.938 1354.88 337.233C1355.47 337.676 1356.06 338.119 1356.65 338.414L1374.36 350.374V364.991L1331.26 325.569C1328.75 323.354 1324.92 323.502 1322.7 326.012C1320.19 328.226 1320.34 332.065 1322.85 334.28Z" fill="#FDBE21"/>
<path d="M1386.46 273.153V80.3217C1386.46 76.9258 1383.81 74.2681 1380.41 74.2681H1380.26H1380.12C1376.72 74.2681 1374.06 76.9258 1374.06 80.3217V273.153H1386.46Z" fill="#099449"/>
<path d="M1287.73 188.401C1291.12 188.401 1294.07 190.469 1295.11 193.569L1305.29 222.213C1305.58 222.066 1305.88 221.918 1306.17 221.77L1310.9 218.079C1316.06 213.945 1317.1 206.562 1313.41 201.099C1312.23 199.328 1311.49 197.113 1311.49 194.898V186.039C1311.49 184.415 1311.93 182.791 1312.52 181.314L1317.39 171.126C1318.42 169.059 1319.01 166.549 1319.01 164.187V123.288C1319.01 120.187 1316.51 117.825 1313.55 117.825H1298.8C1295.7 117.825 1293.33 120.335 1293.33 123.288V135.543C1293.33 135.69 1293.19 135.838 1293.19 135.986L1272.52 154.147C1271.34 155.18 1270.61 156.657 1270.61 158.281V175.704C1270.61 175.851 1270.61 175.999 1270.46 176.146L1262.49 185.301C1261.75 186.187 1261.31 187.22 1261.16 188.254H1287.73V188.401Z" fill="#FDBE21"/>
<ellipse cx="1251.42" cy="139.554" rx="4.87176" ry="4.87149" transform="rotate(-48.8922 1251.42 139.554)" fill="#E19D20"/>
<ellipse cx="1230.93" cy="162.86" rx="7.38145" ry="7.38104" transform="rotate(-48.8922 1230.93 162.86)" fill="#FDBE21"/>
<ellipse cx="1210.46" cy="186.375" rx="4.87176" ry="4.87149" transform="rotate(-48.8922 1210.46 186.375)" fill="#E19D20"/>
<path d="M1216.29 249.086C1216.88 248.938 1217.47 248.643 1218.06 248.495L1227.95 240.965C1229.28 239.931 1231.05 239.341 1232.67 239.341H1245.96C1247.14 239.341 1248.17 238.307 1248.17 237.126V222.656C1248.17 218.375 1251.71 214.831 1255.99 214.831H1270.9C1275.18 214.831 1278.72 218.375 1278.72 222.656V232.106C1278.72 234.173 1277.1 235.797 1275.03 235.797C1272.97 235.797 1271.34 234.173 1271.34 232.106V222.656C1271.34 222.361 1271.05 222.066 1270.75 222.066H1258.21C1256.58 222.066 1255.4 223.395 1255.4 224.871V243.327C1255.4 244.952 1256.73 246.133 1258.21 246.133H1289.35C1290.09 245.837 1290.82 245.542 1291.56 245.099L1301.3 233.73C1301.45 233.582 1301.45 233.435 1301.45 233.287V233.14L1288.61 197.408C1288.17 196.227 1287.14 195.489 1285.95 195.489H1251.42C1250.68 195.784 1250.09 196.079 1249.35 196.375L1233.41 212.616C1231.94 214.093 1229.87 214.979 1227.8 214.979H1209.06C1208.32 215.274 1207.73 215.569 1206.99 215.864L1187.81 235.945H1178.8C1177.18 235.945 1176 237.274 1176 238.75V245.985C1176 247.609 1177.33 248.79 1178.8 248.79H1216.29V249.086Z" fill="#099449"/>
<path d="M256.468 292.952C251.671 289.476 245.84 287.973 240.009 288.443L234.084 289.006C233.426 289.1 233.144 289.758 233.52 290.322L239.069 298.12C243.207 303.945 249.884 307.421 257.032 307.421H260.888V328.278L256.562 325.178C251.765 321.702 245.934 320.198 240.104 320.668L234.179 321.232C233.52 321.326 233.238 321.983 233.614 322.547L239.163 330.345C243.301 336.17 249.979 339.646 257.126 339.646H260.982H265.308H269.634H273.49C280.638 339.646 287.315 336.17 291.454 330.345L297.002 322.547C297.379 321.983 297.002 321.326 296.438 321.232L290.513 320.668C284.682 320.104 278.851 321.702 274.055 325.178L269.729 328.278V307.421H273.584C280.732 307.421 287.409 303.945 291.548 298.12L297.096 290.322C297.473 289.758 297.096 289.1 296.532 289.006L290.607 288.443C284.776 287.879 278.945 289.476 274.149 292.952L269.823 296.053V275.196H273.679C280.826 275.196 287.504 271.719 291.642 265.894L297.19 258.096C297.567 257.533 297.19 256.875 296.626 256.781L290.701 256.217C284.87 255.654 279.039 257.251 274.243 260.727L269.917 263.827V242.97H273.773C280.92 242.97 287.598 239.494 291.736 233.669L297.284 225.871C297.661 225.307 297.284 224.65 296.72 224.556L290.795 223.992C284.964 223.428 279.133 225.025 274.337 228.502L270.011 231.602V210.651H273.867C281.014 210.651 287.692 207.175 291.83 201.35L297.379 193.552C297.755 192.988 297.379 192.33 296.814 192.236L290.889 191.673C285.058 191.109 279.227 192.706 274.431 196.182L270.105 199.283V178.425H273.961C281.108 178.425 287.786 174.949 291.924 169.124L297.473 161.326C297.849 160.762 297.473 160.105 296.908 160.011L290.983 159.447C285.152 158.883 279.321 160.481 274.525 163.957L270.199 167.057V139.717C270.199 137.275 268.224 135.396 265.873 135.396C263.427 135.396 261.546 137.368 261.546 139.717V167.057L257.22 163.957C252.424 160.481 246.593 158.977 240.762 159.447L234.837 160.011C234.179 160.105 233.896 160.762 234.273 161.326L239.821 169.124C243.959 174.949 250.637 178.425 257.784 178.425H261.64V199.283L257.314 196.182C252.518 192.706 246.687 191.203 240.856 191.673L234.931 192.236C234.273 192.33 233.99 192.988 234.367 193.552L239.915 201.35C244.054 207.175 250.731 210.651 257.879 210.651H261.734V231.508L257.408 228.408C252.612 224.931 246.781 223.428 240.95 223.898L235.025 224.462C234.367 224.556 234.084 225.213 234.461 225.777L240.009 233.575C244.148 239.4 250.825 242.876 257.973 242.876H261.829V263.733L257.502 260.633C252.706 257.157 246.875 255.654 241.044 256.123L235.119 256.687C234.461 256.781 234.179 257.439 234.555 258.002L240.104 265.8C244.242 271.625 250.919 275.102 258.067 275.102H261.923V295.959L256.468 292.952Z" fill="#099449"/>
<ellipse cx="265.12" cy="124.967" rx="4.32619" ry="4.32177" fill="#097035"/>
<ellipse cx="265.12" cy="113.129" rx="2.44524" ry="2.44274" fill="#097035"/>
<ellipse cx="265.12" cy="103.076" rx="1.50476" ry="1.50323" fill="#097035"/>
<mask id="mask0" mask-type="alpha" maskUnits="userSpaceOnUse" x="233" y="135" width="65" height="205">
<path fill-rule="evenodd" clip-rule="evenodd" d="M256.468 292.952C251.671 289.476 245.84 287.973 240.009 288.443L234.084 289.006C233.426 289.1 233.144 289.758 233.52 290.322L239.069 298.12C243.207 303.945 249.884 307.421 257.032 307.421H260.888V328.278L256.562 325.178C251.765 321.702 245.934 320.198 240.104 320.668L234.179 321.232C233.52 321.326 233.238 321.983 233.614 322.547L239.163 330.345C243.301 336.17 249.979 339.646 257.126 339.646H260.982H265.308H269.634H273.49C280.638 339.646 287.315 336.17 291.454 330.345L297.002 322.547C297.379 321.983 297.002 321.326 296.438 321.232L290.513 320.668C284.682 320.104 278.851 321.702 274.055 325.178L269.729 328.278V307.421H273.584C280.732 307.421 287.409 303.945 291.548 298.12L297.096 290.322C297.473 289.758 297.096 289.1 296.532 289.006L290.607 288.443C284.776 287.879 278.945 289.476 274.149 292.952L269.823 296.053V275.196H273.679C280.826 275.196 287.504 271.719 291.642 265.894L297.19 258.096C297.567 257.533 297.19 256.875 296.626 256.781L290.701 256.217C284.87 255.654 279.039 257.251 274.243 260.727L269.917 263.827V242.97H273.773C280.92 242.97 287.598 239.494 291.736 233.669L297.284 225.871C297.661 225.307 297.284 224.65 296.72 224.556L290.795 223.992C284.964 223.428 279.133 225.025 274.337 228.502L270.011 231.602V210.651H273.867C281.014 210.651 287.692 207.175 291.83 201.35L297.379 193.552C297.755 192.988 297.379 192.33 296.814 192.236L290.889 191.673C285.058 191.109 279.227 192.706 274.431 196.182L270.105 199.283V178.425H273.961C281.108 178.425 287.786 174.949 291.924 169.124L297.473 161.326C297.849 160.762 297.473 160.105 296.908 160.011L290.983 159.447C285.152 158.883 279.321 160.481 274.525 163.957L270.199 167.057V139.717C270.199 137.275 268.224 135.396 265.873 135.396C263.427 135.396 261.546 137.368 261.546 139.717V167.057L257.22 163.957C252.424 160.481 246.593 158.977 240.762 159.447L234.837 160.011C234.179 160.105 233.896 160.762 234.273 161.326L239.821 169.124C243.959 174.949 250.637 178.425 257.784 178.425H261.64V199.283L257.314 196.182C252.518 192.706 246.687 191.203 240.856 191.673L234.931 192.236C234.273 192.33 233.99 192.988 234.367 193.552L239.915 201.35C244.054 207.175 250.731 210.651 257.879 210.651H261.734V231.508L257.408 228.408C252.612 224.931 246.781 223.428 240.95 223.898L235.025 224.462C234.367 224.556 234.084 225.213 234.461 225.777L240.009 233.575C244.148 239.4 250.825 242.876 257.973 242.876H261.829V263.733L257.502 260.633C252.706 257.157 246.875 255.654 241.044 256.123L235.119 256.687C234.461 256.781 234.179 257.439 234.555 258.002L240.104 265.8C244.242 271.625 250.919 275.102 258.067 275.102H261.923V295.959L256.468 292.952Z" fill="white"/>
</mask>
<g mask="url(#mask0)">
<rect x="305.667" y="355.308" width="40.5345" height="219.941" transform="rotate(-180 305.667 355.308)" fill="#24B1E7"/>
</g>
<ellipse cx="217.908" cy="88.4196" rx="3.95" ry="3.94597" fill="#097035"/>
<ellipse cx="203.556" cy="104.746" rx="3.94602" ry="3.95" transform="rotate(-85.4111 203.556 104.746)" fill="#097035"/>
<ellipse cx="189.076" cy="121.593" rx="3.94602" ry="3.95" transform="rotate(-85.4111 189.076 121.593)" fill="#097035"/>
<path d="M207.375 243.91V119.894C207.375 117.733 205.682 116.042 203.519 116.042C201.356 116.042 199.663 117.733 199.663 119.894V243.91H207.375Z" fill="#099449"/>
<path d="M178.408 243.91V119.894C178.408 117.733 176.715 116.042 174.552 116.042C172.389 116.042 170.696 117.733 170.696 119.894V243.91H178.408Z" fill="#099449"/>
<path d="M221.764 224.932V102.325C221.764 100.164 220.071 98.4727 217.908 98.4727C215.745 98.4727 214.052 100.164 214.052 102.325V224.932H221.764Z" fill="#099449"/>
<path d="M163.925 224.932V102.325C163.925 100.164 162.232 98.4727 160.069 98.4727C157.906 98.4727 156.213 100.164 156.213 102.325V224.932H163.925Z" fill="#099449"/>
<ellipse cx="160.069" cy="88.4196" rx="3.95" ry="3.94597" fill="#097035"/>
<ellipse cx="174.556" cy="104.766" rx="3.95" ry="3.94602" transform="rotate(-4.58885 174.556 104.766)" fill="#097035"/>
<ellipse cx="188.94" cy="121.586" rx="3.95" ry="3.94602" transform="rotate(-4.58885 188.94 121.586)" fill="#097035"/>
<path d="M152.451 297.18L186.308 328.184C186.967 328.748 187.719 329.03 188.565 329.124C188.754 329.124 188.848 329.124 189.036 329.124C189.224 329.124 189.318 329.124 189.506 329.124C190.352 329.03 191.105 328.748 191.763 328.184L225.62 297.18C227.219 295.771 227.313 293.328 225.902 291.731C224.492 290.134 222.046 290.04 220.448 291.449L192.986 316.534V307.233L204.271 299.623C204.648 299.341 205.024 299.059 205.4 298.871C205.776 298.683 206.058 298.495 206.34 298.12C216.121 290.603 221.858 278.953 221.858 266.458V231.038H214.146V266.458C214.146 273.692 211.701 280.551 207.469 286.094V250.016H199.757V293.328L193.08 297.838V264.391H185.18V298.026L178.502 293.516V250.204H170.696V286.282C166.37 280.738 164.019 273.786 164.019 266.646V231.226H156.307V266.646C156.307 279.047 162.044 290.697 171.825 298.307C172.107 298.589 172.389 298.871 172.765 299.059C173.142 299.341 173.518 299.623 173.894 299.811L185.18 307.421V316.722L157.718 291.637C156.119 290.228 153.674 290.322 152.263 291.919C150.758 293.328 150.852 295.771 152.451 297.18Z" fill="#FDBE21"/>
<path d="M192.986 258.284V135.583C192.986 133.423 191.293 131.731 189.13 131.731H189.036H188.942C186.779 131.731 185.086 133.423 185.086 135.583V258.284H192.986Z" fill="#099449"/>
<path d="M342.239 222.864C342.239 225.025 340.923 226.904 338.948 227.562L320.702 234.045C320.796 234.233 320.89 234.42 320.985 234.608L323.336 237.615C325.969 240.903 330.671 241.561 334.151 239.212C335.28 238.46 336.69 237.991 338.101 237.991H343.744C344.779 237.991 345.813 238.272 346.754 238.648L353.243 241.749C354.56 242.406 356.158 242.782 357.663 242.782H383.714C385.689 242.782 387.194 241.185 387.194 239.306V229.911C387.194 227.938 385.595 226.435 383.714 226.435H375.908C375.814 226.435 375.72 226.341 375.626 226.341L364.058 213.187C363.4 212.436 362.46 211.966 361.425 211.966H350.327C350.233 211.966 350.139 211.966 350.045 211.872L344.214 206.799C343.65 206.329 342.992 206.047 342.333 205.953V222.864H342.239Z" fill="#FDBE21"/>
<ellipse cx="373.46" cy="199.747" rx="3.10188" ry="3.10231" transform="rotate(-48.8922 373.46 199.747)" fill="#E19D20"/>
<ellipse cx="358.553" cy="186.774" rx="4.69982" ry="4.70047" transform="rotate(-48.8922 358.553 186.774)" fill="#FDBE21"/>
<ellipse cx="343.575" cy="173.739" rx="3.10188" ry="3.10231" transform="rotate(-48.8922 343.575 173.739)" fill="#E19D20"/>
<path d="M303.586 177.486C303.68 177.862 303.868 178.237 303.962 178.613L308.758 184.908C309.417 185.753 309.793 186.881 309.793 187.914V196.37C309.793 197.122 310.451 197.779 311.204 197.779H320.42C323.148 197.779 325.405 200.034 325.405 202.759V212.248C325.405 214.972 323.148 217.227 320.42 217.227H314.401C313.085 217.227 312.05 216.194 312.05 214.878C312.05 213.563 313.085 212.53 314.401 212.53H320.42C320.608 212.53 320.796 212.342 320.796 212.154V204.168C320.796 203.134 319.95 202.383 319.01 202.383H307.254C306.219 202.383 305.467 203.228 305.467 204.168V223.992C305.655 224.462 305.843 224.931 306.125 225.401L313.367 231.602C313.461 231.696 313.555 231.696 313.649 231.696H313.743L336.502 223.522C337.255 223.24 337.725 222.582 337.725 221.831V199.846C337.537 199.376 337.349 199.001 337.161 198.531L326.815 188.384C325.875 187.445 325.311 186.129 325.311 184.814V172.882C325.123 172.412 324.935 172.037 324.746 171.567L311.956 159.353V153.622C311.956 152.589 311.11 151.837 310.169 151.837H305.561C304.526 151.837 303.774 152.682 303.774 153.622V177.486H303.586Z" fill="#099449"/>
<path d="M78.1536 195.431C82.4798 198.531 87.8405 200.034 93.2012 199.471L98.562 199.001C99.1262 198.907 99.4084 198.249 99.1262 197.779L94.0477 190.639C90.2858 185.378 84.1727 182.183 77.6834 182.183H74.2036V163.111L78.1536 165.93C82.4798 169.03 87.8405 170.533 93.2012 169.97L98.562 169.5C99.1262 169.406 99.4084 168.748 99.1262 168.279L94.0477 161.138C90.2858 155.877 84.1727 152.683 77.6834 152.683H74.2036H70.2536H66.3036H62.8239C56.3346 152.683 50.2215 155.877 46.4596 161.138L41.381 168.279C41.0048 168.748 41.381 169.406 41.9453 169.5L47.306 169.97C52.6667 170.439 57.9334 169.03 62.3536 165.93L66.3036 163.111V182.183H62.8239C56.3346 182.183 50.2215 185.378 46.4596 190.639L41.381 197.779C41.0048 198.249 41.381 198.907 41.9453 199.001L47.306 199.471C52.6667 199.94 57.9334 198.531 62.3536 195.431L66.3036 192.612V267.773L62.3536 264.955C58.0274 261.854 52.6667 260.351 47.306 260.915L41.8512 261.385C41.287 261.479 41.0048 262.136 41.287 262.606L46.3655 269.746C50.1274 275.008 56.2405 278.202 62.7298 278.202H66.2096V296.429L62.2596 293.61C57.9334 290.51 52.5727 289.006 47.212 289.57L41.8512 290.04C41.287 290.134 41.0048 290.791 41.287 291.261L46.3655 298.402C50.1274 303.663 56.2405 306.857 62.7298 306.857H70.1596H77.5893C84.0786 306.857 90.1917 303.663 93.9536 298.402L99.0322 291.261C99.4084 290.791 99.0322 290.134 98.4679 290.04L93.1072 289.57C87.7465 289.1 82.4798 290.51 78.0596 293.61L74.1096 296.429V278.202H77.5893C84.0786 278.202 90.1917 275.008 93.9536 269.746L99.0322 262.606C99.4084 262.136 99.0322 261.479 98.4679 261.385L93.1072 260.915C87.7465 260.445 82.4798 261.854 78.0596 264.955L74.1096 267.773V192.612L78.1536 195.431Z" fill="#24B1E7"/>
<path d="M80.2226 229.065H95.6464C96.3047 229.065 96.6809 229.723 96.3047 230.287L89.9095 239.306C88.969 240.621 86.9 240.621 85.9595 239.306L79.5642 230.287C79.188 229.723 79.5642 229.065 80.2226 229.065Z" fill="#FDBE21"/>
<ellipse cx="87.9345" cy="220.61" rx="2.82143" ry="2.81855" fill="#FDBE21"/>
<path d="M58.7798 229.159H43.45C42.7917 229.159 42.4155 228.502 42.7917 227.938L49.1869 218.919C50.1274 217.603 52.1964 217.603 53.1369 218.919L59.5321 227.938C59.8143 228.408 59.4381 229.159 58.7798 229.159Z" fill="#E19D20"/>
<ellipse cx="51.1619" cy="237.521" rx="2.82143" ry="2.81855" fill="#E19D20"/>
<mask id="mask1" mask-type="alpha" maskUnits="userSpaceOnUse" x="41" y="152" width="59" height="155">
<path fill-rule="evenodd" clip-rule="evenodd" d="M78.1536 195.431C82.4798 198.531 87.8405 200.034 93.2012 199.471L98.562 199.001C99.1262 198.907 99.4084 198.249 99.1262 197.779L94.0477 190.639C90.2858 185.378 84.1727 182.183 77.6834 182.183H74.2036V163.111L78.1536 165.93C82.4798 169.03 87.8405 170.533 93.2012 169.97L98.562 169.5C99.1262 169.406 99.4084 168.748 99.1262 168.279L94.0477 161.138C90.2858 155.877 84.1727 152.683 77.6834 152.683H74.2036H70.2536H66.3036H62.8239C56.3346 152.683 50.2215 155.877 46.4596 161.138L41.381 168.279C41.0048 168.748 41.381 169.406 41.9453 169.5L47.306 169.97C52.6667 170.439 57.9334 169.03 62.3536 165.93L66.3036 163.111V182.183H62.8239C56.3346 182.183 50.2215 185.378 46.4596 190.639L41.381 197.779C41.0048 198.249 41.381 198.907 41.9453 199.001L47.306 199.471C52.6667 199.94 57.9334 198.531 62.3536 195.431L66.3036 192.612V267.773L62.3536 264.955C58.0274 261.854 52.6667 260.351 47.306 260.915L41.8512 261.385C41.287 261.479 41.0048 262.136 41.287 262.606L46.3655 269.746C50.1274 275.008 56.2405 278.202 62.7298 278.202H66.2096V296.429L62.2596 293.61C57.9334 290.51 52.5727 289.006 47.212 289.57L41.8512 290.04C41.287 290.134 41.0048 290.791 41.287 291.261L46.3655 298.402C50.1274 303.663 56.2405 306.857 62.7298 306.857H70.1596H77.5893C84.0786 306.857 90.1917 303.663 93.9536 298.402L99.0322 291.261C99.4084 290.791 99.0322 290.134 98.4679 290.04L93.1072 289.57C87.7465 289.1 82.4798 290.51 78.0596 293.61L74.1096 296.429V278.202H77.5893C84.0786 278.202 90.1917 275.008 93.9536 269.746L99.0322 262.606C99.4084 262.136 99.0322 261.479 98.4679 261.385L93.1072 260.915C87.7465 260.445 82.4798 261.854 78.0596 264.955L74.1096 267.773V192.612L78.1536 195.431Z" fill="white"/>
</mask>
<g mask="url(#mask1)">
<path d="M28.6846 298.589L70.1596 313.997V142.724H28.6846V298.589Z" fill="#0079A4"/>
</g>
<path d="M135.523 394.138C137.874 394.138 139.661 392.259 139.661 390.004V142.629H131.29V389.91C131.384 392.259 133.171 394.138 135.523 394.138Z" fill="#097035"/>
<path d="M123.202 353.551C125.554 353.551 127.34 351.672 127.34 349.417V142.723H118.97V349.417C119.064 351.672 120.945 353.551 123.202 353.551Z" fill="#097035"/>
<path d="M110.976 329.123C113.327 329.123 115.114 327.244 115.114 324.989V142.723H106.744V324.989C106.744 327.244 108.625 329.123 110.976 329.123Z" fill="#097035"/>
<path d="M134.394 142.629H131.385V165.084L139.661 167.057V143.945L134.394 142.629Z" fill="#004A20"/>
<path d="M119.064 142.629V162.171L127.434 164.144V142.629H119.064Z" fill="#004A20"/>
<path d="M106.744 142.629V159.259L115.114 161.232V142.629H106.744Z" fill="#004A20"/>
<path d="M37.0547 25.284H47.3059C48.3404 25.284 49.1869 24.4384 49.1869 23.405C49.1869 22.5594 48.6226 21.8078 47.7762 21.6199L42.5095 20.2106L30.3774 11.9429C28.4024 10.6275 26.8035 8.84245 25.5809 6.86947L22.3833 1.60818C21.4428 0.0109988 19.3738 -0.458759 17.775 0.480757L17.6809 0.574708C15.894 1.70213 15.5178 4.23882 16.9285 5.74205C19.1857 8.18479 21.9131 11.0973 21.9131 11.0973C17.6809 11.661 13.3547 10.6275 9.87497 8.18479L9.68688 7.99689C8.27616 7.05737 6.48926 7.24527 5.36069 8.5606L5.26664 8.65455C3.85592 10.3457 4.32616 12.8824 6.39521 13.9158C7.52378 14.4795 8.7464 15.0433 9.87497 15.607C11.944 16.6404 14.2952 17.2041 16.6464 17.2041L18.9035 17.2981L16.2702 18.9892C14.2952 20.2106 12.0381 21.0562 9.68688 21.432L5.45473 21.9957C4.13807 22.1836 3.10354 23.311 3.19759 24.7203V24.8142C3.19759 26.5054 4.70235 27.7267 6.39521 27.5388C7.80592 27.3509 9.40473 27.0691 10.8154 26.8812C13.1666 26.5054 15.4238 25.6598 17.3988 24.4384L17.4928 24.3445V45.9533C17.4928 59.2005 20.3143 72.3537 25.675 84.4735L27.5559 88.7013C33.3869 101.761 42.0393 113.411 52.9488 122.618C65.6452 133.328 80.8809 140.657 97.2452 143.663L139.849 151.555V140.657C139.849 130.792 131.479 114.068 125.836 107.116C118.312 97.8146 104.111 85.6949 94.4238 80.8094L53.419 60.14C43.45 55.1606 35.644 46.705 31.4119 36.3703C31.0357 35.4308 30.8476 34.3973 30.8476 33.4578C30.8476 30.5453 32.5404 27.8207 35.1738 26.5993L37.0547 25.284Z" fill="#099449"/>
<mask id="mask2" mask-type="alpha" maskUnits="userSpaceOnUse" x="3" y="0" width="137" height="152">
<path fill-rule="evenodd" clip-rule="evenodd" d="M37.0547 25.284H47.3059C48.3404 25.284 49.1869 24.4384 49.1869 23.405C49.1869 22.5594 48.6226 21.8078 47.7762 21.6199L42.5095 20.2106L30.3774 11.9429C28.4024 10.6275 26.8035 8.84245 25.5809 6.86947L22.3833 1.60818C21.4428 0.0109988 19.3738 -0.458759 17.775 0.480757L17.6809 0.574708C15.894 1.70213 15.5178 4.23882 16.9285 5.74205C19.1857 8.18479 21.9131 11.0973 21.9131 11.0973C17.6809 11.661 13.3547 10.6275 9.87497 8.18479L9.68688 7.99689C8.27616 7.05737 6.48926 7.24527 5.36069 8.5606L5.26664 8.65455C3.85592 10.3457 4.32616 12.8824 6.39521 13.9158C7.52378 14.4795 8.7464 15.0433 9.87497 15.607C11.944 16.6404 14.2952 17.2041 16.6464 17.2041L18.9035 17.2981L16.2702 18.9892C14.2952 20.2106 12.0381 21.0562 9.68688 21.432L5.45473 21.9957C4.13807 22.1836 3.10354 23.311 3.19759 24.7203V24.8142C3.19759 26.5054 4.70235 27.7267 6.39521 27.5388C7.80592 27.3509 9.40473 27.0691 10.8154 26.8812C13.1666 26.5054 15.4238 25.6598 17.3988 24.4384L17.4928 24.3445V45.9533C17.4928 59.2005 20.3143 72.3537 25.675 84.4735L27.5559 88.7013C33.3869 101.761 42.0393 113.411 52.9488 122.618C65.6452 133.328 80.8809 140.657 97.2452 143.663L139.849 151.555V140.657C139.849 130.792 131.479 114.068 125.836 107.116C118.312 97.8146 104.111 85.6949 94.4238 80.8094L53.419 60.14C43.45 55.1606 35.644 46.705 31.4119 36.3703C31.0357 35.4308 30.8476 34.3973 30.8476 33.4578C30.8476 30.5453 32.5404 27.8207 35.1738 26.5993L37.0547 25.284Z" fill="white"/>
</mask>
<g mask="url(#mask2)">
<ellipse cx="28.0261" cy="147.327" rx="67.9964" ry="67.927" fill="#FDBE21"/>
<path fill-rule="evenodd" clip-rule="evenodd" d="M-43.9203 147.233C-43.9203 186.881 -11.662 219.106 28.0261 219.106C67.7142 219.106 99.9726 186.881 99.9726 147.233C99.9726 107.586 67.7142 75.3604 28.0261 75.3604C-11.662 75.3604 -43.9203 107.586 -43.9203 147.233ZM-36.1143 147.233C-36.1143 111.908 -7.33577 83.1583 28.0261 83.1583C63.4821 83.1583 92.1666 111.908 92.1666 147.233C92.1666 182.559 63.388 211.308 28.0261 211.308C-7.33577 211.308 -36.1143 182.559 -36.1143 147.233Z" fill="#FDBE21"/>
<path d="M28.0261 200.034C-1.03462 200.034 -24.7346 176.359 -24.7346 147.327C-24.7346 118.296 -1.03462 94.6206 28.0261 94.6206C57.0868 94.6206 80.7868 118.296 80.7868 147.327C80.8809 176.359 57.1809 200.034 28.0261 200.034Z" fill="#097035"/>
</g>
<mask id="mask3" mask-type="alpha" maskUnits="userSpaceOnUse" x="3" y="0" width="137" height="152">
<path fill-rule="evenodd" clip-rule="evenodd" d="M37.0547 25.284H47.3059C48.3404 25.284 49.1869 24.4384 49.1869 23.405C49.1869 22.5594 48.6226 21.8078 47.7762 21.6199L42.5095 20.2106L30.3774 11.9429C28.4024 10.6275 26.8035 8.84245 25.5809 6.86947L22.3833 1.60818C21.4428 0.0109988 19.3738 -0.458759 17.775 0.480757L17.6809 0.574708C15.894 1.70213 15.5178 4.23882 16.9285 5.74205C19.1857 8.18479 21.9131 11.0973 21.9131 11.0973C17.6809 11.661 13.3547 10.6275 9.87497 8.18479L9.68688 7.99689C8.27616 7.05737 6.48926 7.24527 5.36069 8.5606L5.26664 8.65455C3.85592 10.3457 4.32616 12.8824 6.39521 13.9158C7.52378 14.4795 8.7464 15.0433 9.87497 15.607C11.944 16.6404 14.2952 17.2041 16.6464 17.2041L18.9035 17.2981L16.2702 18.9892C14.2952 20.2106 12.0381 21.0562 9.68688 21.432L5.45473 21.9957C4.13807 22.1836 3.10354 23.311 3.19759 24.7203V24.8142C3.19759 26.5054 4.70235 27.7267 6.39521 27.5388C7.80592 27.3509 9.40473 27.0691 10.8154 26.8812C13.1666 26.5054 15.4238 25.6598 17.3988 24.4384L17.4928 24.3445V45.9533C17.4928 59.2005 20.3143 72.3537 25.675 84.4735L27.5559 88.7013C33.3869 101.761 42.0393 113.411 52.9488 122.618C65.6452 133.328 80.8809 140.657 97.2452 143.663L139.849 151.555V140.657C139.849 130.792 131.479 114.068 125.836 107.116C118.312 97.8146 104.111 85.6949 94.4238 80.8094L53.419 60.14C43.45 55.1606 35.644 46.705 31.4119 36.3703C31.0357 35.4308 30.8476 34.3973 30.8476 33.4578C30.8476 30.5453 32.5404 27.8207 35.1738 26.5993L37.0547 25.284Z" fill="white"/>
</mask>
<g mask="url(#mask3)">
<path d="M30.6595 33.1758V42.1012C30.6595 51.8722 37.431 60.3278 46.9298 62.4887L68.4667 67.4681L48.4345 43.0407L30.6595 33.1758Z" fill="#097035"/>
</g>
<path d="M4.1381 70.2866C1.7869 70.2866 0 72.1657 0 74.4205V321.701H8.37024V74.5144C8.37024 72.1657 6.48929 70.2866 4.1381 70.2866Z" fill="#097035"/>
<path d="M16.4583 110.874C14.1071 110.874 12.3202 112.753 12.3202 115.007V321.701H20.6904V115.007C20.6904 112.753 18.8095 110.874 16.4583 110.874Z" fill="#097035"/>
<path d="M28.7786 135.301C26.4274 135.301 24.6405 137.18 24.6405 139.435V321.701H33.0107V139.435C32.9167 137.18 31.0357 135.301 28.7786 135.301Z" fill="#097035"/>
<mask id="mask4" mask-type="alpha" maskUnits="userSpaceOnUse" x="0" y="313" width="137" height="152">
<path fill-rule="evenodd" clip-rule="evenodd" d="M102.606 439.141H92.3548C91.3202 439.141 90.4738 439.986 90.4738 441.02C90.4738 441.865 91.0381 442.617 91.8845 442.805L97.1512 444.214L109.283 452.482C111.258 453.797 112.857 455.582 114.08 457.555L117.277 462.816C118.218 464.414 120.287 464.883 121.886 463.944L121.98 463.85C123.767 462.723 124.143 460.186 122.732 458.683C120.475 456.24 117.748 453.327 117.748 453.327C121.98 452.764 126.306 453.797 129.786 456.24L129.974 456.428C131.385 457.367 133.171 457.179 134.3 455.864L134.394 455.77C135.805 454.079 135.335 451.542 133.265 450.509C132.137 449.945 130.914 449.381 129.786 448.818C127.717 447.784 125.365 447.221 123.014 447.221L120.757 447.127L123.39 445.435C125.365 444.214 127.623 443.368 129.974 442.993L134.206 442.429C135.523 442.241 136.557 441.114 136.463 439.704V439.61C136.463 437.919 134.958 436.698 133.265 436.886C131.855 437.074 130.256 437.356 128.845 437.544C126.494 437.919 124.237 438.765 122.262 439.986L122.168 440.08V418.471C122.168 405.224 119.346 392.071 113.986 379.951L112.105 375.723C106.274 362.664 97.6214 351.014 86.7119 341.807C74.0155 331.096 58.7798 323.768 42.4155 320.762L0 313.058V323.956C0 333.821 8.37024 350.544 14.0131 357.497C21.5369 366.798 35.7381 378.918 45.425 383.803L86.4298 404.473C96.3988 409.452 104.205 417.908 108.437 428.242C108.813 429.182 109.001 430.215 109.001 431.155C109.001 434.067 107.308 436.792 104.675 438.013L102.606 439.141Z" fill="white"/>
</mask>
<g mask="url(#mask4)">
<ellipse cx="111.634" cy="317.097" rx="67.9964" ry="67.927" fill="#FDBE21"/>
<path fill-rule="evenodd" clip-rule="evenodd" d="M39.6881 317.098C39.6881 356.745 71.9464 388.971 111.635 388.971C151.229 388.971 183.581 356.745 183.581 317.098C183.581 277.45 151.323 245.225 111.635 245.225C71.9464 245.225 39.6881 277.45 39.6881 317.098ZM47.4941 317.098C47.4941 281.772 76.2726 253.023 111.635 253.023C146.996 253.023 175.775 281.772 175.775 317.098C175.775 352.423 146.996 381.173 111.635 381.173C76.2726 381.173 47.4941 352.423 47.4941 317.098Z" fill="#FDBE21"/>
</g>
</g>
</svg>
