<svg width="24" height="24" viewBox="0 0 24 24" fill="none" xmlns="http://www.w3.org/2000/svg">
<path d="M6.75 2C6.15326 2 5.58097 2.23705 5.15901 2.65901C4.73705 3.08097 4.5 3.65326 4.5 4.25V20.75C4.5 21.164 4.836 21.5 5.25 21.5H7.5V17.25C7.5 17.0511 7.57902 16.8603 7.71967 16.7197C7.86032 16.579 8.05109 16.5 8.25 16.5H15.75C15.9489 16.5 16.1397 16.579 16.2803 16.7197C16.421 16.8603 16.5 17.0511 16.5 17.25V21.5H18.75C18.9489 21.5 19.1397 21.421 19.2803 21.2803C19.421 21.1397 19.5 20.9489 19.5 20.75V11.75C19.5 11.1533 19.2629 10.581 18.841 10.159C18.419 9.73705 17.8467 9.5 17.25 9.5H16.5V4.25C16.5 3.65326 16.2629 3.08097 15.841 2.65901C15.419 2.23705 14.8467 2 14.25 2H6.75ZM7.5 6.5C7.5 6.23478 7.60536 5.98043 7.79289 5.79289C7.98043 5.60536 8.23478 5.5 8.5 5.5C8.76522 5.5 9.01957 5.60536 9.20711 5.79289C9.39464 5.98043 9.5 6.23478 9.5 6.5C9.5 6.76522 9.39464 7.01957 9.20711 7.20711C9.01957 7.39464 8.76522 7.5 8.5 7.5C8.23478 7.5 7.98043 7.39464 7.79289 7.20711C7.60536 7.01957 7.5 6.76522 7.5 6.5ZM8.5 12.5C8.76522 12.5 9.01957 12.6054 9.20711 12.7929C9.39464 12.9804 9.5 13.2348 9.5 13.5C9.5 13.7652 9.39464 14.0196 9.20711 14.2071C9.01957 14.3946 8.76522 14.5 8.5 14.5C8.23478 14.5 7.98043 14.3946 7.79289 14.2071C7.60536 14.0196 7.5 13.7652 7.5 13.5C7.5 13.2348 7.60536 12.9804 7.79289 12.7929C7.98043 12.6054 8.23478 12.5 8.5 12.5ZM7.5 10C7.5 9.73478 7.60536 9.48043 7.79289 9.29289C7.98043 9.10536 8.23478 9 8.5 9C8.76522 9 9.01957 9.10536 9.20711 9.29289C9.39464 9.48043 9.5 9.73478 9.5 10C9.5 10.2652 9.39464 10.5196 9.20711 10.7071C9.01957 10.8946 8.76522 11 8.5 11C8.23478 11 7.98043 10.8946 7.79289 10.7071C7.60536 10.5196 7.5 10.2652 7.5 10ZM12 5.5C12.2652 5.5 12.5196 5.60536 12.7071 5.79289C12.8946 5.98043 13 6.23478 13 6.5C13 6.76522 12.8946 7.01957 12.7071 7.20711C12.5196 7.39464 12.2652 7.5 12 7.5C11.7348 7.5 11.4804 7.39464 11.2929 7.20711C11.1054 7.01957 11 6.76522 11 6.5C11 6.23478 11.1054 5.98043 11.2929 5.79289C11.4804 5.60536 11.7348 5.5 12 5.5ZM11 13.5C11 13.2348 11.1054 12.9804 11.2929 12.7929C11.4804 12.6054 11.7348 12.5 12 12.5C12.2652 12.5 12.5196 12.6054 12.7071 12.7929C12.8946 12.9804 13 13.2348 13 13.5C13 13.7652 12.8946 14.0196 12.7071 14.2071C12.5196 14.3946 12.2652 14.5 12 14.5C11.7348 14.5 11.4804 14.3946 11.2929 14.2071C11.1054 14.0196 11 13.7652 11 13.5ZM15.5 12.5C15.7652 12.5 16.0196 12.6054 16.2071 12.7929C16.3946 12.9804 16.5 13.2348 16.5 13.5C16.5 13.7652 16.3946 14.0196 16.2071 14.2071C16.0196 14.3946 15.7652 14.5 15.5 14.5C15.2348 14.5 14.9804 14.3946 14.7929 14.2071C14.6054 14.0196 14.5 13.7652 14.5 13.5C14.5 13.2348 14.6054 12.9804 14.7929 12.7929C14.9804 12.6054 15.2348 12.5 15.5 12.5ZM11 10C11 9.73478 11.1054 9.48043 11.2929 9.29289C11.4804 9.10536 11.7348 9 12 9C12.2652 9 12.5196 9.10536 12.7071 9.29289C12.8946 9.48043 13 9.73478 13 10C13 10.2652 12.8946 10.5196 12.7071 10.7071C12.5196 10.8946 12.2652 11 12 11C11.7348 11 11.4804 10.8946 11.2929 10.7071C11.1054 10.5196 11 10.2652 11 10Z" fill="#069550"/>
<path d="M15 21.5V18H12.75V21.5H15Z" fill="#069550"/>
<path d="M11.25 21.5V18H9V21.5H11.25Z" fill="#069550"/>
</svg>
