<svg width="39" height="39" viewBox="0 0 39 39" fill="none" xmlns="http://www.w3.org/2000/svg">
<path fill-rule="evenodd" clip-rule="evenodd" d="M24.8438 17.125C25.8275 17.125 26.625 17.9225 26.625 18.9062L26.625 24.8438C26.625 25.8275 25.8275 26.625 24.8437 26.625C23.86 26.625 23.0625 25.8275 23.0625 24.8437L23.0625 18.9062C23.0625 17.9225 23.86 17.125 24.8438 17.125Z" fill="#FF9500"/>
<path fill-rule="evenodd" clip-rule="evenodd" d="M3.72534 12.4952C2.83529 12.9287 2.83529 14.1969 3.72534 14.6304L7.03128 16.2405V26.402C7.03128 28.6956 8.49487 30.7333 10.6683 31.4659L15.897 33.2281C18.2344 34.0159 20.7656 34.0159 23.1031 33.2281L28.3317 31.4659C30.5052 30.7334 31.9688 28.6956 31.9688 26.402V16.1654L35.1204 14.6304C36.0105 14.1969 36.0105 12.9287 35.1204 12.4952L19.9428 5.10328C19.6146 4.94344 19.2311 4.94344 18.9029 5.10328L3.72534 12.4952ZM28.4063 17.9004L19.9428 22.0223C19.6146 22.1822 19.2311 22.1822 18.9029 22.0223L10.5938 17.9755V26.402C10.5938 27.1665 11.0816 27.8458 11.8061 28.09L17.0348 29.8522C18.6341 30.3912 20.366 30.3912 21.9653 29.8522L27.1939 28.09C27.9184 27.8458 28.4063 27.1665 28.4063 26.402V17.9004ZM19.4229 18.313L9.66942 13.5628L19.4229 8.81259L29.1764 13.5628L19.4229 18.313Z" fill="#16A75C"/>
</svg>
