<svg width="33" height="33" viewBox="0 0 33 33" fill="none" xmlns="http://www.w3.org/2000/svg">
<path d="M27.5 12.5V14.5H28.5V18.5C28.5 19.2956 28.1839 20.0587 27.6213 20.6213C27.0587 21.1839 26.2957 21.5 25.5 21.5C24.7044 21.5 23.9413 21.1839 23.3787 20.6213C22.8161 20.0587 22.5 19.2956 22.5 18.5V14.5H23.5V12.5H20.5V18.5C20.5015 19.6521 20.9002 20.7684 21.6288 21.6608C22.3575 22.5532 23.3715 23.1671 24.5 23.399V24.5C24.5 25.5609 24.0786 26.5783 23.3284 27.3284C22.5783 28.0786 21.5609 28.5 20.5 28.5C19.4391 28.5 18.4217 28.0786 17.6716 27.3284C16.9214 26.5783 16.5 25.5609 16.5 24.5V22.316C17.1672 22.0801 17.7296 21.6159 18.0876 21.0055C18.4457 20.3951 18.5765 19.6778 18.4568 18.9803C18.3371 18.2828 17.9747 17.65 17.4337 17.1939C16.8926 16.7378 16.2077 16.4876 15.5 16.4876C14.7923 16.4876 14.1074 16.7378 13.5663 17.1939C13.0253 17.65 12.6629 18.2828 12.5432 18.9803C12.4235 19.6778 12.5543 20.3951 12.9124 21.0055C13.2705 21.6159 13.8328 22.0801 14.5 22.316V24.5C14.5 26.0913 15.1321 27.6174 16.2574 28.7426C17.3826 29.8679 18.9087 30.5 20.5 30.5C22.0913 30.5 23.6174 29.8679 24.7426 28.7426C25.8679 27.6174 26.5 26.0913 26.5 24.5V23.399C27.6285 23.1671 28.6426 22.5532 29.3712 21.6608C30.0998 20.7684 30.4985 19.6521 30.5 18.5V12.5H27.5ZM15.5 18.5C15.6978 18.5 15.8911 18.5586 16.0556 18.6685C16.22 18.7784 16.3482 18.9346 16.4239 19.1173C16.4996 19.3 16.5194 19.5011 16.4808 19.6951C16.4422 19.8891 16.347 20.0673 16.2071 20.2071C16.0673 20.347 15.8891 20.4422 15.6951 20.4808C15.5011 20.5194 15.3 20.4996 15.1173 20.4239C14.9346 20.3482 14.7784 20.22 14.6685 20.0556C14.5587 19.8911 14.5 19.6978 14.5 19.5C14.5 19.2348 14.6054 18.9804 14.7929 18.7929C14.9804 18.6054 15.2348 18.5 15.5 18.5V18.5Z" fill="#16A75C"/>
<path d="M26.5 4.5H22.5V2.5H20.5V4.5H12.5V2.5H10.5V4.5H6.5C5.96957 4.5 5.46086 4.71071 5.08579 5.08579C4.71071 5.46086 4.5 5.96957 4.5 6.5V26.5C4.5 27.0304 4.71071 27.5391 5.08579 27.9142C5.46086 28.2893 5.96957 28.5 6.5 28.5H10.5V26.5H6.5V6.5H10.5V8.5H12.5V6.5H20.5V8.5H22.5V6.5H26.5V10.5H28.5V6.5C28.5 5.96957 28.2893 5.46086 27.9142 5.08579C27.5391 4.71071 27.0304 4.5 26.5 4.5V4.5Z" fill="#16A75C"/>
</svg>
