<svg width="38" height="39" viewBox="0 0 38 39" fill="none" xmlns="http://www.w3.org/2000/svg">
<path fill-rule="evenodd" clip-rule="evenodd" d="M19 26.625H16.625V24.25H19V26.625Z" fill="#FF9500"/>
<path fill-rule="evenodd" clip-rule="evenodd" d="M23.75 26.625H21.375V24.25H23.75V26.625Z" fill="#FF9500"/>
<path fill-rule="evenodd" clip-rule="evenodd" d="M28.5 26.625H26.125V24.25H28.5V26.625Z" fill="#FF9500"/>
<path fill-rule="evenodd" clip-rule="evenodd" d="M5.9375 7.03125C5.9375 6.04749 6.73499 5.25 7.71875 5.25H20.7812C21.765 5.25 22.5625 6.04749 22.5625 7.03125C22.5625 8.01501 21.765 8.8125 20.7812 8.8125H7.71875C6.73499 8.8125 5.9375 8.01501 5.9375 7.03125Z" fill="#16A75C"/>
<path fill-rule="evenodd" clip-rule="evenodd" d="M19 12.9688C19 11.985 19.7975 11.1875 20.7812 11.1875H29.0938C30.0775 11.1875 30.875 11.985 30.875 12.9688C30.875 13.9525 30.0775 14.75 29.0938 14.75H20.7812C19.7975 14.75 19 13.9525 19 12.9688Z" fill="#16A75C"/>
<path d="M6.25 14.1875C6.25 13.3591 6.92157 12.6875 7.75 12.6875H11.25C12.0784 12.6875 12.75 13.3591 12.75 14.1875V32.25H6.25V14.1875Z" stroke="#16A75C" stroke-width="3"/>
<path d="M12.1875 19.8125H30.25C31.0784 19.8125 31.75 20.4841 31.75 21.3125V32.25H12.1875V19.8125Z" stroke="#16A75C" stroke-width="3"/>
</svg>
