<svg width="33" height="33" viewBox="0 0 33 33" fill="none" xmlns="http://www.w3.org/2000/svg">
<path d="M21.5 28.5C22.6046 28.5 23.5 27.6046 23.5 26.5C23.5 25.3954 22.6046 24.5 21.5 24.5C20.3954 24.5 19.5 25.3954 19.5 26.5C19.5 27.6046 20.3954 28.5 21.5 28.5Z" fill="#16A75C"/>
<path d="M21.5 8.5C22.6046 8.5 23.5 7.60457 23.5 6.5C23.5 5.39543 22.6046 4.5 21.5 4.5C20.3954 4.5 19.5 5.39543 19.5 6.5C19.5 7.60457 20.3954 8.5 21.5 8.5Z" fill="#16A75C"/>
<path d="M4.5 18.5C5.60457 18.5 6.5 17.6046 6.5 16.5C6.5 15.3954 5.60457 14.5 4.5 14.5C3.39543 14.5 2.5 15.3954 2.5 16.5C2.5 17.6046 3.39543 18.5 4.5 18.5Z" fill="#16A75C"/>
<path d="M28.5 12.5C27.6156 12.5026 26.7571 12.7986 26.0589 13.3415C25.3608 13.8844 24.8624 14.6435 24.642 15.5H20.358C20.2164 14.9361 19.9525 14.4101 19.585 13.9595C19.2175 13.5089 18.7555 13.1446 18.2315 12.8924C17.7076 12.6402 17.1346 12.5064 16.5532 12.5002C15.9718 12.4941 15.3961 12.6159 14.867 12.857L11.69 8.887C12.2126 8.2007 12.497 7.36262 12.5 6.5C12.5 5.70888 12.2654 4.93552 11.8259 4.27772C11.3864 3.61992 10.7616 3.10723 10.0307 2.80448C9.29983 2.50173 8.49556 2.42252 7.71964 2.57686C6.94372 2.7312 6.23098 3.11216 5.67157 3.67157C5.11216 4.23098 4.7312 4.94372 4.57686 5.71964C4.42252 6.49556 4.50173 7.29983 4.80448 8.03074C5.10723 8.76164 5.61992 9.38635 6.27772 9.82588C6.93552 10.2654 7.70888 10.5 8.5 10.5C9.06387 10.4987 9.62096 10.377 10.134 10.143L13.31 14.113C12.785 14.798 12.5005 15.637 12.5005 16.5C12.5005 17.363 12.785 18.202 13.31 18.887L10.134 22.857C9.62096 22.623 9.06387 22.5013 8.5 22.5C7.70888 22.5 6.93552 22.7346 6.27772 23.1741C5.61992 23.6136 5.10723 24.2384 4.80448 24.9693C4.50173 25.7002 4.42252 26.5044 4.57686 27.2804C4.7312 28.0563 5.11216 28.769 5.67157 29.3284C6.23098 29.8878 6.94372 30.2688 7.71964 30.4231C8.49556 30.5775 9.29983 30.4983 10.0307 30.1955C10.7616 29.8928 11.3864 29.3801 11.8259 28.7223C12.2654 28.0645 12.5 27.2911 12.5 26.5C12.4971 25.6374 12.2127 24.7993 11.69 24.113L14.866 20.143C15.3952 20.3843 15.9709 20.5062 16.5525 20.5002C17.134 20.4942 17.7071 20.3603 18.2312 20.1081C18.7552 19.8559 19.2174 19.4915 19.5849 19.0408C19.9525 18.5901 20.2164 18.0641 20.358 17.5H24.642C24.8303 18.2226 25.2175 18.8778 25.7595 19.3914C26.3015 19.905 26.9766 20.2563 27.7083 20.4055C28.4399 20.5547 29.1987 20.4957 29.8985 20.2353C30.5983 19.9749 31.2111 19.5234 31.6673 18.9323C32.1234 18.3411 32.4047 17.6339 32.4791 16.8909C32.5535 16.1479 32.4181 15.399 32.0882 14.7291C31.7584 14.0592 31.2473 13.4952 30.613 13.1012C29.9787 12.7072 29.2467 12.4989 28.5 12.5ZM6.5 6.5C6.5 6.10444 6.6173 5.71776 6.83706 5.38886C7.05683 5.05996 7.36918 4.80362 7.73463 4.65224C8.10009 4.50087 8.50222 4.46126 8.89018 4.53843C9.27814 4.6156 9.63451 4.80608 9.91422 5.08579C10.1939 5.36549 10.3844 5.72186 10.4616 6.10982C10.5387 6.49778 10.4991 6.89992 10.3478 7.26537C10.1964 7.63082 9.94004 7.94318 9.61114 8.16294C9.28224 8.3827 8.89556 8.5 8.5 8.5C7.96973 8.49947 7.46133 8.28859 7.08637 7.91363C6.71142 7.53867 6.50053 7.03027 6.5 6.5ZM8.5 28.5C8.10444 28.5 7.71776 28.3827 7.38886 28.1629C7.05996 27.9432 6.80362 27.6308 6.65224 27.2654C6.50087 26.8999 6.46126 26.4978 6.53843 26.1098C6.6156 25.7219 6.80608 25.3655 7.08579 25.0858C7.36549 24.8061 7.72186 24.6156 8.10982 24.5384C8.49778 24.4613 8.89992 24.5009 9.26537 24.6522C9.63082 24.8036 9.94318 25.06 10.1629 25.3889C10.3827 25.7178 10.5 26.1044 10.5 26.5C10.4995 27.0303 10.2886 27.5387 9.91363 27.9136C9.53867 28.2886 9.03027 28.4995 8.5 28.5ZM16.5 18.5C16.1044 18.5 15.7178 18.3827 15.3889 18.1629C15.06 17.9432 14.8036 17.6308 14.6522 17.2654C14.5009 16.8999 14.4613 16.4978 14.5384 16.1098C14.6156 15.7219 14.8061 15.3655 15.0858 15.0858C15.3655 14.8061 15.7219 14.6156 16.1098 14.5384C16.4978 14.4613 16.8999 14.5009 17.2654 14.6522C17.6308 14.8036 17.9432 15.06 18.1629 15.3889C18.3827 15.7178 18.5 16.1044 18.5 16.5C18.4995 17.0303 18.2886 17.5387 17.9136 17.9136C17.5387 18.2886 17.0303 18.4995 16.5 18.5ZM28.5 18.5C28.1044 18.5 27.7178 18.3827 27.3889 18.1629C27.06 17.9432 26.8036 17.6308 26.6522 17.2654C26.5009 16.8999 26.4613 16.4978 26.5384 16.1098C26.6156 15.7219 26.8061 15.3655 27.0858 15.0858C27.3655 14.8061 27.7219 14.6156 28.1098 14.5384C28.4978 14.4613 28.8999 14.5009 29.2654 14.6522C29.6308 14.8036 29.9432 15.06 30.1629 15.3889C30.3827 15.7178 30.5 16.1044 30.5 16.5C30.4995 17.0303 30.2886 17.5387 29.9136 17.9136C29.5387 18.2886 29.0303 18.4995 28.5 18.5Z" fill="#16A75C"/>
</svg>
