<svg width="39" height="39" viewBox="0 0 39 39" fill="none" xmlns="http://www.w3.org/2000/svg">
<g clip-path="url(#clip0_10690_25221)">
<mask id="path-1-inside-1_10690_25221" fill="white">
<path fill-rule="evenodd" clip-rule="evenodd" d="M2.88889 33.75H27.7986C27.4887 27.1394 22.031 21.875 15.3437 21.875C8.65649 21.875 3.1988 27.1394 2.88889 33.75Z"/>
</mask>
<path d="M2.88889 33.75L-0.107823 33.6095C-0.146224 34.4286 0.152356 35.2278 0.718463 35.8211C1.28457 36.4143 2.06886 36.75 2.88889 36.75V33.75ZM27.7986 33.75V36.75C28.6186 36.75 29.4029 36.4143 29.969 35.8211C30.5351 35.2278 30.8337 34.4286 30.7953 33.6095L27.7986 33.75ZM2.88889 36.75H27.7986V30.75H2.88889V36.75ZM15.3437 24.875C20.4212 24.875 24.5667 28.8728 24.8019 33.8905L30.7953 33.6095C30.4107 25.406 23.6408 18.875 15.3437 18.875V24.875ZM5.88559 33.8905C6.12083 28.8728 10.2663 24.875 15.3437 24.875V18.875C7.04669 18.875 0.276763 25.406 -0.107823 33.6095L5.88559 33.8905Z" fill="#16A75C" mask="url(#path-1-inside-1_10690_25221)"/>
<circle cx="14.75" cy="13.5625" r="4.4375" stroke="#16A75C" stroke-width="3"/>
<path d="M31.375 13.75H30.7947L30.5068 14.2539L29 16.8907L27.4932 14.2539L27.2053 13.75H26.625H24.0625V6.25L33.9375 6.25V13.75H31.375Z" stroke="#FF9500" stroke-width="2"/>
</g>
<defs>
<clipPath id="clip0_10690_25221">
<rect width="33.25" height="33.25" fill="white" transform="translate(2.875 2.875)"/>
</clipPath>
</defs>
</svg>
