<svg width="33" height="33" viewBox="0 0 33 33" fill="none" xmlns="http://www.w3.org/2000/svg">
<path d="M29.5 28.5002C29.1585 28.4993 28.8199 28.4377 28.5 28.3182V28.3122C28.0315 28.1138 27.608 27.8225 27.2551 27.4559C26.9023 27.0893 26.6274 26.655 26.447 26.1792C26.3839 25.9788 26.2574 25.8043 26.0867 25.6819C25.9159 25.5595 25.7101 25.4957 25.5 25.5002C25.2903 25.5012 25.0861 25.5677 24.916 25.6903C24.7459 25.8129 24.6183 25.9856 24.551 26.1842C24.3296 26.8294 23.9212 27.3941 23.3779 27.8065C22.8346 28.2189 22.1809 28.4604 21.5 28.5002C20.8182 28.4601 20.1638 28.218 19.6201 27.8047C19.0763 27.3913 18.668 26.8255 18.447 26.1792C18.3812 25.9805 18.2541 25.8077 18.084 25.6857C17.9138 25.5637 17.7094 25.4987 17.5 25.5002C17.2903 25.5012 17.0861 25.5677 16.916 25.6903C16.7459 25.8129 16.6183 25.9856 16.551 26.1842C16.3296 26.8294 15.9212 27.3941 15.3779 27.8065C14.8346 28.2189 14.1809 28.4604 13.5 28.5002C12.8182 28.4601 12.1638 28.218 11.6201 27.8047C11.0763 27.3913 10.668 26.8255 10.447 26.1792C10.3798 25.9808 10.252 25.8085 10.0815 25.6866C9.91112 25.5647 9.70672 25.4995 9.4972 25.5C9.28769 25.5006 9.08364 25.5669 8.91386 25.6897C8.74408 25.8124 8.61716 25.9854 8.551 26.1842C8.32956 26.8294 7.92122 27.3941 7.37792 27.8065C6.83463 28.2189 6.18093 28.4604 5.5 28.5002H2.5V30.5002H5.5C6.27605 30.5071 7.04276 30.3307 7.73781 29.9855C8.43286 29.6402 9.03662 29.1358 9.5 28.5132C9.96818 29.1306 10.5729 29.6313 11.2669 29.976C11.9608 30.3207 12.7252 30.5 13.5 30.5C14.2748 30.5 15.0392 30.3207 15.7331 29.976C16.4271 29.6313 17.0318 29.1306 17.5 28.5132C17.9682 29.1306 18.5729 29.6313 19.2669 29.976C19.9608 30.3207 20.7252 30.5 21.5 30.5C22.2748 30.5 23.0392 30.3207 23.7331 29.976C24.4271 29.6313 25.0318 29.1306 25.5 28.5132C26.0568 29.2329 26.7946 29.7919 27.638 30.1332C28.2283 30.3773 28.8612 30.5021 29.5 30.5002H30.5V28.5002H29.5Z" fill="#16A75C"/>
<path d="M24.25 11.5H22.75V7.5H24.25V11.5ZM23.5 12.5C23.3022 12.5 23.1089 12.5586 22.9444 12.6685C22.78 12.7784 22.6518 12.9346 22.5761 13.1173C22.5004 13.3 22.4806 13.5011 22.5192 13.6951C22.5578 13.8891 22.653 14.0673 22.7929 14.2071C22.9327 14.347 23.1109 14.4422 23.3049 14.4808C23.4989 14.5194 23.7 14.4996 23.8827 14.4239C24.0654 14.3482 24.2216 14.22 24.3315 14.0556C24.4414 13.8911 24.5 13.6978 24.5 13.5C24.5 13.2348 24.3946 12.9804 24.2071 12.7929C24.0196 12.6054 23.7652 12.5 23.5 12.5Z" fill="white"/>
<path d="M30.412 15.4349L24.128 3.87092C24.0659 3.75882 23.9749 3.66539 23.8644 3.60034C23.754 3.53528 23.6282 3.50098 23.5 3.50098C23.3718 3.50098 23.246 3.53528 23.1356 3.60034C23.0251 3.66539 22.9341 3.75882 22.872 3.87092L16.588 15.4349C16.5281 15.5446 16.4978 15.6679 16.5001 15.7928C16.5023 15.9177 16.537 16.0399 16.6008 16.1474C16.6645 16.2548 16.7552 16.3438 16.8637 16.4056C16.9723 16.4674 17.0951 16.4999 17.22 16.4999H29.78C29.9049 16.4998 30.0275 16.4671 30.1359 16.4052C30.2444 16.3434 30.3348 16.2543 30.3985 16.1469C30.4621 16.0395 30.4967 15.9174 30.4989 15.7926C30.5011 15.6678 30.4708 15.5445 30.411 15.4349H30.412ZM22.75 7.49992H24.25V11.4999H22.75V7.49992ZM23.5 14.4999C23.3022 14.4999 23.1089 14.4413 22.9444 14.3314C22.78 14.2215 22.6518 14.0653 22.5761 13.8826C22.5004 13.6999 22.4806 13.4988 22.5192 13.3048C22.5578 13.1109 22.653 12.9327 22.7929 12.7928C22.9328 12.653 23.1109 12.5577 23.3049 12.5191C23.4989 12.4806 23.7 12.5004 23.8827 12.576C24.0654 12.6517 24.2216 12.7799 24.3315 12.9444C24.4414 13.1088 24.5 13.3021 24.5 13.4999C24.5 13.7651 24.3947 14.0195 24.2071 14.207C24.0196 14.3946 23.7652 14.4999 23.5 14.4999Z" fill="#16A75C"/>
<path d="M28.5 21.5004V18.5004H26.5V21.5004H25.5C24.8191 21.4606 24.1654 21.2191 23.6221 20.8067C23.0788 20.3943 22.6704 19.8296 22.449 19.1844C22.3828 18.9857 22.2559 18.8127 22.0861 18.6899C21.9164 18.5671 21.7123 18.5008 21.5028 18.5002C21.2933 18.4997 21.0889 18.5649 20.9185 18.6868C20.748 18.8087 20.6202 18.981 20.553 19.1794C20.332 19.8257 19.9237 20.3915 19.3799 20.8049C18.8362 21.2182 18.1818 21.4604 17.5 21.5004C16.8191 21.4606 16.1654 21.2191 15.6221 20.8067C15.0788 20.3943 14.6704 19.8296 14.449 19.1844C14.3817 18.9858 14.2541 18.8131 14.084 18.6905C13.9139 18.5679 13.7097 18.5014 13.5 18.5004C13.2906 18.4989 13.0862 18.5639 12.916 18.6859C12.7459 18.8079 12.6188 18.9807 12.553 19.1794C12.332 19.8257 11.9237 20.3915 11.3799 20.8049C10.8362 21.2182 10.1818 21.4604 9.5 21.5004C8.84071 21.4703 8.20483 21.247 7.67144 20.8584C7.13804 20.4697 6.73068 19.9328 6.5 19.3144V12.5614L16.5 4.77145L19.033 6.74745L20.001 4.96545L17.112 2.71445C16.9346 2.57611 16.716 2.50098 16.491 2.50098C16.266 2.50098 16.0474 2.57611 15.87 2.71445L1.5 13.9194L2.743 15.4914L4.5 14.1214V19.3094C4.31487 19.7585 4.0429 20.1666 3.6997 20.5103C3.35649 20.8541 2.94879 21.1266 2.5 21.3124V23.3964C3.69641 23.1562 4.76352 22.4864 5.5 21.5134C5.96818 22.1308 6.57293 22.6315 7.26688 22.9762C7.96083 23.3209 8.72516 23.5002 9.5 23.5002C10.2748 23.5002 11.0392 23.3209 11.7331 22.9762C12.4271 22.6315 13.0318 22.1308 13.5 21.5134C13.9682 22.1308 14.5729 22.6315 15.2669 22.9762C15.9608 23.3209 16.7252 23.5002 17.5 23.5002C18.2748 23.5002 19.0392 23.3209 19.7331 22.9762C20.4271 22.6315 21.0318 22.1308 21.5 21.5134C21.9634 22.136 22.5671 22.6404 23.2622 22.9857C23.9572 23.3309 24.724 23.5073 25.5 23.5004H30.5V21.5004H28.5Z" fill="#16A75C"/>
</svg>
