<svg width="39" height="39" viewBox="0 0 39 39" fill="none" xmlns="http://www.w3.org/2000/svg">
<path fill-rule="evenodd" clip-rule="evenodd" d="M16.5313 17.125C17.515 17.125 18.3125 17.9225 18.3125 18.9062L18.3125 22.4688C18.3125 23.4525 17.515 24.25 16.5312 24.25C15.5475 24.25 14.75 23.4525 14.75 22.4687L14.75 18.9062C14.75 17.9225 15.5475 17.125 16.5313 17.125Z" fill="#FF9500"/>
<path fill-rule="evenodd" clip-rule="evenodd" d="M22.4688 17.125C23.4525 17.125 24.25 17.9225 24.25 18.9062L24.25 26.0312C24.25 27.015 23.4525 27.8125 22.4687 27.8125C21.485 27.8125 20.6875 27.015 20.6875 26.0312L20.6875 18.9062C20.6875 17.9225 21.485 17.125 22.4688 17.125Z" fill="#FF9500"/>
<path d="M7.46555 32.25L13.3905 17.4375H25.6094L31.5345 32.25H7.46555Z" stroke="#16A75C" stroke-width="3"/>
<path fill-rule="evenodd" clip-rule="evenodd" d="M10 11.7812C10 10.7975 10.7975 10 11.7812 10H16.5312C17.515 10 18.3125 10.7975 18.3125 11.7812C18.3125 12.765 17.515 13.5625 16.5312 13.5625H11.7812C10.7975 13.5625 10 12.765 10 11.7812Z" fill="#16A75C"/>
<path fill-rule="evenodd" clip-rule="evenodd" d="M20.6875 11.7812C20.6875 10.7975 21.485 10 22.4688 10H26.0312C27.015 10 27.8125 10.7975 27.8125 11.7812C27.8125 12.765 27.015 13.5625 26.0312 13.5625H22.4688C21.485 13.5625 20.6875 12.765 20.6875 11.7812Z" fill="#16A75C"/>
<path fill-rule="evenodd" clip-rule="evenodd" d="M15.9375 7.03125C15.9375 6.04749 16.735 5.25 17.7188 5.25H23.6562C24.64 5.25 25.4375 6.04749 25.4375 7.03125C25.4375 8.01501 24.64 8.8125 23.6562 8.8125H17.7188C16.735 8.8125 15.9375 8.01501 15.9375 7.03125Z" fill="#16A75C"/>
</svg>
