<svg width="39" height="39" viewBox="0 0 39 39" fill="none" xmlns="http://www.w3.org/2000/svg">
<g clip-path="url(#clip0_10690_25134)">
<path fill-rule="evenodd" clip-rule="evenodd" d="M13.5625 12.375V8.8125H25.4375V12.375H13.5625ZM10 12.375V7.625C10 6.31332 11.0633 5.25 12.375 5.25H26.625C27.9367 5.25 29 6.31332 29 7.625V12.375H31.375C33.9984 12.375 36.125 14.5016 36.125 17.125V31.375C36.125 33.9984 33.9984 36.125 31.375 36.125H7.625C5.00165 36.125 2.875 33.9984 2.875 31.375V17.125C2.875 14.5016 5.00165 12.375 7.625 12.375H10ZM26.625 15.9375H12.375H7.625C6.96916 15.9375 6.4375 16.4692 6.4375 17.125V31.375C6.4375 32.0308 6.96916 32.5625 7.625 32.5625H31.375C32.0308 32.5625 32.5625 32.0308 32.5625 31.375V17.125C32.5625 16.4692 32.0308 15.9375 31.375 15.9375H26.625Z" fill="#16A75C"/>
<path fill-rule="evenodd" clip-rule="evenodd" d="M21.4792 20.2917C21.4792 19.1986 20.5931 18.3125 19.5 18.3125C18.4069 18.3125 17.5208 19.1986 17.5208 20.2917V22.2708H15.5417C14.4486 22.2708 13.5625 23.1569 13.5625 24.25C13.5625 25.3431 14.4486 26.2292 15.5417 26.2292H17.5208V28.2083C17.5208 29.3014 18.4069 30.1875 19.5 30.1875C20.5931 30.1875 21.4792 29.3014 21.4792 28.2083V26.2292H23.4583C24.5514 26.2292 25.4375 25.3431 25.4375 24.25C25.4375 23.1569 24.5514 22.2708 23.4583 22.2708H21.4792V20.2917Z" fill="#FF9500"/>
</g>
<defs>
<clipPath id="clip0_10690_25134">
<rect width="33.25" height="33.25" fill="white" transform="translate(2.875 2.875)"/>
</clipPath>
</defs>
</svg>
