<svg width="39" height="39" viewBox="0 0 39 39" fill="none" xmlns="http://www.w3.org/2000/svg">
<g clip-path="url(#clip0_10690_25181)">
<path fill-rule="evenodd" clip-rule="evenodd" d="M22.4688 10C22.4688 9.01624 23.2662 8.21875 24.25 8.21875C26.0056 8.21875 27.5284 8.85362 28.6062 9.99357C29.6693 11.118 30.1875 12.614 30.1875 14.1562C30.1875 15.6985 29.6693 17.1945 28.6062 18.3189C27.5284 19.4589 26.0056 20.0938 24.25 20.0938C23.2662 20.0938 22.4688 19.2963 22.4688 18.3125C22.4688 17.3287 23.2662 16.5312 24.25 16.5312C25.1178 16.5312 25.6731 16.2357 26.0176 15.8714C26.3767 15.4916 26.625 14.9094 26.625 14.1562C26.625 13.4031 26.3767 12.8209 26.0176 12.4411C25.6731 12.0768 25.1178 11.7812 24.25 11.7812C23.2662 11.7812 22.4688 10.9838 22.4688 10Z" fill="#FF9500"/>
<path d="M28.125 24.3993C30.7044 25.6313 32.7677 27.8923 33.8186 30.7115C34.0038 31.2082 34.1573 31.722 34.2766 32.2501H28.125V31.6876H31.3243C31.8532 31.6876 32.3429 31.4091 32.6133 30.9547C32.8838 30.5002 32.8949 29.9369 32.6427 29.4721C31.5966 27.5444 30.014 25.9962 28.125 25.0321V24.3993Z" fill="#16A75C" stroke="#FF9500" stroke-width="3" stroke-linejoin="round"/>
<mask id="path-3-inside-1_10690_25181" fill="white">
<path fill-rule="evenodd" clip-rule="evenodd" d="M2.88892 33.75H27.7986C27.4887 27.1394 22.031 21.875 15.3438 21.875C8.65652 21.875 3.19883 27.1394 2.88892 33.75Z"/>
</mask>
<path d="M2.88892 33.75L-0.107793 33.6095C-0.146194 34.4286 0.152386 35.2278 0.718494 35.8211C1.2846 36.4143 2.06889 36.75 2.88892 36.75V33.75ZM27.7986 33.75V36.75C28.6187 36.75 29.403 36.4143 29.9691 35.8211C30.5352 35.2278 30.8337 34.4286 30.7953 33.6095L27.7986 33.75ZM2.88892 36.75H27.7986V30.75H2.88892V36.75ZM15.3438 24.875C20.4212 24.875 24.5667 28.8728 24.8019 33.8905L30.7953 33.6095C30.4108 25.406 23.6408 18.875 15.3438 18.875V24.875ZM5.88562 33.8905C6.12086 28.8728 10.2663 24.875 15.3438 24.875V18.875C7.04672 18.875 0.276793 25.406 -0.107793 33.6095L5.88562 33.8905Z" fill="#16A75C" mask="url(#path-3-inside-1_10690_25181)"/>
<circle cx="14.75" cy="13.5625" r="4.4375" stroke="#16A75C" stroke-width="3"/>
</g>
<defs>
<clipPath id="clip0_10690_25181">
<rect width="33.25" height="33.25" fill="white" transform="translate(2.875 2.875)"/>
</clipPath>
</defs>
</svg>
