<svg width="33" height="33" viewBox="0 0 33 33" fill="none" xmlns="http://www.w3.org/2000/svg">
<mask id="path-1-inside-1_9649_24476" fill="white">
<path d="M20.172 13.8333C21.46 13.8333 22.5054 14.8787 22.5054 16.1667V20.5H22.5V20.8333C22.5 21.0986 22.3947 21.3529 22.2071 21.5404C22.0196 21.728 21.7652 21.8333 21.5 21.8333C21.2348 21.8333 20.9805 21.728 20.7929 21.5404C20.6054 21.3529 20.5 21.0986 20.5 20.8333V17.8333H20.5054V16.1667C20.5054 16.0783 20.4702 15.9935 20.4077 15.931C20.3452 15.8685 20.2604 15.8333 20.172 15.8333H12.836C12.7476 15.8333 12.6628 15.8685 12.6003 15.931C12.5378 15.9935 12.5027 16.0783 12.5027 16.1667V20.5H12.5V20.8333C12.5 21.0986 12.3947 21.3529 12.2071 21.5404C12.0196 21.728 11.7652 21.8333 11.5 21.8333C11.2348 21.8333 10.9805 21.728 10.7929 21.5404C10.6054 21.3529 10.5 21.0986 10.5 20.8333V17.8333H10.5027V16.1667C10.5027 14.8787 11.5467 13.8333 12.836 13.8333H20.172ZM27.8334 16.1667V20.8333C27.8334 21.0986 27.9387 21.3529 28.1262 21.5404C28.3138 21.728 28.5681 21.8333 28.8334 21.8333C29.0986 21.8333 29.3529 21.728 29.5405 21.5404C29.728 21.3529 29.8334 21.0986 29.8334 20.8333V16.1667C29.8334 15.5478 29.5875 14.9543 29.1499 14.5168C28.7124 14.0792 28.1189 13.8333 27.5 13.8333H23C23.4574 14.3867 23.756 15.076 23.824 15.8333H27.5C27.5884 15.8333 27.6732 15.8685 27.7357 15.931C27.7982 15.9935 27.8334 16.0783 27.8334 16.1667ZM3.16669 20.8333C3.16669 21.0986 3.27204 21.3529 3.45958 21.5404C3.64712 21.728 3.90147 21.8333 4.16669 21.8333C4.4319 21.8333 4.68626 21.728 4.87379 21.5404C5.06133 21.3529 5.16669 21.0986 5.16669 20.8333V16.1667C5.16669 16.0783 5.20181 15.9935 5.26432 15.931C5.32683 15.8685 5.41161 15.8333 5.50002 15.8333H9.18402C9.25034 15.0987 9.53762 14.4015 10.008 13.8333H5.50002C4.88118 13.8333 4.28769 14.0792 3.8501 14.5168C3.41252 14.9543 3.16669 15.5478 3.16669 16.1667V20.8333ZM16.5 4.5C17.5609 4.5 18.5783 4.92143 19.3284 5.67157C20.0786 6.42172 20.5 7.43913 20.5 8.5C20.5 9.56087 20.0786 10.5783 19.3284 11.3284C18.5783 12.0786 17.5609 12.5 16.5 12.5C15.4392 12.5 14.4217 12.0786 13.6716 11.3284C12.9214 10.5783 12.5 9.56087 12.5 8.5C12.5 7.43913 12.9214 6.42172 13.6716 5.67157C14.4217 4.92143 15.4392 4.5 16.5 4.5ZM16.5 6.5C15.9696 6.5 15.4609 6.71071 15.0858 7.08579C14.7107 7.46086 14.5 7.96957 14.5 8.5C14.5 9.03043 14.7107 9.53914 15.0858 9.91421C15.4609 10.2893 15.9696 10.5 16.5 10.5C17.0305 10.5 17.5392 10.2893 17.9142 9.91421C18.2893 9.53914 18.5 9.03043 18.5 8.5C18.5 7.96957 18.2893 7.46086 17.9142 7.08579C17.5392 6.71071 17.0305 6.5 16.5 6.5ZM25.1667 5.83333C26.0507 5.83333 26.8986 6.18452 27.5237 6.80964C28.1488 7.43477 28.5 8.28261 28.5 9.16667C28.5 10.0507 28.1488 10.8986 27.5237 11.5237C26.8986 12.1488 26.0507 12.5 25.1667 12.5C24.2826 12.5 23.4348 12.1488 22.8097 11.5237C22.1845 10.8986 21.8334 10.0507 21.8334 9.16667C21.8334 8.28261 22.1845 7.43477 22.8097 6.80964C23.4348 6.18452 24.2826 5.83333 25.1667 5.83333ZM25.1667 7.83333C24.8131 7.83333 24.4739 7.97381 24.2239 8.22386C23.9738 8.47391 23.8334 8.81305 23.8334 9.16667C23.8334 9.52029 23.9738 9.85943 24.2239 10.1095C24.4739 10.3595 24.8131 10.5 25.1667 10.5C25.5203 10.5 25.8594 10.3595 26.1095 10.1095C26.3595 9.85943 26.5 9.52029 26.5 9.16667C26.5 8.81305 26.3595 8.47391 26.1095 8.22386C25.8594 7.97381 25.5203 7.83333 25.1667 7.83333ZM7.83335 5.83333C8.71741 5.83333 9.56526 6.18452 10.1904 6.80964C10.8155 7.43477 11.1667 8.28261 11.1667 9.16667C11.1667 10.0507 10.8155 10.8986 10.1904 11.5237C9.56526 12.1488 8.71741 12.5 7.83335 12.5C6.9493 12.5 6.10145 12.1488 5.47633 11.5237C4.85121 10.8986 4.50002 10.0507 4.50002 9.16667C4.50002 8.28261 4.85121 7.43477 5.47633 6.80964C6.10145 6.18452 6.9493 5.83333 7.83335 5.83333ZM7.83335 7.83333C7.47973 7.83333 7.14059 7.97381 6.89054 8.22386C6.6405 8.47391 6.50002 8.81305 6.50002 9.16667C6.50002 9.52029 6.6405 9.85943 6.89054 10.1095C7.14059 10.3595 7.47973 10.5 7.83335 10.5C8.18698 10.5 8.52611 10.3595 8.77616 10.1095C9.02621 9.85943 9.16669 9.52029 9.16669 9.16667C9.16669 8.81305 9.02621 8.47391 8.77616 8.22386C8.52611 7.97381 8.18698 7.83333 7.83335 7.83333ZM4.16669 23.1667C3.90147 23.1667 3.64712 23.272 3.45958 23.4596C3.27204 23.6471 3.16669 23.9015 3.16669 24.1667V24.8333C3.16669 26.1594 3.69347 27.4312 4.63115 28.3689C5.56884 29.3066 6.8406 29.8333 8.16669 29.8333H24.8334C26.1594 29.8333 27.4312 29.3066 28.3689 28.3689C29.3066 27.4312 29.8334 26.1594 29.8334 24.8333V24.1667C29.8334 23.9015 29.728 23.6471 29.5405 23.4596C29.3529 23.272 29.0986 23.1667 28.8334 23.1667H4.16669ZM8.16669 27.8333C7.42877 27.8333 6.71675 27.5613 6.16674 27.0694C5.61674 26.5774 5.26734 25.9 5.18535 25.1667H27.8147C27.7327 25.9 27.3833 26.5774 26.8333 27.0694C26.2833 27.5613 25.5713 27.8333 24.8334 27.8333H8.16669Z"/>
</mask>
<path d="M20.172 13.8333C21.46 13.8333 22.5054 14.8787 22.5054 16.1667V20.5H22.5V20.8333C22.5 21.0986 22.3947 21.3529 22.2071 21.5404C22.0196 21.728 21.7652 21.8333 21.5 21.8333C21.2348 21.8333 20.9805 21.728 20.7929 21.5404C20.6054 21.3529 20.5 21.0986 20.5 20.8333V17.8333H20.5054V16.1667C20.5054 16.0783 20.4702 15.9935 20.4077 15.931C20.3452 15.8685 20.2604 15.8333 20.172 15.8333H12.836C12.7476 15.8333 12.6628 15.8685 12.6003 15.931C12.5378 15.9935 12.5027 16.0783 12.5027 16.1667V20.5H12.5V20.8333C12.5 21.0986 12.3947 21.3529 12.2071 21.5404C12.0196 21.728 11.7652 21.8333 11.5 21.8333C11.2348 21.8333 10.9805 21.728 10.7929 21.5404C10.6054 21.3529 10.5 21.0986 10.5 20.8333V17.8333H10.5027V16.1667C10.5027 14.8787 11.5467 13.8333 12.836 13.8333H20.172ZM27.8334 16.1667V20.8333C27.8334 21.0986 27.9387 21.3529 28.1262 21.5404C28.3138 21.728 28.5681 21.8333 28.8334 21.8333C29.0986 21.8333 29.3529 21.728 29.5405 21.5404C29.728 21.3529 29.8334 21.0986 29.8334 20.8333V16.1667C29.8334 15.5478 29.5875 14.9543 29.1499 14.5168C28.7124 14.0792 28.1189 13.8333 27.5 13.8333H23C23.4574 14.3867 23.756 15.076 23.824 15.8333H27.5C27.5884 15.8333 27.6732 15.8685 27.7357 15.931C27.7982 15.9935 27.8334 16.0783 27.8334 16.1667ZM3.16669 20.8333C3.16669 21.0986 3.27204 21.3529 3.45958 21.5404C3.64712 21.728 3.90147 21.8333 4.16669 21.8333C4.4319 21.8333 4.68626 21.728 4.87379 21.5404C5.06133 21.3529 5.16669 21.0986 5.16669 20.8333V16.1667C5.16669 16.0783 5.20181 15.9935 5.26432 15.931C5.32683 15.8685 5.41161 15.8333 5.50002 15.8333H9.18402C9.25034 15.0987 9.53762 14.4015 10.008 13.8333H5.50002C4.88118 13.8333 4.28769 14.0792 3.8501 14.5168C3.41252 14.9543 3.16669 15.5478 3.16669 16.1667V20.8333ZM16.5 4.5C17.5609 4.5 18.5783 4.92143 19.3284 5.67157C20.0786 6.42172 20.5 7.43913 20.5 8.5C20.5 9.56087 20.0786 10.5783 19.3284 11.3284C18.5783 12.0786 17.5609 12.5 16.5 12.5C15.4392 12.5 14.4217 12.0786 13.6716 11.3284C12.9214 10.5783 12.5 9.56087 12.5 8.5C12.5 7.43913 12.9214 6.42172 13.6716 5.67157C14.4217 4.92143 15.4392 4.5 16.5 4.5ZM16.5 6.5C15.9696 6.5 15.4609 6.71071 15.0858 7.08579C14.7107 7.46086 14.5 7.96957 14.5 8.5C14.5 9.03043 14.7107 9.53914 15.0858 9.91421C15.4609 10.2893 15.9696 10.5 16.5 10.5C17.0305 10.5 17.5392 10.2893 17.9142 9.91421C18.2893 9.53914 18.5 9.03043 18.5 8.5C18.5 7.96957 18.2893 7.46086 17.9142 7.08579C17.5392 6.71071 17.0305 6.5 16.5 6.5ZM25.1667 5.83333C26.0507 5.83333 26.8986 6.18452 27.5237 6.80964C28.1488 7.43477 28.5 8.28261 28.5 9.16667C28.5 10.0507 28.1488 10.8986 27.5237 11.5237C26.8986 12.1488 26.0507 12.5 25.1667 12.5C24.2826 12.5 23.4348 12.1488 22.8097 11.5237C22.1845 10.8986 21.8334 10.0507 21.8334 9.16667C21.8334 8.28261 22.1845 7.43477 22.8097 6.80964C23.4348 6.18452 24.2826 5.83333 25.1667 5.83333ZM25.1667 7.83333C24.8131 7.83333 24.4739 7.97381 24.2239 8.22386C23.9738 8.47391 23.8334 8.81305 23.8334 9.16667C23.8334 9.52029 23.9738 9.85943 24.2239 10.1095C24.4739 10.3595 24.8131 10.5 25.1667 10.5C25.5203 10.5 25.8594 10.3595 26.1095 10.1095C26.3595 9.85943 26.5 9.52029 26.5 9.16667C26.5 8.81305 26.3595 8.47391 26.1095 8.22386C25.8594 7.97381 25.5203 7.83333 25.1667 7.83333ZM7.83335 5.83333C8.71741 5.83333 9.56526 6.18452 10.1904 6.80964C10.8155 7.43477 11.1667 8.28261 11.1667 9.16667C11.1667 10.0507 10.8155 10.8986 10.1904 11.5237C9.56526 12.1488 8.71741 12.5 7.83335 12.5C6.9493 12.5 6.10145 12.1488 5.47633 11.5237C4.85121 10.8986 4.50002 10.0507 4.50002 9.16667C4.50002 8.28261 4.85121 7.43477 5.47633 6.80964C6.10145 6.18452 6.9493 5.83333 7.83335 5.83333ZM7.83335 7.83333C7.47973 7.83333 7.14059 7.97381 6.89054 8.22386C6.6405 8.47391 6.50002 8.81305 6.50002 9.16667C6.50002 9.52029 6.6405 9.85943 6.89054 10.1095C7.14059 10.3595 7.47973 10.5 7.83335 10.5C8.18698 10.5 8.52611 10.3595 8.77616 10.1095C9.02621 9.85943 9.16669 9.52029 9.16669 9.16667C9.16669 8.81305 9.02621 8.47391 8.77616 8.22386C8.52611 7.97381 8.18698 7.83333 7.83335 7.83333ZM4.16669 23.1667C3.90147 23.1667 3.64712 23.272 3.45958 23.4596C3.27204 23.6471 3.16669 23.9015 3.16669 24.1667V24.8333C3.16669 26.1594 3.69347 27.4312 4.63115 28.3689C5.56884 29.3066 6.8406 29.8333 8.16669 29.8333H24.8334C26.1594 29.8333 27.4312 29.3066 28.3689 28.3689C29.3066 27.4312 29.8334 26.1594 29.8334 24.8333V24.1667C29.8334 23.9015 29.728 23.6471 29.5405 23.4596C29.3529 23.272 29.0986 23.1667 28.8334 23.1667H4.16669ZM8.16669 27.8333C7.42877 27.8333 6.71675 27.5613 6.16674 27.0694C5.61674 26.5774 5.26734 25.9 5.18535 25.1667H27.8147C27.7327 25.9 27.3833 26.5774 26.8333 27.0694C26.2833 27.5613 25.5713 27.8333 24.8334 27.8333H8.16669Z" fill="black" stroke="#16A75C" stroke-width="2" mask="url(#path-1-inside-1_9649_24476)"/>
</svg>
