<svg width="39" height="39" viewBox="0 0 39 39" fill="none" xmlns="http://www.w3.org/2000/svg">
<g clip-path="url(#clip0_10690_25262)">
<path fill-rule="evenodd" clip-rule="evenodd" d="M13.5625 22.4688V25.4375C13.5625 26.0933 13.0308 26.625 12.375 26.625H10.9848C10.4957 25.2413 9.17614 24.25 7.625 24.25C5.65749 24.25 4.0625 25.845 4.0625 27.8125C4.0625 29.78 5.65749 31.375 7.625 31.375C9.17614 31.375 10.4957 30.3837 10.9848 29H12.375C14.3425 29 15.9375 27.405 15.9375 25.4375V22.4688H13.5625ZM8.8125 27.8125C8.8125 28.4683 8.28084 29 7.625 29C6.96916 29 6.4375 28.4683 6.4375 27.8125C6.4375 27.1567 6.96916 26.625 7.625 26.625C8.28084 26.625 8.8125 27.1567 8.8125 27.8125Z" fill="#FF9500"/>
<path fill-rule="evenodd" clip-rule="evenodd" d="M26.625 21.875V24.25C26.625 24.9058 27.1567 25.4375 27.8125 25.4375H29.2027C29.6918 24.0538 31.0114 23.0625 32.5625 23.0625C34.53 23.0625 36.125 24.6575 36.125 26.625C36.125 28.5925 34.53 30.1875 32.5625 30.1875C31.0114 30.1875 29.6918 29.1962 29.2027 27.8125H27.8125C25.845 27.8125 24.25 26.2175 24.25 24.25V21.875H26.625ZM31.375 26.625C31.375 27.2808 31.9067 27.8125 32.5625 27.8125C33.2183 27.8125 33.75 27.2808 33.75 26.625C33.75 25.9692 33.2183 25.4375 32.5625 25.4375C31.9067 25.4375 31.375 25.9692 31.375 26.625Z" fill="#FF9500"/>
<path fill-rule="evenodd" clip-rule="evenodd" d="M20.6875 29.2027C22.0712 29.6918 23.0625 31.0114 23.0625 32.5625C23.0625 34.53 21.4675 36.125 19.5 36.125C17.5325 36.125 15.9375 34.53 15.9375 32.5625C15.9375 31.0114 16.9288 29.6918 18.3125 29.2027L18.3125 21.875H20.6875L20.6875 29.2027ZM20.6875 32.5625C20.6875 33.2183 20.1558 33.75 19.5 33.75C18.8442 33.75 18.3125 33.2183 18.3125 32.5625C18.3125 31.9067 18.8442 31.375 19.5 31.375C20.1558 31.375 20.6875 31.9067 20.6875 32.5625Z" fill="#FF9500"/>
<path fill-rule="evenodd" clip-rule="evenodd" d="M11.9381 10.3666C11.7469 10.3485 11.5531 10.3393 11.3571 10.3393C7.98426 10.3393 5.25 13.0735 5.25 16.4464C5.25 19.4725 7.4509 21.9846 10.3393 22.4691L11.1875 22.5536H27.8125L28.6607 22.4691C31.5491 21.9846 33.75 19.4725 33.75 16.4464C33.75 13.0735 31.0157 10.3393 27.6429 10.3393C27.4469 10.3393 27.2532 10.3485 27.0619 10.3666C25.8608 7.36793 22.9277 5.25 19.5 5.25C16.0723 5.25 13.1392 7.36793 11.9381 10.3666ZM27.8606 18.9911L28.0713 18.9557C29.2721 18.7543 30.1875 17.7038 30.1875 16.4464C30.1875 15.0411 29.0482 13.9018 27.6429 13.9018C27.5589 13.9018 27.4768 13.9057 27.3966 13.9133L25.4894 14.0933C25.0481 14.1349 24.632 13.881 24.4672 13.4695L23.7549 11.6912C23.0767 9.99809 21.4225 8.8125 19.5 8.8125C17.5775 8.8125 15.9233 9.99809 15.2451 11.6912L14.5328 13.4695C14.368 13.881 13.9519 14.1349 13.5106 14.0933L11.6034 13.9133C11.5232 13.9057 11.4411 13.9018 11.3571 13.9018C9.95178 13.9018 8.8125 15.0411 8.8125 16.4464C8.8125 17.7038 9.72793 18.7543 10.9287 18.9557L11.1394 18.9911H27.8606Z" fill="#16A75C"/>
</g>
<defs>
<clipPath id="clip0_10690_25262">
<rect width="33.25" height="33.25" fill="white" transform="translate(2.875 2.875)"/>
</clipPath>
</defs>
</svg>
