<svg width="39" height="39" viewBox="0 0 39 39" fill="none" xmlns="http://www.w3.org/2000/svg">
<path fill-rule="evenodd" clip-rule="evenodd" d="M34.9375 31.9688C34.9375 32.9525 34.197 33.75 33.2835 33.75L5.71652 33.75C4.80303 33.75 4.0625 32.9525 4.0625 31.9687C4.0625 30.985 4.80303 30.1875 5.71652 30.1875L33.2835 30.1875C34.197 30.1875 34.9375 30.985 34.9375 31.9688Z" fill="#16A75C"/>
<path d="M9.72549 29.439C8.31413 26.2635 9.65017 22.5395 12.7584 20.9854L16.5931 19.068C18.423 18.153 20.577 18.153 22.4069 19.068L26.2416 20.9854C29.3498 22.5395 30.6859 26.2635 29.2745 29.439L28.0252 32.25H10.9748L9.72549 29.439Z" stroke="#16A75C" stroke-width="3"/>
<line x1="19.3125" y1="12.1875" x2="19.3125" y2="17.3125" stroke="#16A75C" stroke-width="2" stroke-linecap="round"/>
<path d="M24.431 12.1827C23.0519 13.6449 20.5511 13.5259 18.8453 11.917C17.1394 10.3082 16.8745 7.81859 18.2535 6.35643" stroke="#FF9500" stroke-width="3" stroke-linecap="round"/>
</svg>
