<svg width="39" height="39" viewBox="0 0 39 39" fill="none" xmlns="http://www.w3.org/2000/svg">
<path fill-rule="evenodd" clip-rule="evenodd" d="M34.9375 31.9688C34.9375 32.9525 34.197 33.75 33.2835 33.75L5.71652 33.75C4.80303 33.75 4.0625 32.9525 4.0625 31.9687C4.0625 30.985 4.80303 30.1875 5.71652 30.1875L33.2835 30.1875C34.197 30.1875 34.9375 30.985 34.9375 31.9688Z" fill="#16A75C"/>
<path fill-rule="evenodd" clip-rule="evenodd" d="M11.5987 26.9219L9.59696 31.9263L6.84055 30.8237L8.91696 25.6327C9.32272 24.6183 10.3052 23.9531 11.3977 23.9531H27.6723C28.6844 23.9531 29.6095 24.5249 30.0621 25.4301L32.7027 30.7112L30.0473 32.0388L27.4889 26.9219H11.5987Z" fill="#16A75C"/>
<path fill-rule="evenodd" clip-rule="evenodd" d="M11.3254 26.4875C10.7457 27.0672 9.80585 27.0672 9.22617 26.4875L5.38789 22.6492C4.80821 22.0695 4.80821 21.1297 5.38789 20.55C5.96758 19.9703 6.90743 19.9703 7.48711 20.55L11.3254 24.3883C11.9051 24.968 11.9051 25.9078 11.3254 26.4875Z" fill="#16A75C"/>
<path fill-rule="evenodd" clip-rule="evenodd" d="M16.1596 31.8095L20.1552 16.898L22.4492 17.5127L18.4537 32.4242L16.1596 31.8095Z" fill="#16A75C"/>
<path fill-rule="evenodd" clip-rule="evenodd" d="M24.8377 14.2628C24.8756 13.3323 24.7568 12.402 24.4863 11.5108L23.7041 8.93354L25.9767 8.24379L26.7589 10.821C27.1067 11.9668 27.2594 13.1629 27.2108 14.3593L27.1226 16.5272L24.7495 16.4307L24.8377 14.2628Z" fill="#FF9500"/>
<path fill-rule="evenodd" clip-rule="evenodd" d="M21.9621 10.4435C21.2363 11.0271 20.6138 11.7285 20.1205 12.5185L18.6939 14.8029L16.6794 13.545L18.106 11.2605C18.7402 10.2448 19.5406 9.34299 20.4738 8.59263L22.1646 7.233L23.6529 9.08384L21.9621 10.4435Z" fill="#FF9500"/>
<mask id="path-7-inside-1_10690_25280" fill="white">
<path d="M31.6255 19.9718C31.9888 18.6161 32.0815 17.2022 31.8983 15.8107C31.7151 14.4192 31.2596 13.0774 30.5579 11.8619C29.8561 10.6465 28.9218 9.58111 27.8083 8.72671C26.6949 7.87231 25.424 7.24559 24.0683 6.88234C22.7127 6.51909 21.2987 6.42641 19.9072 6.6096C18.5157 6.7928 17.1739 7.24827 15.9585 7.95003C14.743 8.65178 13.6776 9.58606 12.8232 10.6995C11.9688 11.813 11.3421 13.0839 10.9789 14.4395L21.3022 17.2057L31.6255 19.9718Z"/>
</mask>
<path d="M31.6255 19.9718C31.9888 18.6161 32.0815 17.2022 31.8983 15.8107C31.7151 14.4192 31.2596 13.0774 30.5579 11.8619C29.8561 10.6465 28.9218 9.58111 27.8083 8.72671C26.6949 7.87231 25.424 7.24559 24.0683 6.88234C22.7127 6.51909 21.2987 6.42641 19.9072 6.6096C18.5157 6.7928 17.1739 7.24827 15.9585 7.95003C14.743 8.65178 13.6776 9.58606 12.8232 10.6995C11.9688 11.813 11.3421 13.0839 10.9789 14.4395L21.3022 17.2057L31.6255 19.9718Z" stroke="#16A75C" stroke-width="4" mask="url(#path-7-inside-1_10690_25280)"/>
</svg>
