<svg width="39" height="39" viewBox="0 0 39 39" fill="none" xmlns="http://www.w3.org/2000/svg">
<g clip-path="url(#clip0_10690_25148)">
<path fill-rule="evenodd" clip-rule="evenodd" d="M6.4375 10.5938C6.4375 9.60999 5.64001 8.8125 4.65625 8.8125C3.67249 8.8125 2.875 9.60999 2.875 10.5938V34.3438C2.875 35.3275 3.67249 36.125 4.65625 36.125L29.5938 36.125C30.5775 36.125 31.375 35.3275 31.375 34.3437C31.375 33.36 30.5775 32.5625 29.5938 32.5625L18.3125 32.5625V26.0312C18.3125 25.0475 17.515 24.25 16.5312 24.25C15.5475 24.25 14.75 25.0475 14.75 26.0312V32.5625H12.375V28.4062C12.375 27.4225 11.5775 26.625 10.5938 26.625C9.60999 26.625 8.8125 27.4225 8.8125 28.4062L8.8125 32.5625H6.4375L6.4375 10.5938Z" fill="#16A75C"/>
<path fill-rule="evenodd" clip-rule="evenodd" d="M25.3839 19.4464V8.47684L23.0625 5.57506L20.7411 8.47684V19.4464H25.3839ZM18.8447 6.95973C18.5002 7.39034 18.3125 7.92538 18.3125 8.47684V11.0679L14.2788 12.8818C13.8429 13.0778 13.5625 13.5113 13.5625 13.9892V18.2857C13.5625 18.9563 14.1062 19.4999 14.7768 19.4999H18.3131C18.3416 20.8165 19.4177 21.8749 20.7411 21.8749H25.3839C26.7073 21.8749 27.7834 20.8165 27.8119 19.4999H31.3482C32.0188 19.4999 32.5625 18.9563 32.5625 18.2857V13.9892C32.5625 13.5113 32.2821 13.0778 31.8462 12.8818L27.8125 11.0679V8.47684C27.8125 7.92538 27.6248 7.39034 27.2803 6.95973L24.9589 4.05794C23.9867 2.84267 22.1383 2.84267 21.1661 4.05794L18.8447 6.95973ZM15.9911 14.7746V17.0714H18.2589V13.7548L15.9911 14.7746ZM30.1339 17.0714V14.7746L27.8661 13.7548V17.0714H30.1339Z" fill="#FF9500"/>
<path d="M25.4375 26.7946C25.4375 28.2 23.8542 30.1875 23.0625 30.1875C22.2708 30.1875 20.6875 28.2 20.6875 26.7946C20.6875 25.3893 21.7508 24.25 23.0625 24.25C24.3742 24.25 25.4375 25.3893 25.4375 26.7946Z" fill="#FF9500"/>
</g>
<defs>
<clipPath id="clip0_10690_25148">
<rect width="33.25" height="33.25" fill="white" transform="translate(2.875 2.875)"/>
</clipPath>
</defs>
</svg>
