<svg width="38" height="39" viewBox="0 0 38 39" fill="none" xmlns="http://www.w3.org/2000/svg">
<path fill-rule="evenodd" clip-rule="evenodd" d="M19.5937 5.25C20.5775 5.25 21.375 6.04749 21.375 7.03125L21.375 31.9688C21.375 32.9525 20.5775 33.75 19.5938 33.75C18.61 33.75 17.8125 32.9525 17.8125 31.9688L17.8125 7.03125C17.8125 6.04749 18.61 5.25 19.5937 5.25Z" fill="#16A75C"/>
<path d="M14.7125 32.2727C10.4605 31.8582 7.1375 28.2735 7.1375 23.9127L7.1375 21.9277C11.3895 22.3422 14.7125 25.9269 14.7125 30.2877L14.7125 32.2727Z" stroke="#FF9500" stroke-width="2.4"/>
<path d="M24.95 23.9027C28.4385 23.3299 31.1 20.3008 31.1 16.6502L31.1 13.6727C27.6115 14.2455 24.95 17.2745 24.95 20.9252L24.95 23.9027Z" stroke="#FF9500" stroke-width="2.4"/>
<path d="M14.7125 16.8352C10.4605 16.4207 7.1375 12.836 7.1375 8.47519L7.1375 6.49019C11.3895 6.90468 14.7125 10.4894 14.7125 14.8502L14.7125 16.8352Z" stroke="#16A75C" stroke-width="2.4"/>
</svg>
