<svg width="80" height="80" viewBox="0 0 80 80" fill="none" xmlns="http://www.w3.org/2000/svg">
<rect width="80" height="80" rx="40" fill="#F5F5F5"/>
<path d="M43.2541 30C43.8075 30 44.3415 30.204 44.7541 30.573C45.1666 30.9419 45.4286 31.45 45.4901 32H46.7581C47.1973 32 47.6204 32.1652 47.9435 32.4627C48.2666 32.7602 48.466 33.1683 48.5021 33.606L48.5081 33.75V36.75C48.5081 37.5801 48.1905 38.3788 47.6204 38.9822C47.0503 39.5856 46.2709 39.948 45.4421 39.995L45.2321 40.001C44.8988 41.04 44.2772 41.9629 43.4396 42.6623C42.602 43.3616 41.5829 43.8085 40.5011 43.951V45.5H42.2541C43.0841 45.5002 43.8825 45.8179 44.4857 46.388C45.0889 46.9581 45.4511 47.7374 45.4981 48.566L45.5041 48.75V49.25C45.5041 49.4314 45.4383 49.6066 45.3189 49.7432C45.1996 49.8798 45.0348 49.9686 44.8551 49.993L44.7541 50H34.7501C34.5687 50.0002 34.3933 49.9347 34.2565 49.8156C34.1197 49.6964 34.0308 49.5317 34.0061 49.352L34.0001 49.25V48.75C34 47.92 34.3175 47.1215 34.8874 46.5181C35.4573 45.9147 36.2365 45.5522 37.0651 45.505L37.2501 45.5H39.0001V43.951C37.9186 43.8082 36.9 43.3611 36.0628 42.6618C35.2256 41.9625 34.6042 41.0397 34.2711 40.001L34.2461 40C33.3841 40 32.5575 39.6576 31.948 39.0481C31.3385 38.4386 30.9961 37.612 30.9961 36.75V33.75C30.9961 32.784 31.7801 32 32.7461 32H34.0141C34.0756 31.4498 34.3378 30.9416 34.7505 30.5726C35.1632 30.2037 35.6975 29.9998 36.2511 30H43.2541V30ZM46.7581 33.5H45.5041V38.483C45.895 38.4272 46.2556 38.2408 46.5272 37.9542C46.7988 37.6675 46.9655 37.2974 47.0001 36.904L47.0071 36.75V33.75C47.007 33.6937 46.9879 33.639 46.9529 33.5949C46.9178 33.5508 46.8689 33.5198 46.8141 33.507L46.7571 33.5H46.7581ZM34.0001 33.5H32.7461C32.6798 33.5 32.6162 33.5263 32.5693 33.5732C32.5224 33.6201 32.4961 33.6837 32.4961 33.75V36.75C32.496 37.1717 32.6483 37.5793 32.9248 37.8977C33.2013 38.2161 33.5835 38.424 34.0011 38.483V33.5H34.0001Z" fill="#BDBDBD"/>
</svg>
