<svg width="33" height="33" viewBox="0 0 33 33" fill="none" xmlns="http://www.w3.org/2000/svg">
<g clip-path="url(#clip0_9649_24455)">
<path d="M31.5625 13.625H30.5294C30.3384 12.6961 29.8675 11.8429 29.1777 11.1823C29.5326 9.96331 29.3829 8.64313 28.741 7.53125C28.099 6.41937 27.0305 5.62962 25.7975 5.3275C25.4953 4.0945 24.7056 3.026 23.5937 2.384C22.4819 1.74212 21.1617 1.59238 19.9428 1.94725C19.0647 1.0305 17.8464 0.5 16.5625 0.5C15.2584 0.5 13.9564 1.05275 13.0656 1.94969C11.8444 1.59175 10.5205 1.74069 9.40625 2.384C8.29437 3.02594 7.50462 4.0945 7.20244 5.32744C5.96944 5.62956 4.90094 6.41931 4.259 7.53119C3.61706 8.643 3.46737 9.96325 3.82225 11.1822C3.1325 11.8429 2.66163 12.6961 2.47063 13.625H1.4375C0.91975 13.625 0.5 14.0448 0.5 14.5625C0.5 20.0662 3.35319 25.1701 8 28.0787V29.6875C8 31.2383 9.26169 32.5 10.8125 32.5H22.1875C23.7383 32.5 25 31.2383 25 29.6875V28.0787C29.6468 25.1701 32.5 20.0662 32.5 14.5625C32.5 14.0448 32.0802 13.625 31.5625 13.625ZM5.4685 12.2512C5.84562 11.9901 5.97844 11.4945 5.78244 11.0798C5.38581 10.2406 5.42331 9.26456 5.88281 8.46875C6.34231 7.67287 7.16887 7.15231 8.09375 7.07625C8.55087 7.03869 8.91369 6.67588 8.95131 6.21875C9.02737 5.29381 9.54788 4.46731 10.3438 4.00775C11.1396 3.54825 12.1157 3.51081 12.9548 3.90738C13.3694 4.10344 13.8651 3.97056 14.1261 3.59344C14.6308 2.86469 15.6098 2.375 16.5625 2.375C17.4816 2.375 18.3456 2.8305 18.8738 3.5935C19.1349 3.97062 19.6306 4.1035 20.0452 3.90744C20.8843 3.51081 21.8603 3.54831 22.6562 4.00781C23.4521 4.46731 23.9726 5.29381 24.0486 6.21875C24.0862 6.67588 24.449 7.03869 24.9061 7.07631C25.8311 7.15238 26.6576 7.67294 27.1172 8.46881C27.5767 9.26462 27.6141 10.2407 27.2175 11.0798C27.0215 11.4945 27.1543 11.9902 27.5314 12.2513C28.0258 12.5935 28.39 13.0772 28.5859 13.6251H4.414C4.60994 13.0771 4.97406 12.5934 5.4685 12.2512ZM23.125 29.6875C23.125 30.2044 22.7044 30.625 22.1875 30.625H10.8125C10.2956 30.625 9.875 30.2044 9.875 29.6875V28.625H23.125V29.6875ZM23.5686 26.75H9.43137C5.34562 24.3922 2.71856 20.1484 2.40638 15.4875H30.5936C30.2814 20.1484 27.6544 24.3922 23.5686 26.75Z" fill="#16A75C"/>
<path d="M20.3125 9.875C20.8303 9.875 21.25 9.45527 21.25 8.9375C21.25 8.41973 20.8303 8 20.3125 8C19.7947 8 19.375 8.41973 19.375 8.9375C19.375 9.45527 19.7947 9.875 20.3125 9.875Z" fill="#16A75C"/>
<path d="M24.0625 11.75C24.5803 11.75 25 11.3303 25 10.8125C25 10.2947 24.5803 9.875 24.0625 9.875C23.5447 9.875 23.125 10.2947 23.125 10.8125C23.125 11.3303 23.5447 11.75 24.0625 11.75Z" fill="#16A75C"/>
<path d="M8.9375 9.875C9.45527 9.875 9.875 9.45527 9.875 8.9375C9.875 8.41973 9.45527 8 8.9375 8C8.41973 8 8 8.41973 8 8.9375C8 9.45527 8.41973 9.875 8.9375 9.875Z" fill="#16A75C"/>
</g>
<defs>
<clipPath id="clip0_9649_24455">
<rect width="32" height="32" fill="white" transform="translate(0.5 0.5)"/>
</clipPath>
</defs>
</svg>
