<svg width="33" height="33" viewBox="0 0 33 33" fill="none" xmlns="http://www.w3.org/2000/svg">
<path d="M18.74 6.33775C18.0398 6.00605 17.2748 5.83398 16.5 5.83398C15.7253 5.83398 14.9602 6.00605 14.26 6.33775L1.26267 12.4951C1.02345 12.6079 0.823203 12.7894 0.687396 13.0164C0.551589 13.2434 0.48636 13.5056 0.500006 13.7697V21.8391C0.500006 22.1927 0.640482 22.5318 0.89053 22.7819C1.14058 23.0319 1.47972 23.1724 1.83334 23.1724C2.18696 23.1724 2.5261 23.0319 2.77615 22.7819C3.0262 22.5318 3.16667 22.1927 3.16667 21.8391V15.8497L5.83334 17.1724V24.5057C5.83338 24.6811 5.86802 24.8548 5.93529 25.0168C6.00255 25.1788 6.10112 25.3259 6.22534 25.4497L6.29201 25.5137L6.45201 25.6604C7.28776 26.4052 8.19124 27.0703 9.15067 27.6471C10.932 28.7191 13.5053 29.8391 16.5 29.8391C19.4947 29.8391 22.068 28.7191 23.852 27.6471C24.8115 27.0703 25.7149 26.4052 26.5507 25.6604L26.7107 25.5137L26.772 25.4497H26.7773C26.9014 25.3254 26.9997 25.1777 27.0665 25.0153C27.1333 24.8528 27.1673 24.6787 27.1667 24.5031V17.1697L31.7587 14.8924C31.9831 14.7812 32.1718 14.6091 32.3029 14.3957C32.4341 14.1823 32.5024 13.9362 32.5002 13.6857C32.498 13.4352 32.4253 13.1905 32.2903 12.9794C32.1554 12.7684 31.9638 12.5996 31.7373 12.4924L18.74 6.33508V6.33775ZM18.8253 21.3111L24.5 18.4951V23.9137C23.8674 24.4503 23.1923 24.9345 22.4813 25.3617C20.9347 26.2897 18.8387 27.1724 16.5 27.1724C14.1613 27.1724 12.068 26.2924 10.5187 25.3617C9.80768 24.9345 9.13257 24.4503 8.50001 23.9137V18.4951L14.1747 21.3111C15.6413 22.0364 17.3587 22.0364 18.8253 21.3111ZM17.5987 8.74841L28.1107 13.7271L17.6387 18.9217C17.2847 19.0971 16.895 19.1883 16.5 19.1883C16.105 19.1883 15.7153 19.0971 15.3613 18.9217L4.88934 13.7271L15.4013 8.74841C15.7447 8.58567 16.12 8.50124 16.5 8.50124C16.88 8.50124 17.2553 8.58567 17.5987 8.74841ZM6.23067 25.4551L6.22801 25.4524L6.23067 25.4551Z" fill="#16A75C"/>
</svg>
