<svg width="39" height="39" viewBox="0 0 39 39" fill="none" xmlns="http://www.w3.org/2000/svg">
<path d="M22.0208 22.4688C22.0208 21.0017 23.2101 19.8125 24.6771 19.8125H32.0833V25.125H24.6771C23.2101 25.125 22.0208 23.9358 22.0208 22.4688Z" stroke="#FF9500" stroke-width="3"/>
<path d="M6.58334 12.6875H30.5833C31.4118 12.6875 32.0833 13.3591 32.0833 14.1875V30.75C32.0833 31.5784 31.4118 32.25 30.5833 32.25H8.08334C7.25492 32.25 6.58334 31.5784 6.58334 30.75V12.6875Z" stroke="#16A75C" stroke-width="3"/>
<path d="M6.58334 9.25C6.58334 7.86929 7.70263 6.75 9.08334 6.75H22.4583C23.8391 6.75 24.9583 7.86929 24.9583 9.25V13.25H6.58334V9.25Z" stroke="#16A75C" stroke-width="3"/>
</svg>
