<svg width="39" height="39" viewBox="0 0 39 39" fill="none" xmlns="http://www.w3.org/2000/svg">
<path fill-rule="evenodd" clip-rule="evenodd" d="M20.0937 5.25C21.0775 5.25 21.875 6.04749 21.875 7.03125L21.875 31.9688C21.875 32.9525 21.0775 33.75 20.0938 33.75C19.11 33.75 18.3125 32.9525 18.3125 31.9688L18.3125 7.03125C18.3125 6.04749 19.11 5.25 20.0937 5.25Z" fill="#16A75C"/>
<path d="M15.2125 32.2727C10.9605 31.8582 7.6375 28.2735 7.6375 23.9127L7.6375 21.9277C11.8895 22.3422 15.2125 25.9269 15.2125 30.2877L15.2125 32.2727Z" stroke="#FF9500" stroke-width="2.4"/>
<path d="M25.45 23.9027C28.9385 23.3299 31.6 20.3008 31.6 16.6502L31.6 13.6727C28.1115 14.2455 25.45 17.2745 25.45 20.9252L25.45 23.9027Z" stroke="#FF9500" stroke-width="2.4"/>
<path d="M15.2125 16.8352C10.9605 16.4207 7.6375 12.836 7.6375 8.47519L7.6375 6.49019C11.8895 6.90468 15.2125 10.4894 15.2125 14.8502L15.2125 16.8352Z" stroke="#16A75C" stroke-width="2.4"/>
</svg>
