<svg width="33" height="33" viewBox="0 0 33 33" fill="none" xmlns="http://www.w3.org/2000/svg">
<path d="M29.8333 25.8337V27.167L19.1667 30.5003L9.83334 27.9137V29.8337H1.83334V15.167H12.46L20.6733 18.2337C21.4052 18.5097 22.0357 19.002 22.4811 19.645C22.9265 20.2881 23.1656 21.0514 23.1667 21.8337H25.8333C28.0467 21.8337 29.8333 23.6203 29.8333 25.8337ZM7.16667 27.167V17.8337H4.5V27.167H7.16667ZM27.0333 25.2603C26.82 24.8203 26.3533 24.5003 25.8333 24.5003H18.7C17.98 24.5003 17.2733 24.3937 16.5933 24.167L13.42 23.1137L14.26 20.5803L17.4333 21.6337C17.8333 21.767 20.5 21.8337 20.5 21.8337C20.5 21.3403 20.1933 20.9003 19.74 20.727L11.98 17.8337H9.83334V25.167L19.1267 27.7137L27.0333 25.2603Z" fill="#16A75C"/>
<path fill-rule="evenodd" clip-rule="evenodd" d="M24.5 13.5909C27.3116 13.5909 29.5909 11.3116 29.5909 8.5C29.5909 5.68837 27.3116 3.40909 24.5 3.40909C21.6884 3.40909 19.4091 5.68837 19.4091 8.5C19.4091 11.3116 21.6884 13.5909 24.5 13.5909ZM24.5 16.5C28.9183 16.5 32.5 12.9183 32.5 8.5C32.5 4.08172 28.9183 0.5 24.5 0.5C20.0817 0.5 16.5 4.08172 16.5 8.5C16.5 12.9183 20.0817 16.5 24.5 16.5Z" fill="#16A75C"/>
</svg>
