<svg width="39" height="39" viewBox="0 0 39 39" fill="none" xmlns="http://www.w3.org/2000/svg">
<path d="M16.2636 18.4222L23.2136 14.3867V17.125V18.625H24.7136H32.4167V32.25H6.91669V18.0281L14.0104 14.2726V17.125V19.7305L16.2636 18.4222Z" stroke="#16A75C" stroke-width="3"/>
<path fill-rule="evenodd" clip-rule="evenodd" d="M16.1042 27.8125H12.5417V24.25H16.1042V27.8125Z" fill="#FF9500"/>
<path fill-rule="evenodd" clip-rule="evenodd" d="M22.0417 27.8125H18.4792V24.25H22.0417V27.8125Z" fill="#FF9500"/>
<path fill-rule="evenodd" clip-rule="evenodd" d="M27.9792 27.8125H24.4167V24.25H27.9792V27.8125Z" fill="#FF9500"/>
<path fill-rule="evenodd" clip-rule="evenodd" d="M32.7292 12.375H27.9792V10H32.7292V12.375Z" fill="#FF9500"/>
<path d="M27.7917 7.25C27.7917 6.69772 28.2394 6.25 28.7917 6.25H31.9167C32.469 6.25 32.9167 6.69772 32.9167 7.25V18.5H27.7917V7.25Z" stroke="#16A75C" stroke-width="2"/>
</svg>
