<svg width="11" height="81" viewBox="0 0 11 81" fill="none" xmlns="http://www.w3.org/2000/svg">
<path d="M0.92146 80.8025V79.5636V78.3695L1.76237 77.4927L4.38985 74.7545V65.2052L1.5529 61.8356L0.840664 60.9857V59.9143V52.774V51.8374L1.37932 51.0623L4.40482 46.7171V38.8496L1.46013 34.9952L0.840664 34.1842V33.1817V24.4823V23.4049L1.54392 22.564L4.23724 19.338V9.71688L1.35239 6.40709L0.604248 5.54823V4.44097V0H6.59539V3.33371L9.48023 6.6435L10.2314 7.50239V8.60962V20.4153V21.4956L9.52811 22.3366L6.8318 25.5626V32.1791L9.77649 36.0336L10.396 36.8446V37.8471V47.6508V48.5874L9.86028 49.3625L6.8318 53.7077V58.843L9.66876 62.2126L10.384 63.0625V64.1339V75.9485V77.1426L9.54008 78.0194L6.9126 80.7576V80.982C6.62831 80.988 6.34401 81 6.05972 81C4.33599 81 2.62124 80.9312 0.92146 80.8025Z" fill="#1D1819"/>
<path fill-rule="evenodd" clip-rule="evenodd" d="M5.85018 81V80.3357L9.32157 76.7206V63.4546L5.77238 59.238V53.3816L9.33653 48.2613V37.2097L5.77238 32.5443V25.1825L9.16894 21.1156V7.90639L5.53297 3.73773V1.06836H1.66357V5.15321L5.29955 9.32486V19.7271L1.90298 23.794V33.8311L5.46713 38.4965V47.0553L1.90298 52.1755V60.6056L5.45217 64.8222V75.1885L1.98079 78.8035V80.8743C3.2646 80.9492 4.5544 80.997 5.85018 81Z" fill="#FEFEFE"/>
</svg>
