<svg width="45" height="81" viewBox="0 0 45 81" fill="none" xmlns="http://www.w3.org/2000/svg">
<path d="M6.77469 77.7916C4.75612 78.2241 2.81635 78.6403 1.11501 79.6654C0.611883 79.9688 0.525007 79.9093 0.872549 80.3829C1.5838 81.3526 1.53328 80.961 2.51327 80.3583C3.85292 79.5321 5.24712 78.9027 6.92825 78.5419C8.60534 78.1831 12.4525 77.0166 14.1478 76.2745L13.7437 75.6123C13.4568 75.7353 10.6441 76.9613 6.77469 77.7916Z" fill="#1D1819"/>
<path fill-rule="evenodd" clip-rule="evenodd" d="M17.9063 1.58516C17.8436 3.39745 17.8659 2.72502 17.688 7.19016C15.9584 7.90155 16.5323 7.61658 12.4305 9.36943C10.7413 9.64824 9.5188 6.37831 11.4909 6.161C9.40565 4.02684 11.3878 1.07263 13.9277 2.04028C14.1359 -0.122584 17.4456 -0.0774822 17.9063 1.58516Z" fill="#FEFEFE"/>
<path d="M18.1487 1.61431C18.1062 2.84642 18.1022 2.93458 18.0517 4.24255L17.9325 7.21316C17.9284 7.30951 17.8718 7.38742 17.791 7.42227C17.2374 7.64983 16.9282 7.77079 16.6312 7.88764C15.9563 8.15621 15.3461 8.39812 12.5355 9.59949C12.5173 9.60564 12.4991 9.61178 12.4809 9.61383C11.6646 9.74914 10.9513 9.19561 10.5573 8.48012C10.4219 8.23206 10.3229 7.96145 10.2704 7.69288C10.2178 7.42022 10.2158 7.1455 10.2744 6.89949C10.3674 6.49972 10.6098 6.1717 11.0402 6.00974C10.5533 5.38856 10.3532 4.71817 10.3734 4.09289C10.3896 3.61522 10.533 3.16419 10.7755 2.78287C11.018 2.3995 11.3595 2.08583 11.7697 1.87877C12.3233 1.59791 13.0022 1.5118 13.7316 1.71886C13.8569 1.16533 14.1782 0.761463 14.5965 0.499049C14.9339 0.285837 15.334 0.16693 15.7401 0.136178C16.1422 0.105427 16.5564 0.16078 16.9262 0.300188C17.5041 0.515449 17.9749 0.931622 18.1406 1.53025C18.1487 1.55896 18.1507 1.58561 18.1487 1.61431ZM17.5627 4.19745C17.6152 2.88333 17.6193 2.78287 17.6597 1.60406C17.5344 1.20429 17.1949 0.917271 16.7767 0.761463C16.4776 0.650757 16.1361 0.603604 15.8007 0.630256C15.4673 0.654857 15.142 0.751212 14.8713 0.921371C14.5015 1.15508 14.2287 1.53025 14.1721 2.06123C14.1721 2.08378 14.1681 2.10633 14.16 2.12889C14.1196 2.25804 13.9802 2.3216 13.8529 2.27239C13.1618 2.00998 12.5173 2.06533 12.0061 2.32365C11.6706 2.4938 11.3898 2.75212 11.1897 3.06579C10.9917 3.37945 10.8745 3.74642 10.8624 4.13594C10.8422 4.73867 11.0786 5.39676 11.6585 5.99129C11.6969 6.02819 11.7232 6.07945 11.7313 6.1348C11.7535 6.27011 11.6626 6.39106 11.5292 6.40746C11.0685 6.45667 10.826 6.71088 10.7492 7.03685C10.7068 7.21521 10.7109 7.41817 10.7492 7.62318C10.7897 7.83434 10.8705 8.05165 10.9816 8.25461C11.2766 8.78969 11.7858 9.20791 12.3536 9.13001C15.1723 7.92454 15.7724 7.68673 16.4332 7.42637C16.714 7.31361 17.005 7.19881 17.4516 7.01635L17.5627 4.19745Z" fill="#1D1819"/>
<path fill-rule="evenodd" clip-rule="evenodd" d="M12.6995 3.98227C13.8047 4.39844 14.516 3.46565 17.4539 4.5194C17.5024 3.32214 17.066 1.6964 18.3894 0.249023C18.638 2.30528 22.9196 4.82897 19.9433 9.00914C16.9447 13.1545 13.5542 10.028 11.4124 10.5611C12.1074 8.12145 14.0674 8.52122 14.9868 8.10299C13.4208 6.3768 13.443 4.99708 12.6995 3.98227Z" fill="#009B4C"/>
<path d="M12.7781 3.74844C13.1458 3.88784 13.4873 3.85094 13.9116 3.80584C14.6249 3.72794 15.5504 3.62953 17.2133 4.17691C17.2093 4.02725 17.2032 3.86734 17.1971 3.70538C17.1507 2.59422 17.0981 1.28626 18.2074 0.0725902C18.2963 -0.023765 18.4499 -0.025816 18.5509 0.0684891C18.5974 0.113591 18.6257 0.170994 18.6317 0.228397C18.7004 0.798328 19.1409 1.45026 19.6319 2.176C20.8281 3.9432 22.3032 6.12656 20.1432 9.15868L20.1351 9.16893C18.0013 12.1088 15.6938 11.5368 13.7379 11.0489C12.8872 10.8377 12.1073 10.645 11.4829 10.8008C11.3536 10.8316 11.2182 10.7516 11.1778 10.6184C11.1657 10.5712 11.1657 10.522 11.1778 10.4789C11.7395 8.50469 13.059 8.26073 14.0935 8.07212C14.2612 8.04137 14.4188 8.01266 14.5623 7.97781C13.748 6.99581 13.4126 6.13476 13.1236 5.39057C12.9377 4.91085 12.77 4.48238 12.5053 4.11951C12.4245 4.0088 12.4427 3.85299 12.5498 3.77509C12.6164 3.72588 12.7033 3.71974 12.7781 3.74844ZM13.9884 4.29786C13.7035 4.32862 13.453 4.35527 13.1964 4.33682C13.3378 4.61563 13.453 4.9129 13.5762 5.22862C13.8773 6.00356 14.2309 6.90971 15.1563 7.93271C15.1765 7.95116 15.1927 7.97576 15.2048 8.00036C15.2654 8.12747 15.2169 8.27303 15.0957 8.32838C14.8411 8.44319 14.538 8.49854 14.2046 8.56005C13.3681 8.7138 12.3194 8.90651 11.7799 10.2534C12.4063 10.2145 13.0933 10.3867 13.8308 10.5692C15.6473 11.0202 17.7871 11.5532 19.739 8.86141L19.7431 8.85526C21.7071 6.09786 20.3412 4.0785 19.2339 2.44252C18.8379 1.85414 18.4721 1.31291 18.2781 0.788078C17.6053 1.75983 17.6477 2.80539 17.6841 3.70948C17.6962 3.99035 17.7063 4.25892 17.6982 4.52133C17.6982 4.54798 17.6942 4.57463 17.6861 4.60128C17.6477 4.73044 17.5103 4.79604 17.381 4.74889C15.6312 4.12155 14.6977 4.22201 13.9884 4.29786Z" fill="#1D1819"/>
<path fill-rule="evenodd" clip-rule="evenodd" d="M26.3766 7.67016C26.0735 9.68542 26.1847 8.93712 25.4108 13.9025C23.3639 14.4704 24.0509 14.2264 19.1873 15.643C17.2435 15.7332 16.2817 11.918 18.5387 11.9344C16.4555 9.27744 19.0742 6.23918 21.8222 7.65376C22.3354 5.26538 26.0695 5.7533 26.3766 7.67016Z" fill="#FEFEFE"/>
<path d="M26.6097 7.7273C26.3935 9.16033 26.3793 9.24848 26.155 10.6897L25.6458 13.9535C25.6317 14.0457 25.565 14.1134 25.4822 14.1359C24.8578 14.3082 24.48 14.4066 24.1162 14.5029C23.3363 14.7059 22.6311 14.8924 19.2668 15.8744C19.2486 15.8785 19.2305 15.8806 19.2123 15.8826C18.2909 15.9257 17.5695 15.2225 17.222 14.384C17.1028 14.0929 17.026 13.7833 17.0038 13.482C16.9815 13.1744 17.0119 12.8751 17.1068 12.6148C17.2664 12.1781 17.5897 11.8439 18.1131 11.7353C17.6301 10.9767 17.4806 10.2018 17.5796 9.50475C17.6544 8.97992 17.8686 8.50224 18.1838 8.11067C18.499 7.7191 18.9153 7.41363 19.3962 7.23528C20.065 6.98516 20.857 6.97901 21.6653 7.32138C21.8694 6.7125 22.2815 6.30042 22.7867 6.06056L22.8008 6.05441C23.2009 5.8658 23.6596 5.7879 24.1142 5.80635C24.5729 5.8248 25.0316 5.94165 25.4276 6.14462C26.0378 6.45623 26.5026 6.97081 26.6097 7.64325C26.6157 7.67195 26.6137 7.70065 26.6097 7.7273ZM25.6883 10.5913C25.9307 9.03937 25.9469 8.93686 26.1389 7.6617C26.0479 7.18197 25.6943 6.80475 25.2316 6.56899C24.9002 6.39883 24.5123 6.30042 24.1223 6.28402H24.1203C23.7364 6.26762 23.3525 6.33323 23.017 6.49108L23.0069 6.49519C22.5483 6.71455 22.1846 7.11022 22.0552 7.715L22.0532 7.71705C22.0512 7.73345 22.0451 7.74985 22.0371 7.76625C21.9825 7.88311 21.8431 7.92821 21.7239 7.86671C20.9581 7.47104 20.2044 7.45258 19.582 7.68425C19.1759 7.83595 18.8223 8.09427 18.5556 8.42434C18.2889 8.7544 18.109 9.15828 18.0464 9.597C17.9514 10.2735 18.1373 11.0464 18.7213 11.7927C18.7536 11.8337 18.7718 11.8829 18.7738 11.9382C18.7799 12.0694 18.6788 12.176 18.5475 12.174C18.0019 12.1699 17.6847 12.4303 17.5514 12.7993C17.4786 12.9981 17.4544 13.2298 17.4725 13.4697C17.4928 13.7157 17.5554 13.974 17.6564 14.2179C17.9272 14.8719 18.4687 15.4214 19.1416 15.405C22.4533 14.4394 23.1767 14.2487 23.9768 14.0396C24.3021 13.9535 24.6396 13.8653 25.2013 13.7095L25.6883 10.5913Z" fill="#1D1819"/>
<path fill-rule="evenodd" clip-rule="evenodd" d="M20.1852 9.66079C21.3793 10.2738 22.3028 9.32458 25.4872 10.8888C25.6973 9.56034 25.4124 7.68449 27.0956 6.24121C27.1118 8.57219 31.6258 11.9569 27.726 16.2334C23.8041 20.4669 20.3751 16.5287 17.8857 16.8423C18.9829 14.2079 21.147 14.9111 22.2401 14.5667C20.6924 12.4325 20.8924 10.895 20.1852 9.66079Z" fill="#009B4C"/>
<path d="M20.282 9.44971C20.6922 9.65882 21.0862 9.66292 21.5792 9.66907C22.3976 9.67727 23.4644 9.68752 25.2931 10.5383C25.3133 10.3518 25.3274 10.155 25.3416 9.95404C25.4325 8.71372 25.5396 7.25609 26.9378 6.05678C27.0348 5.97272 27.1823 5.98913 27.2712 6.09163C27.3096 6.13878 27.3298 6.19619 27.3298 6.25154H27.3318C27.3359 6.90757 27.7521 7.69892 28.2169 8.58046C29.3342 10.7003 30.7143 13.3183 27.9016 16.3996L27.8956 16.4057C25.1233 19.3968 22.6016 18.4558 20.4618 17.6584L20.4497 17.6543C19.5162 17.3057 18.6575 16.988 17.926 17.0782C17.7987 17.0946 17.6754 17.0023 17.6532 16.8711C17.6451 16.824 17.6512 16.7789 17.6674 16.7399H17.6653C18.5463 14.6283 20.0537 14.534 21.2377 14.4581C21.456 14.4438 21.6621 14.4315 21.8439 14.4048C21.0276 13.185 20.7548 12.1661 20.5204 11.2846C20.3709 10.7208 20.2355 10.2165 19.983 9.77363C19.9143 9.65882 19.9506 9.51326 20.0618 9.45176C20.1325 9.41281 20.2133 9.41486 20.282 9.44971ZM21.5974 10.1467C21.2478 10.1426 20.9427 10.1406 20.6356 10.0729C20.775 10.4215 20.872 10.7884 20.9771 11.1821C21.2196 12.0923 21.5024 13.1563 22.4279 14.4315H22.4259C22.442 14.452 22.4521 14.4725 22.4622 14.4971C22.5067 14.6242 22.442 14.7574 22.3208 14.7964C22.0238 14.8887 21.6762 14.9112 21.2923 14.9358C20.3042 14.9994 19.0616 15.0773 18.2715 16.5861C18.9949 16.6128 19.7647 16.8978 20.5912 17.2053L20.6033 17.2094C22.6117 17.9577 24.9758 18.8413 27.548 16.0675V16.0654C30.1405 13.224 28.8493 10.772 27.8026 8.78753C27.4167 8.05359 27.0591 7.37705 26.9217 6.74767C25.9781 7.76452 25.8891 8.97204 25.8144 10.0135C25.7901 10.3354 25.7679 10.6408 25.7214 10.9319C25.7194 10.9545 25.7133 10.975 25.7032 10.9955C25.6527 11.1144 25.5133 11.1616 25.3941 11.1041C23.4846 10.1652 22.4117 10.1549 21.5974 10.1467Z" fill="#1D1819"/>
<path fill-rule="evenodd" clip-rule="evenodd" d="M34.9963 17.9413C33.893 19.727 34.3012 19.0628 31.5552 23.45C29.3063 23.1466 30.0822 23.1978 24.7115 22.5479C22.7555 21.8345 23.3253 17.8286 25.55 18.7696C24.5518 15.3992 28.3526 13.5951 30.5025 16.0614C31.9634 14.0113 35.457 16.0019 34.9963 17.9413Z" fill="#FEFEFE"/>
<path d="M35.1981 18.0768C34.3899 19.3807 34.3414 19.4606 33.5756 20.6804L31.7571 23.5855C31.7066 23.6634 31.6177 23.7003 31.5288 23.6859C30.8539 23.5957 30.4356 23.5322 30.0355 23.4747C29.1748 23.3476 28.3948 23.2328 24.6951 22.7839C24.6709 22.7818 24.6466 22.7757 24.6244 22.7654C23.7232 22.4271 23.2989 21.4902 23.2827 20.5738C23.2787 20.2499 23.3251 19.9281 23.4181 19.6328C23.5131 19.3356 23.6606 19.065 23.8545 18.8538C24.1859 18.493 24.6486 18.3023 25.2225 18.4212C25.0487 17.5376 25.1942 16.7647 25.5397 16.1538C25.8085 15.6782 26.2025 15.301 26.6632 15.0488C27.1259 14.7966 27.6573 14.6654 28.2029 14.6798C28.9848 14.7003 29.7991 15.0201 30.4801 15.7007C30.9266 15.2005 31.5025 14.9791 32.1006 14.9606C32.5875 14.9442 33.0866 15.0652 33.5392 15.2805C33.9919 15.4957 34.4 15.8053 34.7051 16.1723C35.1496 16.7053 35.38 17.3552 35.2244 18.0092C35.2204 18.0338 35.2103 18.0563 35.1981 18.0768ZM33.1755 20.4078C34.0383 19.0281 34.101 18.9297 34.7758 17.839C34.8749 17.3634 34.693 16.8775 34.3535 16.4695C34.0929 16.16 33.7453 15.8934 33.3574 15.7089C32.9715 15.5265 32.5471 15.424 32.141 15.4363C31.5975 15.4527 31.0761 15.6802 30.7003 16.201C30.6902 16.2174 30.6781 16.2317 30.6639 16.2461C30.5669 16.3301 30.4174 16.3178 30.3285 16.2153C29.7102 15.5039 28.9444 15.178 28.213 15.1575C27.7502 15.1452 27.2976 15.2559 26.9056 15.4711C26.5116 15.6864 26.1782 16.0041 25.9499 16.408C25.6125 17.0046 25.5033 17.7939 25.7741 18.7123C25.7883 18.7615 25.7882 18.8148 25.7701 18.864C25.7256 18.985 25.5902 19.0424 25.467 18.9891C24.9154 18.7554 24.489 18.8825 24.2061 19.19C24.0566 19.352 23.9435 19.5631 23.8667 19.803C23.7879 20.0449 23.7495 20.3155 23.7555 20.5902C23.7677 21.318 24.0829 22.054 24.7537 22.3144C28.4312 22.7593 29.2152 22.8741 30.08 23.0012C30.4336 23.0545 30.8013 23.1078 31.4297 23.1939L33.1755 20.4078Z" fill="#1D1819"/>
<path fill-rule="evenodd" clip-rule="evenodd" d="M28.0473 17.1759C28.9586 18.2195 30.2174 17.711 32.6765 20.4274C33.3958 19.2835 33.8504 17.4404 36.0307 16.7803C35.1416 18.937 38.1705 23.8634 32.7533 26.2518C27.33 28.593 25.56 23.5887 23.0403 22.8855C25.1215 20.8928 26.9319 22.4058 28.118 22.5247C27.4573 19.9374 28.2494 18.5987 28.0473 17.1759Z" fill="#009B4C"/>
<path d="M28.2184 17.0252C28.5336 17.382 28.9115 17.5439 29.3843 17.7469C30.1703 18.0811 31.1927 18.5177 32.6273 20.0348C32.7183 19.8687 32.8092 19.6924 32.9042 19.51C33.4719 18.4029 34.1428 17.099 35.9512 16.5517C36.0745 16.5148 36.2098 16.5865 36.2523 16.7136C36.2745 16.7751 36.2685 16.8387 36.2442 16.892C35.9977 17.4988 36.0906 18.3927 36.1957 19.387C36.4463 21.7877 36.7574 24.7521 32.8557 26.4722L32.8435 26.4763C29.0165 28.1245 26.9555 26.2528 25.2077 24.6619C24.4379 23.9649 23.7347 23.3232 22.9891 23.1161C22.8618 23.0792 22.781 22.948 22.8113 22.8209C22.8214 22.7738 22.8457 22.7328 22.88 22.702C24.543 21.1152 26.0301 21.6277 27.196 22.0316C27.4142 22.1054 27.6203 22.1772 27.8082 22.2264C27.493 20.7687 27.6284 19.7191 27.7456 18.8109C27.8204 18.2328 27.887 17.7141 27.8123 17.2016C27.7941 17.0703 27.883 16.9535 28.0123 16.9412C28.0911 16.933 28.1679 16.9658 28.2184 17.0252ZM29.2206 18.1836C28.8832 18.0401 28.5862 17.915 28.3154 17.7264C28.3134 18.1057 28.2649 18.487 28.2124 18.897C28.0911 19.8339 27.9497 20.9287 28.3457 22.4765C28.3518 22.499 28.3538 22.5236 28.3518 22.5482C28.3457 22.6794 28.2366 22.7758 28.1073 22.7615C27.786 22.7307 27.4425 22.6118 27.0646 22.4806C26.0847 22.1423 24.8541 21.7179 23.5003 22.8045C24.1934 23.1161 24.8279 23.6943 25.5128 24.3154C27.1536 25.8079 29.0893 27.5669 32.6435 26.0355L32.6496 26.0334C36.2543 24.4446 35.9633 21.6646 35.7269 19.4136C35.64 18.5772 35.5592 17.8084 35.6744 17.1688C34.361 17.7305 33.8053 18.8129 33.3244 19.7478C33.1769 20.0369 33.0335 20.3136 32.8759 20.5637C32.8658 20.5801 32.8536 20.5945 32.8395 20.6088C32.7466 20.6949 32.597 20.6847 32.5061 20.5842C31.0311 18.9564 30.0026 18.5177 29.2206 18.1836Z" fill="#1D1819"/>
<path fill-rule="evenodd" clip-rule="evenodd" d="M40.6341 28.674C39.3208 30.3264 39.8077 29.7134 36.5505 33.7686C34.3158 33.2109 35.0937 33.3483 29.7512 32.0854C27.8559 31.1506 28.8804 27.2226 31.0161 28.4157C30.3877 24.9428 34.4208 23.5816 36.3141 26.2857C38.0155 24.4078 41.3151 26.7941 40.6341 28.674Z" fill="#FEFEFE"/>
<path d="M40.8129 28.8405C39.8248 30.0849 39.7642 30.1587 38.8953 31.2391C38.4387 31.809 37.7779 32.6291 36.7353 33.9268C36.6747 34.0027 36.5757 34.0273 36.4848 33.9965C35.7897 33.8223 35.3936 33.7177 35.0138 33.6172C34.155 33.3917 33.3751 33.1847 29.7077 32.3175C29.6895 32.3134 29.6713 32.3072 29.6552 32.299C28.7762 31.8664 28.4469 30.8865 28.5277 29.968C28.558 29.6441 28.6388 29.3264 28.7641 29.0455C28.8914 28.7585 29.0672 28.5043 29.2854 28.3136C29.6633 27.9856 30.1543 27.8441 30.7261 28.0307C30.6513 27.1389 30.8756 26.3927 31.2838 25.8248C31.6071 25.3758 32.0455 25.0416 32.5386 24.8387C33.0336 24.6378 33.5852 24.566 34.1368 24.6419C34.9269 24.7485 35.7149 25.1605 36.3312 25.9211C36.8404 25.4701 37.4526 25.3163 38.0628 25.3697C38.5579 25.4127 39.0489 25.5931 39.4813 25.8637C39.9117 26.1343 40.2895 26.4952 40.5522 26.899C40.9301 27.4772 41.0836 28.1414 40.8573 28.7667C40.8472 28.7954 40.8311 28.82 40.8129 28.8405ZM38.5195 30.9234C39.5803 29.6031 39.6551 29.5109 40.4209 28.5473C40.5724 28.0901 40.4492 27.592 40.1602 27.1512C39.9379 26.8109 39.6167 26.5034 39.2469 26.2717C38.8771 26.04 38.4609 25.8863 38.0467 25.8494C37.493 25.8002 36.9374 25.9642 36.4989 26.4419C36.4868 26.4583 36.4706 26.4726 36.4524 26.4849C36.3474 26.5587 36.1978 26.528 36.1211 26.4173C35.5735 25.6341 34.8339 25.22 34.0964 25.1175C33.6277 25.0539 33.1589 25.1154 32.7386 25.2876C32.3183 25.4599 31.9465 25.7428 31.6717 26.122C31.2716 26.6776 31.0797 27.4464 31.2494 28.3833C31.2575 28.4325 31.2514 28.4858 31.2272 28.533C31.1686 28.6498 31.0251 28.6888 30.9079 28.6232C30.3745 28.3259 29.9279 28.4059 29.6067 28.6867C29.439 28.8323 29.3016 29.0332 29.1985 29.2628C29.0934 29.4986 29.0268 29.7651 29.0025 30.0357C28.9379 30.7594 29.1763 31.5241 29.8209 31.8562C33.4842 32.7234 34.2581 32.9284 35.1108 33.1519C35.4745 33.2482 35.8503 33.3466 36.4504 33.4983C37.4405 32.2642 38.075 31.4749 38.5195 30.9234ZM40.8129 28.8405C40.7502 28.9102 40.6472 28.9348 40.5522 28.8958L40.8129 28.8405Z" fill="#1D1819"/>
<path fill-rule="evenodd" clip-rule="evenodd" d="M33.738 27.2295C34.5624 28.4022 35.9222 28.0311 38.155 31.098C39.0299 30.0135 39.7129 28.1807 42.0446 27.7625C40.8767 29.8639 43.4469 35.2577 37.567 37.0639C31.6871 38.8208 30.4303 33.4946 27.9045 32.4778C30.2868 30.6839 31.9841 32.445 33.1985 32.7053C32.8126 29.9828 33.7845 28.7056 33.738 27.2295Z" fill="#009B4C"/>
<path d="M33.9272 27.0978C34.2121 27.5017 34.588 27.7129 35.0547 27.9753C35.8286 28.4099 36.8389 28.9778 38.1503 30.704C38.2675 30.542 38.3826 30.3698 38.5019 30.1915C39.2171 29.1275 40.0577 27.8748 41.9894 27.5284C42.1187 27.5058 42.246 27.594 42.2743 27.7252C42.2884 27.7846 42.2783 27.8441 42.2521 27.8933C41.9207 28.4878 41.9146 29.4145 41.9086 30.4498C41.8944 32.9325 41.8762 35.9994 37.6451 37.2971V37.2992H37.6431H37.6391C33.4888 38.5375 31.5733 36.3807 29.9467 34.55C29.2314 33.7443 28.5747 33.0042 27.8251 32.7049C27.7018 32.6536 27.6351 32.5122 27.6796 32.3892C27.6937 32.3461 27.722 32.3113 27.7543 32.2846C29.6598 30.8516 31.1388 31.5527 32.2986 32.1001C32.5189 32.2047 32.727 32.3031 32.919 32.3769C32.7573 30.8475 33.018 29.7855 33.2443 28.8691C33.3877 28.2849 33.5171 27.7621 33.4989 27.227C33.4948 27.0937 33.5979 26.9892 33.7292 26.9912C33.8101 26.9933 33.8828 27.0363 33.9272 27.0978ZM34.8385 28.3956C34.5031 28.2049 34.2081 28.0409 33.9495 27.8133C33.903 28.2049 33.808 28.5924 33.707 29.0085C33.4746 29.9516 33.2018 31.0546 33.4342 32.6864C33.4362 32.7111 33.4362 32.7356 33.4322 32.7603C33.412 32.8894 33.2887 32.9735 33.1594 32.9448C32.8321 32.8751 32.4906 32.7131 32.1148 32.5347C31.1368 32.0735 29.9083 31.4912 28.3767 32.4527C29.0617 32.8525 29.6537 33.5208 30.2922 34.2384C31.8218 35.9605 33.6262 37.9901 37.4875 36.8359C41.4034 35.6345 41.4196 32.7541 41.4358 30.4231C41.4398 29.5518 41.4459 28.7523 41.6398 28.1106C40.2072 28.5309 39.5041 29.5764 38.8999 30.4764C38.71 30.7593 38.5301 31.0279 38.3422 31.2596C38.3301 31.2739 38.316 31.2883 38.2998 31.3006C38.1947 31.3764 38.0452 31.3477 37.9664 31.2391C36.6267 29.3981 35.6104 28.8281 34.8385 28.3956ZM37.4875 36.8359H37.4895H37.4875Z" fill="#1D1819"/>
<path fill-rule="evenodd" clip-rule="evenodd" d="M42.3836 42.9263C40.4196 43.773 41.1491 43.4573 36.2936 45.5197C34.4751 43.9903 35.1317 44.4742 30.7471 40.8844C29.4135 39.1828 32.1372 36.1958 33.5799 38.2377C34.566 34.8858 38.9224 35.5582 39.4558 38.8179C41.8805 37.9528 43.8647 41.5856 42.3836 42.9263Z" fill="#FEFEFE"/>
<path d="M42.4704 43.1509C41.0924 43.7454 41.0034 43.7823 39.5971 44.3789L36.3945 45.7402C36.3116 45.775 36.2167 45.7566 36.15 45.6992H36.148C35.5984 45.2358 35.2629 44.9468 34.9417 44.67C34.2466 44.0714 33.6141 43.5281 30.6055 41.0639C30.5873 41.0495 30.5732 41.0331 30.559 41.0147C29.971 40.2541 30.0822 39.2844 30.5327 38.5299C30.6964 38.2532 30.9086 38.0031 31.145 37.8062H31.147C31.3895 37.6033 31.6623 37.4516 31.9472 37.3737C32.4685 37.2281 33.0181 37.3204 33.4868 37.7755C33.8081 36.98 34.3294 36.4347 34.9376 36.119C35.4468 35.8545 36.0186 35.752 36.5824 35.7992C37.1441 35.8463 37.7018 36.0431 38.1888 36.3732C38.8677 36.8365 39.4072 37.5623 39.6315 38.5135C40.3467 38.3413 41.0196 38.5156 41.5813 38.8866C42.0077 39.1696 42.3694 39.5673 42.6361 40.0122C42.9008 40.4591 43.0725 40.9532 43.117 41.4267C43.1776 42.0725 43.0119 42.6855 42.5452 43.1058C42.5229 43.1263 42.4987 43.1406 42.4704 43.1509ZM39.3971 43.9402C40.8923 43.3046 40.9933 43.2616 42.2461 42.7224C42.5775 42.4046 42.6947 41.9413 42.6482 41.4493C42.6098 41.0454 42.4643 40.6231 42.238 40.2438C42.0097 39.8604 41.7026 39.5201 41.3389 39.2803C40.8277 38.944 40.2033 38.8067 39.5426 39.0425C39.5264 39.0466 39.5102 39.0507 39.4941 39.0527C39.3668 39.0671 39.2455 38.9748 39.2233 38.8436C39.0697 37.9046 38.5747 37.1974 37.9402 36.7648C37.524 36.4819 37.0471 36.3138 36.5662 36.2728C36.0853 36.2318 35.6004 36.3199 35.168 36.5434C34.5679 36.855 34.0647 37.4352 33.8061 38.3167H33.8041C33.792 38.3639 33.7617 38.4049 33.7192 38.4356C33.6162 38.5074 33.4687 38.4787 33.3919 38.37C33.014 37.8349 32.5372 37.7078 32.0926 37.8308C31.8704 37.8923 31.6522 38.0153 31.4562 38.1794C31.2541 38.3475 31.0763 38.5566 30.9369 38.7903C30.5792 39.3889 30.4782 40.1434 30.9126 40.7194C33.9253 43.1857 34.5477 43.7229 35.2347 44.3153C35.5196 44.5593 35.8146 44.8135 36.3258 45.244L39.3971 43.9402Z" fill="#1D1819"/>
<path fill-rule="evenodd" clip-rule="evenodd" d="M36.6385 38.4561C36.8728 39.8727 38.3014 40.1761 38.9884 43.9134C40.2897 43.364 41.7485 42.0663 44.1005 42.7777C42.0698 44.0877 42.0152 50.033 35.7474 48.8952C29.5017 47.7164 30.7404 42.4415 28.8572 40.375C31.8759 39.8993 32.6559 42.2385 33.6642 43.0319C34.537 40.4529 36.0141 39.7784 36.6385 38.4561Z" fill="#009B4C"/>
<path d="M36.8716 38.4303C36.9525 38.9182 37.2051 39.2769 37.5203 39.7239C38.0416 40.466 38.7225 41.4357 39.159 43.5678C39.3428 43.4797 39.5307 43.3792 39.7247 43.2767C40.8664 42.6719 42.2121 41.9585 44.1599 42.5489C44.2852 42.5879 44.362 42.7211 44.3297 42.8462C44.3155 42.9077 44.2771 42.9548 44.2286 42.9835C43.6568 43.3567 43.2325 44.1706 42.7597 45.0767C41.6261 47.256 40.2238 49.9457 35.7179 49.1277C31.309 48.2974 30.5048 45.5072 29.8238 43.1414C29.5228 42.1 29.248 41.1425 28.6882 40.5296C28.5993 40.4312 28.6014 40.2795 28.6943 40.1933C28.7287 40.1626 28.7711 40.1421 28.8155 40.138C31.2201 39.7608 32.2748 41.0605 33.1012 42.0794C33.2609 42.2763 33.4124 42.4628 33.5599 42.6186C34.1014 41.1917 34.8248 40.3758 35.4471 39.6726C35.8452 39.2236 36.2008 38.8218 36.4271 38.3441C36.4817 38.2273 36.6211 38.1842 36.7383 38.2457C36.811 38.2826 36.8595 38.3544 36.8716 38.4303ZM37.1424 39.9883C36.9121 39.6603 36.714 39.3774 36.5746 39.0514C36.3544 39.3795 36.0877 39.6788 35.8028 40.0006C35.1622 40.7243 34.4126 41.569 33.8913 43.1106C33.8832 43.1353 33.8711 43.1578 33.8549 43.1804C33.7781 43.2829 33.6326 43.2972 33.5276 43.2152C33.2568 43.002 33.0123 42.7006 32.7436 42.3706C32.0424 41.5075 31.1615 40.4209 29.2985 40.5624C29.7551 41.2307 30.0057 42.0979 30.2744 43.0286C30.9149 45.2592 31.6727 47.8854 35.7805 48.6603C39.9571 49.4168 41.2765 46.8869 42.3434 44.8368C42.7435 44.0681 43.1112 43.3628 43.5841 42.8892C42.0585 42.5879 40.931 43.1865 39.9571 43.7011C39.656 43.861 39.3691 44.0127 39.0882 44.1316C39.07 44.1398 39.0519 44.1439 39.0317 44.148C38.9044 44.1644 38.7811 44.0742 38.7589 43.943C38.3467 41.7002 37.6617 40.7264 37.1424 39.9883ZM44.2286 42.9835C44.1761 43.0143 44.1094 43.0245 44.0448 43.004L44.2286 42.9835Z" fill="#1D1819"/>
<path fill-rule="evenodd" clip-rule="evenodd" d="M40.0481 56.1148C37.8235 56.2297 38.6499 56.1845 33.1599 56.4408C31.891 54.3497 32.3739 55.0385 29.2804 50.0875C28.5469 48.0026 32.2527 46.1226 32.9761 48.5684C35.0936 45.729 39.1571 47.896 38.567 51.1823C41.2544 51.213 41.9677 55.3604 40.0481 56.1148Z" fill="#FEFEFE"/>
<path d="M40.0705 56.3381C38.5672 56.416 38.4642 56.4201 36.8113 56.496L33.1823 56.6641C33.0914 56.6682 33.0086 56.617 32.9661 56.5391C32.5822 55.9056 32.3539 55.5202 32.1336 55.1491C31.6608 54.3475 31.2304 53.6197 29.0947 50.2001C29.0805 50.1796 29.0724 50.1591 29.0664 50.1366C28.7572 49.2366 29.1694 48.3796 29.8403 47.824C30.0908 47.6149 30.3818 47.4489 30.6829 47.3382C30.988 47.2254 31.3072 47.17 31.6123 47.1865C32.1963 47.2193 32.7277 47.5022 33.0389 48.1275C33.6289 47.4735 34.3341 47.1331 35.0453 47.0491C35.6454 46.9753 36.2496 47.0839 36.7951 47.3361C37.3387 47.5883 37.8216 47.9819 38.1833 48.4842C38.6662 49.1546 38.9309 50.0115 38.8238 50.9689C39.6219 51.055 40.2443 51.4835 40.6727 52.0678C40.9798 52.4839 41.1859 52.9821 41.2849 53.4864C41.3839 53.9928 41.3778 54.5074 41.2586 54.9646C41.097 55.5817 40.7272 56.0901 40.1392 56.3217C40.117 56.332 40.0948 56.3361 40.0705 56.3381ZM36.7689 56.045C38.3894 55.9712 38.5005 55.965 39.9917 55.8892C40.4261 55.7047 40.703 55.309 40.8282 54.8272C40.9313 54.4377 40.9353 53.9928 40.8484 53.5541C40.7636 53.1154 40.5838 52.6848 40.3211 52.324C39.9271 51.791 39.3391 51.4138 38.5773 51.4056C38.5611 51.4056 38.545 51.4035 38.5288 51.3994C38.4076 51.3707 38.3268 51.2498 38.349 51.1288C38.5147 50.2001 38.2843 49.3698 37.8297 48.7384C37.5165 48.3038 37.0962 47.9614 36.6274 47.7441C36.1566 47.5268 35.6374 47.4345 35.1221 47.496C34.4169 47.5801 33.7178 47.9573 33.1581 48.7035C33.1318 48.7425 33.0914 48.7732 33.0409 48.7855C32.9237 48.8163 32.7984 48.7425 32.762 48.6215C32.566 47.9552 32.1134 47.6662 31.6123 47.6375C31.3658 47.6231 31.1052 47.6703 30.8526 47.7625C30.596 47.8568 30.3495 48.0003 30.1333 48.1787C29.5917 48.6277 29.2523 49.3022 29.4806 49.9951C31.5921 53.3757 32.0306 54.1158 32.5135 54.9318C32.7115 55.268 32.9197 55.6186 33.2753 56.2069L36.7689 56.045Z" fill="#1D1819"/>
<path fill-rule="evenodd" clip-rule="evenodd" d="M35.9161 49.8486C35.6616 51.2776 36.9668 52.0689 36.3647 55.8595C37.8357 55.7939 39.7189 55.0744 41.792 56.5771C39.341 57.1081 37.2578 62.7377 31.4688 59.4575C25.7162 56.1425 28.739 51.5646 27.5913 48.9404C30.7273 49.5493 30.697 52.0463 31.4203 53.1534C33.1621 51.009 34.8493 50.888 35.9161 49.8486Z" fill="#009B4C"/>
<path d="M36.1335 49.9027C36.0466 50.4009 36.1719 50.8335 36.3295 51.3727C36.5922 52.2624 36.9316 53.4269 36.6265 55.6184C36.8447 55.5979 37.0731 55.5672 37.3095 55.5364C38.639 55.3642 40.205 55.1592 41.9144 56.3995C42.0175 56.4733 42.0437 56.6148 41.975 56.7152C41.9447 56.7604 41.8982 56.7891 41.8497 56.7993C41.1506 56.951 40.4515 57.5783 39.6695 58.2795V58.2815C37.8106 59.9483 35.5132 62.0066 31.3649 59.6551L31.3568 59.649C27.3157 57.318 27.4773 54.3945 27.6127 51.9159C27.6733 50.815 27.7299 49.8084 27.3884 49.0253C27.3379 48.9105 27.3864 48.7793 27.4975 48.7342C27.5379 48.7178 27.5803 48.7137 27.6207 48.7219C30.1142 49.2057 30.7062 50.8048 31.1709 52.0615C31.2659 52.3157 31.3548 52.5556 31.4518 52.7606C32.4783 51.5838 33.4724 51.059 34.3332 50.608C34.8787 50.321 35.3697 50.0626 35.7556 49.6854C35.8425 49.6014 35.984 49.6075 36.0709 49.6998C36.1254 49.7572 36.1456 49.833 36.1335 49.9027ZM35.9052 51.4813C35.786 51.0774 35.6849 50.7289 35.6627 50.362C35.3273 50.6039 34.9555 50.7986 34.5534 51.0098C33.6724 51.4731 32.6399 52.0164 31.5953 53.3039H31.5932C31.5811 53.3203 31.5649 53.3346 31.5447 53.3469C31.4437 53.4125 31.3063 53.3797 31.2356 53.2731C31.0416 52.9758 30.9062 52.6068 30.7547 52.2009C30.3566 51.1226 29.8535 49.7674 27.9319 49.2508C28.1643 50.0524 28.1138 50.9729 28.0592 51.9631C27.9299 54.3105 27.7763 57.0761 31.5629 59.2615L31.569 59.2656C35.4364 61.4551 37.6045 59.5136 39.3604 57.9392L39.3644 57.9351C40.0332 57.3344 40.6455 56.787 41.284 56.5082C39.8655 55.6594 38.534 55.8337 37.3883 55.9834C37.0428 56.0285 36.7134 56.0715 36.3982 56.0859C36.376 56.09 36.3517 56.0879 36.3295 56.0838C36.2083 56.0572 36.1254 55.9383 36.1436 55.8152C36.5073 53.5355 36.1638 52.367 35.9052 51.4813ZM31.3568 59.649C31.2538 59.5854 31.2134 59.4521 31.2679 59.3476L31.3568 59.649Z" fill="#1D1819"/>
<path fill-rule="evenodd" clip-rule="evenodd" d="M32.8397 68.261C30.512 67.5681 31.3768 67.8244 25.6444 66.0859C25.0786 63.5519 25.3312 64.4109 23.9026 58.3795C23.8865 56.0465 28.358 55.5258 28.2368 58.2155C31.4172 56.1695 34.8259 59.792 33.0599 62.8344C35.81 63.839 35.0785 68.2098 32.8397 68.261Z" fill="#FEFEFE"/>
<path d="M32.7757 68.4904C31.1269 68.0004 31.0238 67.9697 29.371 67.4674C28.5688 67.2234 27.411 66.8708 25.5884 66.3193C25.4955 66.2906 25.4308 66.2127 25.4126 66.1246C25.2449 65.3722 25.1439 64.8945 25.0469 64.4373C24.8448 63.4717 24.6589 62.5963 23.6709 58.4264C23.6648 58.4039 23.6628 58.3813 23.6648 58.3588C23.6628 57.3604 24.3781 56.6633 25.255 56.3517C25.5884 56.2328 25.9461 56.1692 26.2956 56.1672C26.6492 56.1631 26.9988 56.2225 27.31 56.3496C27.906 56.5916 28.3586 57.0651 28.4577 57.8052C29.3184 57.3583 30.1832 57.2845 30.9612 57.4772C31.6037 57.6351 32.1856 57.9754 32.6524 58.4367C33.1171 58.8959 33.4667 59.4761 33.6465 60.1157C33.8769 60.9316 33.8304 61.8439 33.4 62.7214C34.2002 63.1007 34.6892 63.7649 34.9195 64.5111C35.0791 65.0278 35.1135 65.5833 35.0387 66.1102C34.964 66.6351 34.7801 67.1353 34.5073 67.5392C34.1214 68.107 33.5556 68.4883 32.8585 68.5048C32.8282 68.5048 32.8019 68.5006 32.7757 68.4904ZM29.4861 67.0041C31.2582 67.5432 31.3794 67.5801 32.8585 68.0209C33.3798 67.9963 33.8082 67.695 34.1093 67.2521C34.3457 66.9057 34.5033 66.4731 34.5679 66.0159C34.6326 65.5587 34.6043 65.079 34.4669 64.6341C34.2567 63.9556 33.788 63.359 33.006 63.0679C32.9838 63.0617 32.9636 63.0515 32.9434 63.0392C32.8282 62.9674 32.7878 62.8177 32.8545 62.705C33.3354 61.8747 33.4061 60.9993 33.1879 60.2264C33.0323 59.6729 32.7292 59.1706 32.3291 58.7729C31.927 58.3752 31.4259 58.082 30.8702 57.9467C30.1065 57.7581 29.2356 57.8688 28.3788 58.4182C28.3364 58.4469 28.2839 58.4633 28.2273 58.4572C28.096 58.4449 27.9929 58.326 27.999 58.1927C28.0313 57.4567 27.6656 57.0036 27.1524 56.7966C26.9038 56.6941 26.6169 56.6469 26.3239 56.649C26.0249 56.651 25.7177 56.7064 25.4328 56.8068C24.7256 57.059 24.1498 57.6023 24.1417 58.3649C25.1176 62.4815 25.3055 63.3733 25.5116 64.3594C25.5965 64.7571 25.6834 65.1713 25.845 65.8991C27.5868 66.428 28.7042 66.7663 29.4861 67.0041Z" fill="#1D1819"/>
<path fill-rule="evenodd" clip-rule="evenodd" d="M30.8061 60.5537C30.0423 61.8781 31.1031 63.1348 29.1452 66.6733C30.6788 67.1428 32.8691 67.112 34.4694 69.3548C31.7618 68.992 27.6318 73.8159 22.8409 68.463C18.0986 63.0917 22.8248 59.6496 22.5722 56.6318C25.5808 58.3744 24.6676 60.8366 25.0191 62.1958C27.5671 60.7034 29.3432 61.1954 30.8061 60.5537Z" fill="#009B4C"/>
<path d="M31.013 60.6827C30.7463 61.1461 30.724 61.6196 30.6957 62.2101C30.6493 63.188 30.5886 64.4652 29.5016 66.5276C29.7299 66.585 29.9764 66.6383 30.229 66.6937C31.6575 67.0032 33.3366 67.3681 34.6581 69.2194C34.7369 69.328 34.7167 69.4798 34.6116 69.5536C34.5632 69.5884 34.5046 69.6007 34.448 69.5925V69.5946C33.6761 69.49 32.7365 69.859 31.6878 70.269C29.1863 71.2469 26.0989 72.4565 22.6659 68.6208V68.6187C19.3279 64.8383 20.5281 61.9969 21.5445 59.5859L21.5485 59.5777C21.9971 58.5137 22.4093 57.5399 22.3325 56.6399C22.3224 56.5067 22.4194 56.3939 22.5507 56.3898C22.6033 56.3878 22.6558 56.4042 22.6962 56.4329C25.0704 57.8146 25.1149 59.6105 25.1492 61.021C25.1553 61.308 25.1634 61.5766 25.1896 61.8165C26.6606 61.021 27.8709 60.8632 28.9136 60.7278C29.5763 60.6417 30.1684 60.5638 30.7018 60.3301C30.819 60.2789 30.9625 60.3363 31.019 60.4593C31.0554 60.5351 31.0493 60.6192 31.013 60.6827ZM30.2189 62.1629C30.2411 61.7222 30.2593 61.3388 30.3664 60.9657C29.936 61.0846 29.4834 61.144 28.9964 61.2076C27.9275 61.347 26.6748 61.511 25.1452 62.4069C25.125 62.4192 25.1027 62.4274 25.0805 62.4335C24.9532 62.4602 24.8219 62.3782 24.7875 62.247C24.6946 61.8821 24.6845 61.4659 24.6724 61.0087C24.6441 59.795 24.6057 58.2698 22.8154 57.0602C22.769 57.9356 22.3931 58.8274 21.989 59.7848L21.985 59.795C21.0211 62.0748 19.8876 64.7645 23.0134 68.3071C26.2161 71.8845 29.1338 70.7426 31.4959 69.818C32.3951 69.4654 33.2174 69.1435 33.9711 69.0984C32.8133 67.7454 31.3827 67.4338 30.1522 67.1652C29.7865 67.0873 29.4369 67.0114 29.1035 66.9089C29.0772 66.9048 29.053 66.8946 29.0287 66.8802C28.9136 66.8105 28.8711 66.6609 28.9338 66.5461C30.1138 64.416 30.1744 63.1347 30.2189 62.1629Z" fill="#1D1819"/>
<path fill-rule="evenodd" clip-rule="evenodd" d="M23.38 78.245C20.8765 77.2466 21.806 77.6157 15.6391 75.1248C15.2633 72.2895 15.4593 73.2571 14.4773 66.502C14.6935 63.9435 19.6924 63.8307 19.2903 66.7644C23.0123 64.8476 26.423 69.1651 24.166 72.3202C27.108 73.702 25.8633 78.4193 23.38 78.245Z" fill="#FEFEFE"/>
<path d="M23.3038 78.4646C21.6449 77.8044 21.5317 77.7573 19.6263 76.9885C18.7635 76.6379 17.5188 76.1356 15.5609 75.3443C15.4699 75.3074 15.4113 75.2213 15.4033 75.129C15.284 74.2208 15.2234 73.7247 15.1669 73.2491C15.0375 72.1564 14.9183 71.1641 14.2455 66.5227C14.2414 66.4981 14.2414 66.4735 14.2455 66.4509C14.3425 65.3705 15.1951 64.6878 16.1852 64.4377C16.5651 64.3434 16.9632 64.3106 17.3491 64.3434C17.7391 64.3783 18.1169 64.4767 18.4442 64.6468C19.0767 64.9728 19.5273 65.5448 19.5495 66.3751C20.5618 65.9569 21.5418 65.9651 22.3945 66.2644C23.0835 66.5063 23.6857 66.9389 24.1484 67.4903C24.6091 68.0398 24.9303 68.7081 25.0617 69.4236C25.2274 70.3379 25.0819 71.3261 24.5141 72.2363C25.3688 72.7284 25.8477 73.5054 26.0295 74.3479C26.1528 74.922 26.1346 75.5268 26.0033 76.0905C25.8719 76.6523 25.6234 77.1771 25.286 77.5892C24.8091 78.1734 24.1484 78.5343 23.3765 78.481C23.3523 78.481 23.328 78.4748 23.3038 78.4646ZM19.7819 76.5457C21.5802 77.2714 21.6994 77.3206 23.423 78.0074C24.017 78.0361 24.5323 77.7388 24.9182 77.2714C25.2112 76.9126 25.4274 76.4534 25.5446 75.9573C25.6598 75.4612 25.6759 74.9302 25.5668 74.4258C25.4011 73.6489 24.9324 72.9375 24.0756 72.5336C24.0615 72.5275 24.0453 72.5172 24.0312 72.5069C23.9241 72.4249 23.8978 72.2753 23.9726 72.1707C24.5889 71.3097 24.7566 70.3584 24.5969 69.4871C24.4838 68.8598 24.2009 68.2714 23.7948 67.7876C23.3906 67.3058 22.8633 66.9266 22.2591 66.7154C21.4186 66.4202 20.4264 66.4509 19.406 66.9758C19.3616 66.9983 19.3111 67.0065 19.2585 66.9963C19.1292 66.9717 19.0383 66.8466 19.0565 66.7174C19.1696 65.8995 18.8019 65.3562 18.2462 65.0712C17.9755 64.9318 17.6623 64.8478 17.3329 64.8211C16.9975 64.7924 16.652 64.819 16.3226 64.9031C15.5043 65.1081 14.8011 65.6534 14.7163 66.5042C15.3891 71.1436 15.5063 72.1297 15.6356 73.2163C15.6942 73.696 15.7528 74.1942 15.8538 74.9568L19.7819 76.5457Z" fill="#1D1819"/>
<path fill-rule="evenodd" clip-rule="evenodd" d="M21.8988 69.5879C20.9209 70.9614 21.9695 72.4478 19.4499 76.1277C21.1007 76.7981 23.5254 76.9867 25.0732 79.6088C22.115 78.9343 17.0636 83.7992 12.297 77.4419C7.58699 71.0701 13.1578 67.7817 13.18 64.4482C16.3341 66.6644 15.0793 69.2701 15.3319 70.7974C18.2981 69.4218 20.2157 70.1435 21.8988 69.5879Z" fill="#009B4C"/>
<path d="M22.0852 69.7398C21.7477 70.2215 21.675 70.7382 21.5861 71.386C21.4365 72.4541 21.2426 73.8502 19.816 76.0111C20.0767 76.1054 20.3555 76.1915 20.6425 76.2817C22.1862 76.7675 24.0047 77.3375 25.2736 79.4901C25.3423 79.6049 25.308 79.7505 25.1969 79.814C25.1463 79.8448 25.0878 79.8509 25.0332 79.8386C24.1845 79.6438 23.1035 79.9534 21.8972 80.2978C19.0422 81.1117 15.5162 82.1183 12.1135 77.5773L12.1115 77.5753C8.80786 73.104 10.4122 70.1211 11.7761 67.5913C12.3823 66.4637 12.9379 65.4325 12.944 64.43C12.946 64.2988 13.0511 64.1983 13.1824 64.2065C13.2289 64.2086 13.2713 64.225 13.3077 64.2496H13.3097C15.8011 66.0004 15.6698 67.9705 15.5667 69.5163H15.5688C15.5465 69.8484 15.5243 70.16 15.5344 70.4368C17.256 69.7029 18.6178 69.6537 19.7898 69.6106H19.8059C20.5414 69.584 21.2022 69.5594 21.8144 69.3564C21.9377 69.3154 22.073 69.3851 22.1195 69.5122C22.1498 69.5942 22.1337 69.6803 22.0852 69.7398ZM21.1173 71.2938C21.186 70.7956 21.2466 70.3651 21.4163 69.955C20.9213 70.0473 20.406 70.0678 19.8463 70.0883H19.8302C18.6299 70.1334 17.2277 70.1826 15.4394 71.0129V71.0108C15.4192 71.0211 15.397 71.0272 15.3728 71.0313C15.2434 71.0457 15.1222 70.9514 15.1 70.8202C15.0333 70.4143 15.0636 69.9591 15.0959 69.4589C15.1869 68.112 15.298 66.4145 13.3865 64.8872C13.2592 65.8569 12.746 66.8102 12.1923 67.8373C10.8951 70.2461 9.36756 73.0835 12.4833 77.3026C15.6819 81.5668 19.0341 80.6094 21.7477 79.8345C22.7964 79.5352 23.7562 79.2625 24.6048 79.3035C23.4491 77.6573 21.877 77.1632 20.5253 76.7388C20.1191 76.6117 19.7312 76.4908 19.3715 76.3452C19.3533 76.337 19.3351 76.3268 19.319 76.3145C19.2119 76.2345 19.1816 76.0849 19.2543 75.9803C20.7718 73.7621 20.9678 72.3598 21.1173 71.2938Z" fill="#1D1819"/>
</svg>
