<svg width="21" height="83" viewBox="0 0 21 83" fill="none" xmlns="http://www.w3.org/2000/svg">
<path fill-rule="evenodd" clip-rule="evenodd" d="M4.90321 48.5343C2.70762 50.3018 2.49904 52.6668 5.96651 54.039C5.55719 54.6538 0.664145 57.105 6.35387 59.3476C6.53266 60.3874 6.25194 61.2076 6.55618 61.6358C7.66496 63.5083 6.41347 63.9631 7.93941 62.216C8.57613 61.6013 8.02096 60.2368 8.22797 58.4459C9.03721 56.7835 13.0598 55.0788 8.642 53.0729C13.0881 51.5407 10.698 49.676 9.43712 48.9813C14.7065 45.862 18.5598 39.2579 19.9478 31.5232C18.8437 29.8169 17.1233 28.5105 19.6372 26.0028C16.0788 23.8104 17.6534 23.136 18.1035 22.09C15.4734 20.8463 16.1415 20.1672 16.5854 18.7981C13.3782 18.5472 13.971 16.7672 14.603 15.7227C9.58767 16.107 4.30727 6.24089 7.29171 1.55957C-1.45931 6.23305 7.00628 18.072 1.3338 16.9632C-1.21936 24.5192 14.189 28.8398 4.90321 48.5343ZM11.7111 16.2857C12.1769 16.2857 12.5549 16.6637 12.5549 17.1295C12.5549 17.5953 12.1769 17.9732 11.7111 17.9732C11.2453 17.9732 10.8674 17.5953 10.8674 17.1295C10.8674 16.6637 11.2453 16.2857 11.7111 16.2857ZM17.3914 30.0411C17.8572 30.0411 18.2352 30.4191 18.2352 30.8864C18.2352 31.3522 17.8572 31.7302 17.3914 31.7302C16.9257 31.7302 16.5477 31.3522 16.5477 30.8864C16.5477 30.4191 16.9257 30.0411 17.3914 30.0411ZM16.7532 26.2098C17.2189 26.2098 17.5969 26.5878 17.5969 27.0536C17.5969 27.5193 17.2189 27.8973 16.7532 27.8973C16.2874 27.8973 15.9094 27.5193 15.9094 27.0536C15.9094 26.5878 16.2874 26.2098 16.7532 26.2098ZM15.704 22.6043C16.1698 22.6043 16.5477 22.9823 16.5477 23.4481C16.5477 23.9154 16.1698 24.2934 15.704 24.2934C15.2382 24.2934 14.8587 23.9154 14.8587 23.4481C14.8587 22.9823 15.2382 22.6043 15.704 22.6043ZM14.1984 19.6842C14.6642 19.6842 15.0422 20.0622 15.0422 20.5279C15.0422 20.9953 14.6642 21.3732 14.1984 21.3732C13.7311 21.3732 13.3531 20.9953 13.3531 20.5279C13.3531 20.0622 13.7311 19.6842 14.1984 19.6842Z" fill="#FEFEFE"/>
<path d="M5.01399 48.7105C4.35531 49.2406 3.88482 49.8224 3.65272 50.4089C3.51314 50.7618 3.46139 51.1162 3.50844 51.4597C3.55549 51.8047 3.70604 52.145 3.96637 52.4697C4.37256 52.9747 5.04692 53.4404 6.02866 53.8294L6.27802 53.9282L6.11963 54.1666C6.03024 54.3014 5.81381 54.4724 5.53936 54.6888C4.99046 55.1216 4.18437 55.7568 3.90835 56.4578C3.59626 57.2498 4.00401 58.1876 6.41603 59.138L6.52268 59.1803L6.54306 59.3042C6.62618 59.792 6.61364 60.2264 6.60423 60.6012C6.59168 61.0027 6.58227 61.3226 6.70616 61.4967L6.71557 61.5108C7.03237 62.044 7.16724 62.4737 7.22683 62.778C7.35387 62.5992 7.53736 62.3608 7.80083 62.0581L7.81337 62.0456C8.11605 61.7555 8.07841 61.1768 8.0298 60.4177C7.99216 59.8422 7.94981 59.1709 8.03763 58.415L8.04234 58.3727L8.05959 58.3382C8.29013 57.863 8.7465 57.4035 9.21071 56.9377C9.67806 56.4657 10.1564 55.9858 10.3712 55.5121C10.6802 54.8346 10.3995 54.1038 8.57085 53.2742L8.06116 53.0421L8.58653 52.8602C9.5871 52.5151 10.227 52.1576 10.6049 51.8032C10.9139 51.513 11.0331 51.2339 11.0252 50.9767C11.0174 50.7132 10.8794 50.4513 10.6786 50.2066C10.3226 49.7722 9.77373 49.4084 9.35343 49.1763L9.00684 48.9865L9.34715 48.7842C11.9285 47.2567 14.1696 44.8792 15.9386 41.9402C17.7312 38.9636 19.0407 35.4099 19.7402 31.5723C19.5927 31.3496 19.4312 31.1285 19.2728 30.9105C18.2424 29.4928 17.2952 28.1895 19.3073 26.0441C16.4687 24.2327 17.0427 23.3765 17.6293 22.5014C17.6983 22.3979 17.7673 22.2959 17.8269 22.1924C15.5513 21.0695 15.8163 20.3434 16.2445 19.175L16.3119 18.99C14.7985 18.8206 14.1571 18.2733 13.9704 17.6224C13.8105 17.0673 13.9924 16.4603 14.248 15.9491C13.3431 15.9334 12.4382 15.6103 11.5804 15.0646C10.2019 14.1848 8.94097 12.7247 7.99059 11.0325C7.04021 9.3419 6.39721 7.41919 6.2592 5.61409C6.16197 4.34849 6.31253 3.13934 6.77203 2.10428C2.61452 4.74056 3.11166 9.29485 3.48021 12.6604C3.62135 13.9574 3.74525 15.085 3.58528 15.902C3.38925 16.9026 2.81526 17.4233 1.46026 17.2053C0.672983 19.8008 2.10796 22.0591 3.83307 24.7754C6.95552 29.6888 11.0033 36.0576 5.07202 48.6352L5.05163 48.6807L5.01399 48.7105ZM3.30142 50.2286C3.55549 49.584 4.05734 48.9536 4.75365 48.3843C10.5406 36.0764 6.57913 29.8409 3.52098 25.031C1.69236 22.1516 0.177402 19.7694 1.15287 16.8822L1.2109 16.7128L1.36616 16.7442C2.56433 16.9779 3.05677 16.5905 3.2089 15.8079C3.35475 15.0693 3.23399 13.9746 3.09598 12.7137C2.69763 9.06118 2.1503 4.06149 7.21115 1.35778L7.88708 0.99707L7.44796 1.68555C6.76419 2.75825 6.53365 4.12423 6.64343 5.57646C6.77674 7.31098 7.39621 9.16625 8.31522 10.7988C9.23267 12.4298 10.4465 13.8382 11.7686 14.6819C12.6798 15.2622 13.6411 15.5743 14.5883 15.5005L14.9867 15.4707L14.7609 15.844C14.4707 16.3239 14.1869 16.9638 14.3374 17.4876C14.488 18.0145 15.0933 18.4599 16.5989 18.5759L16.8561 18.5963L16.7667 18.8708C16.7134 19.037 16.6553 19.1954 16.6005 19.3428C16.2523 20.2932 16.0406 20.8735 18.1782 21.885L18.3663 21.9744L18.277 22.1846C18.1844 22.3963 18.0605 22.5829 17.9366 22.768C17.4709 23.4596 17.0176 24.1371 19.7292 25.8073L19.9723 25.9563L19.7637 26.1649C17.7704 28.1534 18.6314 29.3391 19.5708 30.6313C19.7496 30.876 19.9299 31.1253 20.1024 31.392L20.1526 31.4688L20.1354 31.5645C19.4312 35.4961 18.0919 39.1393 16.257 42.1864C14.5256 45.0627 12.352 47.4104 9.85057 48.9755C10.2348 49.217 10.6567 49.537 10.9609 49.9087C11.2212 50.2239 11.3985 50.5799 11.4094 50.9625C11.422 51.353 11.2636 51.753 10.8511 52.1419C10.5061 52.465 9.97133 52.788 9.18876 53.0986C10.8919 53.9893 11.1005 54.8613 10.7147 55.7129C10.4669 56.2586 9.96035 56.7668 9.46477 57.2655C9.03977 57.6936 8.61947 58.1139 8.41403 58.5138C8.33875 59.2054 8.37952 59.8406 8.41403 60.3864C8.47048 61.2662 8.51439 61.939 8.069 62.3749C7.63772 62.8689 7.43699 63.181 7.33975 63.33C7.22997 63.4978 7.18135 63.5747 7.03393 63.5135V63.5119C6.9069 63.4602 6.9022 63.3771 6.89436 63.2281C6.88338 63.0383 6.85515 62.5333 6.39721 61.7586C6.19334 61.4606 6.20432 61.0733 6.21843 60.5871C6.22784 60.2703 6.23882 59.9049 6.18393 59.5081C3.55705 58.4464 3.15714 57.2937 3.55548 56.2806C3.87698 55.4667 4.73483 54.7907 5.3198 54.3297C5.42174 54.2497 5.51427 54.176 5.59112 54.1132C4.71131 53.7243 4.08557 53.2648 3.68408 52.7645C3.36886 52.374 3.18694 51.9553 3.12734 51.5271C3.06775 51.0959 3.13048 50.6583 3.30142 50.2286ZM11.7106 16.0636C11.9913 16.0636 12.2485 16.178 12.4351 16.3647C12.628 16.5591 12.7472 16.8273 12.7472 17.1269C12.7472 17.4264 12.628 17.6946 12.4351 17.889C12.2485 18.0757 11.9913 18.1902 11.7106 18.1902C11.4298 18.1902 11.1726 18.0757 10.986 17.889C10.7931 17.6946 10.6739 17.4264 10.6739 17.1269C10.6739 16.8273 10.7931 16.5591 10.986 16.3647C11.1726 16.178 11.4298 16.0636 11.7106 16.0636ZM12.1795 16.6956C12.0618 16.5764 11.8956 16.5027 11.7106 16.5027C11.5255 16.5027 11.3593 16.5764 11.2416 16.6956C11.1287 16.8069 11.0597 16.9606 11.0597 17.1269C11.0597 17.2931 11.1287 17.4468 11.2416 17.5597C11.3593 17.6773 11.5255 17.751 11.7106 17.751C11.8956 17.751 12.0618 17.6773 12.1795 17.5597C12.2924 17.4468 12.3614 17.2931 12.3614 17.1269C12.3614 16.9606 12.2924 16.8069 12.1795 16.6956ZM17.3909 29.819C17.6732 29.819 17.9288 29.935 18.1154 30.1216C18.3083 30.3145 18.4291 30.5843 18.4291 30.8838C18.4291 31.1818 18.3083 31.4515 18.1154 31.6444C17.9288 31.8311 17.6732 31.9471 17.3909 31.9471C17.1101 31.9471 16.8529 31.8311 16.6663 31.6444C16.4734 31.4515 16.3542 31.1818 16.3542 30.8838C16.3542 30.5843 16.4734 30.3145 16.6663 30.1216C16.8529 29.935 17.1101 29.819 17.3909 29.819ZM17.8598 30.451C17.7422 30.3318 17.5759 30.2581 17.3909 30.2581C17.2058 30.2581 17.0411 30.3318 16.922 30.451C16.809 30.5639 16.74 30.716 16.74 30.8838C16.74 31.0501 16.809 31.2038 16.922 31.3151C17.0411 31.4343 17.2058 31.508 17.3909 31.508C17.5759 31.508 17.7422 31.4343 17.8598 31.3151C17.9727 31.2038 18.0417 31.0501 18.0417 30.8838C18.0417 30.716 17.9727 30.5639 17.8598 30.451ZM16.7526 25.9876C17.0333 25.9876 17.2905 26.1021 17.4771 26.2888C17.67 26.4817 17.7892 26.7514 17.7892 27.0509C17.7892 27.3489 17.67 27.6187 17.4771 27.8116C17.2905 27.9982 17.0333 28.1142 16.7526 28.1142C16.4703 28.1142 16.2147 27.9982 16.028 27.8116C15.8351 27.6187 15.7144 27.3489 15.7144 27.0509C15.7144 26.7514 15.8351 26.4817 16.028 26.2888C16.2147 26.1021 16.4703 25.9876 16.7526 25.9876ZM17.2215 26.6181C17.1023 26.5005 16.9361 26.4268 16.7526 26.4268C16.5675 26.4268 16.4013 26.5005 16.2837 26.6181C16.1707 26.731 16.1017 26.8831 16.1017 27.0509C16.1017 27.2172 16.1707 27.3709 16.2837 27.4822C16.4013 27.6014 16.5675 27.6751 16.7526 27.6751C16.9361 27.6751 17.1023 27.6014 17.2215 27.4822C17.3344 27.3709 17.4034 27.2172 17.4034 27.0509C17.4034 26.8831 17.3344 26.731 17.2215 26.6181ZM15.7034 22.3822C15.9841 22.3822 16.2398 22.4982 16.428 22.6848C16.6208 22.8777 16.74 23.1475 16.74 23.4455C16.74 23.745 16.6208 24.0148 16.428 24.2076C16.2398 24.3943 15.9841 24.5103 15.7034 24.5103C15.4211 24.5103 15.1655 24.3943 14.9789 24.2076C14.786 24.0148 14.6652 23.745 14.6652 23.4455C14.6652 23.1475 14.786 22.8777 14.9789 22.6848C15.1655 22.4982 15.4211 22.3822 15.7034 22.3822ZM16.1723 23.0142C16.0531 22.895 15.8869 22.8213 15.7034 22.8213C15.5183 22.8213 15.3521 22.895 15.2329 23.0142C15.1216 23.1255 15.0526 23.2792 15.0526 23.4455C15.0526 23.6133 15.1216 23.7654 15.2329 23.8783C15.3521 23.9975 15.5183 24.0712 15.7034 24.0712C15.8869 24.0712 16.0531 23.9975 16.1723 23.8783C16.2837 23.7654 16.3542 23.6133 16.3542 23.4455C16.3542 23.2792 16.2837 23.1255 16.1723 23.0142ZM14.1978 19.462C14.4786 19.462 14.7342 19.5781 14.9208 19.7647C15.1153 19.9576 15.2345 20.2274 15.2345 20.5253C15.2345 20.8249 15.1153 21.0946 14.9208 21.2875C14.7342 21.4741 14.4786 21.5902 14.1978 21.5902C13.9156 21.5902 13.6599 21.4741 13.4733 21.2875C13.2788 21.0946 13.1596 20.8249 13.1596 20.5253C13.1596 20.2274 13.2788 19.9576 13.4733 19.7647C13.6599 19.5781 13.9156 19.462 14.1978 19.462ZM14.6668 20.094C14.5476 19.9749 14.3813 19.9011 14.1978 19.9011C14.0128 19.9011 13.8466 19.9749 13.7274 20.094C13.616 20.2054 13.547 20.3591 13.547 20.5253C13.547 20.6931 13.616 20.8468 13.7274 20.9582C13.8466 21.0774 14.0128 21.1511 14.1978 21.1511C14.3813 21.1511 14.5476 21.0774 14.6668 20.9582C14.7781 20.8468 14.8487 20.6931 14.8487 20.5253C14.8487 20.3591 14.7781 20.2054 14.6668 20.094Z" fill="#1D1819"/>
<path fill-rule="evenodd" clip-rule="evenodd" d="M5.41832 61.4381L9.22298 61.333C9.73737 62.1124 10.1012 64.5009 8.89364 66.9271C8.88893 70.0715 9.60721 73.8291 8.99714 76.8731C8.48745 79.4184 7.07599 81.5905 5.48889 81.7567C3.6289 81.9528 2.41192 80.1602 4.13546 78.3018C5.22072 77.1319 6.48318 75.9855 6.46123 75.0727C5.04193 72.4051 6.72156 71.0313 6.28087 66.9804C4.77062 65.0483 5.08898 62.1548 5.41832 61.4381Z" fill="#E62129"/>
<path d="M5.41407 61.2225L9.21873 61.1174L9.31753 61.1143L9.37555 61.2037C9.69392 61.6851 9.95896 62.7186 9.88368 63.9826C9.83036 64.897 9.60139 65.9414 9.08699 66.9937C9.08856 68.0523 9.17168 69.1972 9.25637 70.3609C9.42104 72.6019 9.58884 74.9104 9.18423 76.9304C8.91605 78.2697 8.40165 79.5118 7.74454 80.4277C7.10782 81.3137 6.33308 81.9003 5.50503 81.9865C4.98122 82.0414 4.50133 81.9473 4.11553 81.7434C3.76267 81.5568 3.48194 81.2777 3.30943 80.9326C3.13378 80.5829 3.06949 80.1689 3.14947 79.7188C3.23886 79.2217 3.5086 78.6822 4.00575 78.1458C4.18297 77.9545 4.35548 77.7726 4.52799 77.5938C5.39996 76.6795 6.23899 75.7997 6.26878 75.141C5.46425 73.5915 5.65245 72.4718 5.89083 71.0493C6.06805 70.0017 6.27349 68.78 6.09784 67.0847C5.49719 66.2927 5.18196 65.3533 5.04395 64.461C4.8291 63.084 5.03768 61.7996 5.2494 61.3401L5.30116 61.2256L5.41407 61.2225ZM9.12463 61.5659L5.54267 61.6663C5.37487 62.1446 5.23999 63.2142 5.42035 64.381C5.55208 65.22 5.85005 66.103 6.42405 66.8369L6.46482 66.8902L6.47109 66.9593C6.66713 68.7659 6.45227 70.0425 6.26878 71.1356C6.04295 72.4796 5.86574 73.5335 6.62479 74.9622L6.65301 75.0139V75.0735C6.67497 75.9455 5.74968 76.9147 4.78519 77.9263C4.60797 78.1097 4.43076 78.2964 4.26766 78.4736C3.83167 78.9425 3.59957 79.3989 3.52586 79.8098C3.46626 80.1438 3.51174 80.4496 3.64191 80.7068V80.7084C3.77364 80.9703 3.99321 81.1867 4.27236 81.3357C4.60327 81.5098 5.01573 81.5898 5.4721 81.5427C6.1888 81.4674 6.87571 80.9405 7.4497 80.1407C8.06917 79.2781 8.55534 78.1019 8.80941 76.8285C9.19991 74.8791 9.03524 72.6051 8.87214 70.3969C8.78588 69.2129 8.70119 68.0445 8.70276 66.9342V66.8746L8.72786 66.8228C9.22814 65.8191 9.44927 64.8232 9.50102 63.9529C9.56375 62.8817 9.37242 62.0129 9.12463 61.5659Z" fill="#1D1819"/>
</svg>
