<svg width="45" height="81" viewBox="0 0 45 81" fill="none" xmlns="http://www.w3.org/2000/svg">
<path d="M26.463 6.28956C24.9692 6.32763 23.5114 7.90282 22.0536 9.47601C21.2855 10.3057 20.5174 11.1374 19.7216 11.7706L19.2081 11.1975C19.9657 10.5943 20.7105 9.78864 21.4574 8.98301C23.0297 7.28557 24.6 5.58613 26.4439 5.54004L26.463 6.28956ZM35.5534 72.7441L35.7953 75.4636C36.6972 75.692 37.599 75.8724 38.486 76.0508C40.6058 76.4736 42.6407 76.8804 44.4295 77.8825C44.9579 78.1791 45.0491 78.1209 44.6842 78.5839C43.9372 79.5318 43.9882 79.149 42.9611 78.5598C41.5543 77.7522 40.088 77.1369 38.3247 76.7842C35.9078 76.3033 33.3785 75.7982 30.9934 74.3633C30.3653 74.3413 29.8412 74.173 29.3149 74.0066C28.3452 73.698 27.3734 73.3894 25.7607 74.2752L25.3618 73.6258C27.2842 72.5697 28.4258 72.9324 29.5674 73.2952L29.6735 73.3292L22.6032 67.6638L21.9645 67.3632C21.033 66.9223 20.0696 66.8942 19.102 66.8662C18.4379 66.8461 17.7695 66.8261 17.0819 66.6798L17.2517 65.9483C17.8671 66.0786 18.4973 66.0966 19.1275 66.1166C19.7471 66.1347 20.3646 66.1527 20.9906 66.269C20.7614 66.0164 20.5259 65.7679 20.2903 65.5214C19.2293 64.4032 18.1684 63.2849 17.5297 61.7318C16.0931 61.3129 15.2847 60.359 14.4762 59.4051C14.0858 58.9441 13.6953 58.4852 13.237 58.1044L13.116 58.0022L13.1033 57.8499C13.0545 57.2467 12.8593 56.6615 12.6619 56.0763C12.2524 54.8498 11.8407 53.6254 12.5686 52.0542C12.019 51.4089 11.584 50.7275 11.1575 50.0601C10.3002 48.7114 9.47053 47.4128 7.80269 46.6753L8.14008 45.9959C8.69602 46.2424 9.16498 46.537 9.57451 46.8657C9.71456 46.1843 9.76124 45.4388 9.80793 44.6933C9.8631 43.8275 9.91614 42.9598 10.1114 42.1602C9.80156 41.3926 9.43871 40.6531 9.07374 39.9116C8.23769 38.2082 7.40164 36.5047 7.13428 34.3724L7.52896 34.3283L7.28493 34.0337C8.26103 33.3143 9.13315 32.3984 9.99466 31.4645L9.39203 21.0775L10.1856 21.0354L10.3108 23.2158L16.0167 20.7669L16.3435 21.4502L10.3575 24.0214L10.7437 30.6509C11.079 30.2901 11.4142 29.9354 11.7601 29.5947L12.3352 30.1118C11.8365 30.6048 11.3569 31.1258 10.8774 31.6469C9.9501 32.6589 9.02068 33.669 7.95123 34.4886C8.23344 36.4125 9.01432 38.0057 9.79732 39.597C10.035 40.084 10.2748 40.5709 10.4997 41.07C10.7904 40.4888 11.2148 39.9697 11.845 39.5469L12.3033 40.1581C11.5713 40.6471 11.1745 41.3365 10.9474 42.1241L10.9729 42.1922L10.9241 42.2083C10.7119 42.9898 10.6567 43.8636 10.6015 44.7374C10.5442 45.6773 10.4848 46.6172 10.2408 47.4829C10.8689 48.1483 11.3485 48.9018 11.8407 49.6714C12.2927 50.3808 12.7532 51.1043 13.3388 51.7556L13.5065 51.944L13.3919 52.1644C12.6577 53.5692 13.0396 54.7096 13.4216 55.8499C13.6168 56.429 13.8099 57.0102 13.8821 57.6415C14.334 58.0363 14.7139 58.4872 15.0958 58.9361C15.8597 59.8359 16.6236 60.7378 17.9307 61.0584L18.1344 61.1085L18.2045 61.2949C18.7816 62.808 19.832 63.9142 20.8823 65.0204C21.2197 65.3771 21.5571 65.7319 21.8796 66.1006L25.5739 69.0606L25.3448 67.281L26.1341 67.1928L26.4673 69.7761L31.3541 73.69C32.5233 74.4034 33.7434 74.8804 34.9763 75.2411L34.7598 72.8062L35.5534 72.7441ZM16.6321 14.2938C16.6151 15.3619 16.0698 16.5383 15.2953 17.6425C14.3319 19.0153 13.0036 20.2939 11.9065 21.1035L11.4164 20.5123C12.4582 19.7448 13.7187 18.5323 14.6311 17.2297C15.3313 16.2317 15.8236 15.1916 15.8385 14.2857L16.6321 14.2938ZM22.9618 12.8809C21.6102 13.2577 20.2924 13.1975 18.9726 13.1394C18.336 13.1094 17.7015 13.0813 17.0756 13.1033L17.048 12.3538C17.71 12.3298 18.3593 12.3598 19.0108 12.3879C20.2627 12.444 21.5147 12.5001 22.7369 12.1614L22.9618 12.8809Z" fill="#1D1819"/>
<path fill-rule="evenodd" clip-rule="evenodd" d="M11.6394 70.2882C15.9915 72.1199 17.7336 69.703 21.5064 69.8132C25.2029 69.9195 25.6845 72.2903 28.6425 73.3123C23.083 77.9958 16.9591 75.4487 11.6394 70.2882Z" fill="#FFF000"/>
<path fill-rule="evenodd" clip-rule="evenodd" d="M19.2134 78.5394C23.9602 78.9301 24.7729 76.1104 28.378 75.0503C31.909 74.0142 33.1821 76.1064 36.3332 76.1625C34.9561 78.4832 34.6632 79.9843 31.5822 80.5133C28.8767 81.2248 23.6037 80.6276 19.2134 78.5394Z" fill="#FFF000"/>
<path fill-rule="evenodd" clip-rule="evenodd" d="M17.9567 47.5205C17.6087 50.8793 15.6332 51.8092 14.9202 53.7952C13.7022 57.1841 16.8491 58.6891 17.8315 61.4206C23.0536 57.4045 21.1184 51.9435 17.9567 47.5205Z" fill="#FFF000"/>
<path fill-rule="evenodd" clip-rule="evenodd" d="M27.8306 61.0361C30.7843 64.0843 28.2932 66.2807 29.4921 69.353C30.6676 72.3631 33.3137 72.8561 35.1194 74.9944C38.5909 69.5433 34.137 63.9099 27.8306 61.0361Z" fill="#FFF000"/>
<path fill-rule="evenodd" clip-rule="evenodd" d="M3.96655 59.04C7.60568 61.9439 9.99075 60.0821 13.5832 61.1824C17.1014 62.2586 16.8616 64.6614 19.4037 66.423C12.6792 69.4551 7.55051 65.3969 3.96655 59.04Z" fill="#FFF000"/>
<path fill-rule="evenodd" clip-rule="evenodd" d="M21.0632 55.6299C21.9396 58.9025 20.416 60.4096 20.4564 62.5058C20.5264 66.085 24.0276 66.4919 25.9331 68.7484C29.4046 63.2974 25.6254 58.7783 21.0632 55.6299Z" fill="#FFF000"/>
<path fill-rule="evenodd" clip-rule="evenodd" d="M0.713379 46.8096C3.39976 50.5271 6.22618 49.3367 9.37514 51.3027C12.4604 53.2286 11.5501 55.4831 13.5002 57.8219C6.16465 59.0483 2.37062 53.8418 0.713379 46.8096Z" fill="#FFF000"/>
<path fill-rule="evenodd" clip-rule="evenodd" d="M0.327563 33.7979C1.95721 38.0264 5.00645 37.5314 7.54641 40.1687C10.0333 42.754 8.5607 44.728 9.84023 47.4495C2.40919 46.9264 0.0941494 40.9964 0.327563 33.7979Z" fill="#FFF000"/>
<path fill-rule="evenodd" clip-rule="evenodd" d="M4.3271 20.1143C4.29103 24.6134 7.33178 25.1545 8.7365 28.4652C10.1094 31.7077 8.0023 33.0725 8.19328 36.0425C1.42429 33.1025 1.44763 26.7838 4.3271 20.1143Z" fill="#FFF000"/>
<path fill-rule="evenodd" clip-rule="evenodd" d="M17.994 30.2979C15.9315 33.0534 13.7268 32.9372 12.0653 34.33C9.23036 36.7048 11.1783 39.4824 10.599 42.3182C17.2428 41.2681 18.4247 35.6186 17.994 30.2979Z" fill="#FFF000"/>
<path fill-rule="evenodd" clip-rule="evenodd" d="M21.8546 22.7939C18.8776 24.6617 16.866 23.802 14.7843 24.5355C11.2343 25.784 11.9876 29.0386 10.3665 31.4855C16.9636 32.7701 20.2229 27.9023 21.8546 22.7939Z" fill="#FFF000"/>
<path fill-rule="evenodd" clip-rule="evenodd" d="M11.0434 8.3252C9.82756 12.678 12.6306 13.9145 13.1229 17.4497C13.6046 20.9127 11.2026 21.7403 10.6084 24.6623C4.82189 20.2313 6.50247 14.1129 11.0434 8.3252Z" fill="#FFF000"/>
<path fill-rule="evenodd" clip-rule="evenodd" d="M27.6219 15.1689C24.318 16.4555 22.5207 15.2451 20.3288 15.5838C16.5899 16.159 16.6621 19.4897 14.5698 21.5919C20.7765 24.0609 24.9737 19.8825 27.6219 15.1689Z" fill="#FFF000"/>
<path fill-rule="evenodd" clip-rule="evenodd" d="M22.9098 0.219727C20.0812 3.84106 22.2032 5.96736 21.278 9.42435C20.372 12.8092 17.8171 12.7431 16.1238 15.2521C12.4783 9.11773 16.4294 4.01741 22.9098 0.219727Z" fill="#FFF000"/>
<path fill-rule="evenodd" clip-rule="evenodd" d="M35.7304 10.0262C32.1719 10.3469 30.8266 8.69354 28.6262 8.41297C24.8703 7.932 23.9112 11.1365 21.2588 12.5714C26.4342 16.6436 31.7391 13.8039 35.7304 10.0262Z" fill="#FFF000"/>
<path fill-rule="evenodd" clip-rule="evenodd" d="M38.3957 1.40332C30.9434 2.95446 30.9986 -1.45647 24.7283 6.56376C30.6442 9.60392 35.5099 5.23708 38.3957 1.40332Z" fill="#FFF000"/>
<path fill-rule="evenodd" clip-rule="evenodd" d="M17.3556 38.6338C16.0528 41.7761 13.8841 42.1649 12.6258 43.8924C10.4784 46.8404 13.0736 49.097 13.2327 51.9788C19.416 49.4537 19.1253 43.702 17.3556 38.6338Z" fill="#FFF000"/>
<path d="M19.2359 78.3421C22.0666 78.5746 23.4607 77.6206 24.9333 76.6126C25.8882 75.9593 26.877 75.2819 28.3008 74.8651C30.478 74.2258 31.819 74.7228 33.228 75.2478C34.1489 75.5885 35.0995 75.9433 36.3388 75.9653C36.4682 75.9673 36.57 76.0575 36.5679 76.1677C36.5679 76.2018 36.5552 76.2338 36.5382 76.2599C36.3281 76.6146 36.1351 76.9653 35.9547 77.294C34.9786 79.0716 34.3378 80.2379 31.6493 80.7049C30.1957 81.0857 28.0314 81.1017 25.6654 80.7229C23.5244 80.3822 21.2093 79.7189 19.0959 78.7129C18.9813 78.6587 18.9431 78.5385 19.0067 78.4423C19.0555 78.3722 19.1468 78.3361 19.2359 78.3421ZM25.2304 76.9212C23.8724 77.8511 22.5758 78.7369 20.2438 78.775C22.0496 79.5325 23.9636 80.0476 25.7545 80.3321C28.0483 80.6989 30.13 80.6869 31.5113 80.3241H31.5135L31.5347 80.3201C34.0067 79.8953 34.6073 78.801 35.5239 77.1297C35.6597 76.8832 35.8019 76.6246 35.9632 76.3461C34.8088 76.2699 33.9091 75.9352 33.037 75.6106C31.715 75.1196 30.4567 74.6506 28.4536 75.2398C27.1126 75.6326 26.1556 76.2879 25.2304 76.9212ZM36.5382 76.2599C36.4958 76.322 36.4151 76.3621 36.326 76.3621L36.5382 76.2599Z" fill="#1D1819"/>
<path d="M11.7292 70.1093C14.3243 71.2015 15.9731 70.7285 17.7131 70.2295C18.842 69.9049 20.009 69.5702 21.5007 69.6143C23.7797 69.6784 24.8746 70.5642 26.0268 71.4921C26.778 72.0993 27.5546 72.7266 28.7175 73.1294C28.8405 73.1715 28.9063 73.2877 28.866 73.3899C28.8533 73.422 28.8321 73.448 28.8066 73.4681C26.1733 75.6846 23.4062 76.3118 20.6498 75.8229C17.486 75.2597 14.3562 73.2176 11.4682 70.4179C11.3812 70.3317 11.3855 70.2055 11.4788 70.1353C11.5488 70.0832 11.6464 70.0772 11.7292 70.1113V70.1093ZM17.8871 70.6123C16.2765 71.0752 14.7424 71.5141 12.5101 70.8227C15.1286 73.2156 17.9189 74.931 20.7156 75.4281C23.2386 75.877 25.7828 75.3278 28.2252 73.3719C27.1642 72.943 26.43 72.3518 25.7192 71.7767C24.6391 70.9049 23.6121 70.0752 21.5156 70.0151C20.1109 69.975 18.982 70.2997 17.8871 70.6123Z" fill="#1D1819"/>
<path d="M28.5626 61.6003C29.753 63.1835 29.6023 64.5542 29.4453 65.9731C29.3307 67.0232 29.2119 68.1034 29.6787 69.3038C30.3747 71.0875 31.6224 71.9672 32.8892 72.861C33.6446 73.3921 34.4043 73.9292 35.077 74.6647C35.1724 74.5024 35.2637 74.34 35.3464 74.1777C36.522 71.8791 36.3034 69.5724 35.1724 67.4882C34.0287 65.3859 31.9577 63.5021 29.4411 62.0712C29.1525 61.9089 28.8597 61.7506 28.5626 61.6003ZM29.0443 65.8889C29.2119 64.3659 29.3732 62.9029 27.6905 61.1654C27.6353 61.1073 27.612 61.0251 27.6395 60.9529C27.6777 60.8548 27.7923 60.8127 27.8963 60.8608C28.4862 61.1293 29.0591 61.4219 29.613 61.7365C32.2017 63.2075 34.3385 65.1535 35.5226 67.3339C36.7172 69.5343 36.9485 71.9652 35.7114 74.3841C35.5905 74.6226 35.4525 74.8631 35.2976 75.1076C35.287 75.1256 35.2722 75.1437 35.2531 75.1577C35.1703 75.2198 35.043 75.1998 34.9687 75.1116C34.2918 74.31 33.4813 73.7368 32.677 73.1717C31.3551 72.2378 30.0501 71.3179 29.3053 69.4081C28.8003 68.1134 28.9233 66.9872 29.0443 65.8889Z" fill="#1D1819"/>
<path d="M4.10633 58.8896C6.27496 60.6211 7.99798 60.601 9.81648 60.581C10.9963 60.567 12.2164 60.5529 13.636 60.9878C15.8046 61.6512 16.5961 62.7875 17.4258 63.9839C17.969 64.7655 18.5292 65.5711 19.5286 66.2645C19.6326 66.3367 19.6623 66.4669 19.5923 66.5551C19.5732 66.5811 19.5456 66.6012 19.5138 66.6132C16.3287 68.0481 13.4874 67.9219 10.9835 66.7254C8.11256 65.3527 5.71052 62.567 3.7647 59.116C3.70528 59.0118 3.74772 58.8896 3.85806 58.8475C3.94082 58.8174 4.03631 58.8355 4.10421 58.8896H4.10633ZM9.87165 60.9938C8.18683 61.0139 6.58264 61.0319 4.6453 59.7794C6.4532 62.7674 8.62607 65.1502 11.1639 66.3647C13.4556 67.4609 16.0592 67.6012 18.9833 66.3667C18.0899 65.6773 17.5616 64.9158 17.0481 64.1763C16.2672 63.054 15.5266 61.9878 13.532 61.3766C12.1952 60.9678 11.0133 60.9818 9.87165 60.9938Z" fill="#1D1819"/>
<path d="M21.3722 56.0759C21.7584 57.9156 21.3913 59.1842 21.0517 60.3526C20.8417 61.08 20.6422 61.7674 20.6571 62.5229C20.7016 64.7434 22.1552 65.6974 23.6724 66.6914C24.4469 67.1984 25.2383 67.7175 25.8898 68.4169C27.4494 65.8377 27.3539 63.4809 26.329 61.3947C25.3338 59.3625 23.4602 57.5729 21.3722 56.0759ZM20.6634 60.2063C21.0157 58.9878 21.4019 57.6591 20.8714 55.6691C20.8523 55.615 20.8587 55.5568 20.8884 55.5087C20.9478 55.4226 21.0708 55.4045 21.1663 55.4707C23.475 57.0659 25.5885 59.0098 26.6898 61.2564C27.7995 63.517 27.8823 66.0701 26.1105 68.8558C26.0999 68.8758 26.085 68.8938 26.0659 68.9079C25.9831 68.972 25.8558 68.95 25.7816 68.8618C25.1407 68.1022 24.2983 67.5511 23.475 67.01C21.8538 65.9499 20.3006 64.9318 20.2539 62.4869C20.2369 61.6752 20.4449 60.9618 20.6634 60.2063Z" fill="#1D1819"/>
<path d="M0.89172 46.7082C2.49166 48.9227 4.15739 49.3395 5.91648 49.7764C7.05596 50.061 8.23576 50.3556 9.48134 51.1331C11.3826 52.3195 11.824 53.6162 12.2865 54.9769C12.5879 55.8667 12.8998 56.7866 13.6658 57.7044C13.7464 57.8026 13.738 57.9349 13.6467 58.001C13.617 58.0231 13.5852 58.0351 13.5491 58.0391C10.0776 58.6163 7.37425 57.7766 5.30323 55.993C2.92454 53.9448 1.39674 50.6542 0.499163 46.8384C0.471577 46.7222 0.545845 46.616 0.664674 46.604C0.751673 46.5939 0.840793 46.638 0.89172 46.7082ZM5.8507 50.1892C4.22317 49.7844 2.67203 49.3956 1.15908 47.7002C2.05666 51.0349 3.47412 53.8807 5.57697 55.6904C7.47398 57.3257 9.94605 58.1193 13.112 57.6664C12.4478 56.7766 12.1529 55.9088 11.8664 55.0671C11.4335 53.7885 11.0197 52.574 9.27127 51.4818C8.09783 50.7503 6.95623 50.4658 5.8507 50.1892Z" fill="#1D1819"/>
<path d="M0.526908 33.7333C1.49876 36.2544 3.00321 37.046 4.59255 37.8797C5.62381 38.4228 6.69115 38.982 7.69271 40.0241C9.22687 41.6193 9.31599 42.976 9.40723 44.4029C9.46665 45.3368 9.53031 46.2988 10.0332 47.3689C10.0863 47.4812 10.0417 47.6074 9.9356 47.6515C9.90377 47.6655 9.86982 47.6695 9.83587 47.6655C6.31769 47.415 3.91565 45.9721 2.37512 43.7596C0.605421 41.2225 -0.0141852 37.6773 0.111009 33.7694C0.115253 33.6512 0.214982 33.565 0.333811 33.581C0.42081 33.591 0.495079 33.6532 0.526908 33.7333ZM4.42279 38.2645C2.95229 37.4929 1.54968 36.7554 0.526908 34.7594C0.524786 38.2004 1.155 41.2866 2.71887 43.5312C4.13209 45.5593 6.31769 46.904 9.50485 47.2026C9.09319 46.1865 9.03589 45.2767 8.9786 44.3929C8.8916 43.0542 8.80884 41.7796 7.39775 40.3147C6.45349 39.3327 5.42223 38.7896 4.42279 38.2645Z" fill="#1D1819"/>
<path d="M4.54009 20.1129C4.51887 22.7963 5.63501 24.0328 6.81693 25.3395C7.58295 26.1872 8.37444 27.065 8.92827 28.3716C9.77704 30.3717 9.3569 31.6723 8.91554 33.0411C8.62695 33.9349 8.32988 34.8587 8.40415 36.0251C8.41263 36.1473 8.32351 36.2536 8.20893 36.2576C8.17285 36.2596 8.13678 36.2516 8.10708 36.2355C4.90507 34.8407 3.18841 32.6984 2.56244 30.1171C1.8431 27.1551 2.57305 23.63 4.13692 20.0087C4.18572 19.8985 4.30879 19.8524 4.41489 19.9065C4.4934 19.9445 4.54009 20.0267 4.53797 20.1129H4.54009ZM6.51562 25.6441C5.42282 24.4336 4.38094 23.2813 4.16026 21.0728C2.88497 24.2974 2.33539 27.3976 2.97197 30.0169C3.5449 32.3817 5.09604 34.3637 7.97127 35.6964C7.96278 34.6062 8.24288 33.7345 8.51661 32.8887C8.93039 31.6061 9.32507 30.3837 8.5442 28.546C8.0222 27.3135 7.25618 26.4657 6.51562 25.6441Z" fill="#1D1819"/>
<path d="M17.8357 30.8157C16.6071 32.2887 15.3488 32.8478 14.1881 33.3649C13.4645 33.6855 12.7812 33.9901 12.1829 34.4911C10.4238 35.9661 10.602 37.6275 10.7866 39.363C10.8821 40.2488 10.9776 41.1546 10.8397 42.0765C13.9292 41.5194 15.7626 39.9201 16.7769 37.8299C17.7657 35.7958 17.9885 33.2887 17.8357 30.8157ZM14.0523 32.9901C15.2618 32.451 16.5816 31.8638 17.84 30.1884C17.8718 30.1423 17.9227 30.1083 17.98 30.1003C18.0861 30.0862 18.1816 30.1644 18.1901 30.2746C18.4065 32.9681 18.2134 35.7497 17.1227 37.9982C16.0215 40.2648 14.0205 41.9843 10.6275 42.5214C10.6041 42.5274 10.5829 42.5274 10.5596 42.5234C10.4535 42.5054 10.3877 42.4012 10.411 42.2889C10.6041 41.335 10.5023 40.371 10.4004 39.4291C10.2031 37.5774 10.0142 35.7998 11.9494 34.1785C12.5924 33.6394 13.3011 33.3228 14.0523 32.9901Z" fill="#1D1819"/>
<path d="M21.5105 23.218C19.8002 24.1719 18.4124 24.2661 17.1329 24.3522C16.3372 24.4064 15.5818 24.4565 14.8327 24.721C12.6302 25.4946 12.1612 27.1078 11.671 28.7892C11.4206 29.647 11.166 30.5227 10.6822 31.3364C13.776 31.8695 16.0995 31.0037 17.8438 29.3985C19.5413 27.8373 20.7063 25.5747 21.5105 23.218ZM17.1499 23.9574C18.4825 23.8673 19.9381 23.7691 21.7503 22.6368C21.7991 22.6027 21.8606 22.5867 21.9179 22.5987C22.0219 22.6227 22.0813 22.727 22.0452 22.8352C21.2198 25.4204 19.9784 27.9475 18.1005 29.673C16.2077 31.4145 13.6826 32.3344 10.313 31.6791C10.2897 31.6751 10.2706 31.6691 10.2515 31.657C10.1602 31.6049 10.139 31.4847 10.2026 31.3885C10.748 30.5668 11.0196 29.6329 11.2848 28.7191C11.809 26.9235 12.3097 25.202 14.7351 24.3482C15.5415 24.0657 16.3223 24.0136 17.1499 23.9574Z" fill="#1D1819"/>
<path d="M11.2448 8.38889C10.5213 10.9821 11.2788 12.4431 12.0809 13.9862C12.6008 14.9862 13.1376 16.0203 13.3307 17.4172C13.6278 19.5535 12.8787 20.7158 12.0936 21.9383C11.5801 22.7359 11.0475 23.5616 10.8141 24.7099C10.7907 24.8302 10.6783 24.9103 10.5658 24.8903C10.5298 24.8823 10.4979 24.8682 10.4725 24.8462C7.73516 22.7439 6.63599 20.2669 6.70601 17.6196C6.78665 14.5814 8.41842 11.3348 10.882 8.19449C10.9584 8.0983 11.0921 8.08226 11.1791 8.15842C11.2448 8.21653 11.2682 8.30672 11.2448 8.38889ZM11.7074 14.2107C10.9669 12.7818 10.2603 11.421 10.6252 9.23059C8.54574 12.0563 7.1983 14.9321 7.12828 17.6176C7.0625 20.0425 8.04708 22.3251 10.4831 24.2891C10.7589 23.2329 11.2597 22.4533 11.7477 21.6978C12.4841 20.5515 13.1864 19.4593 12.9148 17.4953C12.7323 16.1807 12.2103 15.1786 11.7074 14.2107Z" fill="#1D1819"/>
<path d="M27.1971 15.5162C25.3234 16.1414 23.9441 15.9791 22.671 15.8288C21.8774 15.7366 21.1283 15.6464 20.339 15.7687C18.0176 16.1254 17.2261 17.6224 16.4006 19.1816C15.9805 19.9792 15.5497 20.7908 14.9089 21.5003C17.8351 22.5905 20.2902 22.1656 22.3315 20.9111C24.3176 19.6886 25.926 17.6825 27.1971 15.5162ZM22.7686 15.444C24.0948 15.6003 25.542 15.7707 27.5536 14.9891C27.6087 14.965 27.6703 14.963 27.7233 14.9851C27.823 15.0272 27.857 15.1394 27.8018 15.2396C26.4608 17.6244 24.7229 19.877 22.5288 21.2257C20.3156 22.5865 17.6505 23.0294 14.4782 21.7708C14.4569 21.7628 14.4378 21.7508 14.4209 21.7367C14.3423 21.6686 14.3445 21.5464 14.4272 21.4642C15.1317 20.7568 15.59 19.889 16.0378 19.0433C16.9184 17.3759 17.765 15.7807 20.3199 15.3859C21.1665 15.2556 21.9453 15.3478 22.7686 15.444Z" fill="#1D1819"/>
<path d="M23.0771 0.340699C21.3901 2.49907 21.5238 4.12035 21.666 5.83382C21.7572 6.94407 21.8527 8.09239 21.4878 9.45915C20.9297 11.5474 19.7796 12.367 18.5701 13.2288C17.7828 13.7919 16.9659 14.3731 16.2996 15.3591C16.2296 15.4633 16.0938 15.4994 15.9962 15.4393C15.9665 15.4212 15.9452 15.3972 15.9304 15.3671C14.2052 12.4612 14.1501 9.77379 15.2514 7.33886C16.5118 4.5432 19.2979 2.09425 22.8161 0.0340784C22.9222 -0.0300514 23.0537 0.00201319 23.1047 0.10422C23.1429 0.180374 23.128 0.272561 23.075 0.340699H23.0771ZM21.2331 5.91198C21.1016 4.32677 20.9764 2.81571 22.171 0.907845C19.1345 2.80769 16.7601 5.01215 15.6439 7.48315C14.636 9.71367 14.6572 12.1787 16.1553 14.8541C16.8258 13.9663 17.5961 13.4172 18.343 12.8841C19.4761 12.0765 20.5562 11.3069 21.0697 9.38701C21.4135 8.1004 21.3222 6.98815 21.2331 5.91198Z" fill="#1D1819"/>
<path d="M35.2146 10.2485C33.2285 10.3307 31.9595 9.79359 30.7882 9.3006C30.0583 8.99197 29.3686 8.70138 28.575 8.59918C26.2451 8.30057 25.0272 9.51302 23.7561 10.7776C23.1068 11.4229 22.4426 12.0822 21.6108 12.5852C24.0723 14.433 26.5528 14.7035 28.8933 14.0662C31.1702 13.447 33.3282 11.97 35.2146 10.2485ZM31.0004 8.9579C32.2205 9.47294 33.5531 10.0361 35.7175 9.8437C35.7769 9.83568 35.8363 9.84971 35.8809 9.88578C35.9636 9.95191 35.9615 10.0702 35.8766 10.1503C33.8566 12.0622 31.4991 13.7376 28.9824 14.423C26.4467 15.1144 23.7625 14.8017 21.1185 12.7235C21.0994 12.7115 21.0825 12.6955 21.0697 12.6754C21.0167 12.5872 21.057 12.471 21.161 12.4149C22.0543 11.9339 22.7588 11.2305 23.4505 10.5451C24.8086 9.19438 26.1093 7.89976 28.6748 8.22842C29.5278 8.33664 30.2429 8.63926 31.0004 8.9579Z" fill="#1D1819"/>
<path d="M18.0886 48.0368C17.7915 49.8925 16.9915 50.9667 16.2531 51.9587C15.7947 52.576 15.3597 53.1591 15.103 53.8746C14.3476 55.9768 15.3725 57.3396 16.444 58.7605C16.9915 59.4859 17.5496 60.2274 17.9103 61.0932C20.3039 59.1653 21.0593 56.9187 20.845 54.6281C20.637 52.3976 19.5145 50.115 18.0886 48.0368ZM15.939 51.6962C16.7093 50.6641 17.5475 49.5358 17.7639 47.4937C17.766 47.4376 17.7915 47.3834 17.8382 47.3494C17.923 47.2852 18.0461 47.3093 18.1119 47.4035C19.7118 49.642 21.002 52.1471 21.2333 54.6121C21.4646 57.0951 20.6264 59.524 17.9612 61.5782C17.9443 61.5922 17.9252 61.6042 17.9018 61.6122C17.8 61.6463 17.6875 61.5862 17.6493 61.478C17.3183 60.5601 16.7241 59.7705 16.1427 58.999C14.999 57.4819 13.9041 56.0269 14.7359 53.7123C15.0117 52.9427 15.4637 52.3375 15.939 51.6962Z" fill="#1D1819"/>
<path d="M17.3334 39.1613C16.5143 40.8708 15.4343 41.7004 14.4391 42.464C13.8195 42.9409 13.2338 43.3899 12.7797 44.0131C11.4472 45.8428 12.0434 47.416 12.663 49.0593C12.9813 49.897 13.3039 50.7528 13.4036 51.6806C16.2618 50.4401 17.6347 48.4721 18.0888 46.2116C18.5302 44.0131 18.1079 41.5281 17.3334 39.1613ZM14.212 42.1313C15.2497 41.3357 16.3807 40.4659 17.1764 38.5561C17.1955 38.502 17.2358 38.4559 17.291 38.4358C17.3907 38.3957 17.501 38.4519 17.5392 38.5581C18.4347 41.1233 18.9546 43.8668 18.4665 46.2977C17.9742 48.7467 16.4698 50.869 13.3123 52.1596C13.2932 52.1696 13.2699 52.1756 13.2444 52.1776C13.1383 52.1837 13.0471 52.0975 13.0407 51.9853C12.9877 51.0153 12.6439 50.1034 12.3065 49.2116C11.6424 47.4561 11.0058 45.7747 12.4742 43.7626C12.9601 43.0933 13.5691 42.6263 14.212 42.1313Z" fill="#1D1819"/>
<path d="M37.9412 1.68629C35.6474 2.10714 34.092 1.95683 32.8231 1.83659C30.3234 1.59811 28.9887 1.47185 25.0313 6.49201C27.845 7.86679 30.4062 7.53612 32.613 6.40183C34.7413 5.30761 36.5492 3.46789 37.9412 1.68629ZM32.9122 1.45582C34.2363 1.58207 35.8808 1.7404 38.3719 1.22134C38.4229 1.20932 38.4759 1.21734 38.5205 1.24138C38.6117 1.29549 38.6308 1.41173 38.5629 1.50392C37.1009 3.44384 35.1381 5.52005 32.7827 6.7305C30.4083 7.95097 27.6455 8.29366 24.6196 6.74252L24.6005 6.7305C24.5093 6.67639 24.4944 6.55814 24.5645 6.46796C28.7892 1.06302 30.2152 1.1993 32.9122 1.45582ZM24.6196 6.74252L24.6111 6.73851L24.6196 6.74252Z" fill="#1D1819"/>
</svg>
