<svg width="45" height="41" viewBox="0 0 45 41" fill="none" xmlns="http://www.w3.org/2000/svg">
<path d="M0.944977 40.3787V0.621094H44.7288C37.7355 22.4488 21.6207 40.1262 0.944977 40.3787Z" fill="#00A2E9"/>
<path fill-rule="evenodd" clip-rule="evenodd" d="M8.64479 0.621094V8.70795H1.22949V0.621094H8.64479Z" fill="#FEFEFE"/>
<path d="M8.92949 0.621094V8.70795V8.99793H8.64493H1.22963H0.945068V8.70795V0.621094H8.92949ZM8.36187 0.866341H1.5142V8.41798H8.36187V0.866341Z" fill="#1D1819"/>
<path fill-rule="evenodd" clip-rule="evenodd" d="M24.3216 0.621094V8.70795H16.6248V0.621094H24.3216Z" fill="#FEFEFE"/>
<path d="M24.606 0.621094V8.70795V8.99793H24.3215H16.6247H16.3401V8.70795V0.621094H24.606ZM24.0384 0.866341H16.9092V8.41798H24.0384V0.866341Z" fill="#1D1819"/>
<path fill-rule="evenodd" clip-rule="evenodd" d="M39.7181 0.621094V8.70795H32.0198V0.621094H39.7181Z" fill="#FEFEFE"/>
<path d="M40.0013 0.621094V8.70795V8.99793H39.7183H32.0199H31.7354V8.70795V0.621094H40.0013ZM39.4337 0.866341H32.3045V8.41798H39.4337V0.866341Z" fill="#1D1819"/>
<path fill-rule="evenodd" clip-rule="evenodd" d="M16.6809 16.8381H8.64502V8.70801H16.6809V16.8381Z" fill="#FEFEFE"/>
<path d="M16.6808 17.128H8.64487H8.36182V16.838V8.70794V8.41797H8.64487H16.6808H16.9638V8.70794V16.838V17.128H16.6808ZM8.92943 16.5496H16.3962V8.99792H8.92943V16.5496Z" fill="#1D1819"/>
<path fill-rule="evenodd" clip-rule="evenodd" d="M32.0199 16.8381H24.3215V8.70801H32.0199V16.8381Z" fill="#FEFEFE"/>
<path d="M32.0197 17.128H24.3214H24.0383V16.838V8.70794V8.41797H24.3214H32.0197H32.3043V8.70794V16.838V17.128H32.0197ZM24.6059 16.5496H31.7352V8.99792H24.6059V16.5496Z" fill="#1D1819"/>
<path fill-rule="evenodd" clip-rule="evenodd" d="M39.7185 12.0766V8.70801H41.332C40.8174 9.85402 40.2785 10.9784 39.7185 12.0766Z" fill="#FEFEFE"/>
<path d="M39.4333 12.6241V8.70794V8.41797H39.7179H41.4616C41.3753 8.61077 41.2891 8.80512 41.2028 8.99792H40.001V11.5105C39.8148 11.8853 39.6256 12.2555 39.4333 12.6241Z" fill="#1D1819"/>
<path fill-rule="evenodd" clip-rule="evenodd" d="M1.22949 24.9695H8.64479V16.8379H1.22949V24.9695Z" fill="#FEFEFE"/>
<path d="M1.5142 24.6798H8.36187V17.1282H1.5142V24.6798ZM8.64493 25.2598H1.22963H0.945068V24.9698V16.8382V16.5498H1.22963H8.64493H8.92949V16.8382V24.9698V25.2598H8.64493Z" fill="#1D1819"/>
<path fill-rule="evenodd" clip-rule="evenodd" d="M16.6248 24.9695H24.3216V16.8379H16.6248V24.9695Z" fill="#FEFEFE"/>
<path d="M16.9092 24.6798H24.0384V17.1282H16.9092V24.6798ZM24.3215 25.2598H16.6247H16.3401V24.9698V16.8382V16.5498H16.6247H24.3215H24.606V16.8382V24.9698V25.2598H24.3215Z" fill="#1D1819"/>
<path fill-rule="evenodd" clip-rule="evenodd" d="M37.0511 16.8379H32.0198V23.9361C33.8149 21.7474 35.4981 19.3752 37.0511 16.8379Z" fill="#FEFEFE"/>
<path d="M36.8711 17.1282H32.3045V23.5894C32.1153 23.8223 31.9261 24.0536 31.7354 24.2834V16.8382V16.5498H32.0199H37.2268C37.1103 16.7441 36.9907 16.9354 36.8711 17.1282Z" fill="#1D1819"/>
<path fill-rule="evenodd" clip-rule="evenodd" d="M16.6809 24.9697H8.64502V33.1013H16.6809V24.9697Z" fill="#FEFEFE"/>
<path d="M16.3962 25.2596H8.92943V32.8113H16.3962V25.2596ZM8.64487 24.6797H16.6808H16.9638V24.9697V33.1013V33.3897H16.6808H8.64487H8.36182V33.1013V24.9697V24.6797H8.64487Z" fill="#1D1819"/>
<path fill-rule="evenodd" clip-rule="evenodd" d="M31.1541 24.9697H24.3215V31.6083C26.7343 29.6725 29.0199 27.4499 31.1541 24.9697Z" fill="#FEFEFE"/>
<path d="M30.9012 25.2596H24.6059V31.3784C24.4183 31.5326 24.229 31.6853 24.0383 31.8365V24.9697V24.6797H24.3214H31.3991C31.2341 24.874 31.0677 25.0684 30.9012 25.2596Z" fill="#1D1819"/>
<path fill-rule="evenodd" clip-rule="evenodd" d="M1.22949 33.1016H8.64479V39.464C6.22903 40.0301 3.75121 40.3339 1.22949 40.3617V33.1016Z" fill="#FEFEFE"/>
<path d="M1.22963 32.8115H8.64493H8.92949V33.1015V39.3961C8.74028 39.4424 8.55108 39.4855 8.36187 39.5287V33.3899H1.5142V40.3585C1.32499 40.3616 1.13579 40.3663 0.945068 40.3663V33.1015V32.8115H1.22963Z" fill="#1D1819"/>
<path fill-rule="evenodd" clip-rule="evenodd" d="M16.6248 33.1016H22.3569C20.5103 34.4265 18.597 35.5864 16.6248 36.5674V33.1016Z" fill="#FEFEFE"/>
<path d="M16.6247 32.8115H22.7579C22.49 33.0074 22.2221 33.2002 21.9511 33.3899H16.9092V36.4254C16.72 36.521 16.5308 36.6166 16.3401 36.7092V33.1015V32.8115H16.6247Z" fill="#1D1819"/>
</svg>
