<svg width="45" height="41" viewBox="0 0 45 41" fill="none" xmlns="http://www.w3.org/2000/svg">
<path d="M44.9999 40.7448V0.255859H0C7.97185 23.1613 24.9596 39.4065 44.807 40.7448H44.9999Z" fill="#00A2E9"/>
<path d="M3.5127 8.74995C6.08842 8.00512 8.27359 7.70908 10.3253 7.71695C12.3407 7.7264 14.249 8.55783 16.2595 9.1389C19 9.92939 22.0932 9.86169 24.837 9.11843C27.0733 8.51218 29.3227 7.64923 31.4403 7.79096C35.7233 7.68388 38.917 9.94829 42.8506 9.7735C44.899 9.68375 43.3463 9.87571 44.9992 9.5151V11.3983V16.2633V16.891C37.6087 17.9895 37.948 15.4219 32.5955 15.1763C28.1626 14.9716 25.1353 18.1981 21.0484 18.0564C18.5996 17.9714 16.9747 16.7683 14.1205 16.0896C12.3835 15.677 10.0913 15.8613 7.75449 16.3384C6.21861 13.9417 4.79974 11.408 3.5127 8.74995Z" fill="#FEFEFE"/>
<path d="M3.38428 8.47615C4.21649 8.23522 5.0075 8.03996 5.76885 7.88564C7.40525 7.55495 8.89663 7.4148 10.3254 7.4211C11.8926 7.4274 13.3675 7.90611 14.8721 8.39426C15.3533 8.55016 15.8394 8.70762 16.3486 8.85407C17.6637 9.23357 19.0611 9.41152 20.4602 9.40837C21.917 9.40522 23.3787 9.20523 24.7547 8.8336C25.2277 8.70447 25.6875 8.56906 26.144 8.43521C27.9386 7.90611 29.7233 7.38015 31.4536 7.49353C33.6487 7.44314 35.5455 7.99587 37.401 8.53441C39.1874 9.05406 40.9342 9.56269 42.8376 9.47766L43.1952 9.4619C45.0821 9.38002 44.9993 9.35683 44.9993 9.35683V9.98456C43.8497 10.0666 44.9436 9.97526 43.2216 10.0508L42.8656 10.0666C40.8584 10.1563 39.0605 9.63354 37.2214 9.09815C35.4087 8.57062 33.5531 8.03208 31.447 8.08404H31.4273H31.419C29.7991 7.97539 28.0671 8.4856 26.3252 8.99737C25.8523 9.13752 25.3777 9.27767 24.9212 9.4005C23.4974 9.7863 21.978 9.99415 20.4602 9.9973C18.9985 10.0005 17.5401 9.81622 16.169 9.42097C15.6779 9.27925 15.1736 9.11547 14.6743 8.95328C13.2159 8.48087 11.7855 8.01634 10.3238 8.01004C8.94113 8.00374 7.49259 8.14074 5.89738 8.46355C5.17888 8.60842 4.43072 8.79266 3.64465 9.01785C3.55731 8.83833 3.46997 8.65724 3.38428 8.47615ZM44.9993 17.5174C40.4008 17.8313 39.9834 17.348 37.4719 16.5228C36.0217 16.0457 34.5402 15.5591 32.5808 15.4694C30.3792 15.367 28.5071 16.1528 26.6713 16.9213C24.8685 17.6787 23.0986 18.4204 21.037 18.3495C19.539 18.2975 18.3558 17.8472 17.0358 17.3464C16.1492 17.0094 15.1967 16.6488 14.0464 16.3748C12.6325 16.0394 10.8231 16.1134 8.91971 16.4221C8.59012 16.4756 8.25888 16.537 7.92435 16.6032C7.81064 16.4268 7.69694 16.2473 7.58323 16.0693C7.99686 15.9843 8.41049 15.9071 8.81753 15.841C10.7967 15.5182 12.6902 15.4442 14.1948 15.8016C15.3813 16.0835 16.3552 16.4536 17.2616 16.7984C18.5305 17.2803 19.6659 17.7117 21.0601 17.7606C22.9783 17.8267 24.6855 17.1102 26.4258 16.3811C28.3258 15.5843 30.2638 14.7718 32.6105 14.8804C34.6622 14.9749 36.1832 15.4741 37.6729 15.9638C40.0641 16.7496 41.2219 17.3605 44.9993 16.8897V17.5174Z" fill="#1D1819"/>
<path d="M13.6479 24.1797C15.4294 23.7041 16.9949 23.5105 18.4814 23.5168C20.2232 23.5246 21.8712 24.3057 23.6048 24.8489C25.9729 25.5906 28.6425 25.5261 31.0123 24.8301C32.942 24.2616 34.8849 23.4522 36.7125 23.586C40.4121 23.4868 41.6032 25.5237 44.9996 25.36V25.3688V25.9877V29.7541V32.5789C40.5653 32.2651 41.2311 30.7084 37.0948 30.5021C33.2683 30.31 31.2694 33.3366 27.7411 33.2043C25.6268 33.124 24.2228 31.9981 21.7591 31.3619C21.5366 31.3052 21.3026 31.2595 21.0604 31.2265C18.4369 29.162 15.9567 26.8031 13.6479 24.1797Z" fill="#FEFEFE"/>
<path d="M13.4316 23.9373C13.8074 23.8349 14.1749 23.7451 14.5341 23.6648C15.9513 23.3546 17.2433 23.2239 18.4826 23.2286C19.8471 23.2349 21.1259 23.6853 22.4277 24.1435C22.8513 24.2916 23.2781 24.4427 23.6999 24.575C24.8304 24.9293 26.0301 25.0947 27.2331 25.0915C28.4856 25.0884 29.7413 24.901 30.9212 24.5545C31.325 24.4364 31.7221 24.3089 32.1209 24.1813C33.6766 23.6837 35.2223 23.1893 36.7269 23.2963C38.6352 23.2507 40.2749 23.7688 41.8784 24.2742C43.4175 24.7592 44.0138 24.8348 44.9992 25.0763V25.6803C43.3569 25.3664 43.2775 25.3387 41.6856 24.8348C40.1233 24.342 38.5248 23.838 36.7203 23.8869H36.6972H36.689C35.3014 23.7861 33.8133 24.2616 32.317 24.7403C31.91 24.8695 31.5029 25.0002 31.1025 25.1183C29.8665 25.482 28.5482 25.6773 27.2331 25.6804C25.9659 25.6836 24.7002 25.5088 23.5088 25.1356C23.0671 24.9986 22.6403 24.8474 22.2152 24.6978C20.9611 24.2569 19.7301 23.8239 18.4793 23.8176C17.2895 23.8129 16.0436 23.9388 14.6725 24.2412C14.4089 24.2994 14.1403 24.364 13.8667 24.4349C13.72 24.2711 13.5767 24.1042 13.4316 23.9373ZM44.9992 33.0562C42.7 32.5854 43.4571 32.7855 41.5587 32.0123C40.1777 31.4501 38.8017 30.8895 37.0796 30.8029C35.2009 30.7084 33.7573 31.4391 32.3401 32.154C30.9229 32.8705 29.5304 33.5728 27.7275 33.5051C26.4207 33.4563 25.3957 33.0327 24.2504 32.5619C23.4857 32.2469 22.665 31.9084 21.6796 31.6533C21.6417 31.6438 21.6054 31.6359 21.5675 31.6265C21.2528 31.384 20.938 31.1399 20.6265 30.8895C21.055 30.9226 21.4604 30.9856 21.8378 31.0832C22.871 31.3494 23.7115 31.6958 24.4959 32.0186C25.5868 32.469 26.5624 32.8721 27.7522 32.9162C29.3886 32.9776 30.7086 32.3115 32.0517 31.6328C33.5431 30.8785 35.0625 30.1116 37.1109 30.214C38.9434 30.3053 40.3688 30.8864 41.8009 31.469C43.6301 32.2154 42.8642 31.9577 44.9992 32.4285V33.0562Z" fill="#1D1819"/>
</svg>
