<svg width="38" height="38" viewBox="0 0 38 38" fill="none" xmlns="http://www.w3.org/2000/svg">
<path d="M21.6876 21.9688C21.6876 20.5017 22.8768 19.3125 24.3438 19.3125H31.7501V24.625H24.3438C22.8768 24.625 21.6876 23.4358 21.6876 21.9688Z" stroke="#FF9500" stroke-width="3"/>
<path d="M6.25006 12.1875H30.2501C31.0785 12.1875 31.7501 12.8591 31.7501 13.6875V30.25C31.7501 31.0784 31.0785 31.75 30.2501 31.75H7.75006C6.92163 31.75 6.25006 31.0784 6.25006 30.25V12.1875Z" stroke="#16A75C" stroke-width="3"/>
<path d="M6.25006 8.75C6.25006 7.36929 7.36935 6.25 8.75006 6.25H22.1251C23.5058 6.25 24.6251 7.36929 24.6251 8.75V12.75H6.25006V8.75Z" stroke="#16A75C" stroke-width="3"/>
</svg>
