<svg width="32" height="32" viewBox="0 0 32 32" fill="none" xmlns="http://www.w3.org/2000/svg">
<path opacity="0.5" d="M14.8146 27.8742L6.32209 22.2907C5.67709 21.8665 5.75809 21.1251 6.50309 20.6354L14.6331 15.29C15.3786 14.7997 16.5056 14.7468 17.1506 15.171L25.6431 20.7545C26.2881 21.1787 26.2071 21.92 25.4621 22.4097L17.3321 27.7552C16.5866 28.2448 15.4596 28.2989 14.8146 27.8742Z" fill="#0B0244"/>
<path d="M31.9493 10.5334C31.9898 10.0688 31.7658 9.61956 31.2653 9.29045L17.8303 0.455147C16.8093 -0.21617 15.0258 -0.1319 13.8468 0.643047L0.982824 9.10027C0.370324 9.50283 0.0423242 10.0113 0.0108242 10.5038H0.00732422V13.5216H0.0128239C-0.0166761 13.9771 0.206324 14.4139 0.696824 14.7367L14.1333 23.5726C15.0198 24.1556 16.4798 24.1687 17.6213 23.6551L17.6313 23.6506C17.6678 23.6341 17.7033 23.617 17.7388 23.5999L17.7588 23.5897C17.7913 23.5737 17.8233 23.5566 17.8553 23.5396L17.8823 23.5253L17.9733 23.4735L18.0018 23.457C18.0408 23.4336 18.0788 23.4097 18.1168 23.3847L30.9808 14.9258C31.6608 14.4788 31.9893 13.9008 31.9508 13.3605L31.9493 10.5334Z" fill="#1CADE4"/>
<path d="M31.9493 18.5054C31.9898 18.0413 31.7658 17.5943 31.2653 17.2624L17.8303 8.42707C16.8093 7.75575 15.0258 7.84002 13.8468 8.61497L0.982824 17.0739C0.370324 17.477 0.0423242 17.9849 0.0108242 18.478H0.00732422V21.4958H0.0128239C-0.0166761 21.9513 0.206324 22.3886 0.696824 22.7115L14.1333 31.5445C15.0198 32.127 16.4798 32.1401 17.6213 31.6271L17.6313 31.6225C17.6678 31.606 17.7033 31.5889 17.7388 31.5713L17.7588 31.5616C17.7913 31.5456 17.8233 31.5286 17.8553 31.5115L17.8823 31.4972C17.9133 31.4802 17.9433 31.4625 17.9733 31.4449L18.0018 31.4289C18.0408 31.4056 18.0788 31.3811 18.1168 31.3566L30.9808 22.8994C31.6608 22.4524 31.9893 21.8745 31.9508 21.3341L31.9493 18.5054Z" fill="#FFC62E"/>
<path d="M13.8502 8.61613L2.61719 16L14.1342 23.573C15.0207 24.1561 16.4807 24.1692 17.6222 23.6556L17.6322 23.651C17.6687 23.6345 17.7042 23.6174 17.7397 23.6003L17.7597 23.5901C17.7922 23.5741 17.8242 23.5571 17.8562 23.54L17.8832 23.5257L17.9742 23.4739L18.0027 23.4574C18.0417 23.4341 18.0797 23.4102 18.1177 23.3851L29.3502 16L17.8312 8.42709C16.8102 7.75692 15.0267 7.84119 13.8502 8.61613Z" fill="#079557"/>
</svg>
