<svg width="39" height="38" viewBox="0 0 39 38" fill="none" xmlns="http://www.w3.org/2000/svg">
<g clip-path="url(#clip0_10690_38029)">
<path fill-rule="evenodd" clip-rule="evenodd" d="M13.3959 21.9688V24.9375C13.3959 25.5933 12.8642 26.125 12.2084 26.125H10.8181C10.3291 24.7413 9.00949 23.75 7.45836 23.75C5.49084 23.75 3.89586 25.345 3.89586 27.3125C3.89586 29.28 5.49084 30.875 7.45836 30.875C9.00949 30.875 10.3291 29.8837 10.8181 28.5H12.2084C14.1759 28.5 15.7709 26.905 15.7709 24.9375V21.9688H13.3959ZM8.64586 27.3125C8.64586 27.9683 8.1142 28.5 7.45836 28.5C6.80252 28.5 6.27086 27.9683 6.27086 27.3125C6.27086 26.6567 6.80252 26.125 7.45836 26.125C8.1142 26.125 8.64586 26.6567 8.64586 27.3125Z" fill="#FF9500"/>
<path fill-rule="evenodd" clip-rule="evenodd" d="M26.4584 21.375V23.75C26.4584 24.4058 26.99 24.9375 27.6459 24.9375H29.0361C29.5251 23.5538 30.8447 22.5625 32.3959 22.5625C34.3634 22.5625 35.9584 24.1575 35.9584 26.125C35.9584 28.0925 34.3634 29.6875 32.3959 29.6875C30.8447 29.6875 29.5251 28.6962 29.0361 27.3125H27.6459C25.6783 27.3125 24.0834 25.7175 24.0834 23.75V21.375H26.4584ZM31.2084 26.125C31.2084 26.7808 31.74 27.3125 32.3959 27.3125C33.0517 27.3125 33.5834 26.7808 33.5834 26.125C33.5834 25.4692 33.0517 24.9375 32.3959 24.9375C31.74 24.9375 31.2084 25.4692 31.2084 26.125Z" fill="#FF9500"/>
<path fill-rule="evenodd" clip-rule="evenodd" d="M20.5209 28.7027C21.9045 29.1918 22.8959 30.5114 22.8959 32.0625C22.8959 34.03 21.3009 35.625 19.3334 35.625C17.3658 35.625 15.7709 34.03 15.7709 32.0625C15.7709 30.5114 16.7622 29.1918 18.1459 28.7027L18.1459 21.375H20.5209L20.5209 28.7027ZM20.5209 32.0625C20.5209 32.7183 19.9892 33.25 19.3334 33.25C18.6775 33.25 18.1459 32.7183 18.1459 32.0625C18.1459 31.4067 18.6775 30.875 19.3334 30.875C19.9892 30.875 20.5209 31.4067 20.5209 32.0625Z" fill="#FF9500"/>
<path fill-rule="evenodd" clip-rule="evenodd" d="M11.7714 9.86656C11.5802 9.84851 11.3864 9.83929 11.1905 9.83929C7.81762 9.83929 5.08336 12.5735 5.08336 15.9464C5.08336 18.9725 7.28426 21.4846 10.1726 21.9691L11.0209 22.0536H27.6459L28.4941 21.9691C31.3825 21.4846 33.5834 18.9725 33.5834 15.9464C33.5834 12.5735 30.8491 9.83929 27.4762 9.83929C27.2803 9.83929 27.0865 9.84851 26.8953 9.86656C25.6942 6.86793 22.7611 4.75 19.3334 4.75C15.9056 4.75 12.9726 6.86793 11.7714 9.86656ZM27.694 18.4911L27.9046 18.4557C29.1054 18.2543 30.0209 17.2038 30.0209 15.9464C30.0209 14.5411 28.8816 13.4018 27.4762 13.4018C27.3922 13.4018 27.3101 13.4057 27.23 13.4133L25.3228 13.5933C24.8815 13.6349 24.4654 13.381 24.3006 12.9695L23.5882 11.1912C22.91 9.49809 21.2558 8.3125 19.3334 8.3125C17.4109 8.3125 15.7567 9.49809 15.0785 11.1912L14.3662 12.9695C14.2013 13.381 13.7852 13.6349 13.3439 13.5933L11.4368 13.4133C11.3566 13.4057 11.2745 13.4018 11.1905 13.4018C9.78513 13.4018 8.64586 14.5411 8.64586 15.9464C8.64586 17.2038 9.56129 18.2543 10.7621 18.4557L10.9727 18.4911H27.694Z" fill="#16A75C"/>
</g>
<defs>
<clipPath id="clip0_10690_38029">
<rect width="33.25" height="33.25" fill="white" transform="translate(2.70836 2.375)"/>
</clipPath>
</defs>
</svg>
