<svg width="38" height="38" viewBox="0 0 38 38" fill="none" xmlns="http://www.w3.org/2000/svg">
<g clip-path="url(#clip0_10690_37967)">
<path fill-rule="evenodd" clip-rule="evenodd" d="M13.0626 11.875V8.3125H24.9376V11.875H13.0626ZM9.50006 11.875V7.125C9.50006 5.81332 10.5634 4.75 11.8751 4.75H26.1251C27.4367 4.75 28.5001 5.81332 28.5001 7.125V11.875H30.8751C33.4984 11.875 35.6251 14.0016 35.6251 16.625V30.875C35.6251 33.4984 33.4984 35.625 30.8751 35.625H7.12506C4.50171 35.625 2.37506 33.4984 2.37506 30.875V16.625C2.37506 14.0016 4.50171 11.875 7.12506 11.875H9.50006ZM26.1251 15.4375H11.8751H7.12506C6.46922 15.4375 5.93756 15.9692 5.93756 16.625V30.875C5.93756 31.5308 6.46922 32.0625 7.12506 32.0625H30.8751C31.5309 32.0625 32.0626 31.5308 32.0626 30.875V16.625C32.0626 15.9692 31.5309 15.4375 30.8751 15.4375H26.1251Z" fill="#16A75C"/>
<path fill-rule="evenodd" clip-rule="evenodd" d="M20.9792 19.7917C20.9792 18.6986 20.0931 17.8125 19.0001 17.8125C17.907 17.8125 17.0209 18.6986 17.0209 19.7917V21.7708H15.0417C13.9487 21.7708 13.0626 22.6569 13.0626 23.75C13.0626 24.8431 13.9487 25.7292 15.0417 25.7292H17.0209V27.7083C17.0209 28.8014 17.907 29.6875 19.0001 29.6875C20.0931 29.6875 20.9792 28.8014 20.9792 27.7083V25.7292H22.9584C24.0515 25.7292 24.9376 24.8431 24.9376 23.75C24.9376 22.6569 24.0515 21.7708 22.9584 21.7708H20.9792V19.7917Z" fill="#FF9500"/>
</g>
<defs>
<clipPath id="clip0_10690_37967">
<rect width="33.25" height="33.25" fill="white" transform="translate(2.37506 2.375)"/>
</clipPath>
</defs>
</svg>
