<svg width="40" height="40" viewBox="0 0 40 40" fill="none" xmlns="http://www.w3.org/2000/svg">
<path d="M0 20C0 8.95431 8.95431 0 20 0V0C31.0457 0 40 8.95431 40 20V20C40 31.0457 31.0457 40 20 40V40C8.95431 40 0 31.0457 0 20V20Z" fill="white"/>
<path d="M26.0291 31.9414H8.47591C8.24311 31.9414 8.05264 31.7532 8.05264 31.5232V14.4318C8.05264 14.2018 8.24311 14.0136 8.47591 14.0136H26.0291V31.9414Z" fill="#E0E0E0"/>
<path d="M29.0259 26.0324H14.0462V8H29.0259C30.6428 8 31.955 9.29639 31.955 10.8939V23.1385C31.955 24.736 30.6428 26.0324 29.0259 26.0324Z" fill="#E0E0E0"/>
<path d="M26.0291 31.9414L14.0462 26.5844V8.66074L26.0418 14.0136L26.0291 31.9414Z" fill="#BDBDBD"/>
<path d="M14.0462 8V14.0136H26.0291L14.0462 8Z" fill="#9E9E9E"/>
</svg>
