<svg width="39" height="38" viewBox="0 0 39 38" fill="none" xmlns="http://www.w3.org/2000/svg">
<path fill-rule="evenodd" clip-rule="evenodd" d="M35.1042 31.4688C35.1042 32.4525 34.3637 33.25 33.4502 33.25L5.8832 33.25C4.96972 33.25 4.22919 32.4525 4.22919 31.4687C4.22919 30.485 4.96972 29.6875 5.8832 29.6875L33.4502 29.6875C34.3637 29.6875 35.1042 30.485 35.1042 31.4688Z" fill="#16A75C"/>
<path fill-rule="evenodd" clip-rule="evenodd" d="M11.7654 26.4219L9.76362 31.4263L7.0072 30.3237L9.08361 25.1327C9.48937 24.1183 10.4718 23.4531 11.5644 23.4531H27.839C28.851 23.4531 29.7762 24.0249 30.2288 24.9301L32.8693 30.2112L30.214 31.5388L27.6555 26.4219H11.7654Z" fill="#16A75C"/>
<path fill-rule="evenodd" clip-rule="evenodd" d="M11.4921 25.987C10.9124 26.5667 9.97252 26.5667 9.39283 25.987L5.55456 22.1487C4.97487 21.569 4.97487 20.6292 5.55456 20.0495C6.13424 19.4698 7.07409 19.4698 7.65378 20.0495L11.4921 23.8878C12.0717 24.4675 12.0717 25.4073 11.4921 25.987Z" fill="#16A75C"/>
<path fill-rule="evenodd" clip-rule="evenodd" d="M16.3263 31.3105L20.3218 16.399L22.6159 17.0137L18.6204 31.9252L16.3263 31.3105Z" fill="#16A75C"/>
<path fill-rule="evenodd" clip-rule="evenodd" d="M25.0044 13.7638C25.0422 12.8332 24.9234 11.9029 24.653 11.0117L23.8708 8.43452L26.1434 7.74476L26.9256 10.322C27.2734 11.4678 27.4261 12.6639 27.3774 13.8603L27.2892 16.0282L24.9162 15.9317L25.0044 13.7638Z" fill="#FF9500"/>
<path fill-rule="evenodd" clip-rule="evenodd" d="M22.1288 9.94395C21.403 10.5276 20.7804 11.229 20.2871 12.019L18.8606 14.3034L16.8461 13.0454L18.2727 10.761C18.9069 9.74533 19.7073 8.84348 20.6405 8.09312L22.3313 6.73349L23.8196 8.58433L22.1288 9.94395Z" fill="#FF9500"/>
<mask id="path-7-inside-1_10690_38001" fill="white">
<path d="M31.7922 19.4723C32.1555 18.1166 32.2481 16.7027 32.065 15.3112C31.8818 13.9197 31.4263 12.5779 30.7245 11.3624C30.0228 10.1469 29.0885 9.08159 27.975 8.2272C26.8615 7.3728 25.5907 6.74608 24.235 6.38283C22.8793 6.01957 21.4654 5.9269 20.0739 6.11009C18.6824 6.29329 17.3406 6.74876 16.1251 7.45051C14.9097 8.15227 13.8443 9.08655 12.9899 10.2C12.1355 11.3135 11.5088 12.5844 11.1456 13.94L21.4689 16.7062L31.7922 19.4723Z"/>
</mask>
<path d="M31.7922 19.4723C32.1555 18.1166 32.2481 16.7027 32.065 15.3112C31.8818 13.9197 31.4263 12.5779 30.7245 11.3624C30.0228 10.1469 29.0885 9.08159 27.975 8.2272C26.8615 7.3728 25.5907 6.74608 24.235 6.38283C22.8793 6.01957 21.4654 5.9269 20.0739 6.11009C18.6824 6.29329 17.3406 6.74876 16.1251 7.45051C14.9097 8.15227 13.8443 9.08655 12.9899 10.2C12.1355 11.3135 11.5088 12.5844 11.1456 13.94L21.4689 16.7062L31.7922 19.4723Z" stroke="#16A75C" stroke-width="4" mask="url(#path-7-inside-1_10690_38001)"/>
</svg>
