<svg width="39" height="38" viewBox="0 0 39 38" fill="none" xmlns="http://www.w3.org/2000/svg">
<g clip-path="url(#clip0_10690_38074)">
<mask id="path-1-inside-1_10690_38074" fill="white">
<path fill-rule="evenodd" clip-rule="evenodd" d="M2.72224 33.25H27.632C27.3221 26.6394 21.8644 21.375 15.1771 21.375C8.48985 21.375 3.03215 26.6394 2.72224 33.25Z"/>
</mask>
<path d="M2.72224 33.25L-0.274464 33.1095C-0.312866 33.9286 -0.0142856 34.7278 0.551822 35.3211C1.11793 35.9143 1.90222 36.25 2.72224 36.25L2.72224 33.25ZM27.632 33.25V36.25C28.452 36.25 29.2363 35.9143 29.8024 35.3211C30.3685 34.7278 30.6671 33.9286 30.6287 33.1095L27.632 33.25ZM2.72224 36.25H27.632V30.25H2.72224V36.25ZM15.1771 24.375C20.2546 24.375 24.4 28.3728 24.6353 33.3905L30.6287 33.1095C30.2441 24.906 23.4742 18.375 15.1771 18.375V24.375ZM5.71895 33.3905C5.95419 28.3728 10.0996 24.375 15.1771 24.375V18.375C6.88005 18.375 0.110122 24.906 -0.274464 33.1095L5.71895 33.3905Z" fill="#16A75C" mask="url(#path-1-inside-1_10690_38074)"/>
<circle cx="14.5834" cy="13.0625" r="4.4375" stroke="#16A75C" stroke-width="3"/>
<path d="M31.2084 13.25H30.628L30.3401 13.7539L28.8334 16.3907L27.3266 13.7539L27.0387 13.25H26.4584H23.8959V5.75L33.7709 5.75V13.25H31.2084Z" stroke="#FF9500" stroke-width="2"/>
</g>
<defs>
<clipPath id="clip0_10690_38074">
<rect width="33.25" height="33.25" fill="white" transform="translate(2.70836 2.375)"/>
</clipPath>
</defs>
</svg>
