<svg width="39" height="38" viewBox="0 0 39 38" fill="none" xmlns="http://www.w3.org/2000/svg">
<path d="M18.7917 31.75V11.7958L29.7425 16.5988C29.9243 16.6785 30.0417 16.8582 30.0417 17.0567V31.75H18.7917Z" stroke="#FF9500" stroke-width="3"/>
<path fill-rule="evenodd" clip-rule="evenodd" d="M25.6042 21.375H23.2292V19H25.6042V21.375Z" fill="#FF9500"/>
<path fill-rule="evenodd" clip-rule="evenodd" d="M25.6042 26.125H23.2292V23.75H25.6042V26.125Z" fill="#FF9500"/>
<path fill-rule="evenodd" clip-rule="evenodd" d="M35.1042 31.4688C35.1042 32.4525 34.3637 33.25 33.4502 33.25L5.88321 33.25C4.96972 33.25 4.22919 32.4525 4.22919 31.4687C4.22919 30.485 4.96972 29.6875 5.88321 29.6875L33.4502 29.6875C34.3637 29.6875 35.1042 30.485 35.1042 31.4688Z" fill="#16A75C"/>
<path d="M8.10419 11.0596C8.10419 10.8604 8.2224 10.6802 8.40512 10.6009L18.6551 6.15215C18.9853 6.00884 19.3542 6.25086 19.3542 6.61081V31.75H8.10419V11.0596Z" stroke="#16A75C" stroke-width="3" stroke-linejoin="round"/>
<path fill-rule="evenodd" clip-rule="evenodd" d="M14.9167 24.9375H12.5417V22.5625H14.9167V24.9375Z" fill="#16A75C"/>
<path fill-rule="evenodd" clip-rule="evenodd" d="M14.9167 19H12.5417V16.625H14.9167V19Z" fill="#16A75C"/>
</svg>
