<svg width="39" height="38" viewBox="0 0 39 38" fill="none" xmlns="http://www.w3.org/2000/svg">
<g clip-path="url(#clip0_10690_37955)">
<path fill-rule="evenodd" clip-rule="evenodd" d="M25.0104 16.625C25.9942 16.625 26.7917 17.4225 26.7917 18.4062L26.7917 24.3438C26.7917 25.3275 25.9942 26.125 25.0104 26.125C24.0267 26.125 23.2292 25.3275 23.2292 24.3437L23.2292 18.4062C23.2292 17.4225 24.0267 16.625 25.0104 16.625Z" fill="#FF9500"/>
<path fill-rule="evenodd" clip-rule="evenodd" d="M3.89203 11.9947C3.00197 12.4282 3.00197 13.6964 3.89203 14.1299L7.19796 15.74V25.9015C7.19796 28.1951 8.66156 30.2329 10.835 30.9654L16.0637 32.7276C18.4011 33.5154 20.9323 33.5154 23.2698 32.7276L28.4984 30.9654C30.6719 30.2329 32.1355 28.1951 32.1355 25.9015V15.6649L35.2871 14.1299C36.1772 13.6964 36.1772 12.4282 35.2871 11.9947L20.1095 4.6028C19.7813 4.44295 19.3978 4.44295 19.0696 4.6028L3.89203 11.9947ZM28.573 17.3999L20.1095 21.5218C19.7813 21.6817 19.3978 21.6817 19.0696 21.5218L10.7605 17.475V25.9015C10.7605 26.666 11.2483 27.3453 11.9728 27.5895L17.2015 29.3517C18.8008 29.8908 20.5327 29.8908 22.132 29.3517L27.3606 27.5895C28.0851 27.3453 28.573 26.666 28.573 25.9015V17.3999ZM19.5896 17.8125L9.83611 13.0623L19.5896 8.31211L29.343 13.0623L19.5896 17.8125Z" fill="#16A75C"/>
</g>
<defs>
<clipPath id="clip0_10690_37955">
<rect width="33.25" height="33.25" fill="white" transform="translate(3.04169 2.375)"/>
</clipPath>
</defs>
</svg>
