<svg width="39" height="38" viewBox="0 0 39 38" fill="none" xmlns="http://www.w3.org/2000/svg">
<g clip-path="url(#clip0_10690_37981)">
<path fill-rule="evenodd" clip-rule="evenodd" d="M6.27086 10.0938C6.27086 9.10999 5.47337 8.3125 4.48961 8.3125C3.50585 8.3125 2.70836 9.10999 2.70836 10.0938V33.8438C2.70836 34.8275 3.50585 35.625 4.48961 35.625L29.4271 35.625C30.4109 35.625 31.2084 34.8275 31.2084 33.8437C31.2084 32.86 30.4109 32.0625 29.4271 32.0625L18.1459 32.0625V25.5312C18.1459 24.5475 17.3484 23.75 16.3646 23.75C15.3809 23.75 14.5834 24.5475 14.5834 25.5312L14.5834 32.0625H12.2084V27.9062C12.2084 26.9225 11.4109 26.125 10.4271 26.125C9.44335 26.125 8.64586 26.9225 8.64586 27.9062V32.0625H6.27086L6.27086 10.0938Z" fill="#16A75C"/>
<path fill-rule="evenodd" clip-rule="evenodd" d="M25.2173 18.9464V7.97684L22.8959 5.07506L20.5744 7.97684V18.9464H25.2173ZM18.678 6.45973C18.3335 6.89034 18.1459 7.42538 18.1459 7.97684V10.5679L14.1121 12.3818C13.6762 12.5778 13.3959 13.0113 13.3959 13.4892V17.7857C13.3959 18.4563 13.9395 18.9999 14.6101 18.9999H18.1464C18.1749 20.3165 19.2511 21.3749 20.5744 21.3749H25.2173C26.5406 21.3749 27.6168 20.3165 27.6453 18.9999H31.1816C31.8522 18.9999 32.3959 18.4563 32.3959 17.7857V13.4892C32.3959 13.0113 32.1155 12.5778 31.6796 12.3818L27.6459 10.5679V7.97684C27.6459 7.42538 27.4582 6.89034 27.1137 6.45973L24.7923 3.55794C23.82 2.34267 21.9717 2.34267 20.9995 3.55794L18.678 6.45973ZM15.8244 14.2746V16.5714H18.0923V13.2548L15.8244 14.2746ZM29.9673 16.5714V14.2746L27.6994 13.2548V16.5714H29.9673Z" fill="#FF9500"/>
<path d="M25.2709 26.2946C25.2709 27.7 23.6875 29.6875 22.8959 29.6875C22.1042 29.6875 20.5209 27.7 20.5209 26.2946C20.5209 24.8893 21.5842 23.75 22.8959 23.75C24.2075 23.75 25.2709 24.8893 25.2709 26.2946Z" fill="#FF9500"/>
</g>
<defs>
<clipPath id="clip0_10690_37981">
<rect width="33.25" height="33.25" fill="white" transform="translate(2.70836 2.375)"/>
</clipPath>
</defs>
</svg>
