<svg width="38" height="38" viewBox="0 0 38 38" fill="none" xmlns="http://www.w3.org/2000/svg">
<path fill-rule="evenodd" clip-rule="evenodd" d="M34.4376 31.4688C34.4376 32.4525 33.697 33.25 32.7835 33.25L5.21658 33.25C4.30309 33.25 3.56256 32.4525 3.56256 31.4687C3.56256 30.485 4.30309 29.6875 5.21658 29.6875L32.7835 29.6875C33.697 29.6875 34.4376 30.485 34.4376 31.4688Z" fill="#16A75C"/>
<path d="M9.22555 28.939C7.81419 25.7635 9.15023 22.0395 12.2584 20.4854L16.0932 18.568C17.9231 17.653 20.077 17.653 21.9069 18.568L25.7417 20.4854C28.8499 22.0395 30.1859 25.7635 28.7746 28.939L27.5253 31.75H10.4749L9.22555 28.939Z" stroke="#16A75C" stroke-width="3"/>
<line x1="18.8126" y1="11.6875" x2="18.8126" y2="16.8125" stroke="#16A75C" stroke-width="2" stroke-linecap="round"/>
<path d="M23.931 11.6832C22.5519 13.1454 20.0511 13.0264 18.3453 11.4175C16.6394 9.80865 16.3745 7.31908 17.7535 5.85692" stroke="#FF9500" stroke-width="3" stroke-linecap="round"/>
</svg>
