<svg width="24" height="25" viewBox="0 0 24 25" fill="none" xmlns="http://www.w3.org/2000/svg">
<path d="M23.2969 10.3438H22.522C22.3788 9.64709 22.0256 9.00716 21.5083 8.51169C21.7745 7.59748 21.6622 6.60734 21.1807 5.77344C20.6992 4.93953 19.8979 4.34722 18.9731 4.12063C18.7465 3.19587 18.1542 2.3945 17.3203 1.913C16.4865 1.43159 15.4963 1.31928 14.5821 1.58544C13.9235 0.897875 13.0098 0.5 12.0469 0.5C11.0688 0.5 10.0923 0.914562 9.42417 1.58727C8.50828 1.31881 7.51538 1.43052 6.67969 1.913C5.84578 2.39445 5.25347 3.19587 5.02683 4.12058C4.10208 4.34717 3.3007 4.93948 2.81925 5.77339C2.3378 6.60725 2.22553 7.59744 2.49169 8.51164C1.97437 9.00716 1.62122 9.64709 1.47797 10.3438H0.703125C0.314812 10.3438 0 10.6586 0 11.0469C0 15.1746 2.13989 19.0025 5.625 21.184V22.3906C5.625 23.5537 6.57127 24.5 7.73438 24.5H16.2656C17.4287 24.5 18.375 23.5537 18.375 22.3906V21.184C21.8601 19.0025 24 15.1746 24 11.0469C24 10.6586 23.6852 10.3438 23.2969 10.3438ZM3.72638 9.31339C4.00922 9.11759 4.10883 8.74588 3.96183 8.43481C3.66436 7.80547 3.69248 7.07342 4.03711 6.47656C4.38173 5.87966 5.00166 5.48923 5.69531 5.43219C6.03816 5.40402 6.31027 5.13191 6.33848 4.78906C6.39553 4.09536 6.78591 3.47548 7.38281 3.13081C7.97967 2.78619 8.71177 2.75811 9.34106 3.05553C9.65208 3.20258 10.0238 3.10292 10.2196 2.82008C10.5981 2.27352 11.3324 1.90625 12.0469 1.90625C12.7362 1.90625 13.3842 2.24787 13.7804 2.82012C13.9762 3.10297 14.3479 3.20263 14.6589 3.05558C15.2882 2.75811 16.0202 2.78623 16.6171 3.13086C17.214 3.47548 17.6045 4.09536 17.6615 4.78906C17.6896 5.13191 17.9618 5.40402 18.3046 5.43223C18.9983 5.48928 19.6182 5.8797 19.9629 6.47661C20.3075 7.07347 20.3356 7.80552 20.0381 8.43486C19.8911 8.74587 19.9907 9.11764 20.2736 9.31344C20.6444 9.57013 20.9175 9.93289 21.0644 10.3438H2.9355C3.08245 9.93284 3.35555 9.57008 3.72638 9.31339ZM16.9688 22.3906C16.9688 22.7783 16.6533 23.0938 16.2656 23.0938H7.73438C7.34667 23.0938 7.03125 22.7783 7.03125 22.3906V21.5938H16.9688V22.3906ZM17.3015 20.1875H6.69853C3.63422 18.4191 1.66392 15.2363 1.42978 11.7406H22.5702C22.3361 15.2363 20.3658 18.4191 17.3015 20.1875Z" fill="#069550"/>
</svg>
