<svg width="24" height="25" viewBox="0 0 24 25" fill="none" xmlns="http://www.w3.org/2000/svg">
<g clip-path="url(#clip0_9574_42991)">
<path d="M9.1875 3.3125C8.92875 3.3125 8.71875 3.5225 8.71875 3.78125C8.71875 4.04 8.92875 4.25 9.1875 4.25C9.44625 4.25 9.65625 4.04 9.65625 3.78125C9.65625 3.5225 9.44625 3.3125 9.1875 3.3125Z" fill="#069550"/>
<path d="M12 7.0625C11.7416 7.0625 11.5313 6.85222 11.5313 6.59375C11.5313 6.33528 11.7416 6.125 12 6.125C12.1661 6.125 12.3414 6.2097 12.507 6.37002C12.6931 6.55006 12.9898 6.54514 13.1698 6.35914C13.3498 6.17309 13.345 5.87633 13.159 5.69628C12.9211 5.46608 12.683 5.33586 12.4688 5.2648V4.71875C12.4688 4.45986 12.2589 4.25 12 4.25C11.7412 4.25 11.5313 4.45986 11.5313 4.71875V5.26813C10.9857 5.46163 10.5938 5.98264 10.5938 6.59375C10.5938 7.36916 11.2246 8 12 8C12.2585 8 12.4688 8.21028 12.4688 8.46875C12.4688 8.72722 12.2585 8.9375 12 8.9375C11.7998 8.9375 11.5836 8.81155 11.3914 8.58289C11.2248 8.3847 10.9291 8.35916 10.7309 8.52575C10.5327 8.69234 10.5072 8.98803 10.6737 9.18617C10.9243 9.48425 11.219 9.69195 11.5313 9.79667V10.3438C11.5313 10.6026 11.7412 10.8125 12 10.8125C12.2589 10.8125 12.4688 10.6026 12.4688 10.3438V9.79437C13.0144 9.60087 13.4063 9.07986 13.4063 8.46875C13.4063 7.69334 12.7754 7.0625 12 7.0625Z" fill="#069550"/>
<path d="M22.125 7.34375C21.0911 7.34375 20.25 8.18488 20.25 9.21875V12.5595C19.6273 12.3992 18.9402 12.5648 18.4556 13.0493L15.3119 16.193C14.8689 16.6354 14.625 17.2241 14.625 17.8508V20.6094H14.1562C13.8974 20.6094 13.6875 20.8192 13.6875 21.0781V24.0312C13.6875 24.2901 13.8974 24.5 14.1562 24.5H20.7188C20.9776 24.5 21.1875 24.2901 21.1875 24.0312V21.0781C21.1875 20.8192 20.9776 20.6094 20.7188 20.6094H20.25V20.3881C20.25 20.2649 20.3001 20.1441 20.3874 20.0568L23.3134 17.1308C23.7562 16.688 24 16.0993 24 15.4733V9.21875C24 8.18488 23.1589 7.34375 22.125 7.34375ZM20.25 23.5625H14.625V21.5469H20.25V23.5625ZM23.0625 15.4733C23.0625 15.8489 22.9162 16.2022 22.6504 16.4679L19.7245 19.3939C19.4626 19.6557 19.3125 20.0181 19.3125 20.3881V20.6094H15.5625V17.8508C15.5625 17.4747 15.7087 17.1216 15.9746 16.8561L19.1185 13.7122C19.4703 13.3603 20.0355 13.3445 20.4052 13.6762C20.4079 13.6786 20.4105 13.681 20.4133 13.6833C20.424 13.6924 20.434 13.7023 20.4441 13.7124C20.6212 13.8893 20.7188 14.1246 20.7188 14.375C20.7188 14.6254 20.6212 14.8607 20.444 15.0378L18.1148 17.367C17.9318 17.55 17.9318 17.8468 18.1148 18.0299C18.2979 18.213 18.5946 18.213 18.7778 18.0299L21.1069 15.7009C21.4611 15.3468 21.6562 14.876 21.6562 14.375C21.6562 13.9138 21.4904 13.4782 21.1875 13.1356V9.21875C21.1875 8.70181 21.6081 8.28125 22.125 8.28125C22.6419 8.28125 23.0625 8.70181 23.0625 9.21875V15.4733Z" fill="#069550"/>
<path d="M9.84375 20.6094H9.375V17.8508C9.375 17.2241 9.13106 16.6354 8.68838 16.1932L5.54447 13.0493C5.05983 12.5647 4.37269 12.3991 3.75 12.5595V9.21875C3.75 8.18488 2.90887 7.34375 1.875 7.34375C0.841125 7.34375 0 8.18488 0 9.21875V15.4733C0 16.0993 0.243844 16.688 0.686625 17.1308L3.61256 20.0567C3.69994 20.1441 3.75 20.2648 3.75 20.3881V20.6094H3.28125C3.02241 20.6094 2.8125 20.8192 2.8125 21.0781V24.0312C2.8125 24.2901 3.02241 24.5 3.28125 24.5H9.84375C10.1026 24.5 10.3125 24.2901 10.3125 24.0312V21.0781C10.3125 20.8192 10.1026 20.6094 9.84375 20.6094ZM1.34958 16.468C1.08384 16.2022 0.9375 15.8489 0.9375 15.4733V9.21875C0.9375 8.70181 1.35806 8.28125 1.875 8.28125C2.39194 8.28125 2.8125 8.70181 2.8125 9.21875V13.1356C2.50959 13.4781 2.34375 13.9137 2.34375 14.375C2.34375 14.876 2.53889 15.3468 2.89308 15.7007L5.23683 18.0444C5.41992 18.2275 5.71664 18.2275 5.89978 18.0444C6.08283 17.8614 6.08283 17.5646 5.89978 17.3815L3.55589 15.0376C3.3788 14.8607 3.28125 14.6254 3.28125 14.375C3.28125 14.1246 3.3788 13.8893 3.55575 13.7124C3.56597 13.7022 3.57605 13.6924 3.58669 13.6833L3.59475 13.6762C3.96436 13.3445 4.52962 13.3604 4.88147 13.7122L8.02561 16.8563C8.2912 17.1216 8.43745 17.4747 8.43745 17.8507V20.6094H4.68745V20.3881C4.6875 20.0181 4.53736 19.6557 4.27552 19.3939L1.34958 16.468ZM9.375 23.5625H3.75V21.5469H9.375V23.5625Z" fill="#069550"/>
<path d="M12 0.5C8.12297 0.5 4.96875 3.65422 4.96875 7.53125C4.96875 11.4083 8.12297 14.5625 12 14.5625C15.877 14.5625 19.0312 11.4083 19.0312 7.53125C19.0312 3.65422 15.877 0.5 12 0.5ZM12 13.625C8.63986 13.625 5.90625 10.8913 5.90625 7.53125C5.90625 4.17116 8.63986 1.4375 12 1.4375C15.3601 1.4375 18.0938 4.17116 18.0938 7.53125C18.0938 10.8913 15.3601 13.625 12 13.625Z" fill="#069550"/>
<path d="M15.2369 3.51778C14.0172 2.53294 12.4208 2.1615 10.8578 2.49849C10.6047 2.55305 10.4438 2.80242 10.4984 3.0555C10.5529 3.30853 10.8023 3.46932 11.0554 3.41489C12.3402 3.13786 13.6497 3.44119 14.648 4.24716C15.6462 5.05318 16.2188 6.25032 16.2188 7.53174C16.2188 9.85796 14.3262 11.7505 12 11.7505C9.67378 11.7505 7.78125 9.85796 7.78125 7.53174C7.78125 6.83686 7.95375 6.14808 8.28009 5.53993C8.40248 5.31183 8.3168 5.02768 8.0887 4.90524C7.86056 4.7828 7.57636 4.86853 7.45402 5.09663C7.05478 5.84068 6.84375 6.68269 6.84375 7.53174C6.84375 10.3749 9.15684 12.688 12 12.688C14.8432 12.688 17.1562 10.3749 17.1562 7.53174C17.1562 5.9656 16.4567 4.50258 15.2369 3.51778Z" fill="#069550"/>
</g>
<defs>
<clipPath id="clip0_9574_42991">
<rect width="24" height="24" fill="white" transform="translate(0 0.5)"/>
</clipPath>
</defs>
</svg>
