<svg width="25" height="25" viewBox="0 0 25 25" fill="none" xmlns="http://www.w3.org/2000/svg">
<path d="M23.9636 14.6562H23.6468L22.7862 7.77219C22.7423 7.4203 22.4432 7.15625 22.0886 7.15625H19.7448C19.3902 7.15625 19.0911 7.4203 19.0471 7.77219L18.1866 14.6562H17.0843L16.2237 7.77219C16.1798 7.4203 15.8807 7.15625 15.5261 7.15625H13.1823C12.8277 7.15625 12.5286 7.4203 12.4846 7.77219L11.6241 14.6562H10.6042V9.73438C10.6042 9.34606 10.2894 9.03125 9.90106 9.03125H1.36981C0.981499 9.03125 0.666687 9.34606 0.666687 9.73438V23.7969C0.666687 24.1852 0.981499 24.5 1.36981 24.5H23.9636C24.3519 24.5 24.6667 24.1852 24.6667 23.7969V15.3594C24.6667 14.9711 24.3519 14.6562 23.9636 14.6562ZM20.3655 8.5625H21.4679L22.2296 14.6562H19.6038L20.3655 8.5625ZM13.803 8.5625H14.9054L15.6671 14.6562H13.0413L13.803 8.5625ZM2.07294 10.4375H9.19794V15.3594V23.0938H7.74481V20.0469C7.74481 19.6586 7.43 19.3438 7.04169 19.3438H4.22919C3.84087 19.3438 3.52606 19.6586 3.52606 20.0469V23.0938H2.07294V10.4375ZM4.93231 23.0938V20.75H6.33856V23.0938H4.93231ZM14.3542 23.0938V21.6875H19.5104V23.0938H14.3542ZM23.2604 23.0938H20.9167V20.9844C20.9167 20.5961 20.6019 20.2812 20.2136 20.2812H13.6511C13.2627 20.2812 12.9479 20.5961 12.9479 20.9844V23.0938H10.6042V16.0625H23.2604V23.0938Z" fill="#069550"/>
<path d="M17.4011 17.4688H16.4636C16.0752 17.4688 15.7604 17.7836 15.7604 18.1719C15.7604 18.5602 16.0752 18.875 16.4636 18.875H17.4011C17.7894 18.875 18.1042 18.5602 18.1042 18.1719C18.1042 17.7836 17.7894 17.4688 17.4011 17.4688Z" fill="#069550"/>
<path d="M21.1511 17.4688H20.2136C19.8252 17.4688 19.5104 17.7836 19.5104 18.1719C19.5104 18.5602 19.8252 18.875 20.2136 18.875H21.1511C21.5394 18.875 21.8542 18.5602 21.8542 18.1719C21.8542 17.7836 21.5394 17.4688 21.1511 17.4688Z" fill="#069550"/>
<path d="M9.90106 3.3125H19.5104C19.8981 3.3125 20.2136 3.62792 20.2136 4.01562V5.42188C20.2136 5.81019 20.5284 6.125 20.9167 6.125C21.305 6.125 21.6198 5.81019 21.6198 5.42188V4.01562C21.6198 2.85252 20.6735 1.90625 19.5104 1.90625H9.90106C9.51336 1.90625 9.19794 1.59083 9.19794 1.20312C9.19794 0.814812 8.88312 0.5 8.49481 0.5C8.1065 0.5 7.79169 0.814812 7.79169 1.20312C7.79169 2.36623 8.73795 3.3125 9.90106 3.3125Z" fill="#069550"/>
<path d="M7.08856 6.125H14.3542C14.7425 6.125 15.0573 5.81019 15.0573 5.42188C15.0573 5.03356 14.7425 4.71875 14.3542 4.71875H7.08856C6.70086 4.71875 6.38544 4.40333 6.38544 4.01562C6.38544 3.62731 6.07062 3.3125 5.68231 3.3125C5.294 3.3125 4.97919 3.62731 4.97919 4.01562C4.97919 5.17873 5.92545 6.125 7.08856 6.125Z" fill="#069550"/>
<path d="M7.04169 17.9375C7.43 17.9375 7.74481 17.6227 7.74481 17.2344V16.2969C7.74481 15.9086 7.43 15.5938 7.04169 15.5938C6.65337 15.5938 6.33856 15.9086 6.33856 16.2969V17.2344C6.33856 17.6227 6.65337 17.9375 7.04169 17.9375Z" fill="#069550"/>
<path d="M4.22919 17.9375C4.6175 17.9375 4.93231 17.6227 4.93231 17.2344V16.2969C4.93231 15.9086 4.6175 15.5938 4.22919 15.5938C3.84087 15.5938 3.52606 15.9086 3.52606 16.2969V17.2344C3.52606 17.6227 3.84087 17.9375 4.22919 17.9375Z" fill="#069550"/>
<path d="M7.04169 14.1875C7.43 14.1875 7.74481 13.8727 7.74481 13.4844V12.5469C7.74481 12.1586 7.43 11.8438 7.04169 11.8438C6.65337 11.8438 6.33856 12.1586 6.33856 12.5469V13.4844C6.33856 13.8727 6.65337 14.1875 7.04169 14.1875Z" fill="#069550"/>
<path d="M4.22919 14.1875C4.6175 14.1875 4.93231 13.8727 4.93231 13.4844V12.5469C4.93231 12.1586 4.6175 11.8438 4.22919 11.8438C3.84087 11.8438 3.52606 12.1586 3.52606 12.5469V13.4844C3.52606 13.8727 3.84087 14.1875 4.22919 14.1875Z" fill="#069550"/>
<path d="M13.6511 17.4688H12.7136C12.3252 17.4688 12.0104 17.7836 12.0104 18.1719C12.0104 18.5602 12.3252 18.875 12.7136 18.875H13.6511C14.0394 18.875 14.3542 18.5602 14.3542 18.1719C14.3542 17.7836 14.0394 17.4688 13.6511 17.4688Z" fill="#069550"/>
</svg>
