<svg width="24" height="25" viewBox="0 0 24 25" fill="none" xmlns="http://www.w3.org/2000/svg">
<g clip-path="url(#clip0_9574_42919)">
<path d="M19.0312 0.5C16.3173 0.5 14.1094 2.70795 14.1094 5.42188C14.1094 8.1358 16.3173 10.3438 19.0312 10.3438C21.7523 10.3438 24 8.13523 24 5.42188C24 4.10975 23.4779 2.87291 22.5298 1.93916C21.5875 1.01112 20.3451 0.5 19.0312 0.5V0.5ZM19.0312 8.9375C17.0927 8.9375 15.5156 7.36039 15.5156 5.42188C15.5156 3.48336 17.0927 1.90625 19.0312 1.90625C20.9956 1.90625 22.5938 3.48336 22.5938 5.42188C22.5938 7.36039 20.9956 8.9375 19.0312 8.9375Z" fill="#069550"/>
<path d="M19.9404 4.22156L18.3281 5.83379L17.7706 5.27625C17.4961 5.00166 17.0509 5.00166 16.7763 5.27625C16.5017 5.55085 16.5017 5.99602 16.7763 6.27061L17.8309 7.3253C17.9682 7.46265 18.1482 7.53127 18.3281 7.53127C18.5081 7.53127 18.6881 7.46265 18.8253 7.32535L20.9347 5.21597C21.2093 4.94138 21.2093 4.49621 20.9347 4.22161C20.6601 3.94697 20.2149 3.94697 19.9404 4.22156Z" fill="#069550"/>
<path d="M24 19.5781C24 18.415 23.0537 17.4688 21.8906 17.4688H18.3281V13.9062C18.3281 13.5179 18.0133 13.2031 17.625 13.2031H14.1094V11.0938C14.1094 10.8344 13.9666 10.5962 13.738 10.4738C13.5094 10.3514 13.232 10.3649 13.0162 10.5087L9.89062 12.5924V11.0938C9.89062 10.8344 9.74789 10.5962 9.51928 10.4738C9.29067 10.3514 9.01327 10.3649 8.7975 10.5087L5.67188 12.5924C5.67188 11.9861 5.67188 7.60081 5.67188 6.82812C5.67188 6.43981 5.35706 6.125 4.96875 6.125H2.15625C1.76794 6.125 1.45312 6.43981 1.45312 6.82812V12.5696L0.316078 13.3192C0.118734 13.4494 0 13.6699 0 13.9062V23.7969C0 24.1852 0.314812 24.5 0.703125 24.5H17.625C18.0133 24.5 18.3281 24.1852 18.3281 23.7969V21.6875H21.1875V23.7969C21.1875 24.1852 21.5023 24.5 21.8906 24.5H23.2969C23.6852 24.5 24 24.1852 24 23.7969C24 23.4086 23.6852 23.0938 23.2969 23.0938H22.5938V21.5666C23.4121 21.2763 24 20.4948 24 19.5781ZM2.85938 7.53125H4.26562V10.7151L2.85938 11.6423V7.53125ZM12.7031 23.0938H11.2969V18.875H12.7031V23.0938ZM16.9219 23.0938H14.1094V18.1719C14.1094 17.7836 13.7946 17.4688 13.4062 17.4688H10.5938C10.2054 17.4688 9.89062 17.7836 9.89062 18.1719V23.0938H1.40625V14.2849C1.43808 14.2646 4.26094 12.4026 4.26562 12.3995V13.9062C4.26562 14.1656 4.40836 14.4038 4.63697 14.5262C4.86558 14.6485 5.14298 14.6351 5.35875 14.4913L8.48438 12.4076V13.9062C8.48438 14.1656 8.62711 14.4038 8.85572 14.5262C9.08433 14.6485 9.36173 14.6351 9.5775 14.4913L12.7031 12.4076V13.9062C12.7031 14.2946 13.0179 14.6094 13.4062 14.6094H16.9219V23.0938ZM18.3281 18.875H21.8906C22.2783 18.875 22.5938 19.1904 22.5938 19.5781C22.5938 19.9658 22.2783 20.2812 21.8906 20.2812H18.3281V18.875Z" fill="#069550"/>
<path d="M7.78125 17.4688H3.5625C3.17419 17.4688 2.85938 17.7836 2.85938 18.1719V20.9844C2.85938 21.3727 3.17419 21.6875 3.5625 21.6875H7.78125C8.16956 21.6875 8.48438 21.3727 8.48438 20.9844V18.1719C8.48438 17.7836 8.16956 17.4688 7.78125 17.4688ZM7.07812 20.2812H4.26562V18.875H7.07812V20.2812Z" fill="#069550"/>
<path d="M4.26562 4.01562C4.26562 3.62792 4.58105 3.3125 4.96875 3.3125H7.78125C8.94436 3.3125 9.89062 2.36623 9.89062 1.20312C9.89062 0.814812 9.57581 0.5 9.1875 0.5C8.79919 0.5 8.48438 0.814812 8.48438 1.20312C8.48438 1.59083 8.16895 1.90625 7.78125 1.90625H4.96875C3.80564 1.90625 2.85938 2.85252 2.85938 4.01562C2.85938 4.40394 3.17419 4.71875 3.5625 4.71875C3.95081 4.71875 4.26562 4.40394 4.26562 4.01562Z" fill="#069550"/>
</g>
<defs>
<clipPath id="clip0_9574_42919">
<rect width="24" height="24" fill="white" transform="translate(0 0.5)"/>
</clipPath>
</defs>
</svg>
