<svg width="25" height="25" viewBox="0 0 25 25" fill="none" xmlns="http://www.w3.org/2000/svg">
<g clip-path="url(#clip0_9574_42948)">
<path d="M9.52084 3.3125C9.26209 3.3125 9.05209 3.5225 9.05209 3.78125C9.05209 4.04 9.26209 4.25 9.52084 4.25C9.77959 4.25 9.98959 4.04 9.98959 3.78125C9.98959 3.5225 9.77959 3.3125 9.52084 3.3125Z" fill="#069550"/>
<path d="M12.3334 7.0625C12.0749 7.0625 11.8646 6.85222 11.8646 6.59375C11.8646 6.33528 12.0749 6.125 12.3334 6.125C12.4994 6.125 12.6747 6.2097 12.8403 6.37002C13.0265 6.55006 13.3231 6.54514 13.5032 6.35914C13.6832 6.17309 13.6783 5.87633 13.4923 5.69628C13.2544 5.46608 13.0164 5.33586 12.8021 5.2648V4.71875C12.8021 4.45986 12.5922 4.25 12.3334 4.25C12.0745 4.25 11.8646 4.45986 11.8646 4.71875V5.26813C11.319 5.46163 10.9271 5.98264 10.9271 6.59375C10.9271 7.36916 11.558 8 12.3334 8C12.5918 8 12.8021 8.21028 12.8021 8.46875C12.8021 8.72722 12.5918 8.9375 12.3334 8.9375C12.1331 8.9375 11.9169 8.81155 11.7247 8.58289C11.5582 8.3847 11.2624 8.35916 11.0643 8.52575C10.8661 8.69234 10.8405 8.98803 11.0071 9.18617C11.2577 9.48425 11.5523 9.69195 11.8646 9.79667V10.3438C11.8646 10.6026 12.0745 10.8125 12.3334 10.8125C12.5922 10.8125 12.8021 10.6026 12.8021 10.3438V9.79437C13.3477 9.60087 13.7396 9.07986 13.7396 8.46875C13.7396 7.69334 13.1088 7.0625 12.3334 7.0625Z" fill="#069550"/>
<path d="M22.4583 7.34375C21.4245 7.34375 20.5833 8.18488 20.5833 9.21875V12.5595C19.9607 12.3992 19.2735 12.5648 18.7889 13.0493L15.6452 16.193C15.2023 16.6354 14.9583 17.2241 14.9583 17.8508V20.6094H14.4896C14.2307 20.6094 14.0208 20.8192 14.0208 21.0781V24.0312C14.0208 24.2901 14.2307 24.5 14.4896 24.5H21.0521C21.3109 24.5 21.5208 24.2901 21.5208 24.0312V21.0781C21.5208 20.8192 21.3109 20.6094 21.0521 20.6094H20.5833V20.3881C20.5833 20.2649 20.6334 20.1441 20.7208 20.0568L23.6467 17.1308C24.0895 16.688 24.3333 16.0993 24.3333 15.4733V9.21875C24.3333 8.18488 23.4922 7.34375 22.4583 7.34375ZM20.5833 23.5625H14.9583V21.5469H20.5833V23.5625ZM23.3958 15.4733C23.3958 15.8489 23.2495 16.2022 22.9838 16.4679L20.0578 19.3939C19.796 19.6557 19.6458 20.0181 19.6458 20.3881V20.6094H15.8958V17.8508C15.8958 17.4747 16.0421 17.1216 16.3079 16.8561L19.4518 13.7122C19.8037 13.3603 20.3689 13.3445 20.7385 13.6762C20.7412 13.6786 20.7439 13.681 20.7466 13.6833C20.7573 13.6924 20.7673 13.7023 20.7775 13.7124C20.9545 13.8893 21.0521 14.1246 21.0521 14.375C21.0521 14.6254 20.9545 14.8607 20.7774 15.0378L18.4481 17.367C18.2651 17.55 18.2651 17.8468 18.4481 18.0299C18.6312 18.213 18.928 18.213 19.1111 18.0299L21.4402 15.7009C21.7945 15.3468 21.9896 14.876 21.9896 14.375C21.9896 13.9138 21.8237 13.4782 21.5208 13.1356V9.21875C21.5208 8.70181 21.9414 8.28125 22.4583 8.28125C22.9753 8.28125 23.3958 8.70181 23.3958 9.21875V15.4733Z" fill="#069550"/>
<path d="M10.1771 20.6094H9.70834V17.8508C9.70834 17.2241 9.46441 16.6354 9.02172 16.1932L5.87781 13.0493C5.39317 12.5647 4.70603 12.3991 4.08334 12.5595V9.21875C4.08334 8.18488 3.24222 7.34375 2.20834 7.34375C1.17447 7.34375 0.333344 8.18488 0.333344 9.21875V15.4733C0.333344 16.0993 0.577187 16.688 1.01997 17.1308L3.94591 20.0567C4.03328 20.1441 4.08334 20.2648 4.08334 20.3881V20.6094H3.61459C3.35575 20.6094 3.14584 20.8192 3.14584 21.0781V24.0312C3.14584 24.2901 3.35575 24.5 3.61459 24.5H10.1771C10.4359 24.5 10.6458 24.2901 10.6458 24.0312V21.0781C10.6458 20.8192 10.4359 20.6094 10.1771 20.6094ZM1.68292 16.468C1.41719 16.2022 1.27084 15.8489 1.27084 15.4733V9.21875C1.27084 8.70181 1.69141 8.28125 2.20834 8.28125C2.72528 8.28125 3.14584 8.70181 3.14584 9.21875V13.1356C2.84294 13.4781 2.67709 13.9137 2.67709 14.375C2.67709 14.876 2.87223 15.3468 3.22642 15.7007L5.57017 18.0444C5.75327 18.2275 6.04998 18.2275 6.23312 18.0444C6.41617 17.8614 6.41617 17.5646 6.23312 17.3815L3.88923 15.0376C3.71214 14.8607 3.61459 14.6254 3.61459 14.375C3.61459 14.1246 3.71214 13.8893 3.88909 13.7124C3.89931 13.7022 3.90939 13.6924 3.92003 13.6833L3.92809 13.6762C4.2977 13.3445 4.86297 13.3604 5.21481 13.7122L8.35895 16.8563C8.62455 17.1216 8.7708 17.4747 8.7708 17.8507V20.6094H5.0208V20.3881C5.02084 20.0181 4.8707 19.6557 4.60886 19.3939L1.68292 16.468ZM9.70834 23.5625H4.08334V21.5469H9.70834V23.5625Z" fill="#069550"/>
<path d="M12.3333 0.5C8.45631 0.5 5.30209 3.65422 5.30209 7.53125C5.30209 11.4083 8.45631 14.5625 12.3333 14.5625C16.2104 14.5625 19.3646 11.4083 19.3646 7.53125C19.3646 3.65422 16.2104 0.5 12.3333 0.5ZM12.3333 13.625C8.9732 13.625 6.23959 10.8913 6.23959 7.53125C6.23959 4.17116 8.9732 1.4375 12.3333 1.4375C15.6935 1.4375 18.4271 4.17116 18.4271 7.53125C18.4271 10.8913 15.6935 13.625 12.3333 13.625Z" fill="#069550"/>
<path d="M15.5702 3.51778C14.3505 2.53294 12.7541 2.1615 11.1911 2.49849C10.9381 2.55305 10.7771 2.80242 10.8317 3.0555C10.8863 3.30853 11.1357 3.46932 11.3887 3.41489C12.6735 3.13786 13.983 3.44119 14.9814 4.24716C15.9796 5.05318 16.5521 6.25032 16.5521 7.53174C16.5521 9.85796 14.6596 11.7505 12.3333 11.7505C10.0071 11.7505 8.11459 9.85796 8.11459 7.53174C8.11459 6.83686 8.28709 6.14808 8.61344 5.53993C8.73583 5.31183 8.65014 5.02768 8.42205 4.90524C8.19391 4.7828 7.9097 4.86853 7.78736 5.09663C7.38812 5.84068 7.17709 6.68269 7.17709 7.53174C7.17709 10.3749 9.49019 12.688 12.3333 12.688C15.1765 12.688 17.4896 10.3749 17.4896 7.53174C17.4896 5.9656 16.79 4.50258 15.5702 3.51778Z" fill="#069550"/>
</g>
<defs>
<clipPath id="clip0_9574_42948">
<rect width="24" height="24" fill="white" transform="translate(0.333344 0.5)"/>
</clipPath>
</defs>
</svg>
