<svg width="126" height="38" viewBox="0 0 126 38" fill="none" xmlns="http://www.w3.org/2000/svg">
<g clip-path="url(#clip0)">
<path d="M28.4628 37.9073H0.670185C0.301583 37.9073 0 37.6093 0 37.2451V10.1836C0 9.81945 0.301583 9.52148 0.670185 9.52148H28.4628V37.9073Z" fill="#FFBF2F"/>
<path d="M33.2077 28.5513H9.48987V0H33.2077C35.7678 0 37.8454 2.05262 37.8454 4.58198V23.9693C37.8454 26.4987 35.7678 28.5513 33.2077 28.5513Z" fill="#18A5DC"/>
<path d="M28.4628 37.9073L9.48987 29.4253V1.04614L28.4829 9.52148L28.4628 37.9073Z" fill="#008D57"/>
<path d="M9.48987 0V9.52152H28.4628L9.48987 0Z" fill="#1991DB"/>
<path d="M47.6434 14.1236C47.6434 9.51509 47.6434 4.91325 47.6434 0.284912C49.6607 0.284912 51.745 0.284912 53.8024 0.284912C60.5043 0.304776 60.5043 10.5811 53.8024 10.5811H51.2222V14.1169C50.0226 14.1236 48.823 14.1236 47.6434 14.1236ZM53.7823 3.44992C52.9446 3.43006 52.0398 3.44992 51.2222 3.44992C51.2222 4.57556 51.2222 6.27725 51.2222 7.40288H53.7823C55.746 7.40288 55.8599 3.46979 53.7823 3.44992Z" fill="white"/>
<path d="M60.6652 7.224C60.6652 -2.34387 75.0272 -2.34387 75.0272 7.224C75.0272 16.8117 60.6652 16.8117 60.6652 7.224ZM71.368 7.224C71.368 2.24473 64.3445 2.24473 64.3445 7.224C64.3445 12.243 71.368 12.243 71.368 7.224Z" fill="white"/>
<path d="M89.5502 13.6071V14.1236H85.5492L83.1499 10.0514H81.2868V14.1236C80.0872 14.1236 78.8674 14.1236 77.708 14.1236C77.708 9.51509 77.708 4.91325 77.708 0.284912C79.732 0.284912 81.8095 0.284912 83.8469 0.284912C89.3491 0.304776 90.3477 6.84668 86.8091 9.21713L89.5502 13.6071ZM83.8536 3.44992C83.0159 3.43006 82.1312 3.44992 81.2935 3.44992C81.2935 4.57556 81.2935 5.76078 81.2935 6.86655H83.8536C85.7904 6.86655 85.891 3.46979 83.8536 3.44992Z" fill="white"/>
<path d="M90.3341 3.44992C90.3341 2.38388 90.3341 1.33771 90.3341 0.284912H100.735C100.735 1.33109 100.735 2.37726 100.735 3.44992H97.3174V14.1236C96.1379 14.1236 94.9584 14.1236 93.7789 14.1236V3.44992H90.3341Z" fill="white"/>
<path d="M110.259 12.382H104.737L103.919 14.1234H100.421V13.6069L106.72 0.105957H108.262L114.582 13.6069V14.1234H111.083L110.259 12.382ZM107.478 5.70101L105.916 9.33614H109.079L107.478 5.70101Z" fill="white"/>
<path d="M120.003 10.9387H125.083C125.083 12.1239 125.083 12.9317 125.083 14.1236C122.201 14.1236 119.239 14.1236 116.398 14.1236V0.284912C117.597 0.284912 118.777 0.284912 119.997 0.284912C120.003 7.44261 120.003 5.05229 120.003 10.9387Z" fill="white"/>
<path d="M58.0984 33.2392C58.0984 36.2652 55.5785 38 52.6967 38C49.8149 38 47.4558 36.2586 47.4558 33.2392V31.4382C48.5549 31.4382 49.7143 31.4382 50.8336 31.4382V33.1796C50.8336 34.2655 51.6512 34.8416 52.6967 34.8416C53.7355 34.8416 54.4392 34.2854 54.4392 33.1796V27.1542H52.3951C52.3951 26.0683 52.3951 25.042 52.3951 24.009H58.0984V33.2392Z" fill="white"/>
<path d="M69.6456 36.0997H64.1232L63.3056 37.8412H59.8073V37.3247L66.107 23.8237H67.6484L73.9683 37.3247V37.8412H70.4699L69.6456 36.0997ZM66.8643 29.4188L65.3028 33.0539H68.466L66.8643 29.4188Z" fill="white"/>
<path d="M85.0465 30.6503C86.1859 31.2263 86.7287 32.2526 86.7287 33.4776C86.7086 35.8877 85.2275 37.8477 82.3658 37.8477H75.8047V24.009H81.7894C84.2088 24.009 86.1524 25.8696 86.1524 28.2599C86.1457 29.0876 85.7301 30.0941 85.0465 30.6503ZM79.2628 27.1674V29.4385H81.5214C82.9422 29.4385 82.9422 27.1674 81.5013 27.1674H79.2628ZM79.2628 32.3453V34.6959H82.1245C83.5654 34.6959 83.5453 32.3453 82.1044 32.3453H79.2628Z" fill="white"/>
<path d="M96.9892 36.0997H91.4669L90.6492 37.8412H87.1509V37.3247L93.4506 23.8237H94.992L101.312 37.3247V37.8412H97.8135L96.9892 36.0997ZM94.2079 29.4188L92.6464 33.0539H95.8097L94.2079 29.4188Z" fill="white"/>
<path d="M114.977 37.3246V37.8411H110.976L108.577 33.769H106.714V37.8411C105.514 37.8411 104.294 37.8411 103.135 37.8411C103.135 33.2326 103.135 28.6308 103.135 24.0024C105.159 24.0024 107.236 24.0024 109.274 24.0024C114.776 24.0223 115.774 30.5642 112.236 32.9347L114.977 37.3246ZM109.274 27.1675C108.436 27.1476 107.551 27.1675 106.714 27.1675C106.714 28.2931 106.714 29.4783 106.714 30.5841H109.274C111.217 30.5907 111.318 27.1873 109.274 27.1675Z" fill="white"/>
</g>
<defs>
<clipPath id="clip0">
<rect width="125.083" height="38" fill="white"/>
</clipPath>
</defs>
</svg>
