<svg width="20" height="20" viewBox="0 0 20 20" fill="none" xmlns="http://www.w3.org/2000/svg">
<path d="M19 5.3125C17.7572 5.31111 16.5657 4.8168 15.6869 3.93803C14.8082 3.05925 14.3139 1.86778 14.3125 0.625C14.3125 0.475816 14.2532 0.332742 14.1477 0.227252C14.0422 0.121763 13.8991 0.0625 13.75 0.0625H9.99996C9.85078 0.0625 9.7077 0.121763 9.60221 0.227252C9.49673 0.332742 9.43746 0.475816 9.43746 0.625V12.625C9.43733 12.9941 9.33817 13.3564 9.15031 13.6741C8.96246 13.9918 8.69279 14.2532 8.36945 14.4312C8.0461 14.6092 7.68093 14.6971 7.31202 14.6858C6.94311 14.6746 6.58398 14.5645 6.27209 14.3672C5.96021 14.1698 5.707 13.8924 5.53887 13.5638C5.37075 13.2352 5.29387 12.8676 5.31626 12.4992C5.33865 12.1308 5.45948 11.7751 5.66616 11.4693C5.87284 11.1635 6.15778 10.9188 6.49127 10.7607C6.58739 10.715 6.66858 10.6431 6.72544 10.5531C6.78229 10.4632 6.81246 10.359 6.81246 10.2526V6.34909C6.81247 6.26687 6.79446 6.18564 6.75969 6.11112C6.72491 6.03661 6.67423 5.97063 6.61119 5.91782C6.54816 5.86502 6.47432 5.82667 6.39487 5.80549C6.31542 5.78431 6.23229 5.7808 6.15134 5.79522C4.85215 6.02791 3.64629 6.62636 2.67528 7.52032C1.70427 8.41429 1.0084 9.56669 0.669348 10.8423C0.330295 12.1178 0.362124 13.4636 0.761099 14.7218C1.16007 15.9799 1.90964 17.0981 2.92182 17.9452C3.93401 18.7922 5.16681 19.333 6.47555 19.504C7.78429 19.675 9.11465 19.4692 10.3105 18.9106C11.5064 18.3521 12.5181 17.464 13.2269 16.3507C13.9358 15.2373 14.3124 13.9449 14.3125 12.625V8.96219C15.7427 9.76907 17.3578 10.1912 19 10.1875C19.1491 10.1875 19.2922 10.1282 19.3977 10.0227C19.5032 9.91726 19.5625 9.77418 19.5625 9.625V5.875C19.5625 5.72582 19.5032 5.58274 19.3977 5.47725C19.2922 5.37176 19.1491 5.3125 19 5.3125ZM18.4375 9.04412C16.8661 8.94314 15.3552 8.40073 14.0784 7.47925C13.9943 7.41883 13.8953 7.38276 13.7921 7.37501C13.6889 7.36726 13.5855 7.38813 13.4934 7.43534C13.4013 7.48254 13.324 7.55423 13.27 7.64253C13.2161 7.73083 13.1875 7.83232 13.1875 7.93581V12.625C13.187 13.7017 12.8875 14.7571 12.3224 15.6735C11.7572 16.59 10.9487 17.3315 9.98678 17.8153C9.02491 18.2991 7.94757 18.5062 6.87487 18.4136C5.80217 18.3209 4.77628 17.9322 3.9116 17.2906C3.04691 16.6491 2.37741 15.78 1.97774 14.7802C1.57808 13.7804 1.46396 12.6893 1.64811 11.6285C1.83226 10.5677 2.30744 9.57883 3.02067 8.77225C3.7339 7.96568 4.65715 7.37306 5.68746 7.06047V9.92078C5.21672 10.2145 4.83081 10.6261 4.56792 11.1148C4.30502 11.6034 4.17424 12.1522 4.18852 12.7069C4.20279 13.2616 4.36162 13.803 4.6493 14.2775C4.93698 14.752 5.34354 15.1432 5.82877 15.4123C6.314 15.6815 6.86109 15.8193 7.41593 15.8122C7.97077 15.805 8.51414 15.6532 8.99229 15.3717C9.47044 15.0901 9.86682 14.6886 10.1422 14.2069C10.4176 13.7252 10.5625 13.1799 10.5625 12.625V1.1875H13.2145C13.3467 2.52779 13.9395 3.78078 14.8918 4.73311C15.8442 5.68544 17.0972 6.27822 18.4375 6.4105V9.04412Z" fill="#083461"/>
</svg>
