<svg width="22" height="19" viewBox="0 0 22 19" fill="none" xmlns="http://www.w3.org/2000/svg">
<path d="M21.1929 3.46283C21.1362 3.3258 21.04 3.20868 20.9167 3.12627C20.7934 3.04387 20.6484 2.99989 20.5 2.9999H17.6479C17.3053 2.40352 16.83 1.89398 16.259 1.51069C15.6879 1.1274 15.0363 0.880645 14.3546 0.789522C13.6729 0.698398 12.9793 0.765349 12.3276 0.985194C11.6759 1.20504 11.0836 1.57188 10.5964 2.05733C10.1704 2.47277 9.83191 2.9692 9.6007 3.51741C9.36948 4.06562 9.25025 4.65454 9.25003 5.24952L9.24956 5.82327C5.43431 4.82924 2.31337 1.75246 2.28037 1.71946C2.18359 1.62267 2.06217 1.55422 1.92926 1.52151C1.79636 1.4888 1.65704 1.49308 1.52639 1.53389C1.39575 1.57471 1.27876 1.65049 1.18811 1.75304C1.09746 1.85558 1.0366 1.98098 1.01212 2.11565C0.189463 6.64049 1.54865 9.66936 2.83368 11.4135C3.48022 12.2929 4.26278 13.0637 5.15193 13.6968C3.72253 15.314 1.51087 16.1634 1.48678 16.1725C1.381 16.2122 1.28555 16.2753 1.20756 16.357C1.12956 16.4387 1.07104 16.537 1.03637 16.6445C1.00169 16.7521 0.99175 16.866 1.00729 16.9779C1.02283 17.0898 1.06345 17.1968 1.12612 17.2908C1.19596 17.3958 1.47749 17.7645 2.16468 18.1081C3.01621 18.534 4.1384 18.7499 5.50003 18.7499C12.113 18.7499 17.6378 13.6595 18.2025 7.10812L21.0304 4.28024C21.1353 4.17534 21.2067 4.04169 21.2356 3.89619C21.2646 3.7507 21.2497 3.59988 21.1929 3.46283ZM16.9451 6.24421C16.8161 6.37319 16.7386 6.54478 16.727 6.72683C16.351 12.6276 11.4196 17.2499 5.50003 17.2499C4.50984 17.2499 3.80821 17.1186 3.32287 16.9611C4.40259 16.3751 5.90681 15.3668 6.87412 13.916C6.9327 13.8276 6.97191 13.7278 6.98919 13.6232C7.00647 13.5185 7.00143 13.4114 6.97439 13.3089C6.94735 13.2064 6.89893 13.1107 6.8323 13.0282C6.76568 12.9457 6.68235 12.8783 6.58781 12.8302C6.57393 12.8232 5.18746 12.1058 3.99965 10.4667C2.64862 8.60221 2.08059 6.34583 2.30437 3.74465C3.78374 4.95908 6.61968 6.94696 9.87543 7.48968C9.98282 7.50757 10.0928 7.50187 10.1978 7.47298C10.3027 7.44409 10.4001 7.39269 10.4832 7.32236C10.5663 7.25202 10.6331 7.16444 10.679 7.0657C10.7248 6.96696 10.7486 6.85942 10.7487 6.75055L10.75 5.25083V5.25008C10.7579 4.45024 11.0818 3.68598 11.651 3.12398C12.2202 2.56198 12.9885 2.24784 13.7884 2.25008C14.3656 2.25807 14.9283 2.43205 15.4092 2.75124C15.8902 3.07042 16.2691 3.52133 16.5007 4.05008C16.5591 4.18375 16.6552 4.2975 16.7773 4.37739C16.8993 4.45728 17.042 4.49986 17.1878 4.4999H18.6893L16.9451 6.24421Z" fill="#42A5F5"/>
</svg>
