<svg width="24" height="24" viewBox="0 0 24 24" fill="none" xmlns="http://www.w3.org/2000/svg">
<path d="M19.0726 4.9108C21.0242 6.85133 22 9.19092 22 11.9296C22 14.6682 21.0242 17.0078 19.0726 18.9484C17.121 20.8889 14.7713 21.8592 12.0234 21.8592C10.3372 21.8592 8.76034 21.4523 7.29274 20.6385L2 22L3.40515 16.8826C2.53084 15.349 2.09368 13.6901 2.09368 11.9061C2.09368 9.1831 3.06167 6.85133 4.99766 4.9108C6.93365 2.97027 9.27557 2 12.0234 2C14.7713 2 17.121 2.97027 19.0726 4.9108ZM12.0234 20.169C14.3029 20.169 16.2545 19.3631 17.8782 17.7512C19.502 16.1393 20.3138 14.1909 20.3138 11.9061C20.3138 9.62128 19.502 7.67293 17.8782 6.06103C16.2545 4.44914 14.3029 3.64319 12.0234 3.64319C9.74395 3.64319 7.80016 4.44914 6.19204 6.06103C4.58392 7.67293 3.77986 9.62128 3.77986 11.9061C3.77986 13.5023 4.20141 14.9734 5.0445 16.3192L5.23185 16.6009L4.38876 19.6526L7.52693 18.8545L7.80796 18.9953C9.11944 19.7778 10.5246 20.169 12.0234 20.169ZM16.5667 13.9718C16.8478 14.1283 17.0039 14.2379 17.0351 14.3005C17.16 14.4883 17.1132 14.8795 16.8946 15.4742C16.8009 15.7246 16.5667 15.9671 16.192 16.2019C15.8173 16.4366 15.4895 16.5853 15.2084 16.6479C14.6464 16.7105 14.1311 16.6792 13.6628 16.554C13.1319 16.3662 12.6635 16.1941 12.2576 16.0376C12.0078 15.9124 11.7658 15.7793 11.5316 15.6385C11.2974 15.4977 11.071 15.3568 10.8525 15.216C10.6339 15.0751 10.4309 14.9264 10.2436 14.77C10.0562 14.6135 9.87666 14.457 9.70492 14.3005C9.53318 14.144 9.36924 13.9797 9.21311 13.8075C9.05699 13.6354 8.92428 13.4867 8.81499 13.3615C8.7057 13.2363 8.59641 13.1033 8.48712 12.9624C8.37783 12.8216 8.29196 12.7121 8.22951 12.6338C8.16706 12.5556 8.11241 12.4773 8.06557 12.3991L7.99532 12.2817C7.30835 11.374 6.96487 10.5133 6.96487 9.69953C6.96487 8.94836 7.26151 8.25978 7.8548 7.6338C8.04215 7.41471 8.26073 7.30516 8.51054 7.30516C8.69789 7.30516 8.85402 7.32081 8.97892 7.35211C9.22873 7.35211 9.41608 7.49296 9.54098 7.77465C9.60343 7.86854 9.69711 8.07199 9.82201 8.38498L10.1499 9.20657L10.2904 9.60563C10.3841 9.76213 10.3997 9.90297 10.3372 10.0282C10.2436 10.2473 10.1655 10.3881 10.103 10.4507L9.96253 10.5915L9.82201 10.7559L9.72834 10.8732C9.54098 11.061 9.49414 11.2332 9.58782 11.3897C9.99375 12.0782 10.4621 12.6573 10.993 13.1268C11.3989 13.471 12.0703 13.8779 13.007 14.3474C13.2256 14.4413 13.3973 14.4257 13.5222 14.3005C13.897 13.831 14.1624 13.5023 14.3185 13.3146C14.4434 13.1268 14.6308 13.0798 14.8806 13.1737C15.0679 13.2676 15.63 13.5336 16.5667 13.9718Z" fill="#1FB767"/>
</svg>
