<svg width="276" height="190" viewBox="0 0 276 190" fill="none" xmlns="http://www.w3.org/2000/svg">
<path d="M231.599 175.49H51.4848C51.4848 175.49 1.78813 177.246 7.11487 138.437C10.4514 114.027 28.5974 109.52 30.6462 99.6276C32.6949 89.7351 23.9146 81.8328 25.8462 66.9062C27.3682 55.2576 43.6411 41.6774 75.7771 45.892C107.913 50.165 110.606 14.6925 133.961 7.49263C156.849 0.409826 191.853 7.49263 203.443 33.7751C223.17 78.5548 238.389 82.0669 252.906 88.9741C279.949 101.793 270.291 171.099 231.599 175.49Z" fill="#EFF2F3"/>
<path d="M244.605 71.8374C247.98 68.7268 246.633 61.7724 241.595 56.3043C236.556 50.8362 229.735 48.9251 226.359 52.0357C222.983 55.1463 224.331 62.1007 229.369 67.5688C234.408 73.0368 241.229 74.948 244.605 71.8374Z" fill="#EFF2F3"/>
<path d="M96.3716 35.3911C101.103 30.2558 102.356 23.7133 99.1706 20.778C95.9849 17.8426 89.5666 19.6259 84.8349 24.7612C80.1033 29.8964 78.8501 36.4389 82.0359 39.3743C85.2216 42.3096 91.6399 40.5263 96.3716 35.3911Z" fill="#EFF2F3"/>
<path d="M52.2459 175.49C52.2459 175.49 2.25653 168.466 4.65648 139.607C6.64669 115.842 24.3244 111.628 26.3146 102.028C28.3048 92.4278 19.8172 84.7597 21.6318 70.3599C23.0952 59.1211 38.8412 45.8921 69.9822 50.0481C101.065 54.1456 114.176 19.8438 136.83 12.8195C159.015 5.97084 187.639 12.8195 198.877 38.2239C218.019 81.5988 227.501 84.9938 241.55 91.6669C267.774 104.135 266.837 152.837 229.784 175.49" stroke="#E6E8E8" stroke-miterlimit="10"/>
<path d="M44.2263 90.0278C44.6946 90.0278 45.1629 90.1448 45.6312 90.2619C46.4506 87.218 49.2604 84.9352 52.5969 84.9352C53.4749 84.9352 54.2944 85.1108 55.1139 85.4034C56.5773 81.423 60.3821 78.5548 64.9479 78.5548C69.6307 78.5548 73.6111 81.5986 74.8989 85.7547C75.894 85.2278 77.0062 84.9352 78.1769 84.9352C82.1573 84.9352 85.3768 88.0961 85.3768 92.018C85.3768 95.9398 82.1573 99.1008 78.1769 99.1008C78.0013 99.1008 77.8842 99.1008 77.7086 99.1008C77.6501 99.1008 77.5915 99.1008 77.4745 99.1008H44.6361C44.5775 99.1008 44.519 99.1008 44.4019 99.1008C44.3434 99.1008 44.2848 99.1008 44.1678 99.1008C41.5922 99.1008 39.5435 97.052 39.5435 94.535C39.602 92.0765 41.6507 90.0278 44.2263 90.0278Z" fill="#E0E0E0"/>
<path d="M199.287 47.3554C198.994 47.3554 198.702 47.4139 198.409 47.4725C197.882 45.5408 196.126 44.1359 194.077 44.1359C193.55 44.1359 193.024 44.253 192.497 44.4286C191.619 41.9116 189.219 40.1555 186.351 40.1555C183.424 40.1555 180.965 42.0287 180.146 44.6628C179.502 44.3701 178.799 44.1945 178.097 44.1945C175.639 44.1945 173.59 46.1847 173.59 48.6432C173.59 51.1017 175.58 53.0919 178.097 53.0919C178.214 53.0919 178.273 53.0919 178.39 53.0919C178.448 53.0919 178.507 53.0919 178.507 53.0919H198.994C199.053 53.0919 199.111 53.0919 199.111 53.0919C199.17 53.0919 199.228 53.0919 199.228 53.0919C200.809 53.0919 202.097 51.8041 202.097 50.2236C202.155 48.6432 200.867 47.3554 199.287 47.3554Z" fill="#E0E0E0"/>
<path d="M245.413 116.545C245.062 116.545 244.711 116.603 244.418 116.72C243.833 114.437 241.725 112.798 239.267 112.798C238.623 112.798 237.979 112.915 237.452 113.149C236.399 110.223 233.53 108.057 230.194 108.057C226.74 108.057 223.814 110.281 222.818 113.384C222.057 113.032 221.238 112.798 220.36 112.798C217.433 112.798 215.033 115.14 215.033 118.066C215.033 120.993 217.433 123.335 220.36 123.335C220.477 123.335 220.594 123.335 220.711 123.335C220.77 123.335 220.828 123.335 220.887 123.335H245.179C245.238 123.335 245.296 123.335 245.355 123.335C245.413 123.335 245.472 123.335 245.53 123.335C247.403 123.335 248.925 121.813 248.925 119.94C248.808 118.066 247.286 116.545 245.413 116.545Z" fill="#E0E0E0"/>
<path d="M35.3873 174.846C36.4995 172.387 44.8701 167.061 44.1677 163.49C43.4652 159.919 39.6604 164.251 39.6019 161.675C39.5434 159.1 46.7432 153.656 45.6311 150.671C44.5189 147.744 40.3043 152.485 39.6019 149.324C38.8995 146.163 43.5823 139.607 42.997 135.861C41.8263 128.076 35.0947 131.412 34.2166 135.159C33.3386 138.905 36.6751 145.929 35.5044 148.973C34.3337 152.017 30.8801 146.69 29.2996 149.441C27.7192 152.193 33.9825 158.632 33.5727 161.149C33.163 163.666 30.0606 158.866 28.7728 162.319C27.5436 165.656 34.3337 171.978 35.2117 174.553C35.2117 174.963 35.2703 175.139 35.3288 174.963C35.3288 174.963 35.3288 174.963 35.3288 174.904C35.3288 174.963 35.3873 174.904 35.3873 174.846Z" fill="#7FD3A1"/>
<path d="M39.192 135.334C39.192 135.334 36.9091 150.553 36.4994 155.236C36.2067 158.924 35.8555 171.041 35.8555 171.041" fill="#77BF94"/>
<path d="M35.5047 174.846C38.7827 173.324 39.6022 158.163 35.8559 154.768C32.0511 151.315 31.4072 159.392 29.2414 156.524C27.0756 153.715 30.5292 141.481 26.8414 139.139C23.0951 136.798 22.3927 145.695 18.9391 142.71C15.4855 139.725 15.3099 128.486 11.5051 124.739C3.66135 116.954 -1.08003 126.378 1.02725 131.295C3.19306 136.212 12.7929 141.305 14.0221 145.754C15.2514 150.202 6.93934 147.041 7.46616 151.49C7.99297 155.939 20.461 157.871 22.0415 161.09C23.622 164.309 16.188 161.441 17.6513 166.358C19.0562 171.158 30.7048 174.904 34.5096 175.197C35.0949 175.256 35.6803 175.373 35.6218 175.08V175.021C35.5632 175.021 35.5632 174.963 35.5047 174.846Z" fill="#8BEAB1"/>
<path d="M6.64697 127.315C6.64697 127.315 16.7736 146.339 20.2858 151.958C23.0369 156.349 32.8124 170.222 32.8124 170.222" fill="#7DD3A0"/>
<path d="M210.76 109.637L210.116 111.569C207.95 118.125 200.809 121.754 194.194 119.588L153.044 106.008C146.488 103.842 142.858 96.7006 145.024 90.0861L147.717 81.8326C148.77 78.7302 152.107 77.0327 155.209 78.0278L202.623 93.6568C209.355 95.8812 212.925 103.022 210.76 109.637Z" fill="#05A4D6"/>
<path d="M157.141 175.724H111.718C107.445 175.724 103.933 171.685 103.933 166.768V86.9254C103.933 82.0084 107.913 80.3109 111.718 77.9695L120.323 74.2232H149.473L157.141 77.9695C161.649 80.7792 164.927 82.0084 164.927 86.9254V166.826C164.868 171.743 161.415 175.724 157.141 175.724Z" fill="#1A1450"/>
<path d="M145.727 79.0818L123.542 79.3159C122.079 79.3159 120.85 78.1452 120.85 76.6233L120.557 47.5311C120.557 45.8336 121.962 44.3702 123.66 44.3702L144.966 44.1946C146.664 44.1946 148.127 45.5995 148.127 47.297L148.42 76.3892C148.42 77.8526 147.191 79.0818 145.727 79.0818Z" fill="#FDBDA5"/>
<path d="M120.615 74.3404C120.615 74.3404 134.02 85.1694 148.186 73.8135C148.186 73.8135 151.346 73.8721 149.883 78.672C148.42 83.4719 141.864 84.2914 134.313 84.6426C122.957 85.228 119.152 79.4329 119.152 79.4329C119.152 79.4329 118.625 75.2184 120.615 74.3404Z" fill="#12103A"/>
<path d="M120.615 72.0576C120.615 72.0576 134.02 82.8867 148.186 71.5308C148.186 71.5308 151.346 71.5893 149.883 76.3892C148.42 81.1892 141.864 82.0086 134.313 82.3599C122.957 82.9452 119.152 77.1502 119.152 77.1502C119.152 77.1502 118.625 72.9356 120.615 72.0576Z" fill="#1A1450"/>
<path opacity="0.5" d="M148.127 47.297C148.127 45.5995 146.664 44.1946 144.966 44.1946L123.66 44.3702C121.962 44.3702 120.557 45.8336 120.557 47.5311L120.733 64.5064C124.479 69.7161 130.976 73.0526 137.591 72.76H138.352C142.684 72.5844 145.962 71.4136 148.303 69.0722L148.127 47.297Z" fill="#F99A89"/>
<path d="M138.31 50.7336C150.939 50.1891 160.778 40.4786 160.285 29.0447C159.792 17.6107 149.154 8.78318 136.525 9.32776C123.896 9.87233 114.058 19.5828 114.551 31.0167C115.044 42.4507 125.681 51.2782 138.31 50.7336Z" fill="#2A296D"/>
<path d="M142.918 68.4286H142.157C132.147 68.8383 122.43 60.9946 122.02 50.985L120.85 23.8245C120.674 19.7855 123.835 16.3905 127.815 16.2149L149.766 15.2198C153.805 15.0442 157.2 18.2051 157.376 22.1855C157.376 22.1855 159.308 42.6144 158.547 49.346C157.142 62.2238 152.986 67.9603 142.918 68.4286Z" fill="#FDBDA5"/>
<path d="M146.523 27.78C158.111 26.3959 166.883 20.0696 166.116 13.6498C165.349 7.23006 155.334 3.14788 143.746 4.532C132.159 5.91612 123.387 12.2424 124.154 18.6622C124.92 25.0819 134.936 29.1641 146.523 27.78Z" fill="#322B79"/>
<path d="M120.59 51.3229C123.409 50.6025 124.818 46.5906 123.738 42.362C122.657 38.1334 119.496 35.2895 116.677 36.0099C113.858 36.7303 112.448 40.7422 113.529 44.9708C114.609 49.1994 117.771 52.0434 120.59 51.3229Z" fill="#FDBDA5"/>
<path d="M119.838 49.8093C121.718 49.329 122.573 46.3243 121.748 43.098C120.924 39.8718 118.732 37.6457 116.853 38.126C114.973 38.6062 114.118 41.611 114.943 44.8372C115.767 48.0635 117.959 50.2896 119.838 49.8093Z" fill="#FDBDA5"/>
<path d="M117.279 40.6238C117.865 40.3311 118.45 40.3896 118.977 40.5067C119.562 40.6238 119.972 41.0335 120.44 41.4433C120.85 41.7945 121.201 42.3213 121.435 42.7896C121.669 43.3164 121.787 43.8432 121.845 44.37H121.728C121.494 43.9018 121.318 43.4335 120.967 43.0823C120.674 42.731 120.265 42.3798 119.855 42.1457C119.445 41.9115 118.977 41.853 118.567 41.5603C118.157 41.3262 117.748 41.092 117.279 40.6823V40.6238Z" fill="#E88582"/>
<path d="M135.634 26.5865C137.042 22.3874 133.264 17.3332 127.195 15.2977C121.126 13.2622 115.065 15.0161 113.657 19.2152C112.248 23.4144 116.026 28.4685 122.095 30.5041C128.164 32.5396 134.225 30.7856 135.634 26.5865Z" fill="#322B79"/>
<path d="M138.514 18.9995C146.297 14.5032 150.599 7.3862 148.124 3.10326C145.65 -1.17968 137.335 -1.0067 129.553 3.48963C121.771 7.98596 117.468 15.103 119.943 19.3859C122.418 23.6688 130.732 23.4958 138.514 18.9995Z" fill="#322B79"/>
<path d="M117.748 7.61002C117.045 8.0783 117.455 13.405 119.796 16.566L117.748 7.61002Z" fill="#322B79"/>
<path d="M114.879 13.8145C115.874 13.4048 119.796 14.4584 120.206 16.5072L114.879 13.8145Z" fill="#322B79"/>
<path d="M136.186 175.548L110.899 175.84C106.918 175.899 103.582 174.26 103.113 170.162L91.4648 85.9884L116.811 76.0373L136.186 175.548Z" fill="#00B0E9"/>
<path opacity="0.45" d="M96.8501 124.798C97.6111 124.213 104.167 110.925 104.167 110.925L99.0159 138.729L96.8501 124.798Z" fill="#3F79A8"/>
<path d="M105.397 80.1352C108.207 78.6133 116.284 75.8036 116.284 75.8036L117.455 80.2523L134.782 169.051L108.499 100.096L113.182 94.3008L101.299 82.5937C101.358 82.5351 102.06 81.8913 105.397 80.1352Z" fill="#00C2EF"/>
<path d="M150.586 176.368L170.312 175.197L170.254 86.3401L153.513 76.3305L150.586 176.368Z" fill="#00B0E9"/>
<path d="M160.01 79.4913C157.61 78.3791 153.161 76.1548 153.161 76.1548V80.1937L150.995 168.875L161.356 98.691L156.322 93.1301L163.873 81.1303C163.873 81.1303 162.878 80.8961 160.01 79.4913Z" fill="#00C2EF"/>
<path d="M61.4358 159.802L60.6749 159.334C54.4116 155.705 52.2458 147.627 55.875 141.364L84.2062 92.0766C87.8354 85.8133 96.5572 82.7695 102.82 86.3987L103.581 86.867C109.845 90.4962 107.796 106.008 104.167 112.271L79.4063 155.002C75.7771 161.266 67.6991 163.431 61.4358 159.802Z" fill="#05A4D6"/>
<path d="M58.0404 148.563C58.6257 141.773 64.6549 136.622 71.445 137.207L110.547 140.485C114.41 140.837 117.337 144.232 117.044 148.154L116.225 158.046C115.873 162.319 112.713 166.475 108.381 166.124L69.3377 162.027C62.6062 161.441 57.5136 155.412 58.0404 148.563Z" fill="#05A4D6"/>
<path d="M103.347 156.525L103.991 150.144C104.752 145.871 107.972 142.886 111.25 143.471C114.528 144.057 116.577 146.281 115.874 152.31L114.82 158.222C113.942 164.134 111.25 165.598 107.972 165.012C104.635 164.485 102.996 162.495 103.347 156.525Z" fill="#3F79A8"/>
<path d="M203.209 116.135L201.453 116.603C195.483 118.301 189.219 114.789 187.522 108.759L176.283 69.0723C175.346 65.7943 177.278 62.3407 180.556 61.4627L191.444 58.4189C195.073 57.3652 198.936 59.531 199.931 63.1602L210.936 102.262C212.692 108.174 209.18 114.437 203.209 116.135Z" fill="#05A4D6"/>
<path d="M192.38 68.8382L186.292 71.1211C182.077 72.4675 177.98 71.2967 177.16 68.5456C176.282 65.7944 177.453 63.2774 183.248 61.1116L189.102 59.297C194.838 57.3653 196.945 59.0043 197.765 61.7554H197.706C198.584 64.6237 197.94 66.4968 192.38 68.8382Z" fill="#3F79A8"/>
<path d="M182.663 71.7063C182.136 71.6478 180.848 64.9748 180.848 64.9748C180.848 64.9748 178.624 58.77 176.926 57.5993C175.697 56.7798 171.717 56.4286 171.19 55.9017C169.726 54.3798 164.107 48.8189 164.107 48.8189L164.224 33.7168C164.224 33.7168 167.151 30.9071 168.029 30.3802C168.907 29.8534 174.058 28.2144 175.112 27.8632C176.516 27.3949 179.151 29.151 180.029 30.4973C180.907 31.7851 188.165 47.6482 188.867 51.8628C189.57 56.0773 194.077 68.0771 194.077 68.0771C194.077 68.0771 185.648 72.1746 182.663 71.7063Z" fill="#FDBDA5"/>
<path opacity="0.45" d="M176.81 85.2279L181.375 86.6913L187.287 105.13L176.81 85.2279Z" fill="#3F79A8"/>
<path d="M162 47.2969C167.787 47.2969 172.478 44.4403 172.478 40.9166C172.478 37.3928 167.787 34.5362 162 34.5362C156.213 34.5362 151.522 37.3928 151.522 40.9166C151.522 44.4403 156.213 47.2969 162 47.2969Z" fill="#0A60DB"/>
<path d="M172.36 51.4529H167.268C161.941 51.4529 157.551 47.0628 157.551 41.736V40.1556C157.551 34.8288 161.941 30.4387 167.268 30.4387H172.36C177.687 30.4387 182.077 34.8288 182.077 40.1556V41.736C182.077 47.1213 177.687 51.4529 172.36 51.4529Z" fill="#0D548E"/>
<path d="M173.531 51.4529H168.439C163.112 51.4529 158.722 47.0628 158.722 41.736V40.1556C158.722 34.8288 163.112 30.4387 168.439 30.4387H173.531C178.858 30.4387 183.248 34.8288 183.248 40.1556V41.736C183.248 47.1213 178.858 51.4529 173.531 51.4529Z" fill="#0A60DB"/>
<path d="M174.058 51.1601C179.198 51.1601 183.365 46.5476 183.365 40.8578C183.365 35.168 179.198 30.5556 174.058 30.5556C168.918 30.5556 164.751 35.168 164.751 40.8578C164.751 46.5476 168.918 51.1601 174.058 51.1601Z" fill="#89BAFF"/>
<path d="M174.468 49.2285C178.573 49.2285 181.902 45.4546 181.902 40.7993C181.902 36.1441 178.573 32.3702 174.468 32.3702C170.362 32.3702 167.034 36.1441 167.034 40.7993C167.034 45.4546 170.362 49.2285 174.468 49.2285Z" fill="#CBE2FE"/>
<path d="M174.468 32.3702C174.234 32.3702 173.941 32.3702 173.707 32.4288C177.453 32.8385 180.38 36.4677 180.38 40.7993C180.38 45.131 177.453 48.7602 173.707 49.1699C173.941 49.1699 174.234 49.2285 174.468 49.2285C178.566 49.2285 181.902 45.4822 181.902 40.7993C181.902 36.1165 178.566 32.3702 174.468 32.3702Z" fill="#323542"/>
<path d="M171.132 38.6925C171.552 38.6925 171.893 38.3518 171.893 37.9315C171.893 37.5113 171.552 37.1706 171.132 37.1706C170.711 37.1706 170.371 37.5113 170.371 37.9315C170.371 38.3518 170.711 38.6925 171.132 38.6925Z" fill="white"/>
<path d="M177.102 42.6725C178.201 42.6725 179.092 41.7814 179.092 40.6823C179.092 39.5831 178.201 38.6921 177.102 38.6921C176.003 38.6921 175.112 39.5831 175.112 40.6823C175.112 41.7814 176.003 42.6725 177.102 42.6725Z" fill="white"/>
<path d="M142.625 47.2969C148.412 47.2969 153.103 44.4403 153.103 40.9165C153.103 37.3928 148.412 34.5362 142.625 34.5362C136.838 34.5362 132.147 37.3928 132.147 40.9165C132.147 44.4403 136.838 47.2969 142.625 47.2969Z" fill="#0A60DB"/>
<path d="M152.985 51.4529H147.893C142.566 51.4529 138.176 47.0628 138.176 41.736V40.1556C138.176 34.8288 142.566 30.4387 147.893 30.4387H152.985C158.312 30.4387 162.702 34.8288 162.702 40.1556V41.736C162.702 47.1213 158.312 51.4529 152.985 51.4529Z" fill="#0D548E"/>
<path d="M154.098 51.4529H149.005C143.679 51.4529 139.289 47.0628 139.289 41.736V40.1556C139.289 34.8288 143.679 30.4387 149.005 30.4387H154.098C159.425 30.4387 163.815 34.8288 163.815 40.1556V41.736C163.815 47.1213 159.483 51.4529 154.098 51.4529Z" fill="#0A60DB"/>
<path d="M154.625 51.16C159.765 51.16 163.932 46.5476 163.932 40.8578C163.932 35.168 159.765 30.5555 154.625 30.5555C149.484 30.5555 145.317 35.168 145.317 40.8578C145.317 46.5476 149.484 51.16 154.625 51.16Z" fill="#89BAFF"/>
<path d="M155.035 49.2285C159.14 49.2285 162.469 45.4546 162.469 40.7993C162.469 36.1441 159.14 32.3702 155.035 32.3702C150.929 32.3702 147.601 36.1441 147.601 40.7993C147.601 45.4546 150.929 49.2285 155.035 49.2285Z" fill="#CBE2FE"/>
<path d="M155.034 32.3702C154.8 32.3702 154.507 32.3702 154.273 32.4288C158.019 32.8385 160.946 36.4677 160.946 40.7993C160.946 45.131 158.019 48.7602 154.273 49.1699C154.507 49.1699 154.8 49.2285 155.034 49.2285C159.131 49.2285 162.468 45.4822 162.468 40.7993C162.468 36.1165 159.131 32.3702 155.034 32.3702Z" fill="#323542"/>
<path d="M151.698 38.6925C152.118 38.6925 152.459 38.3518 152.459 37.9315C152.459 37.5112 152.118 37.1705 151.698 37.1705C151.278 37.1705 150.937 37.5112 150.937 37.9315C150.937 38.3518 151.278 38.6925 151.698 38.6925Z" fill="white"/>
<path d="M157.668 42.6725C158.767 42.6725 159.658 41.7814 159.658 40.6823C159.658 39.5831 158.767 38.6921 157.668 38.6921C156.569 38.6921 155.678 39.5831 155.678 40.6823C155.678 41.7814 156.569 42.6725 157.668 42.6725Z" fill="white"/>
<path opacity="0.25" d="M170.136 120.642L166.624 110.047L170.253 111.627L170.136 120.642Z" fill="#3F79A8"/>
<path d="M119.912 103.433L145.609 116.837V189.889L119.912 175.665V103.433Z" fill="#E8B04B"/>
<path d="M171.365 103.433L145.609 116.837V189.889L171.365 175.256V103.433Z" fill="#F7CC46"/>
<path d="M171.365 103.433L197.121 116.837V189.889L171.365 175.665V103.433Z" fill="#E8B04B"/>
<path d="M222.817 103.433L197.12 116.837V189.889L222.817 175.665V103.433Z" fill="#F7CC46"/>
<path d="M103.698 159.509C103.698 159.509 103.815 151.549 105.045 149.441C106.332 147.334 114.059 135.978 114.761 134.69C115.464 133.403 116.518 131.178 119.503 131.295C122.488 131.412 126.82 129.598 126.82 129.598C126.82 129.598 136.185 130.183 138.293 131.881C140.459 133.52 135.717 134.047 134.254 133.754C133.083 133.52 127.054 133.051 125.122 134.573C125.122 134.573 139.815 136.798 140.751 137.559C141.688 138.261 140.107 139.9 139.463 139.9C134.898 139.724 124.127 139.081 123.366 139.315C122.605 139.549 139.463 141.949 139.463 141.949C139.463 141.949 140.224 144.466 137.473 144.7C134.722 144.934 123.6 143.763 123.6 143.763L136.185 145.988C136.185 145.988 136.771 148.154 134.488 148.212C132.147 148.271 124.127 147.919 122.605 148.68C121.025 149.441 117.688 156.231 112.537 157.402C107.386 158.456 104.225 159.568 103.698 159.509Z" fill="#FDBDA5"/>
<path d="M240.613 174.904C239.501 172.446 231.131 167.119 231.833 163.548C232.536 159.978 236.34 164.309 236.399 161.734C236.457 159.158 229.258 153.714 230.37 150.729C231.482 147.802 235.696 152.544 236.399 149.383C237.101 146.222 232.418 139.666 233.004 135.92C234.175 128.134 240.906 131.471 241.784 135.217C242.662 138.963 239.326 145.988 240.496 149.032C241.667 152.075 245.121 146.749 246.701 149.5C248.282 152.251 242.018 158.69 242.428 161.207C242.896 163.724 245.94 158.924 247.228 162.378C248.457 165.714 241.667 172.036 240.789 174.612C240.789 175.021 240.731 175.197 240.672 175.021C240.672 175.021 240.672 175.021 240.672 174.963C240.672 175.021 240.672 174.963 240.613 174.904Z" fill="#7FD3A1"/>
<path d="M236.867 135.392C236.867 135.392 239.15 150.612 239.559 155.295C239.852 158.982 240.203 171.099 240.203 171.099" fill="#77BF94"/>
<path d="M240.496 174.904C237.218 173.382 236.399 158.222 240.145 154.827C243.95 151.373 244.594 159.451 246.76 156.583C248.925 153.773 245.472 141.539 249.16 139.198C252.906 136.856 253.608 145.754 257.062 142.768C260.515 139.783 260.691 128.544 264.496 124.798C272.34 117.013 277.081 126.437 274.974 131.354C272.808 136.271 263.208 141.363 261.979 145.812C260.75 150.202 269.062 147.1 268.535 151.549C268.008 155.997 255.54 157.929 253.959 161.148C252.379 164.368 259.813 161.5 258.35 166.417C256.945 171.217 245.296 174.963 241.491 175.256C240.906 175.314 240.321 175.431 240.379 175.138V175.08C240.496 175.021 240.496 175.021 240.496 174.904Z" fill="#8BEAB1"/>
<path d="M269.354 127.373C269.354 127.373 259.227 146.397 255.715 152.017C252.964 156.407 243.188 170.28 243.188 170.28" fill="#7DD3A0"/>
</svg>
