<svg width="200" height="130" viewBox="0 0 200 130" fill="none" xmlns="http://www.w3.org/2000/svg">
<g clip-path="url(#clip0_7967_30729)">
<path d="M172.363 129.174H36.5781C36.5781 129.174 -0.887458 130.498 3.12828 101.241C5.64364 82.839 19.3236 79.4411 20.8681 71.9833C22.4127 64.5255 15.7933 58.5681 17.2496 47.3152C18.3969 38.5335 30.6648 28.2956 54.8916 31.4729C79.1184 34.6943 81.1484 7.9521 98.7558 2.52423C116.01 -2.81538 142.399 2.52423 151.137 22.3382C166.008 56.0968 177.482 58.7446 188.426 63.9518C208.814 73.6161 201.532 125.865 172.363 129.174Z" fill="#EFF2F3"/>
<path d="M37.1518 129.175C37.1518 129.175 -0.534347 123.879 1.27494 102.123C2.77533 84.2071 16.1023 81.0298 17.6027 73.7926C19.1031 66.5555 12.7044 60.7746 14.0724 49.9189C15.1756 41.4461 27.0463 31.4729 50.5229 34.6061C73.9554 37.6951 83.8403 11.8355 100.918 6.54005C117.643 1.37696 139.222 6.54005 147.695 25.692C162.125 58.3916 169.274 60.9511 179.865 65.9818C199.635 75.3813 198.929 112.097 170.995 129.175" stroke="#E6E8E8" stroke-width="0.755768" stroke-miterlimit="10"/>
<g clip-path="url(#clip1_7967_30729)">
<path d="M135.669 118.526L67.0491 119.023C66.5351 119.023 66.0211 118.526 66.0211 118.029L65.25 27.826C65.25 27.329 65.7641 26.832 66.2781 26.832L134.898 26.335C135.412 26.335 135.926 26.832 135.926 27.329L136.697 117.532C136.697 118.029 136.183 118.526 135.669 118.526Z" fill="#0079A4"/>
<path d="M131.438 116.098L64.8162 116.597C64.3171 116.597 63.8181 116.098 63.8181 115.599L63.3191 25.0237C63.3191 24.5247 63.8181 24.0256 64.3171 24.0256L130.689 23.5266C131.188 23.5266 131.687 24.0256 131.687 24.5247L132.436 115.1C132.436 115.599 131.937 116.098 131.438 116.098Z" fill="#24B1E7"/>
<path d="M87.702 47.4061L68.0811 47.576C67.7211 47.576 67.3611 47.2361 67.3611 46.8963L67.1811 27.1847C67.1811 26.8448 67.5411 26.505 67.9011 26.505L87.5219 26.3351C87.882 26.3351 88.242 26.6749 88.242 27.0148L88.422 46.7263C88.422 47.0662 88.062 47.4061 87.702 47.4061Z" fill="#0079A4"/>
<path d="M76.2499 41.7826C76.0019 41.7826 75.754 41.7826 75.754 41.7826H75.2581C73.0266 41.7826 71.291 39.8283 71.291 37.3157V31.1737C71.291 30.6154 71.5389 30.3362 72.0348 30.3362C72.5307 30.3362 72.7787 30.6154 72.7787 31.1737V37.3157C72.7787 38.7116 73.7704 39.8283 75.0102 39.8283H75.506C76.4978 39.8283 77.2417 38.9907 77.2417 37.874V22.24C77.2417 21.1232 76.4978 20.2857 75.2581 20.2857H74.5143C73.5225 20.2857 72.5307 21.4024 72.5307 22.5191V22.7983C72.5307 23.3567 72.2828 23.6359 71.7869 23.6359C71.291 23.6359 71.043 23.3567 71.043 22.7983V22.5191C71.043 20.2857 72.5307 18.6106 74.5143 18.6106H75.2581C77.2417 18.6106 78.7293 20.2857 78.7293 22.5191V38.1532C78.9773 40.1075 77.9855 41.5034 76.2499 41.7826Z" fill="#FDBE21"/>
<path d="M137.314 74.8894H88.4218C85.4602 74.8894 82.9922 72.4214 82.9922 69.4598V66.0047C82.9922 63.0431 80.5243 60.5752 77.5627 60.5752H63.7686C60.807 60.5752 58.3391 63.0431 58.3391 66.0047V80.0721V96.3606V122.768C58.3391 125.483 60.5602 127.951 63.5218 127.951H137.561C140.275 127.951 142.743 125.729 142.743 122.768V80.0721C142.497 77.3573 140.029 74.8894 137.314 74.8894Z" fill="#BA831D"/>
<path d="M132.625 74.8894H89.6822C86.7206 74.8894 84.2527 72.4214 84.2527 69.4598V66.0047C84.2527 63.0431 81.7847 60.5752 78.8232 60.5752H59.0795C56.1179 60.5752 53.65 63.0431 53.65 66.0047V80.0721V96.3606V122.768C53.65 125.483 55.8711 127.951 58.8327 127.951H132.872C135.586 127.951 138.054 125.729 138.054 122.768V80.0721C137.807 77.3573 135.339 74.8894 132.625 74.8894Z" fill="#FDBE21"/>
<path d="M132.625 74.8894H89.6822C86.7206 74.8894 84.2527 72.4214 84.2527 69.4598V66.0047C84.2527 63.0431 81.7847 60.5752 78.8232 60.5752H59.0795C56.1179 60.5752 53.65 63.0431 53.65 66.0047V80.0721V96.3606V122.768C53.65 125.483 55.8711 127.951 58.8327 127.951H132.872C135.586 127.951 138.054 125.729 138.054 122.768V80.0721C137.807 77.3573 135.339 74.8894 132.625 74.8894Z" fill="#FDBE21"/>
<path opacity="0.45" d="M123.912 95.9584C140.159 95.9584 153.331 83.2008 153.331 67.4636C153.331 51.7264 140.159 38.9688 123.912 38.9688C107.665 38.9688 94.4938 51.7264 94.4938 67.4636C94.4938 83.2008 107.665 95.9584 123.912 95.9584Z" fill="white"/>
<path opacity="0.5" d="M100.868 69.601C99.8872 69.601 98.9066 68.8887 98.9066 67.7014C98.9066 53.454 110.919 41.5811 125.873 41.5811C126.854 41.5811 127.835 42.2935 127.835 43.4808C127.835 44.4306 127.099 45.3805 125.873 45.3805C113.125 45.3805 102.584 55.3536 102.829 67.9388C102.584 68.6512 101.848 69.601 100.868 69.601Z" fill="white"/>
<path d="M122.815 97.2071C106.501 97.2071 93.0668 82.4692 93.0668 66.4678C93.0668 50.6983 106.261 37.7117 122.815 37.7117C139.128 37.7117 153.554 50.4664 153.554 66.4678C153.554 82.2373 139.128 97.2071 122.815 97.2071ZM122.815 40.6864C107.461 40.6864 96.0416 51.6259 96.0416 66.4678C96.0416 81.3097 107.461 93.3687 122.815 93.3687C138.168 93.3687 150.643 81.3097 150.643 66.4678C150.643 51.6259 138.168 40.6864 122.815 40.6864Z" fill="#00813B"/>
<path d="M150.879 87.885C150.879 87.885 151.124 87.885 150.879 87.885C155.537 82.186 158.234 75.0623 158.234 67.4637C158.234 49.1796 142.789 34.2198 123.912 34.2198C105.035 34.2198 89.5908 49.1796 89.5908 67.4637C89.5908 85.7479 105.035 100.708 123.912 100.708C131.757 100.708 139.112 98.0956 144.75 93.8214L148.673 90.0221L150.879 87.885ZM123.912 95.9585C107.732 95.9585 94.4938 83.1358 94.4938 67.4637C94.4938 51.7916 107.732 38.9689 123.912 38.9689C140.092 38.9689 153.331 51.7916 153.331 67.4637C153.331 83.1358 140.092 95.9585 123.912 95.9585Z" fill="#099449"/>
<path d="M123.912 101.183C104.79 101.183 89.1004 85.9854 89.1004 67.4638C89.1004 48.9422 104.79 33.745 123.912 33.745C143.034 33.745 158.724 48.9422 158.724 67.4638C158.724 75.0624 156.272 82.1861 151.614 88.1226L145.486 94.059C138.866 98.8081 131.512 101.183 123.912 101.183ZM123.912 34.6948C105.281 34.6948 90.081 49.4171 90.081 67.4638C90.081 85.5105 105.281 100.233 123.912 100.233C131.512 100.233 138.621 97.8583 144.505 93.3466L150.634 87.4102C150.634 87.4102 150.634 87.4102 150.879 87.4102C155.537 81.7112 157.988 74.825 157.988 67.4638C157.743 49.4171 142.544 34.6948 123.912 34.6948ZM123.912 96.4335C107.487 96.4335 94.0035 83.3734 94.0035 67.4638C94.0035 51.5542 107.487 38.4941 123.912 38.4941C140.337 38.4941 153.821 51.5542 153.821 67.4638C153.821 83.3734 140.337 96.4335 123.912 96.4335ZM123.912 39.444C107.977 39.444 94.9841 52.0292 94.9841 67.4638C94.9841 82.8985 107.977 95.4837 123.912 95.4837C139.847 95.4837 152.84 82.8985 152.84 67.4638C152.84 52.0292 139.847 39.444 123.912 39.444Z" fill="#099449"/>
<path d="M150.143 93.1096L148.918 91.9223C148.427 91.4474 148.427 90.735 148.918 90.0227L144.995 93.822C144.505 94.2969 144.505 95.0092 144.995 95.7216L146.711 97.3838C146.956 96.434 148.427 94.7718 150.143 93.1096Z" fill="#0079A4"/>
<path d="M148.673 90.022C148.182 90.4969 148.182 91.2093 148.673 91.9217L149.898 93.109C151.614 91.4468 153.085 90.022 154.066 89.3097L152.595 87.8849C152.105 87.41 151.369 87.41 150.879 87.8849C150.879 87.8849 150.879 87.8849 150.634 87.8849L148.673 90.022Z" fill="#4C65BA"/>
<path d="M148.673 90.022C148.182 90.4969 148.182 91.2093 148.673 91.9217L149.898 93.109C151.614 91.4468 153.085 90.022 154.066 89.3097L152.595 87.8849C152.105 87.41 151.369 87.41 150.879 87.8849C150.879 87.8849 150.879 87.8849 150.634 87.8849L148.673 90.022Z" fill="#24B1E7"/>
<path d="M179.317 112.818L155.047 89.0723C155.047 89.0723 154.801 89.0723 154.311 89.3097C153.331 90.0221 151.614 91.4468 150.144 93.109C148.427 94.7712 146.957 96.4334 146.466 97.3832C146.221 97.6207 146.221 97.8582 146.221 97.8582L170.491 121.604C172.943 123.978 176.865 123.978 179.317 121.604C181.768 118.992 181.768 115.192 179.317 112.818Z" fill="#097035"/>
<path d="M179.317 112.818L155.047 89.0722C154.801 88.8348 151.86 91.2093 149.653 93.5839C147.692 95.4835 176.865 123.741 179.317 121.366C181.768 118.992 181.768 115.192 179.317 112.818Z" fill="#099449"/>
</g>
</g>
<defs>
<clipPath id="clip0_7967_30729">
<rect width="200" height="129.843" fill="white" transform="translate(0 0.0785217)"/>
</clipPath>
<clipPath id="clip1_7967_30729">
<rect width="130.89" height="111.058" fill="white" transform="translate(53.4031 17.8796)"/>
</clipPath>
</defs>
</svg>
