<svg width="32" height="32" viewBox="0 0 32 32" fill="none" xmlns="http://www.w3.org/2000/svg">
<path d="M2.31189 12.9818L7.37756 27.749C11.1289 27.8029 15.9207 27.722 15.9207 27.722C15.9207 27.722 16.0029 27.3717 16.0303 26.8058C16.085 26.0513 16.1124 24.9465 15.8386 23.7877C15.5648 22.602 14.9898 21.3894 13.8671 20.5001C13.8671 20.5001 14.4147 16.6467 13.1004 15.5957C13.1004 15.5957 13.8671 13.925 13.1004 13.0088C13.1278 12.9818 2.77738 12.2004 2.31189 12.9818Z" fill="#24B1E7"/>
<path fill-rule="evenodd" clip-rule="evenodd" d="M7.35022 28.3149H9.54078C12.374 28.3149 15.1645 28.2728 15.8098 28.263C15.8941 28.2618 15.9418 28.261 15.9482 28.261C16.1946 28.261 16.4137 28.0724 16.4684 27.8299C16.4684 27.8237 16.4728 27.8002 16.4802 27.7605C16.5049 27.6283 16.5632 27.3158 16.6053 26.8598C16.6875 25.728 16.6327 24.6501 16.4137 23.68C16.0851 22.2518 15.4553 21.12 14.4969 20.2846C14.6065 19.3415 14.7981 16.7006 13.785 15.461C14.004 14.8412 14.3052 13.5478 13.5659 12.6585C13.4564 12.5507 13.3195 12.4699 13.1826 12.4699C13.1788 12.4699 13.125 12.4662 13.0282 12.4596C12.43 12.4189 10.1878 12.2662 7.92524 12.1735C2.31193 11.9579 2.03811 12.389 1.84644 12.7393C1.76429 12.8741 1.73691 13.0358 1.79168 13.1705L6.82996 27.9377C6.91211 28.1532 7.13117 28.3149 7.35022 28.3149ZM15.4553 27.1831C14.2231 27.2101 10.7182 27.264 7.76095 27.237L3.02387 13.3052C4.3382 13.0627 8.77409 13.2244 12.854 13.5208C13.1278 14.0867 12.8266 15.0029 12.6623 15.3532C12.5528 15.5688 12.6076 15.8383 12.7992 16C13.5933 16.6467 13.5659 19.045 13.3743 20.4193C13.3469 20.608 13.429 20.7966 13.5659 20.9044C14.4695 21.605 15.0446 22.6021 15.3458 23.8955C15.5374 24.7309 15.5922 25.728 15.5101 26.752C15.4975 26.8261 15.4907 26.9003 15.4844 26.9692C15.4769 27.0506 15.4701 27.1248 15.4553 27.1831Z" fill="#24B1E7"/>
<path d="M2.91429 27.4527C3.02382 27.6683 4.99532 27.7491 7.35017 27.776L2.31188 12.9819C1.84639 13.7904 2.77738 23.0603 2.91429 24.3268C3.0512 25.5933 2.66785 26.9137 2.91429 27.4527Z" fill="#0079A4"/>
<path fill-rule="evenodd" clip-rule="evenodd" d="M2.44885 27.6952C2.61315 28.0455 2.72267 28.2611 7.37761 28.315C7.54191 28.315 7.7062 28.2341 7.81573 28.0724C7.92525 27.9377 7.95264 27.7491 7.89787 27.5874L2.8322 12.8472C2.75006 12.6316 2.58576 12.4969 2.36671 12.4699C2.14765 12.443 1.95598 12.5508 1.84645 12.7394C1.29881 13.7095 2.12027 21.9015 2.39409 24.4076C2.44885 24.9466 2.39409 25.5124 2.33933 26.0244C2.33681 26.0566 2.33429 26.0885 2.33181 26.12C2.28011 26.7744 2.23986 27.2838 2.44885 27.6952ZM6.61092 27.2101C4.5025 27.1832 3.68104 27.1023 3.37984 27.0484C3.3591 26.8647 3.3855 26.6037 3.41142 26.3473C3.41972 26.2653 3.42797 26.1837 3.4346 26.1053C3.44104 25.9724 3.45049 25.8365 3.46013 25.6979C3.49151 25.2467 3.52484 24.7677 3.46199 24.2729C3.18817 21.7129 2.88696 18.3983 2.77744 16.0539L6.61092 27.2101Z" fill="#0079A4"/>
<path d="M8.30857 10.2063C6.61089 10.6644 4.85844 9.69426 4.36557 8.02352C3.87269 6.35278 4.88582 4.62815 6.58351 4.17005C8.28119 3.71194 10.0336 4.68205 10.5265 6.35278C11.0194 8.02352 9.97888 9.74815 8.30857 10.2063Z" fill="#E19D20"/>
<ellipse cx="7.29935" cy="6.76022" rx="2.92657" ry="2.88686" transform="rotate(-15.6817 7.29935 6.76022)" fill="#E19D20"/>
<ellipse cx="7.81493" cy="7.07972" rx="2.48895" ry="2.45518" transform="rotate(-15.6817 7.81493 7.07972)" fill="#FDBE21"/>
<path fill-rule="evenodd" clip-rule="evenodd" d="M4.2286 7.59239C4.72148 9.26313 6.47393 10.2332 8.17161 9.77513C9.8693 9.29008 10.855 7.56545 10.3896 5.89471C9.89668 4.22397 8.14423 3.22692 6.44654 3.71197C4.74886 4.19703 3.73573 5.92166 4.2286 7.59239ZM4.74886 7.4307C4.36551 6.05639 5.18697 4.60123 6.58345 4.22397C8.00732 3.8467 9.45856 4.65513 9.84191 6.02944C10.2253 7.40376 9.4038 8.85891 8.00732 9.23618C6.61084 9.61344 5.13221 8.80502 4.74886 7.4307Z" fill="#FDBE21"/>
<path d="M29.16 8.15836L22.4514 27.776C17.4679 27.8299 11.0878 27.6952 11.0878 27.6952C11.0878 27.6952 10.9783 27.2371 10.9236 26.5095C10.8414 25.5125 10.814 24.0304 11.17 22.4944C11.526 20.9314 12.2927 19.2876 13.7713 18.1289C13.7713 18.1289 13.0594 13.0358 14.7844 11.6076C14.7844 11.6076 13.7439 9.39794 14.7844 8.1853C14.8118 8.15836 28.5302 7.10741 29.16 8.15836Z" fill="#099449"/>
<path fill-rule="evenodd" clip-rule="evenodd" d="M11.2035 28.2365C11.9781 28.2498 15.7635 28.3149 19.5489 28.3149H22.4514C22.6979 28.3149 22.8895 28.1532 22.9717 27.9377L29.6529 8.34693C29.7077 8.21219 29.6803 8.05051 29.5981 7.91577C29.3517 7.51156 29.0231 6.97262 21.6847 7.24209C18.6045 7.36143 15.5457 7.58649 14.868 7.63635C14.7806 7.64278 14.7328 7.6463 14.7297 7.6463C14.5654 7.6463 14.4285 7.72714 14.3463 7.83493C13.388 8.99367 13.8535 10.7183 14.1273 11.4728C12.7308 13.0627 13.032 16.7276 13.1689 17.8863C11.9094 18.9642 11.0605 20.4732 10.6224 22.3596C10.3486 23.6261 10.239 25.0274 10.376 26.5364C10.42 27.1434 10.4995 27.5761 10.5289 27.736C10.5361 27.7749 10.5403 27.7977 10.5403 27.8029C10.595 28.0455 10.8141 28.2341 11.0605 28.2341C11.0661 28.2341 11.1153 28.2349 11.2035 28.2365ZM22.0407 27.2101C17.9608 27.264 13.0594 27.1831 11.5534 27.1562C11.526 26.9676 11.4986 26.725 11.4986 26.4286C11.3891 25.0543 11.4439 23.7339 11.7177 22.5751C12.1284 20.8236 12.9225 19.4492 14.1273 18.5061C14.2642 18.3983 14.3464 18.2097 14.319 18.021C14.0451 16.1617 14.0451 12.901 15.1404 12.0118C15.3321 11.8501 15.3869 11.5806 15.2773 11.365C15.0583 10.853 14.6202 9.50567 15.0857 8.6703C20.7811 8.23914 26.9695 8.05051 28.4755 8.40083L22.0407 27.2101Z" fill="#099449"/>
<path d="M28.3385 27.3449C28.2016 27.6144 25.6003 27.7221 22.4514 27.776L29.16 8.1853C29.7898 9.23625 28.5302 21.5512 28.3659 23.2219C28.1743 24.8927 28.6945 26.6443 28.3385 27.3449Z" fill="#097035"/>
<path fill-rule="evenodd" clip-rule="evenodd" d="M22.0133 28.0994C22.1229 28.2341 22.2872 28.3149 22.4514 28.3149C28.5029 28.2341 28.6398 27.9646 28.8315 27.5874C29.0779 27.0754 29.0231 26.3747 28.941 25.4585C28.9354 25.3892 28.9294 25.3188 28.9234 25.2474C28.8711 24.6246 28.8125 23.9285 28.8862 23.2758C29.0505 21.8476 30.3922 9.20926 29.6255 7.91578C29.516 7.72715 29.3243 7.61936 29.1053 7.64631C28.8862 7.67326 28.7219 7.83494 28.6398 8.02357L21.9312 27.6143C21.8764 27.776 21.9038 27.9646 22.0133 28.0994ZM23.2181 27.2101L28.7493 10.9878C28.6672 14.0867 28.2291 19.2606 27.7909 23.141C27.7173 23.8899 27.7757 24.6388 27.828 25.31C27.8341 25.3875 27.84 25.464 27.8457 25.5394C27.9005 26.0514 27.9552 26.6442 27.9005 26.9406C27.5719 27.0215 26.504 27.1562 23.2181 27.2101Z" fill="#097035"/>
</svg>
