<svg width="58" height="58" viewBox="0 0 58 58" fill="none" xmlns="http://www.w3.org/2000/svg">
<rect width="58" height="58" rx="8" fill="#C3E9D0"/>
<path d="M39 20.6667H44C44.4421 20.6667 44.866 20.8423 45.1786 21.1548C45.4911 21.4674 45.6667 21.8913 45.6667 22.3333V42.3333C45.6667 42.7754 45.4911 43.1993 45.1786 43.5118C44.866 43.8244 44.4421 44 44 44H14C13.558 44 13.1341 43.8244 12.8215 43.5118C12.509 43.1993 12.3334 42.7754 12.3334 42.3333V15.6667C12.3334 15.2246 12.509 14.8007 12.8215 14.4882C13.1341 14.1756 13.558 14 14 14H39V20.6667ZM15.6667 24V40.6667H42.3334V24H15.6667ZM15.6667 17.3333V20.6667H35.6667V17.3333H15.6667ZM34 30.6667H39V34H34V30.6667Z" fill="#008444"/>
<path d="M27.6667 38C27.0478 38 26.4543 37.7542 26.0168 37.3166C25.5792 36.879 25.3333 36.2855 25.3333 35.6667C25.3333 35.0478 25.5792 34.4543 26.0168 34.0168C26.4543 33.5792 27.0478 33.3333 27.6667 33.3333C28.2855 33.3333 28.879 33.5792 29.3166 34.0168C29.7542 34.4543 30 35.0478 30 35.6667C30 36.2855 29.7542 36.879 29.3166 37.3166C28.879 37.7542 28.2855 38 27.6667 38ZM27.6667 36.6667C27.9319 36.6667 28.1862 36.5613 28.3738 36.3738C28.5613 36.1862 28.6667 35.9319 28.6667 35.6667C28.6667 35.4015 28.5613 35.1471 28.3738 34.9596C28.1862 34.772 27.9319 34.6667 27.6667 34.6667C27.4015 34.6667 27.1471 34.772 26.9596 34.9596C26.772 35.1471 26.6667 35.4015 26.6667 35.6667C26.6667 35.9319 26.772 36.1862 26.9596 36.3738C27.1471 36.5613 27.4015 36.6667 27.6667 36.6667ZM20.3333 30.6667C20.0269 30.6667 19.7235 30.6063 19.4404 30.4891C19.1573 30.3718 18.9001 30.1999 18.6834 29.9832C18.4667 29.7666 18.2949 29.5094 18.1776 29.2263C18.0604 28.9432 18 28.6398 18 28.3333C18 28.0269 18.0604 27.7235 18.1776 27.4404C18.2949 27.1573 18.4667 26.9001 18.6834 26.6834C18.9001 26.4667 19.1573 26.2949 19.4404 26.1776C19.7235 26.0604 20.0269 26 20.3333 26C20.9522 26 21.5457 26.2458 21.9832 26.6834C22.4208 27.121 22.6667 27.7145 22.6667 28.3333C22.6667 28.9522 22.4208 29.5457 21.9832 29.9832C21.5457 30.4208 20.9522 30.6667 20.3333 30.6667ZM20.3333 29.3333C20.5985 29.3333 20.8529 29.228 21.0404 29.0404C21.228 28.8529 21.3333 28.5985 21.3333 28.3333C21.3333 28.0681 21.228 27.8138 21.0404 27.6262C20.8529 27.4387 20.5985 27.3333 20.3333 27.3333C20.0681 27.3333 19.8138 27.4387 19.6262 27.6262C19.4387 27.8138 19.3333 28.0681 19.3333 28.3333C19.3333 28.5985 19.4387 28.8529 19.6262 29.0404C19.8138 29.228 20.0681 29.3333 20.3333 29.3333ZM28.714 26.3433L29.6567 27.286L19.2867 37.6567L18.344 36.714L28.7133 26.3433H28.714Z" fill="#008444"/>
</svg>
