<svg width="58" height="58" viewBox="0 0 58 58" fill="none" xmlns="http://www.w3.org/2000/svg">
<rect width="58" height="58" rx="8" fill="#C3E9D0"/>
<path d="M14 39.8333V17.3333C14 16.0072 14.5268 14.7354 15.4645 13.7977C16.4021 12.86 17.6739 12.3333 19 12.3333H42.3333C42.7754 12.3333 43.1993 12.5088 43.5118 12.8214C43.8244 13.134 44 13.5579 44 13.9999V43.9999C44 44.4419 43.8244 44.8659 43.5118 45.1784C43.1993 45.491 42.7754 45.6666 42.3333 45.6666H19.8333C18.2862 45.6666 16.8025 45.052 15.7085 43.958C14.6146 42.8641 14 41.3804 14 39.8333ZM40.6667 42.3333V37.3333H19.8333C19.1703 37.3333 18.5344 37.5966 18.0656 38.0655C17.5967 38.5343 17.3333 39.1702 17.3333 39.8333C17.3333 40.4963 17.5967 41.1322 18.0656 41.601C18.5344 42.0699 19.1703 42.3333 19.8333 42.3333H40.6667ZM17.3333 34.5616C18.1145 34.1906 18.9686 33.9988 19.8333 33.9999H40.6667V15.6666H19C18.558 15.6666 18.134 15.8422 17.8215 16.1547C17.5089 16.4673 17.3333 16.8912 17.3333 17.3333V34.5616Z" fill="#008444"/>
</svg>
